<svg width="48" height="34" viewBox="0 0 48 34" fill="none" xmlns="http://www.w3.org/2000/svg">
<path d="M3.97152 33.3309C4.65051 33.6521 5.36525 33.8128 6.11572 33.8128C7.36651 33.8128 8.61729 33.2416 9.86808 32.0994C11.1189 30.9571 12.316 29.4936 13.4596 27.7088C14.6032 25.8883 15.6574 23.9607 16.6223 21.926C17.6229 19.8913 18.4985 17.9816 19.249 16.1968C19.7135 15.1259 20.2139 13.8766 20.7499 12.4487C21.286 11.0209 21.7863 9.70016 22.2509 8.4865C22.4295 8.02245 22.6261 7.86182 22.8405 8.00461C23.0907 8.14739 23.18 8.46865 23.1085 8.9684C22.9299 10.2891 22.7512 11.7348 22.5725 13.3055C22.3938 14.8761 22.2151 16.4645 22.0364 18.0709C21.8935 19.6415 21.7684 21.105 21.6612 22.4615C21.554 23.7822 21.5004 24.8709 21.5004 25.7276C21.5004 28.0122 22.1615 29.8327 23.4838 31.1891C24.8418 32.5099 26.7716 33.1702 29.2731 33.1702C30.4882 33.1702 31.7926 32.5456 33.1863 31.2962C34.58 30.0468 36.0274 28.2977 37.5283 26.0489C39.0293 23.8001 40.5302 21.1586 42.0311 18.1244C43.5678 15.0545 45.0509 11.717 46.4804 8.11169C46.6333 7.75523 46.7579 7.18553 46.8167 6.88815C46.8424 6.75827 46.8711 6.62916 46.9063 6.50153C47.1984 5.44342 47.0435 4.30662 46.4828 3.36262C46.0638 2.65704 45.4333 2.02983 44.6121 2.0195C43.4138 2.00442 41.7995 2.59284 40.5302 4.84552C39.601 6.66601 38.654 8.59359 37.6891 10.6283C36.76 12.6272 35.8487 14.5727 34.9553 16.4645C34.0618 18.3564 33.2042 20.0698 32.3822 21.6048C31.596 23.1397 30.8813 24.3712 30.238 25.2993C29.6305 26.1917 29.1302 26.6379 28.7371 26.6379C28.5584 26.6379 28.4512 26.4594 28.4154 26.1024C28.3797 25.7098 28.3618 25.3171 28.3618 24.9245V24.6568C28.3618 24.157 28.4154 23.3003 28.5227 22.0866C28.6656 20.873 28.8264 19.4987 29.0051 17.9638C29.1838 16.3932 29.3625 14.8404 29.5412 13.3055C29.7198 11.7348 29.8628 10.3427 29.97 9.12903C30.1129 7.87967 30.1844 6.98727 30.1844 6.45183C30.1844 5.05969 29.8985 3.89957 29.3267 2.97148C28.7549 2.04339 28.0223 1.34731 27.1289 0.883265C26.2712 0.419218 25.3957 0.187195 24.5023 0.187195C23.5016 0.187195 22.4117 0.544155 21.2324 1.25807C20.053 1.97199 19.0345 2.98933 18.1769 4.31008C17.1762 5.845 16.1756 7.5941 15.175 9.55738C14.2101 11.485 13.2809 13.4482 12.3875 15.4472C11.5298 17.4462 10.7258 19.3024 9.97529 21.0158C9.26055 22.6935 8.65303 24.0499 8.15271 25.0851C7.6524 26.1203 7.29503 26.6379 7.08061 26.6379C6.93766 26.6379 6.83046 26.5308 6.75898 26.3166C6.68751 26.0668 6.65177 25.8169 6.65177 25.567C6.65177 25.3802 6.65402 25.1883 6.65852 24.9913C6.72496 22.0838 7.11349 18.765 4.26733 18.1518C1.63379 17.5843 0.318818 21.972 0.519648 24.6556C0.599589 25.7238 0.713847 26.6701 0.86242 27.4946C1.18405 29.2437 1.61289 30.5644 2.14894 31.4568C2.68499 32.3849 3.29252 33.0096 3.97152 33.3309Z" fill="url(#paint0_linear_6584_8316)"/>
<circle cx="3.67668" cy="11.717" r="3.67668" fill="url(#paint1_linear_6584_8316)"/>
<defs>
<linearGradient id="paint0_linear_6584_8316" x1="0.499634" y1="0.187195" x2="50.4326" y2="6.33161" gradientUnits="userSpaceOnUse">
<stop stop-color="#32CD32"/>
<stop offset="1" stop-color="#2ECC71"/>
</linearGradient>
<linearGradient id="paint1_linear_6584_8316" x1="0" y1="8.04034" x2="7.9442" y2="8.74647" gradientUnits="userSpaceOnUse">
<stop stop-color="#32CD32"/>
<stop offset="1" stop-color="#2ECC71"/>
</linearGradient>
</defs>
</svg>
