<svg xmlns="http://www.w3.org/2000/svg" width="1143" height="330" viewBox="0 0 1143 330"><rect width="100%" height="100%" fill="#ffffff"/><path fill="#333" d="M277.27 201.04h17.42v12.4h-53.6v-12.4h19.63v-56.48q0-3.35.2-6.9l-13.93 11.66q-1.21.94-2.38 1.17-1.17.24-2.21.04-1.04-.2-1.84-.71-.81-.5-1.21-1.1l-5.23-7.17 29.55-25.13h13.6v84.62Zm77.72 0h17.42v12.4h-53.6v-12.4h19.63v-56.48q0-3.35.2-6.9l-13.93 11.66q-1.21.94-2.38 1.17-1.17.24-2.21.04-1.04-.2-1.84-.71-.81-.5-1.21-1.1l-5.23-7.17 29.55-25.13h13.6v84.62Zm44.02-24.12h29.48v-31.69q0-4.49.6-9.91l-30.08 41.6Zm43.89 0h12.19v9.59q0 1.34-.87 2.31t-2.48.97h-8.84v23.65h-14.41v-23.65h-40.87q-1.67 0-2.95-1.04-1.27-1.04-1.6-2.58l-1.75-8.37 45.9-61.31h15.68v60.43Zm31.55-31.82-8.71-1.54q1.01-6.97 3.89-12.23 2.88-5.26 7.2-8.78 4.32-3.51 9.92-5.29 5.59-1.77 12.02-1.77 6.7 0 12.1 1.91 5.39 1.9 9.21 5.29 3.82 3.38 5.86 7.94 2.05 4.55 2.05 9.85 0 4.62-1.04 8.14-1.04 3.51-2.98 6.13-1.95 2.61-4.83 4.42t-6.5 3.01q8.71 2.75 13 8.38 4.29 5.63 4.29 14.14 0 7.23-2.68 12.79-2.68 5.57-7.24 9.35-4.55 3.79-10.55 5.73-6 1.94-12.7 1.94-7.3 0-12.73-1.67-5.42-1.68-9.44-4.96-4.02-3.28-6.84-8.04-2.81-4.76-4.82-10.99l7.3-3.01q2.88-1.21 5.4-.64 2.51.57 3.65 2.71 1.2 2.35 2.64 4.63 1.44 2.27 3.45 4.05 2.01 1.77 4.73 2.88 2.71 1.11 6.46 1.11 4.22 0 7.37-1.38 3.15-1.37 5.26-3.58t3.15-4.93q1.04-2.71 1.04-5.46 0-3.48-.74-6.33-.73-2.85-3.08-4.86-2.34-2.01-6.73-3.15-4.39-1.13-11.76-1.13v-11.8q6.1-.06 10.12-1.14 4.02-1.07 6.4-2.98 2.37-1.91 3.31-4.59.94-2.68.94-5.89 0-6.84-3.82-10.39-3.82-3.55-10.18-3.55-2.95 0-5.43.84-2.48.84-4.46 2.34-1.97 1.51-3.31 3.52t-2.01 4.42q-1.14 3.09-2.98 4.09-1.85 1.01-5.2.47Zm164.82 46.16-8.77 8.65-22.72-22.72-22.91 22.85-8.78-8.64 22.92-22.98-21.85-21.85 8.71-8.71 21.85 21.85 21.7-21.71 8.85 8.71-21.78 21.77 22.78 22.78Zm55.75-46.16-8.71-1.54q1-6.97 3.88-12.23 2.88-5.26 7.21-8.78 4.32-3.51 9.91-5.29 5.6-1.77 12.03-1.77 6.7 0 12.09 1.91 5.4 1.9 9.21 5.29 3.82 3.38 5.87 7.94 2.04 4.55 2.04 9.85 0 4.62-1.04 8.14-1.04 3.51-2.98 6.13-1.94 2.61-4.82 4.42-2.88 1.81-6.5 3.01 8.71 2.75 13 8.38 4.28 5.63 4.28 14.14 0 7.23-2.68 12.79-2.68 5.57-7.23 9.35-4.56 3.79-10.55 5.73-6 1.94-12.7 1.94-7.3 0-12.73-1.67-5.43-1.68-9.45-4.96-4.02-3.28-6.83-8.04-2.82-4.76-4.83-10.99l7.31-3.01q2.88-1.21 5.39-.64t3.65 2.71q1.21 2.35 2.65 4.63 1.44 2.27 3.45 4.05 2.01 1.77 4.72 2.88 2.72 1.11 6.47 1.11 4.22 0 7.37-1.38 3.15-1.37 5.26-3.58t3.15-4.93q1.03-2.71 1.03-5.46 0-3.48-.73-6.33-.74-2.85-3.08-4.86-2.35-2.01-6.74-3.15-4.39-1.13-11.76-1.13v-11.8q6.1-.06 10.12-1.14 4.02-1.07 6.4-2.98 2.38-1.91 3.32-4.59.93-2.68.93-5.89 0-6.84-3.82-10.39-3.81-3.55-10.18-3.55-2.95 0-5.43.84-2.48.84-4.45 2.34-1.98 1.51-3.32 3.52-1.34 2.01-2.01 4.42-1.14 3.09-2.98 4.09-1.84 1.01-5.19.47Zm77.72 0-8.71-1.54q1-6.97 3.88-12.23 2.88-5.26 7.21-8.78 4.32-3.51 9.91-5.29 5.6-1.77 12.03-1.77 6.7 0 12.09 1.91 5.4 1.9 9.21 5.29 3.82 3.38 5.87 7.94 2.04 4.55 2.04 9.85 0 4.62-1.04 8.14-1.04 3.51-2.98 6.13-1.94 2.61-4.82 4.42-2.88 1.81-6.5 3.01 8.71 2.75 13 8.38 4.28 5.63 4.28 14.14 0 7.23-2.68 12.79-2.68 5.57-7.23 9.35-4.56 3.79-10.55 5.73-6 1.94-12.7 1.94-7.3 0-12.73-1.67-5.43-1.68-9.45-4.96-4.02-3.28-6.83-8.04-2.82-4.76-4.83-10.99l7.31-3.01q2.88-1.21 5.39-.64t3.65 2.71q1.21 2.35 2.65 4.63 1.44 2.27 3.45 4.05 2.01 1.77 4.72 2.88 2.72 1.11 6.47 1.11 4.22 0 7.37-1.38 3.15-1.37 5.26-3.58t3.15-4.93q1.03-2.71 1.03-5.46 0-3.48-.73-6.33-.74-2.85-3.08-4.86-2.35-2.01-6.74-3.15-4.39-1.13-11.76-1.13v-11.8q6.1-.06 10.12-1.14 4.02-1.07 6.4-2.98 2.38-1.91 3.32-4.59.93-2.68.93-5.89 0-6.84-3.82-10.39-3.81-3.55-10.18-3.55-2.95 0-5.43.84-2.48.84-4.45 2.34-1.98 1.51-3.32 3.52-1.34 2.01-2.01 4.42-1.14 3.09-2.98 4.09-1.84 1.01-5.19.47ZM908.88 165q0 12.66-2.71 22.01-2.72 9.34-7.51 15.44-4.79 6.1-11.32 9.08-6.53 2.98-14.1 2.98-7.57 0-14.04-2.98-6.46-2.98-11.22-9.08-4.76-6.1-7.44-15.44-2.68-9.35-2.68-22.01 0-12.73 2.68-22.04 2.68-9.32 7.44-15.41 4.76-6.1 11.22-9.08 6.47-2.98 14.04-2.98 7.57 0 14.1 2.98 6.53 2.98 11.32 9.08 4.79 6.09 7.51 15.41 2.71 9.31 2.71 22.04Zm-17.08 0q0-10.52-1.54-17.42-1.55-6.9-4.12-10.99-2.58-4.09-5.93-5.73-3.35-1.64-6.97-1.64-3.55 0-6.87 1.64-3.32 1.64-5.86 5.73-2.55 4.09-4.06 10.99-1.5 6.9-1.5 17.42 0 10.52 1.5 17.42 1.51 6.9 4.06 10.99 2.54 4.08 5.86 5.73 3.32 1.64 6.87 1.64 3.62 0 6.97-1.64 3.35-1.65 5.93-5.73 2.57-4.09 4.12-10.99 1.54-6.9 1.54-17.42Z"/></svg>