<svg width="55" height="63" viewBox="0 0 55 63" fill="none" xmlns="http://www.w3.org/2000/svg">
<path fill-rule="evenodd" clip-rule="evenodd" d="M13.5739 39.5215C20.8395 52.1058 30.9149 59.8828 36.0732 56.9047C41.2316 53.9265 39.5169 41.3224 32.2513 28.7381C24.9858 16.1538 14.9377 8.38411 9.77933 11.3623C4.62098 14.3405 6.31838 26.9545 13.5739 39.5215Z" fill="url(#paint0_linear_6982_15861)"/>
<path d="M9.76202 11.3723L19.1094 5.97559L45.4033 51.518L36.0559 56.9147L9.76202 11.3723Z" fill="url(#paint1_linear_6982_15861)"/>
<path fill-rule="evenodd" clip-rule="evenodd" d="M22.9196 34.1248C30.1852 46.7091 40.2433 54.4961 45.4016 51.5179C50.56 48.5397 48.8626 35.9257 41.597 23.3414C34.3315 10.7571 24.2661 2.99738 19.1077 5.97555C13.9494 8.95373 15.6641 21.5578 22.9196 34.1248Z" fill="url(#paint2_radial_6982_15861)"/>
<path fill-rule="evenodd" clip-rule="evenodd" d="M16.1694 14.5964L6.83939 19.9831C7.11838 24.1254 8.11983 28.187 9.79845 31.9842L19.1977 26.5575C17.6917 22.7129 16.6743 18.6945 16.1694 14.5964Z" fill="#FFB302"/>
<g style="mix-blend-mode:soft-light">
<path fill-rule="evenodd" clip-rule="evenodd" d="M43.036 25.8339L16.1685 14.5963C16.5968 18.7084 17.6167 22.737 19.1968 26.5574L46.0648 32.8787C45.2247 30.4611 44.2125 28.1068 43.036 25.8339Z" fill="#FFE802"/>
</g>
<path fill-rule="evenodd" clip-rule="evenodd" d="M27.8533 31.2766C32.1007 38.6333 37.6665 43.6364 41.199 43.5587C41.7054 43.5627 42.204 43.434 42.6452 43.1853C45.934 41.2865 44.5849 32.8334 39.7279 24.4208C34.8709 16.0082 28.2349 10.6306 24.946 12.5295C24.5139 12.7879 24.1513 13.1478 23.8896 13.5779C22.066 16.6156 23.6059 23.9199 27.8533 31.2766Z" fill="url(#paint3_linear_6982_15861)"/>
<path fill-rule="evenodd" clip-rule="evenodd" d="M27.8511 31.2764C32.0985 38.6331 37.6643 43.6362 41.1968 43.5585C43.0577 40.5454 41.5078 33.2238 37.2504 25.8498C32.993 18.4757 27.4372 13.49 23.8874 13.5777C22.0638 16.6154 23.6037 23.9197 27.8511 31.2764Z" fill="url(#paint4_linear_6982_15861)"/>
<path fill-rule="evenodd" clip-rule="evenodd" d="M40.5805 51.7626L31.1466 57.2093C32.14 57.5168 33.1839 57.6275 34.2198 57.5352L43.7229 52.0486C43.7229 52.0486 41.6521 52.4594 40.5805 51.7626Z" fill="#FFB302"/>
<defs>
<linearGradient id="paint0_linear_6982_15861" x1="36.0732" y1="56.9047" x2="9.77933" y2="11.3623" gradientUnits="userSpaceOnUse">
<stop offset="0.06" stop-color="#F66D33"/>
<stop offset="0.37" stop-color="#F87327"/>
<stop offset="0.94" stop-color="#FE8406"/>
<stop offset="1" stop-color="#FF8602"/>
</linearGradient>
<linearGradient id="paint1_linear_6982_15861" x1="40.7469" y1="54.2063" x2="14.453" y2="8.66394" gradientUnits="userSpaceOnUse">
<stop offset="0.06" stop-color="#F66D33"/>
<stop offset="0.37" stop-color="#F87327"/>
<stop offset="0.94" stop-color="#FE8406"/>
<stop offset="1" stop-color="#FF8602"/>
</linearGradient>
<radialGradient id="paint2_radial_6982_15861" cx="0" cy="0" r="1" gradientUnits="userSpaceOnUse" gradientTransform="translate(31.2508 43.2781) rotate(150) scale(20.0877)">
<stop offset="0.06" stop-color="#F68633"/>
<stop offset="0.37" stop-color="#F8923A"/>
<stop offset="0.93" stop-color="#FEB34C"/>
<stop offset="1" stop-color="#FFB84F"/>
</radialGradient>
<linearGradient id="paint3_linear_6982_15861" x1="42.6452" y1="43.1853" x2="24.946" y2="12.5295" gradientUnits="userSpaceOnUse">
<stop offset="0.06" stop-color="#DD5733"/>
<stop offset="0.37" stop-color="#E66027"/>
<stop offset="0.94" stop-color="#FC7606"/>
<stop offset="1" stop-color="#FF7902"/>
</linearGradient>
<linearGradient id="paint4_linear_6982_15861" x1="41.2141" y1="43.5485" x2="23.9047" y2="13.5677" gradientUnits="userSpaceOnUse">
<stop offset="0.06" stop-color="#F66D33"/>
<stop offset="0.37" stop-color="#F87327"/>
<stop offset="0.94" stop-color="#FE8406"/>
<stop offset="1" stop-color="#FF8602"/>
</linearGradient>
</defs>
</svg>
