<svg width="28" height="31" viewBox="0 0 28 31" fill="none" xmlns="http://www.w3.org/2000/svg">
<path fill-rule="evenodd" clip-rule="evenodd" d="M20.6024 19.4832C16.9674 25.7792 11.9266 29.6701 9.34588 28.1801C6.76513 26.6901 7.62301 20.3842 11.258 14.0882C14.893 7.79218 19.9201 3.90495 22.5009 5.39495C25.0816 6.88495 24.2324 13.1958 20.6024 19.4832Z" fill="url(#paint0_linear_6982_15841)"/>
<path d="M22.5095 5.39995L17.833 2.69995L4.67801 25.4851L9.35455 28.1851L22.5095 5.39995Z" fill="url(#paint1_linear_6982_15841)"/>
<path fill-rule="evenodd" clip-rule="evenodd" d="M15.9257 16.7832C12.2907 23.0792 7.25854 26.9751 4.67779 25.4851C2.09703 23.9951 2.94625 17.6842 6.58125 11.3882C10.2163 5.09223 15.252 1.21 17.8328 2.7C20.4135 4.19 19.5557 10.4959 15.9257 16.7832Z" fill="url(#paint2_radial_6982_15841)"/>
<path fill-rule="evenodd" clip-rule="evenodd" d="M19.3032 7.01318L23.9711 9.70818C23.8315 11.7806 23.3305 13.8126 22.4907 15.7124L17.7881 12.9974C18.5416 11.0739 19.0506 9.06346 19.3032 7.01318Z" fill="#FFB302"/>
<g style="mix-blend-mode:soft-light">
<path fill-rule="evenodd" clip-rule="evenodd" d="M5.86125 12.6354L19.3033 7.01314C19.089 9.07042 18.5787 11.086 17.7882 12.9973L4.34596 16.1599C4.76624 14.9504 5.27263 13.7725 5.86125 12.6354Z" fill="#FFE802"/>
</g>
<path fill-rule="evenodd" clip-rule="evenodd" d="M13.4573 15.3582C11.3323 19.0388 8.54775 21.5419 6.78041 21.503C6.52706 21.505 6.27759 21.4406 6.05687 21.3162C4.41143 20.3662 5.08641 16.1371 7.51641 11.9282C9.94641 7.71936 13.2664 5.02892 14.9119 5.97892C15.1281 6.10822 15.3095 6.28826 15.4404 6.50346C16.3528 8.02324 15.5823 11.6776 13.4573 15.3582Z" fill="url(#paint3_linear_6982_15841)"/>
<path fill-rule="evenodd" clip-rule="evenodd" d="M13.4575 15.3583C11.3325 19.0389 8.54789 21.542 6.78055 21.5031C5.84955 19.9957 6.62496 16.3326 8.75496 12.6433C10.885 8.95407 13.6646 6.45968 15.4406 6.50355C16.3529 8.02334 15.5825 11.6777 13.4575 15.3583Z" fill="url(#paint4_linear_6982_15841)"/>
<path fill-rule="evenodd" clip-rule="evenodd" d="M7.08983 25.6074L11.8097 28.3324C11.3126 28.4862 10.7904 28.5416 10.2721 28.4955L5.51766 25.7505C5.51766 25.7505 6.55368 25.956 7.08983 25.6074Z" fill="#FFB302"/>
<defs>
<linearGradient id="paint0_linear_6982_15841" x1="9.34589" y1="28.1801" x2="22.5009" y2="5.39495" gradientUnits="userSpaceOnUse">
<stop offset="0.06" stop-color="#F66D33"/>
<stop offset="0.37" stop-color="#F87327"/>
<stop offset="0.94" stop-color="#FE8406"/>
<stop offset="1" stop-color="#FF8602"/>
</linearGradient>
<linearGradient id="paint1_linear_6982_15841" x1="7.00762" y1="26.8301" x2="20.1626" y2="4.04495" gradientUnits="userSpaceOnUse">
<stop offset="0.06" stop-color="#F66D33"/>
<stop offset="0.37" stop-color="#F87327"/>
<stop offset="0.94" stop-color="#FE8406"/>
<stop offset="1" stop-color="#FF8602"/>
</linearGradient>
<radialGradient id="paint2_radial_6982_15841" cx="0" cy="0" r="1" gradientUnits="userSpaceOnUse" gradientTransform="translate(11.7575 21.3627) rotate(30) scale(10.05)">
<stop offset="0.06" stop-color="#F68633"/>
<stop offset="0.37" stop-color="#F8923A"/>
<stop offset="0.93" stop-color="#FEB34C"/>
<stop offset="1" stop-color="#FFB84F"/>
</radialGradient>
<linearGradient id="paint3_linear_6982_15841" x1="6.05687" y1="21.3162" x2="14.9119" y2="5.97892" gradientUnits="userSpaceOnUse">
<stop offset="0.06" stop-color="#DD5733"/>
<stop offset="0.37" stop-color="#E66027"/>
<stop offset="0.94" stop-color="#FC7606"/>
<stop offset="1" stop-color="#FF7902"/>
</linearGradient>
<linearGradient id="paint4_linear_6982_15841" x1="6.77189" y1="21.4981" x2="15.4319" y2="6.49855" gradientUnits="userSpaceOnUse">
<stop offset="0.06" stop-color="#F66D33"/>
<stop offset="0.37" stop-color="#F87327"/>
<stop offset="0.94" stop-color="#FE8406"/>
<stop offset="1" stop-color="#FF8602"/>
</linearGradient>
</defs>
</svg>
