<svg width="28" height="31" viewBox="0 0 28 31" fill="none" xmlns="http://www.w3.org/2000/svg">
<path fill-rule="evenodd" clip-rule="evenodd" d="M20.6005 19.4832C16.9655 25.7792 11.9247 29.6701 9.34393 28.1801C6.76318 26.6901 7.62105 20.3842 11.2561 14.0882C14.8911 7.79218 19.9182 3.90495 22.4989 5.39495C25.0797 6.88495 24.2305 13.1958 20.6005 19.4832Z" fill="url(#paint0_linear_6982_15821)"/>
<path d="M22.5076 5.39995L17.8311 2.69995L4.67605 25.4851L9.35259 28.1851L22.5076 5.39995Z" fill="url(#paint1_linear_6982_15821)"/>
<path fill-rule="evenodd" clip-rule="evenodd" d="M15.9237 16.7832C12.2887 23.0792 7.25659 26.9751 4.67583 25.4851C2.09508 23.9951 2.9443 17.6842 6.5793 11.3882C10.2143 5.09223 15.2501 1.21 17.8308 2.7C20.4116 4.19 19.5537 10.4959 15.9237 16.7832Z" fill="url(#paint2_radial_6982_15821)"/>
<path fill-rule="evenodd" clip-rule="evenodd" d="M19.3013 7.01318L23.9691 9.70818C23.8296 11.7806 23.3285 13.8126 22.4887 15.7124L17.7862 12.9974C18.5397 11.0739 19.0487 9.06346 19.3013 7.01318Z" fill="#FFB302"/>
<g style="mix-blend-mode:soft-light">
<path fill-rule="evenodd" clip-rule="evenodd" d="M5.8593 12.6354L19.3013 7.01314C19.087 9.07042 18.5767 11.086 17.7862 12.9973L4.34401 16.1599C4.76429 14.9504 5.27068 13.7725 5.8593 12.6354Z" fill="#FFE802"/>
</g>
<path fill-rule="evenodd" clip-rule="evenodd" d="M13.4554 15.3582C11.3304 19.0388 8.5458 21.5419 6.77846 21.503C6.5251 21.505 6.27564 21.4406 6.05492 21.3162C4.40947 20.3662 5.08445 16.1371 7.51445 11.9282C9.94445 7.71936 13.2645 5.02892 14.9099 5.97892C15.1261 6.10822 15.3075 6.28826 15.4385 6.50346C16.3508 8.02324 15.5804 11.6776 13.4554 15.3582Z" fill="url(#paint3_linear_6982_15821)"/>
<path fill-rule="evenodd" clip-rule="evenodd" d="M13.4555 15.3583C11.3305 19.0389 8.54594 21.542 6.7786 21.5031C5.8476 19.9957 6.62301 16.3326 8.75301 12.6433C10.883 8.95407 13.6626 6.45968 15.4386 6.50355C16.3509 8.02334 15.5805 11.6777 13.4555 15.3583Z" fill="url(#paint4_linear_6982_15821)"/>
<path fill-rule="evenodd" clip-rule="evenodd" d="M7.08788 25.6074L11.8077 28.3324C11.3107 28.4862 10.7884 28.5416 10.2702 28.4955L5.5157 25.7505C5.5157 25.7505 6.55173 25.956 7.08788 25.6074Z" fill="#FFB302"/>
<defs>
<linearGradient id="paint0_linear_6982_15821" x1="9.34393" y1="28.1801" x2="22.4989" y2="5.39495" gradientUnits="userSpaceOnUse">
<stop offset="0.06" stop-color="#F66D33"/>
<stop offset="0.37" stop-color="#F87327"/>
<stop offset="0.94" stop-color="#FE8406"/>
<stop offset="1" stop-color="#FF8602"/>
</linearGradient>
<linearGradient id="paint1_linear_6982_15821" x1="7.00566" y1="26.8301" x2="20.1607" y2="4.04495" gradientUnits="userSpaceOnUse">
<stop offset="0.06" stop-color="#F66D33"/>
<stop offset="0.37" stop-color="#F87327"/>
<stop offset="0.94" stop-color="#FE8406"/>
<stop offset="1" stop-color="#FF8602"/>
</linearGradient>
<radialGradient id="paint2_radial_6982_15821" cx="0" cy="0" r="1" gradientUnits="userSpaceOnUse" gradientTransform="translate(11.7556 21.3627) rotate(30) scale(10.05)">
<stop offset="0.06" stop-color="#F68633"/>
<stop offset="0.37" stop-color="#F8923A"/>
<stop offset="0.93" stop-color="#FEB34C"/>
<stop offset="1" stop-color="#FFB84F"/>
</radialGradient>
<linearGradient id="paint3_linear_6982_15821" x1="6.05492" y1="21.3162" x2="14.9099" y2="5.97892" gradientUnits="userSpaceOnUse">
<stop offset="0.06" stop-color="#DD5733"/>
<stop offset="0.37" stop-color="#E66027"/>
<stop offset="0.94" stop-color="#FC7606"/>
<stop offset="1" stop-color="#FF7902"/>
</linearGradient>
<linearGradient id="paint4_linear_6982_15821" x1="6.76994" y1="21.4981" x2="15.4299" y2="6.49855" gradientUnits="userSpaceOnUse">
<stop offset="0.06" stop-color="#F66D33"/>
<stop offset="0.37" stop-color="#F87327"/>
<stop offset="0.94" stop-color="#FE8406"/>
<stop offset="1" stop-color="#FF8602"/>
</linearGradient>
</defs>
</svg>
