<svg width="78" height="101" viewBox="0 0 78 101" fill="none" xmlns="http://www.w3.org/2000/svg">
<path fill-rule="evenodd" clip-rule="evenodd" d="M32.8976 17.4859L7.65821 38.8908L4.09227 44.0059L4.24467 47.2556L4.78331 54.0184L4.00628 55.8435L8.03707 74.159L14.8021 95.6243C16.6302 95.3755 18.4877 95.7702 20.0527 96.74L25.0552 97.8579C26.1729 97.5565 27.3612 97.6553 28.4122 98.1371L33.5685 98.2906L35.4533 97.0121L36.7065 96.4891L37.2555 95.1407L39.1238 94.9919L42.7597 91.4228L43.3763 90.0337L44.6249 89.229L45.3284 84.2538L49.2754 76.1287L55.2895 57.8771L56.9815 55.2916L68.4187 20.7221L67.4854 18.804L70.2641 9.14986L67.0857 0.199363L59.0744 2.28322L36.7507 14.6401L32.8976 17.4859Z" fill="url(#paint0_radial_5815_59720)"/>
<path style="mix-blend-mode:multiply" fill-rule="evenodd" clip-rule="evenodd" d="M67.5559 18.7984L44.1007 74.4073L48.8531 71.0491L50.1455 73.4675L55.2867 57.842L56.9787 55.2565L68.3806 20.6898L67.5559 18.7984Z" fill="url(#paint1_radial_5815_59720)"/>
<path style="mix-blend-mode:multiply" fill-rule="evenodd" clip-rule="evenodd" d="M44.1006 74.4074L39.7546 79.9724L37.7295 84.6121L36.8822 85.332L33.72 91.508L33.5684 98.2906L35.4533 97.0121L36.7065 96.4891L37.2554 95.1407L39.121 94.9568L42.7569 91.3878L43.3735 89.9987L44.622 89.194L45.3255 84.2187L49.2726 76.0936L50.1454 73.4675L48.8531 71.0491L44.1006 74.4074Z" fill="url(#paint2_radial_5815_59720)"/>
<path style="mix-blend-mode:screen" fill-rule="evenodd" clip-rule="evenodd" d="M8.03703 74.159L23.1353 55.7128L21.3757 48.7651L37.2369 30.0995L32.8975 17.486L7.66883 38.8019L4.09503 44.041L4.24743 47.2907L4.87419 54.0465L4.09857 55.8891L8.03703 74.159Z" fill="url(#paint3_radial_5815_59720)"/>
<path style="mix-blend-mode:screen" fill-rule="evenodd" clip-rule="evenodd" d="M32.8975 17.4859L37.2369 30.0995L42.6736 25.3115L61.1828 3.36708L59.0905 2.26425L36.7682 14.6387L32.8975 17.4859Z" fill="url(#paint4_radial_5815_59720)"/>
<path style="mix-blend-mode:screen" fill-rule="evenodd" clip-rule="evenodd" d="M21.3758 48.7651L37.3369 41.3757L23.1354 55.7128L21.3758 48.7651Z" fill="url(#paint5_radial_5815_59720)"/>
<path style="mix-blend-mode:multiply" fill-rule="evenodd" clip-rule="evenodd" d="M23.1353 55.7128L41.07 60.6317L46.6534 43.2079L46.1679 42.0123L39.5363 40.7069L37.3368 41.3757L23.1353 55.7128Z" fill="url(#paint6_radial_5815_59720)"/>
<path style="mix-blend-mode:multiply" fill-rule="evenodd" clip-rule="evenodd" d="M32.6329 79.6404L33.9282 84.5446L38.199 76.2527L43.623 62.1739L46.8933 43.7706L46.6534 43.2078L41.07 60.6317L32.6329 79.6404Z" fill="url(#paint7_radial_5815_59720)"/>
<path style="mix-blend-mode:multiply" fill-rule="evenodd" clip-rule="evenodd" d="M33.9283 84.5446L32.633 79.6404L29.9186 79.8566L17.5593 95.722C18.4419 95.9207 19.2847 96.2648 20.0528 96.74L25.0553 97.8579C25.7363 97.6987 26.4375 97.6428 27.1352 97.6922L33.9255 84.5096L33.9283 84.5446Z" fill="url(#paint8_radial_5815_59720)"/>
<path opacity="0.5" fill-rule="evenodd" clip-rule="evenodd" d="M65.3145 3.79616L67.0856 0.199314L59.0906 2.26424L61.1828 3.36707L65.3145 3.79616Z" fill="#FFE9EF"/>
<path style="mix-blend-mode:multiply" fill-rule="evenodd" clip-rule="evenodd" d="M67.0857 0.199334L65.3145 3.79618L70.317 9.14562L67.0857 0.199334Z" fill="url(#paint9_radial_5815_59720)"/>
<path style="mix-blend-mode:screen" fill-rule="evenodd" clip-rule="evenodd" d="M70.3171 9.14565L65.3146 3.7962L61.1829 3.36712L42.6738 25.3115L63.6023 28.1759L67.556 18.7984L70.3171 9.14565Z" fill="url(#paint10_radial_5815_59720)"/>
<path style="mix-blend-mode:screen" fill-rule="evenodd" clip-rule="evenodd" d="M59.2577 2.35676L60.3075 3.06656C60.4438 3.16065 60.5567 3.28429 60.6379 3.42815C60.61 3.5919 60.5361 3.74451 60.4246 3.86829L46.239 21.0781L60.5398 4.42333C60.7491 4.17575 61.0117 3.97795 61.308 3.8445C61.6044 3.71105 61.927 3.64534 62.2522 3.65221L64.654 3.74301C62.7855 3.58578 60.9539 3.13664 59.2266 2.41213L59.2577 2.35676Z" fill="url(#paint11_radial_5815_59720)"/>
<path style="mix-blend-mode:screen" fill-rule="evenodd" clip-rule="evenodd" d="M39.4455 91.4576L39.0654 90.6945L37.2555 95.1407L39.1211 94.9568L39.4455 91.4576Z" fill="url(#paint12_radial_5815_59720)"/>
<path style="mix-blend-mode:screen" fill-rule="evenodd" clip-rule="evenodd" d="M43.3736 89.9987L44.6221 89.194L45.3256 84.2187L44.1631 85.8805L43.3736 89.9987Z" fill="url(#paint13_radial_5815_59720)"/>
<path style="mix-blend-mode:multiply" fill-rule="evenodd" clip-rule="evenodd" d="M35.4534 97.0121C35.6593 92.7977 36.4246 88.6282 37.7296 84.6122L36.8823 85.332L33.7201 91.5081L33.5685 98.2906L35.4534 97.0121Z" fill="url(#paint14_radial_5815_59720)"/>
<path style="mix-blend-mode:screen" fill-rule="evenodd" clip-rule="evenodd" d="M20.2323 28.1744C19.3073 28.776 18.5318 29.5789 17.9646 30.5221C17.3975 31.4653 17.0535 32.5243 16.9587 33.6188L14.2112 62.5946C13.8627 66.2368 13.5141 67.4283 11.6059 69.7489L23.0675 55.7535L21.3107 48.8408L37.1733 30.1927L32.8975 17.4859L20.2323 28.1744Z" fill="url(#paint15_radial_5815_59720)"/>
<path style="mix-blend-mode:screen" fill-rule="evenodd" clip-rule="evenodd" d="M38.7074 23.6174C36.7076 23.2301 36.42 17.1701 37.699 15.4109C38.2717 14.5367 38.925 13.7174 39.6504 12.9634L36.7627 14.5687L32.8976 17.486L37.237 30.0995L42.6737 25.3115L61.1828 3.36714L59.0744 2.28324L57.9353 2.90291C59.2211 3.01207 59.2465 4.66741 57.9967 6.12458C55.193 9.45103 44.0378 24.621 38.6828 23.5312L38.7074 23.6174Z" fill="url(#paint16_radial_5815_59720)"/>
<path style="mix-blend-mode:screen" fill-rule="evenodd" clip-rule="evenodd" d="M34.1976 31.805C29.1149 39.0332 20.9372 46.1553 18.356 48.9351C17.4874 49.833 18.2362 50.5491 18.6627 51.4496C19.398 52.8928 19.8651 54.4564 20.0414 56.0651C20.0985 58.5642 12.1914 70.196 8.97795 71.0514C8.68557 71.145 8.37381 71.1612 8.07334 71.0986C7.77288 71.0359 7.49408 70.8966 7.26438 70.6942L8.03701 74.159L23.1352 55.7129L21.3785 48.8002L37.2411 30.1521L32.8975 17.486L17.5578 30.4503C21.3483 27.4861 26.7332 23.1606 29.5634 21.9478C30.2078 21.6222 30.9554 21.5627 31.6433 21.7822C34.2254 23.0223 35.8076 29.5257 34.2152 31.8036L34.1976 31.805Z" fill="url(#paint17_radial_5815_59720)"/>
<path style="mix-blend-mode:multiply" fill-rule="evenodd" clip-rule="evenodd" d="M41.0701 60.6317L23.1353 55.7128L8.03709 74.159L14.8021 95.6243C15.721 95.518 16.6506 95.551 17.5593 95.7221L29.9199 79.8742L32.6344 79.658L41.0715 60.6493L41.0701 60.6317Z" fill="url(#paint18_radial_5815_59720)"/>
<path style="mix-blend-mode:screen" fill-rule="evenodd" clip-rule="evenodd" d="M41.0701 60.6317L23.1353 55.7128L8.03709 74.159L14.8021 95.6243C15.721 95.518 16.6506 95.551 17.5593 95.7221L29.9199 79.8742L32.6344 79.658L41.0715 60.6493L41.0701 60.6317Z" fill="url(#paint19_radial_5815_59720)"/>
<path style="mix-blend-mode:screen" fill-rule="evenodd" clip-rule="evenodd" d="M31.641 51.5972C33.4448 48.0113 35.9455 44.8158 38.9985 42.1955C40.4817 41.4111 42.1924 41.1627 43.8383 41.4926L39.5307 40.6368L37.353 41.3568L23.1352 55.7128L41.07 60.6317L42.0518 57.5915C41.8953 57.8277 41.6883 58.0266 41.4455 58.1739C41.2027 58.3213 40.9302 58.4135 40.6474 58.4438C37.5804 58.487 34.5747 57.5941 32.0358 55.8855C31.545 55.3077 31.2487 54.5914 31.1887 53.8372C31.1286 53.083 31.3077 52.3288 31.7009 51.6806L31.641 51.5972Z" fill="url(#paint20_radial_5815_59720)"/>
<path style="mix-blend-mode:screen" fill-rule="evenodd" clip-rule="evenodd" d="M52.1912 27.2158C59.4343 29.0721 58.8844 34.1937 56.8278 39.3296L45.5251 67.3471C42.3871 74.9079 37.89 81.8383 32.254 87.7988L27.1394 97.7448C27.5843 97.8094 28.0151 97.948 28.4137 98.1546L33.57 98.3081L33.7216 91.5256L36.8837 85.3495L37.731 84.6297L39.7533 79.9549L44.0938 74.3198L63.6023 28.1759L43.8743 25.4627C47.102 26.1225 48.9672 26.3794 52.1559 27.2186L52.1912 27.2158Z" fill="url(#paint21_radial_5815_59720)"/>
<path style="mix-blend-mode:screen" opacity="0.5" d="M18.6102 61.2568C25.0936 63.4622 31.7009 65.2908 38.3987 66.7334L37.948 67.7566C35.315 66.7674 21.8919 63.0407 17.8423 62.3054L18.62 61.3795L18.6102 61.2568Z" fill="url(#paint22_radial_5815_59720)"/>
<path style="mix-blend-mode:screen" opacity="0.5" d="M12.8937 68.324C15.6679 69.972 32.4447 74.3837 35.0512 74.37L34.1499 76.4166C26.6907 73.7778 19.0424 71.6994 11.2692 70.1989L12.8041 68.3135L12.8937 68.324Z" fill="url(#paint23_radial_5815_59720)"/>
<path style="mix-blend-mode:screen" opacity="0.5" d="M9.99132 71.7465C17.6148 74.3533 25.397 76.4777 33.2914 78.107L32.691 79.4772C27.2231 77.6383 15.0484 74.2177 8.97296 72.9913L9.99132 71.7465Z" fill="url(#paint24_radial_5815_59720)"/>
<path style="mix-blend-mode:screen" opacity="0.5" d="M37.5509 29.8101C40.9431 31.8672 55.6296 35.4228 60.2906 36.0389L59.125 38.7765C51.4154 35.9184 43.4663 33.7431 35.3704 32.2758C36.1036 31.4593 36.8367 30.6427 37.5509 29.8101Z" fill="url(#paint25_radial_5815_59720)"/>
<path style="mix-blend-mode:screen" opacity="0.5" d="M32.2517 36.1033C40.4662 38.9063 48.8534 41.1829 57.3618 42.9192L56.7791 44.288C52.0084 42.5169 36.7957 38.3685 31.1016 37.2528L32.2475 36.0508L32.2517 36.1033Z" fill="url(#paint26_radial_5815_59720)"/>
<path style="mix-blend-mode:screen" fill-rule="evenodd" clip-rule="evenodd" d="M33.1719 18.2575L36.4681 28.9089C36.5657 29.2459 36.5794 29.6016 36.5078 29.9452C36.4363 30.2888 36.2818 30.61 36.0575 30.8811L25.1696 44.2843C30.2879 38.3932 35.216 32.341 40.833 26.9215L37.971 29.0713C37.83 29.0825 37.5309 29.3356 37.4209 29.2914C37.2764 29.1698 37.176 29.0044 37.1351 28.8205L33.1719 18.2575Z" fill="url(#paint27_radial_5815_59720)"/>
<path style="mix-blend-mode:screen" fill-rule="evenodd" clip-rule="evenodd" d="M10.9948 70.5382L22.2671 56.1699C22.4113 55.976 22.5138 55.7547 22.5683 55.5199C22.6229 55.285 22.6282 55.0416 22.5841 54.8046L21.3819 49.0644L23.0925 54.7289C23.0925 54.7289 23.112 54.9742 23.2735 54.9966C23.4349 55.019 23.485 54.9797 23.5633 54.8501L35.724 42.95L23.9345 55.2789C23.9345 55.2789 23.7722 55.4682 23.7982 55.5719C23.8242 55.6756 23.968 55.6994 24.0589 55.7274L35.7169 59.1187L24.3503 56.2684C24.0404 56.178 23.7103 56.1813 23.402 56.2781C23.0938 56.3749 22.8215 56.5607 22.6198 56.8118L11.0477 70.534L10.9948 70.5382Z" fill="url(#paint28_radial_5815_59720)"/>
<g style="mix-blend-mode:screen">
<path fill-rule="evenodd" clip-rule="evenodd" d="M50.4977 11.0769C50.4711 10.744 50.7666 10.6676 51.0528 10.6976C51.2084 10.7153 51.3509 10.7926 51.45 10.9131C51.5491 11.0336 51.5968 11.1879 51.5831 11.343C51.6027 11.5883 51.2233 11.7243 51.0062 11.6711C50.8622 11.6528 50.7303 11.5817 50.6362 11.4718C50.5422 11.362 50.4928 11.2211 50.4977 11.0769Z" fill="#F40F46"/>
</g>
<g style="mix-blend-mode:screen">
<path fill-rule="evenodd" clip-rule="evenodd" d="M8.58354 46.9452C8.55842 46.6299 8.83626 46.5548 9.13869 46.566C9.28955 46.5916 9.42545 46.6719 9.52014 46.7914C9.61483 46.9108 9.6616 47.061 9.6514 47.2128C9.67094 47.4581 9.29293 47.6116 9.07583 47.5584C8.92951 47.5402 8.79617 47.4659 8.70422 47.3514C8.61227 47.2369 8.56896 47.0911 8.58354 46.9452Z" fill="#F40F46"/>
</g>
<g style="mix-blend-mode:screen">
<path fill-rule="evenodd" clip-rule="evenodd" d="M38.975 23.1905C38.9484 22.8576 39.2439 22.7812 39.5301 22.8113C39.6081 22.8178 39.6839 22.8398 39.7531 22.876C39.8224 22.9122 39.8835 22.9619 39.933 23.0221C39.9825 23.0823 40.0193 23.1518 40.0411 23.2265C40.063 23.3011 40.0696 23.3794 40.0604 23.4567C40.08 23.702 39.7006 23.838 39.4835 23.7847C39.3395 23.7664 39.2076 23.6954 39.1135 23.5855C39.0195 23.4756 38.9701 23.3348 38.975 23.1905Z" fill="#F40F46"/>
</g>
<g style="mix-blend-mode:screen" opacity="0.6">
<path fill-rule="evenodd" clip-rule="evenodd" d="M43.8088 39.7847C43.7823 39.4518 44.0764 39.3579 44.3802 39.3866C44.5404 39.4117 44.6855 39.495 44.7873 39.6205C44.889 39.746 44.9402 39.9046 44.9309 40.0656C44.9519 40.3284 44.5562 40.4834 44.3215 40.4315C44.1688 40.4098 44.0305 40.3305 43.935 40.2101C43.8396 40.0897 43.7944 39.9374 43.8088 39.7847Z" fill="#F40F46"/>
</g>
<g style="mix-blend-mode:screen" opacity="0.6">
<path fill-rule="evenodd" clip-rule="evenodd" d="M23.9915 74.0342C23.9635 73.6838 24.259 73.6074 24.5614 73.6186C24.7281 73.6395 24.8802 73.7233 24.9863 73.8527C25.0924 73.9822 25.1443 74.1472 25.1312 74.3137C25.1508 74.559 24.7375 74.7154 24.5204 74.6621C24.3665 74.6485 24.2244 74.5747 24.1252 74.457C24.0261 74.3393 23.978 74.1873 23.9915 74.0342Z" fill="#F40F46"/>
</g>
<g style="mix-blend-mode:screen" opacity="0.5">
<path fill-rule="evenodd" clip-rule="evenodd" d="M27.1959 47.4552C27.1694 47.1223 27.4634 47.0284 27.7673 47.0571C27.9293 47.0782 28.0768 47.1606 28.1793 47.287C28.2819 47.4134 28.3315 47.5742 28.318 47.7361C28.339 47.9989 27.9433 48.1538 27.7262 48.1006C27.5706 48.083 27.4281 48.0057 27.329 47.8851C27.23 47.7646 27.1822 47.6103 27.1959 47.4552Z" fill="#F40F46"/>
</g>
<g style="mix-blend-mode:screen" opacity="0.5">
<path fill-rule="evenodd" clip-rule="evenodd" d="M36.9399 48.8654C36.912 48.515 37.2075 48.4386 37.5099 48.4498C37.6748 48.4746 37.8245 48.5595 37.9298 48.688C38.0351 48.8165 38.0885 48.9793 38.0797 49.1449C38.0992 49.3902 37.686 49.5465 37.4689 49.4933C37.315 49.4797 37.1729 49.4059 37.0737 49.2882C36.9745 49.1705 36.9264 49.0185 36.9399 48.8654Z" fill="#F40F46"/>
</g>
<g style="mix-blend-mode:screen" opacity="0.5">
<path fill-rule="evenodd" clip-rule="evenodd" d="M51.1819 61.5366C51.1554 61.2037 51.4495 61.1098 51.7533 61.1385C51.9153 61.1597 52.0629 61.242 52.1654 61.3684C52.2679 61.4948 52.3176 61.6556 52.3041 61.8175C52.325 62.0803 51.9294 62.2353 51.6946 62.1834C51.5438 62.1578 51.4079 62.0775 51.3132 61.9581C51.2185 61.8386 51.1717 61.6885 51.1819 61.5366Z" fill="#F40F46"/>
</g>
<g style="mix-blend-mode:screen" opacity="0.5">
<path fill-rule="evenodd" clip-rule="evenodd" d="M53.5756 56.1799C53.5644 56.0398 53.6864 56.0124 53.8112 56.0201C53.8777 56.0313 53.9379 56.0658 53.9811 56.1174C54.0242 56.1689 54.0474 56.2341 54.0464 56.3011C54.0548 56.4062 53.8827 56.4728 53.7918 56.4448C53.7009 56.4168 53.5705 56.339 53.5756 56.1799Z" fill="#F40F46"/>
</g>
<g style="mix-blend-mode:screen">
<path fill-rule="evenodd" clip-rule="evenodd" d="M6.34324 51.7784C6.30556 51.3054 6.72161 51.1841 7.15022 51.2205C7.37109 51.2497 7.57206 51.3624 7.71135 51.5352C7.85064 51.708 7.91755 51.9276 7.89817 52.1483C7.92747 52.5162 7.37739 52.7363 7.06937 52.6551C6.86016 52.6252 6.66978 52.5187 6.53548 52.3566C6.40118 52.1945 6.33263 51.9883 6.34324 51.7784Z" fill="#F40F46"/>
</g>
<g style="mix-blend-mode:screen" opacity="0.35">
<path fill-rule="evenodd" clip-rule="evenodd" d="M13.7483 47.204C13.712 46.7484 14.1281 46.6271 14.5553 46.646C14.776 46.6829 14.975 46.8001 15.1135 46.9748C15.252 47.1495 15.3201 47.3693 15.3046 47.5913C15.3325 47.9417 14.7824 48.1618 14.4744 48.0806C14.2635 48.0546 14.0706 47.9493 13.9355 47.7862C13.8005 47.6232 13.7335 47.4148 13.7483 47.204Z" fill="#F40F46"/>
</g>
<g style="mix-blend-mode:screen">
<path fill-rule="evenodd" clip-rule="evenodd" d="M45.0468 30.1651C45.0092 29.6921 45.4252 29.5708 45.8538 29.6072C46.0747 29.6364 46.2757 29.7491 46.415 29.9219C46.5543 30.0947 46.6212 30.3143 46.6018 30.535C46.6311 30.9029 46.0796 31.1055 45.773 31.0418C45.5638 31.0119 45.3734 30.9055 45.2391 30.7433C45.1048 30.5812 45.0362 30.375 45.0468 30.1651Z" fill="#F40F46"/>
</g>
<g style="mix-blend-mode:screen">
<path fill-rule="evenodd" clip-rule="evenodd" d="M23.6523 82.4715C23.6147 81.9984 24.0307 81.8771 24.4417 81.9149C24.6655 81.94 24.8706 82.0508 25.0135 82.2237C25.1565 82.3966 25.2259 82.6182 25.2073 82.8413C25.2352 83.1917 24.6851 83.4119 24.3608 83.3495C24.151 83.3236 23.9597 83.2174 23.8274 83.0535C23.6951 82.8895 23.6323 82.6808 23.6523 82.4715Z" fill="#F40F46"/>
</g>
<g style="mix-blend-mode:screen">
<path fill-rule="evenodd" clip-rule="evenodd" d="M29.4389 33.524C29.4235 33.3313 29.597 33.2822 29.7584 33.3046C29.8505 33.3145 29.935 33.3599 29.9938 33.431C30.0525 33.5022 30.0808 33.5934 30.0725 33.6851C30.0837 33.8253 29.8601 33.9136 29.7326 33.8709C29.6901 33.8679 29.6487 33.8565 29.6109 33.8373C29.573 33.8181 29.5393 33.7915 29.512 33.7592C29.4846 33.7269 29.464 33.6894 29.4514 33.649C29.4389 33.6086 29.4346 33.5661 29.4389 33.524Z" fill="#F40F46"/>
</g>
<g style="mix-blend-mode:screen">
<path fill-rule="evenodd" clip-rule="evenodd" d="M10.1254 59.6229C10.1101 59.4302 10.2659 59.3825 10.4436 59.386C10.5339 59.3998 10.6159 59.4463 10.6738 59.5165C10.7318 59.5867 10.7617 59.6757 10.7577 59.7665C10.7688 59.9066 10.5453 59.995 10.4191 59.9698C10.3767 59.9667 10.3353 59.9553 10.2974 59.9361C10.2595 59.9169 10.2259 59.8904 10.1985 59.858C10.1711 59.8257 10.1505 59.7882 10.138 59.7478C10.1254 59.7075 10.1212 59.665 10.1254 59.6229Z" fill="#F40F46"/>
</g>
<g style="mix-blend-mode:screen">
<path fill-rule="evenodd" clip-rule="evenodd" d="M50.357 48.7313C50.3417 48.5386 50.4975 48.4909 50.6766 48.5119C50.7669 48.5257 50.8489 48.5722 50.9069 48.6424C50.9648 48.7126 50.9947 48.8016 50.9907 48.8924C51.0019 49.0326 50.7783 49.1209 50.6521 49.0957C50.5647 49.0856 50.4848 49.0417 50.4296 48.9735C50.3744 48.9054 50.3483 48.8184 50.357 48.7313Z" fill="#F40F46"/>
</g>
<g style="mix-blend-mode:screen">
<path fill-rule="evenodd" clip-rule="evenodd" d="M18.2158 79.4664C18.0381 79.5153 17.8526 79.53 17.6694 79.5099C17.5636 79.5183 17.2542 79.4195 17.1916 79.3011C17.2722 79.1926 17.3733 79.1007 17.4893 79.0306C17.5774 79.0235 17.8117 78.8462 17.9026 78.8742C18.0044 78.9358 18.0885 79.0226 18.1465 79.1261C18.2044 79.2297 18.2344 79.3464 18.2334 79.465L18.2158 79.4664Z" fill="#FF556E"/>
</g>
<g style="mix-blend-mode:screen" opacity="0.4">
<path fill-rule="evenodd" clip-rule="evenodd" d="M18.7922 77.1284C19.0854 77.0523 19.3897 77.028 19.6912 77.0568C19.8498 77.0441 20.3721 77.1436 20.4919 77.3104C20.3845 77.5056 20.2343 77.6743 20.0522 77.8038C19.8694 77.9693 19.6461 78.0844 19.4048 78.1375C19.2363 78.0472 19.0919 77.9182 18.9838 77.7612C18.8756 77.6042 18.8068 77.4238 18.783 77.2349L18.7922 77.1284Z" fill="#FF556E"/>
</g>
<g style="mix-blend-mode:screen" opacity="0.4">
<path fill-rule="evenodd" clip-rule="evenodd" d="M35.9958 62.6227C36.289 62.5469 36.5933 62.5227 36.8948 62.5511C37.0534 62.5384 37.5757 62.6379 37.6954 62.8047C37.5895 62.9952 37.4459 63.1625 37.2734 63.2967C37.0825 63.458 36.8529 63.5674 36.6069 63.6142C36.4371 63.532 36.292 63.4068 36.1862 63.2513C36.0804 63.0957 36.0177 62.9152 36.0042 62.7278L35.9958 62.6227Z" fill="#FF556E"/>
</g>
<g style="mix-blend-mode:screen" opacity="0.4">
<path fill-rule="evenodd" clip-rule="evenodd" d="M42.8311 17.4882C42.953 17.6944 43.0371 17.9205 43.0794 18.156C43.133 18.3806 43.1145 18.6164 43.0267 18.8302C42.8843 18.7743 42.7522 18.6955 42.6356 18.5969C42.4737 18.4871 42.3405 18.3405 42.2468 18.1694C42.2816 18.0193 42.3534 17.8801 42.4556 17.7643C42.5578 17.6485 42.6873 17.5596 42.8325 17.5057L42.8311 17.4882Z" fill="#FF556E"/>
</g>
<g style="mix-blend-mode:screen">
<path fill-rule="evenodd" clip-rule="evenodd" d="M5.58131 58.4686C5.51988 58.0755 5.53001 57.6746 5.6112 57.2849C5.59585 57.0922 5.82624 56.4215 6.08226 56.2953C6.31689 56.4691 6.51501 56.6869 6.66547 56.9365C6.84134 57.2034 6.94523 57.5108 6.96717 57.8293C6.83246 58.0384 6.6457 58.2095 6.425 58.326C6.2043 58.4424 5.95715 58.5002 5.70748 58.4938L5.58131 58.4686Z" fill="#F40F46"/>
</g>
<g style="mix-blend-mode:screen">
<path fill-rule="evenodd" clip-rule="evenodd" d="M28.0935 70.3047C28.28 70.0792 28.505 69.8882 28.7581 69.7404C28.8991 69.7292 29.3527 69.411 29.5536 69.4831C29.5787 69.6977 29.5598 69.9151 29.4981 70.1223C29.4405 70.3567 29.3233 70.5724 29.1577 70.7489C28.9706 70.7805 28.7785 70.7641 28.5997 70.7012C28.4208 70.6383 28.2611 70.531 28.1358 70.3895L28.0935 70.3047Z" fill="#F40F46"/>
</g>
<g style="mix-blend-mode:screen">
<path fill-rule="evenodd" clip-rule="evenodd" d="M14.0692 38.5389C13.8498 38.6798 13.675 38.7113 13.5307 38.4584C13.4903 38.4105 13.4616 38.354 13.4469 38.2933C13.4322 38.2325 13.4319 38.1692 13.4459 38.1083C13.46 38.0474 13.488 37.9905 13.5279 37.9422C13.5678 37.8939 13.6184 37.8554 13.6757 37.8297C13.9289 37.6685 14.1066 37.672 14.2361 37.9614C14.3656 38.2508 14.3577 38.3749 14.0692 38.5389Z" fill="#FF556E"/>
</g>
<g style="mix-blend-mode:screen">
<path fill-rule="evenodd" clip-rule="evenodd" d="M31.7451 77.4014C31.5257 77.5423 31.3494 77.5564 31.2065 77.3209C31.166 77.2716 31.1374 77.2138 31.1226 77.1519C31.1078 77.09 31.1073 77.0256 31.1211 76.9634C31.1349 76.9013 31.1627 76.843 31.2024 76.793C31.242 76.743 31.2926 76.7026 31.3502 76.6747C31.6048 76.531 31.7824 76.5345 31.9105 76.8064C32.0386 77.0783 31.944 77.2269 31.7451 77.4014Z" fill="#FF556E"/>
</g>
<g style="mix-blend-mode:screen">
<path fill-rule="evenodd" clip-rule="evenodd" d="M40.5449 39.3394C40.3079 39.4817 40.1317 39.4957 39.9887 39.2602C39.9483 39.2109 39.9196 39.1532 39.9048 39.0913C39.89 39.0294 39.8895 38.9649 39.9033 38.9027C39.9171 38.8406 39.9449 38.7823 39.9846 38.7323C40.0242 38.6823 40.0748 38.6419 40.1324 38.6141C40.387 38.4704 40.5647 38.4738 40.6928 38.7457C40.8208 39.0177 40.7262 39.1662 40.5449 39.3394Z" fill="#FF556E"/>
</g>
<g style="mix-blend-mode:screen">
<path fill-rule="evenodd" clip-rule="evenodd" d="M15.7678 90.8221C15.964 90.7452 16.1788 90.7281 16.3847 90.773C16.5962 90.7562 16.9006 91.014 16.8334 91.2838C16.7857 91.4056 16.6969 91.507 16.5822 91.5709C16.4676 91.6347 16.3342 91.6569 16.2049 91.6336C16.0523 91.5652 15.9266 91.4486 15.8476 91.3018C15.7686 91.1551 15.7405 90.9865 15.7678 90.8221Z" fill="#F40F46"/>
</g>
<g style="mix-blend-mode:screen">
<path fill-rule="evenodd" clip-rule="evenodd" d="M29.3775 24.96C29.4656 24.953 29.6058 25.1534 29.648 25.2382C29.6902 25.323 29.6745 25.5711 29.5743 25.6496C29.4987 25.6745 29.4166 25.6719 29.3428 25.6423C29.269 25.6126 29.2081 25.5579 29.1712 25.4877C29.0663 25.2845 29.1391 25.0848 29.3775 24.96Z" fill="#F40F46"/>
</g>
<g style="mix-blend-mode:screen">
<path fill-rule="evenodd" clip-rule="evenodd" d="M51.9093 22.5659C51.9359 22.6084 51.953 22.6561 51.9596 22.7057C51.9661 22.7553 51.9619 22.8058 51.9473 22.8537C51.9326 22.9016 51.9078 22.9459 51.8746 22.9835C51.8413 23.0211 51.8004 23.0513 51.7545 23.0719C51.7072 23.0922 51.6564 23.103 51.6049 23.1036C51.5534 23.1043 51.5023 23.0947 51.4546 23.0755C51.4069 23.0564 51.3634 23.028 51.3268 22.992C51.2903 22.956 51.2612 22.9132 51.2414 22.866C51.1978 22.7686 51.1928 22.6584 51.2275 22.5575C51.2623 22.4566 51.3342 22.3725 51.4287 22.3221C51.6402 22.3053 51.8235 22.3788 51.9093 22.5659Z" fill="#F40F46"/>
</g>
<path style="mix-blend-mode:screen" fill-rule="evenodd" clip-rule="evenodd" d="M52.8738 22.6478C52.8896 22.8171 52.8715 22.9878 52.8204 23.15C52.7693 23.3123 52.6863 23.4629 52.5762 23.5931C52.4661 23.7232 52.331 23.8304 52.179 23.9083C52.0269 23.9861 51.8608 24.0332 51.6904 24.0468C51.5092 24.0826 51.3226 24.0799 51.1426 24.0388C50.9627 23.9978 50.7936 23.9194 50.6464 23.8087C50.4992 23.698 50.3773 23.5576 50.2887 23.3967C50.2 23.2357 50.1466 23.058 50.1321 22.875C50.1175 22.692 50.142 22.5081 50.2041 22.3351C50.2662 22.1622 50.3643 22.0043 50.4921 21.8717C50.6199 21.7391 50.7745 21.6349 50.9457 21.5659C51.1168 21.4969 51.3007 21.4646 51.4852 21.4713C51.8265 21.4441 52.1645 21.5528 52.4249 21.7735C52.6853 21.9941 52.8468 22.3086 52.8738 22.6478Z" fill="url(#paint29_radial_5815_59720)"/>
<g style="mix-blend-mode:screen">
<path fill-rule="evenodd" clip-rule="evenodd" d="M25.5758 33.7964C25.6026 33.8449 25.619 33.8984 25.6241 33.9536C25.6293 34.0088 25.6229 34.0644 25.6055 34.1171C25.588 34.1697 25.5599 34.2182 25.5228 34.2596C25.4857 34.301 25.4405 34.3344 25.3899 34.3577C25.3387 34.3839 25.2825 34.399 25.225 34.402C25.1676 34.405 25.1101 34.3958 25.0565 34.3751C25.0028 34.3544 24.9543 34.3226 24.9139 34.2818C24.8736 34.241 24.8425 34.1921 24.8226 34.1385C24.7724 34.0277 24.767 33.9019 24.8074 33.7872C24.8477 33.6724 24.9308 33.5774 25.0395 33.5217C25.2617 33.4159 25.4709 33.5931 25.5758 33.7964Z" fill="#F40F46"/>
</g>
<path style="mix-blend-mode:screen" fill-rule="evenodd" clip-rule="evenodd" d="M26.6257 33.8363C26.6481 34.1169 26.5862 34.398 26.4479 34.6439C26.3096 34.8897 26.1011 35.0894 25.8488 35.2176C25.5965 35.3458 25.3116 35.3967 25.0303 35.364C24.749 35.3313 24.4838 35.2164 24.2684 35.0339C24.0529 34.8513 23.8968 34.6093 23.8197 34.3384C23.7427 34.0675 23.7483 33.7799 23.8357 33.5119C23.9231 33.244 24.0884 33.0078 24.3108 32.8332C24.5332 32.6585 24.8026 32.5533 25.085 32.5308C25.4636 32.5007 25.8387 32.6213 26.1276 32.8661C26.4166 33.1109 26.5957 33.4599 26.6257 33.8363Z" fill="url(#paint30_radial_5815_59720)"/>
<g style="mix-blend-mode:screen">
<path fill-rule="evenodd" clip-rule="evenodd" d="M18.4144 40.5379C18.5867 40.4209 18.7982 40.3757 19.0034 40.4121C19.2087 40.4485 19.3913 40.5636 19.5119 40.7326C19.7444 40.9785 19.8285 41.5889 19.5943 41.7663C19.4082 41.8919 19.1803 41.9408 18.9588 41.9025C18.7372 41.8642 18.5395 41.7418 18.4072 41.5611C18.1664 41.21 18.061 40.7776 18.4849 40.5323L18.4144 40.5379Z" fill="#F40F46"/>
</g>
<path style="mix-blend-mode:screen" opacity="0.5" d="M19.1151 43.3207C20.3124 43.2253 21.2063 42.1832 21.1115 40.993C21.0167 39.8028 19.9692 38.9153 18.7718 39.0107C17.5744 39.106 16.6806 40.1482 16.7754 41.3384C16.8702 42.5285 17.9177 43.4161 19.1151 43.3207Z" fill="url(#paint31_radial_5815_59720)"/>
<g style="mix-blend-mode:screen">
<path fill-rule="evenodd" clip-rule="evenodd" d="M19.3615 62.449C19.4498 62.3883 19.5492 62.3457 19.6541 62.3234C19.759 62.3011 19.8672 62.2996 19.9726 62.3191C20.078 62.3386 20.1785 62.3786 20.2683 62.4368C20.358 62.495 20.4353 62.5703 20.4957 62.6584C20.7281 62.9043 20.8122 63.5147 20.4913 63.7166C20.3003 63.842 20.068 63.889 19.8431 63.8477C19.6182 63.8065 19.4182 63.6801 19.2852 63.4953C19.0444 63.1442 18.9376 62.6943 19.3615 62.449Z" fill="#F40F46"/>
</g>
<path style="mix-blend-mode:screen" fill-rule="evenodd" clip-rule="evenodd" d="M22.1113 62.8999C22.1458 63.333 22.0503 63.7667 21.8369 64.1462C21.6234 64.5256 21.3017 64.8337 20.9123 65.0315C20.5229 65.2294 20.0834 65.308 19.6492 65.2576C19.2151 65.2071 18.8059 65.0298 18.4734 64.748C18.1408 64.4663 17.8999 64.0928 17.7811 63.6747C17.6622 63.2567 17.6708 62.8129 17.8057 62.3994C17.9406 61.9859 18.1957 61.6214 18.5389 61.3519C18.882 61.0824 19.2978 60.92 19.7336 60.8853C20.3179 60.8388 20.8967 61.0249 21.3426 61.4027C21.7885 61.7805 22.065 62.319 22.1113 62.8999Z" fill="url(#paint32_radial_5815_59720)"/>
<g style="mix-blend-mode:screen">
<path fill-rule="evenodd" clip-rule="evenodd" d="M33.8644 39.8714C33.9111 39.9358 33.9443 40.0088 33.9622 40.0862C33.9801 40.1635 33.9823 40.2436 33.9687 40.3218C33.9551 40.4001 33.926 40.4748 33.8831 40.5418C33.8401 40.6087 33.7842 40.6665 33.7185 40.7117C33.5196 40.8863 33.0641 40.9578 32.9077 40.7763C32.812 40.6313 32.7767 40.455 32.8095 40.2845C32.8423 40.1141 32.9405 39.963 33.0833 39.8631C33.3528 39.683 33.6835 39.6037 33.8686 39.924L33.8644 39.8714Z" fill="#F40F46"/>
</g>
<path style="mix-blend-mode:screen" fill-rule="evenodd" clip-rule="evenodd" d="M33.511 41.892C33.1833 41.9181 32.8553 41.847 32.5684 41.6877C32.2815 41.5285 32.0487 41.2882 31.8993 40.9972C31.7499 40.7063 31.6907 40.3777 31.7292 40.0532C31.7677 39.7286 31.9021 39.4226 32.1155 39.1738C32.3289 38.925 32.6116 38.7447 32.928 38.6555C33.2443 38.5664 33.58 38.5725 33.8927 38.673C34.2054 38.7735 34.481 38.964 34.6846 39.2204C34.8882 39.4767 35.0108 39.7874 35.0367 40.1131C35.0539 40.3294 35.0281 40.5469 34.9608 40.7534C34.8934 40.9598 34.7858 41.1511 34.6442 41.3163C34.5025 41.4815 34.3295 41.6173 34.1351 41.7161C33.9407 41.8149 33.7286 41.8746 33.511 41.892Z" fill="url(#paint33_radial_5815_59720)"/>
<g style="mix-blend-mode:screen">
<path fill-rule="evenodd" clip-rule="evenodd" d="M30.1992 61.1096C30.2831 61.2446 30.3129 61.4061 30.2826 61.5621C30.2523 61.718 30.1641 61.8569 30.0356 61.9513C29.8543 62.1245 29.3812 62.1974 29.2425 62.0145C29.1465 61.8744 29.1094 61.7024 29.1392 61.5353C29.1689 61.3683 29.2632 61.2193 29.4018 61.1202C29.6713 60.9401 30.0196 60.8595 30.2048 61.1797L30.1992 61.1096Z" fill="#F40F46"/>
</g>
<path style="mix-blend-mode:screen" fill-rule="evenodd" clip-rule="evenodd" d="M29.8443 63.1127C29.5166 63.1388 29.1885 63.0677 28.9016 62.9084C28.6148 62.7492 28.3819 62.5089 28.2325 62.2179C28.0832 61.927 28.024 61.5984 28.0625 61.2739C28.101 60.9493 28.2354 60.6433 28.4488 60.3945C28.6621 60.1457 28.9449 59.9654 29.2612 59.8762C29.5775 59.7871 29.9133 59.7932 30.226 59.8937C30.5386 59.9942 30.8142 60.1847 31.0179 60.4411C31.2215 60.6974 31.344 61.0081 31.37 61.3338C31.4048 61.7706 31.2636 62.2034 30.9774 62.537C30.6913 62.8706 30.2837 63.0777 29.8443 63.1127Z" fill="url(#paint34_radial_5815_59720)"/>
<path style="mix-blend-mode:screen" fill-rule="evenodd" clip-rule="evenodd" d="M8.03703 74.159L23.1353 55.7128L21.3757 48.7651L37.2369 30.0995L32.8975 17.486L7.66883 38.8019L4.09503 44.041L4.24743 47.2907L4.87419 54.0465L4.09857 55.8891L8.03703 74.159Z" fill="url(#paint35_radial_5815_59720)"/>
<path style="mix-blend-mode:screen" fill-rule="evenodd" clip-rule="evenodd" d="M23.1353 55.7128L41.07 60.6317L46.6534 43.2079L46.1679 42.0123L39.5363 40.7069L37.3368 41.3757L23.1353 55.7128Z" fill="url(#paint36_radial_5815_59720)"/>
<path style="mix-blend-mode:screen" fill-rule="evenodd" clip-rule="evenodd" d="M33.2352 54.9084C33.3933 56.8939 32.9555 58.8821 31.9772 60.6214C30.9989 62.3607 29.524 63.7731 27.7391 64.6799C25.9541 65.5868 23.9392 65.9473 21.9491 65.716C19.9591 65.4847 18.0833 64.6719 16.559 63.3804C15.0347 62.0889 13.9303 60.3767 13.3855 58.4603C12.8407 56.5439 12.8799 54.5094 13.4982 52.6141C14.1166 50.7188 15.2862 49.0478 16.8593 47.8124C18.4323 46.577 20.3381 45.8327 22.3357 45.6736C25.0133 45.465 27.6639 46.3198 29.7068 48.0507C31.7498 49.7817 33.0185 52.2476 33.2352 54.9084Z" fill="url(#paint37_radial_5815_59720)"/>
<path style="mix-blend-mode:screen" fill-rule="evenodd" clip-rule="evenodd" d="M29.8685 55.1765C29.9778 56.5049 29.6879 57.836 29.0356 59.0012C28.3832 60.1663 27.3978 61.1131 26.2041 61.7215C25.0105 62.3298 23.6624 62.5724 22.3306 62.4185C20.9988 62.2645 19.7434 61.721 18.7234 60.8568C17.7034 59.9926 16.9647 58.8465 16.601 57.5639C16.2373 56.2813 16.2649 54.9199 16.6803 53.6522C17.0957 52.3845 17.8803 51.2675 18.9345 50.4429C19.9888 49.6182 21.2653 49.123 22.6022 49.02C24.388 48.8778 26.1568 49.4465 27.5195 50.6011C28.8822 51.7557 29.7271 53.4015 29.8685 55.1765Z" fill="url(#paint38_radial_5815_59720)"/>
<path style="mix-blend-mode:screen" d="M37.6653 35.4783C40.6538 35.2402 42.8847 32.6391 42.6482 29.6685C42.4116 26.6979 39.797 24.4827 36.8085 24.7207C33.8199 24.9588 31.589 27.5599 31.8256 30.5305C32.0622 33.5011 34.6767 35.7163 37.6653 35.4783Z" fill="url(#paint39_radial_5815_59720)"/>
<path style="mix-blend-mode:screen" d="M37.5229 33.6912C39.5185 33.5323 41.0082 31.7954 40.8502 29.8117C40.6923 27.8281 38.9464 26.3489 36.9508 26.5079C34.9552 26.6668 33.4655 28.4037 33.6235 30.3873C33.7815 32.371 35.5273 33.8502 37.5229 33.6912Z" fill="url(#paint40_radial_5815_59720)"/>
<defs>
<radialGradient id="paint0_radial_5815_59720" cx="0" cy="0" r="1" gradientUnits="userSpaceOnUse" gradientTransform="translate(5.89973 70.4855) rotate(-4.55378) scale(90.9568 90.4102)">
<stop stop-color="#FF3D78"/>
<stop offset="1" stop-color="#A30000"/>
</radialGradient>
<radialGradient id="paint1_radial_5815_59720" cx="0" cy="0" r="1" gradientUnits="userSpaceOnUse" gradientTransform="translate(-3.40267 4.24424) rotate(-4.55378) scale(86.713 86.192)">
<stop stop-color="white"/>
<stop offset="0.09" stop-color="#FCF6F7"/>
<stop offset="0.22" stop-color="#F3DFE0"/>
<stop offset="0.39" stop-color="#E4B8BB"/>
<stop offset="0.59" stop-color="#D08387"/>
<stop offset="0.81" stop-color="#B64046"/>
<stop offset="1" stop-color="#9E0109"/>
</radialGradient>
<radialGradient id="paint2_radial_5815_59720" cx="0" cy="0" r="1" gradientUnits="userSpaceOnUse" gradientTransform="translate(65.521 119.971) rotate(-4.55378) scale(52.7988 52.4815)">
<stop stop-color="white"/>
<stop offset="0.09" stop-color="#FCF6F7"/>
<stop offset="0.22" stop-color="#F3DFE0"/>
<stop offset="0.39" stop-color="#E4B8BB"/>
<stop offset="0.59" stop-color="#D08387"/>
<stop offset="0.81" stop-color="#B64046"/>
<stop offset="1" stop-color="#9E0109"/>
</radialGradient>
<radialGradient id="paint3_radial_5815_59720" cx="0" cy="0" r="1" gradientUnits="userSpaceOnUse" gradientTransform="translate(-23.9607 38.9937) rotate(-4.55378) scale(62.4355 62.0604)">
<stop offset="0.24" stop-color="#050300"/>
<stop offset="0.31" stop-color="#0E0301"/>
<stop offset="0.43" stop-color="#250302"/>
<stop offset="0.58" stop-color="#4C0204"/>
<stop offset="0.75" stop-color="#810208"/>
<stop offset="0.94" stop-color="#C4010C"/>
<stop offset="1" stop-color="#DB010D"/>
</radialGradient>
<radialGradient id="paint4_radial_5815_59720" cx="0" cy="0" r="1" gradientUnits="userSpaceOnUse" gradientTransform="translate(72.0823 54.9175) rotate(-4.55378) scale(54.3725 54.0458)">
<stop stop-color="#050300"/>
<stop offset="0.21" stop-color="#4D2E33"/>
<stop offset="0.42" stop-color="#8C5460"/>
<stop offset="0.61" stop-color="#BE7283"/>
<stop offset="0.78" stop-color="#E1879C"/>
<stop offset="0.91" stop-color="#F794AB"/>
<stop offset="1" stop-color="#FF99B1"/>
</radialGradient>
<radialGradient id="paint5_radial_5815_59720" cx="0" cy="0" r="1" gradientUnits="userSpaceOnUse" gradientTransform="translate(47.3691 27.9173) rotate(-4.55378) scale(36.4959 36.2766)">
<stop stop-color="#050300"/>
<stop offset="0.21" stop-color="#4D2E33"/>
<stop offset="0.42" stop-color="#8C5460"/>
<stop offset="0.61" stop-color="#BE7283"/>
<stop offset="0.78" stop-color="#E1879C"/>
<stop offset="0.91" stop-color="#F794AB"/>
<stop offset="1" stop-color="#FF99B1"/>
</radialGradient>
<radialGradient id="paint6_radial_5815_59720" cx="0" cy="0" r="1" gradientUnits="userSpaceOnUse" gradientTransform="translate(12.676 37.7507) rotate(-4.55378) scale(57.3608 57.0161)">
<stop stop-color="white"/>
<stop offset="0.09" stop-color="#FCF6F7"/>
<stop offset="0.22" stop-color="#F3DFE0"/>
<stop offset="0.39" stop-color="#E4B8BB"/>
<stop offset="0.59" stop-color="#D08387"/>
<stop offset="0.81" stop-color="#B64046"/>
<stop offset="1" stop-color="#9E0109"/>
</radialGradient>
<radialGradient id="paint7_radial_5815_59720" cx="0" cy="0" r="1" gradientUnits="userSpaceOnUse" gradientTransform="translate(-3.3038 44.6831) rotate(-4.55378) scale(52.6043 52.2882)">
<stop stop-color="white"/>
<stop offset="0.09" stop-color="#FCF6F7"/>
<stop offset="0.22" stop-color="#F3DFE0"/>
<stop offset="0.39" stop-color="#E4B8BB"/>
<stop offset="0.59" stop-color="#D08387"/>
<stop offset="0.81" stop-color="#B64046"/>
<stop offset="1" stop-color="#9E0109"/>
</radialGradient>
<radialGradient id="paint8_radial_5815_59720" cx="0" cy="0" r="1" gradientUnits="userSpaceOnUse" gradientTransform="translate(35.61 121.472) rotate(-4.55378) scale(42.9852 42.7269)">
<stop stop-color="white"/>
<stop offset="0.09" stop-color="#FCF6F7"/>
<stop offset="0.22" stop-color="#F3DFE0"/>
<stop offset="0.39" stop-color="#E4B8BB"/>
<stop offset="0.59" stop-color="#D08387"/>
<stop offset="0.81" stop-color="#B64046"/>
<stop offset="1" stop-color="#9E0109"/>
</radialGradient>
<radialGradient id="paint9_radial_5815_59720" cx="0" cy="0" r="1" gradientUnits="userSpaceOnUse" gradientTransform="translate(64.8277 11.0462) rotate(-4.55378) scale(16.0377 15.9413)">
<stop stop-color="white"/>
<stop offset="0.09" stop-color="#FCF6F7"/>
<stop offset="0.22" stop-color="#F3DFE0"/>
<stop offset="0.39" stop-color="#E4B8BB"/>
<stop offset="0.59" stop-color="#D08387"/>
<stop offset="0.81" stop-color="#B64046"/>
<stop offset="1" stop-color="#9E0109"/>
</radialGradient>
<radialGradient id="paint10_radial_5815_59720" cx="0" cy="0" r="1" gradientUnits="userSpaceOnUse" gradientTransform="translate(65.5666 46.6031) rotate(-4.55378) scale(68.748 68.3349)">
<stop stop-color="#050300"/>
<stop offset="1" stop-color="#FF545D"/>
</radialGradient>
<radialGradient id="paint11_radial_5815_59720" cx="0" cy="0" r="1" gradientUnits="userSpaceOnUse" gradientTransform="translate(61.2707 3.8009) rotate(-4.55378) scale(21.1301 21.0032)">
<stop stop-color="#FF3682"/>
<stop offset="1"/>
</radialGradient>
<radialGradient id="paint12_radial_5815_59720" cx="0" cy="0" r="1" gradientUnits="userSpaceOnUse" gradientTransform="translate(32.454 88.0826) rotate(-4.55378) scale(10.8038 10.7388)">
<stop offset="0.25"/>
<stop offset="0.33" stop-color="#050203"/>
<stop offset="0.42" stop-color="#14080D"/>
<stop offset="0.52" stop-color="#2E131D"/>
<stop offset="0.63" stop-color="#512133"/>
<stop offset="0.74" stop-color="#7E3450"/>
<stop offset="0.86" stop-color="#B54B73"/>
<stop offset="0.98" stop-color="#F5659C"/>
<stop offset="1" stop-color="#FF69A2"/>
</radialGradient>
<radialGradient id="paint13_radial_5815_59720" cx="0" cy="0" r="1" gradientUnits="userSpaceOnUse" gradientTransform="translate(38.8111 83.715) rotate(-4.55378) scale(8.94715 8.89339)">
<stop offset="0.25"/>
<stop offset="0.33" stop-color="#050203"/>
<stop offset="0.42" stop-color="#14080D"/>
<stop offset="0.52" stop-color="#2E131D"/>
<stop offset="0.63" stop-color="#512133"/>
<stop offset="0.74" stop-color="#7E3450"/>
<stop offset="0.86" stop-color="#B54B73"/>
<stop offset="0.98" stop-color="#F5659C"/>
<stop offset="1" stop-color="#FF69A2"/>
</radialGradient>
<radialGradient id="paint14_radial_5815_59720" cx="0" cy="0" r="1" gradientUnits="userSpaceOnUse" gradientTransform="translate(46.8359 84.0279) rotate(-4.55378) scale(18.8491 18.7359)">
<stop stop-color="white"/>
<stop offset="0.09" stop-color="#FCF6F7"/>
<stop offset="0.22" stop-color="#F3DFE0"/>
<stop offset="0.39" stop-color="#E4B8BB"/>
<stop offset="0.59" stop-color="#D08387"/>
<stop offset="0.81" stop-color="#B64046"/>
<stop offset="1" stop-color="#9E0109"/>
</radialGradient>
<radialGradient id="paint15_radial_5815_59720" cx="0" cy="0" r="1" gradientUnits="userSpaceOnUse" gradientTransform="translate(35.472 21.9709) rotate(-4.55378) scale(63.0367 62.6579)">
<stop stop-color="#FF3682"/>
<stop offset="1"/>
</radialGradient>
<radialGradient id="paint16_radial_5815_59720" cx="0" cy="0" r="1" gradientUnits="userSpaceOnUse" gradientTransform="translate(44.0829 -4.21009) rotate(-4.55378) scale(37.9635 37.7354)">
<stop/>
<stop offset="1" stop-color="#FF307E"/>
</radialGradient>
<radialGradient id="paint17_radial_5815_59720" cx="0" cy="0" r="1" gradientUnits="userSpaceOnUse" gradientTransform="translate(-10.022 33.8283) rotate(-4.55378) scale(52.5866 52.2706)">
<stop/>
<stop offset="1" stop-color="#FF307E"/>
</radialGradient>
<radialGradient id="paint18_radial_5815_59720" cx="0" cy="0" r="1" gradientUnits="userSpaceOnUse" gradientTransform="translate(-6.08917 34.4319) rotate(-4.55378) scale(75.7325 75.2774)">
<stop stop-color="white"/>
<stop offset="0.09" stop-color="#FCF6F7"/>
<stop offset="0.22" stop-color="#F3DFE0"/>
<stop offset="0.39" stop-color="#E4B8BB"/>
<stop offset="0.59" stop-color="#D08387"/>
<stop offset="0.81" stop-color="#B64046"/>
<stop offset="1" stop-color="#9E0109"/>
</radialGradient>
<radialGradient id="paint19_radial_5815_59720" cx="0" cy="0" r="1" gradientUnits="userSpaceOnUse" gradientTransform="translate(72.739 47.795) rotate(-4.55378) scale(75.7325 75.2774)">
<stop offset="0.49"/>
<stop offset="0.55" stop-color="#040000"/>
<stop offset="0.62" stop-color="#110001"/>
<stop offset="0.68" stop-color="#260002"/>
<stop offset="0.75" stop-color="#440104"/>
<stop offset="0.81" stop-color="#6B0106"/>
<stop offset="0.88" stop-color="#9A0109"/>
<stop offset="0.95" stop-color="#D0020C"/>
<stop offset="1" stop-color="#FF020F"/>
</radialGradient>
<radialGradient id="paint20_radial_5815_59720" cx="0" cy="0" r="1" gradientUnits="userSpaceOnUse" gradientTransform="translate(47.3759 53.3943) rotate(-4.55378) scale(41.3585 41.1099)">
<stop/>
<stop offset="1" stop-color="#FF307E"/>
</radialGradient>
<radialGradient id="paint21_radial_5815_59720" cx="0" cy="0" r="1" gradientUnits="userSpaceOnUse" gradientTransform="translate(-2.99083 37.2529) rotate(-4.55378) scale(72.2137 71.7798)">
<stop/>
<stop offset="1" stop-color="#D4002A"/>
</radialGradient>
<radialGradient id="paint22_radial_5815_59720" cx="0" cy="0" r="1" gradientUnits="userSpaceOnUse" gradientTransform="translate(21.9248 58.3305) rotate(-4.55378) scale(38.2287 37.999)">
<stop stop-color="#FF3682"/>
<stop offset="1"/>
</radialGradient>
<radialGradient id="paint23_radial_5815_59720" cx="0" cy="0" r="1" gradientUnits="userSpaceOnUse" gradientTransform="translate(15.1136 65.908) rotate(-4.55378) scale(35.0459 34.8354)">
<stop stop-color="#FF3682"/>
<stop offset="1"/>
</radialGradient>
<radialGradient id="paint24_radial_5815_59720" cx="0" cy="0" r="1" gradientUnits="userSpaceOnUse" gradientTransform="translate(12.403 70.1792) rotate(-4.55378) scale(35.3819 35.1693)">
<stop stop-color="#FF3682"/>
<stop offset="1"/>
</radialGradient>
<radialGradient id="paint25_radial_5815_59720" cx="0" cy="0" r="1" gradientUnits="userSpaceOnUse" gradientTransform="translate(37.6579 29.1492) rotate(-4.55378) scale(51.0836 50.7767)">
<stop stop-color="#FF3682"/>
<stop offset="1"/>
</radialGradient>
<radialGradient id="paint26_radial_5815_59720" cx="0" cy="0" r="1" gradientUnits="userSpaceOnUse" gradientTransform="translate(33.9205 33.4491) rotate(-4.55378) scale(43.1267 42.8675)">
<stop stop-color="#FF3682"/>
<stop offset="1"/>
</radialGradient>
<radialGradient id="paint27_radial_5815_59720" cx="0" cy="0" r="1" gradientUnits="userSpaceOnUse" gradientTransform="translate(37.4003 30.3686) rotate(-4.55378) scale(13.2085 13.1292)">
<stop stop-color="#FF3682"/>
<stop offset="1"/>
</radialGradient>
<radialGradient id="paint28_radial_5815_59720" cx="0" cy="0" r="1" gradientUnits="userSpaceOnUse" gradientTransform="translate(23.394 56.7325) rotate(-4.55378) scale(20.8295 20.7044)">
<stop stop-color="#FF3682"/>
<stop offset="1"/>
</radialGradient>
<radialGradient id="paint29_radial_5815_59720" cx="0" cy="0" r="1" gradientUnits="userSpaceOnUse" gradientTransform="translate(51.5871 22.7503) rotate(-4.55378) scale(1.29079 1.28304)">
<stop stop-color="#D40031"/>
<stop offset="0.13" stop-color="#B5002A"/>
<stop offset="0.56" stop-color="#550014"/>
<stop offset="0.86" stop-color="#180005"/>
<stop offset="1"/>
</radialGradient>
<radialGradient id="paint30_radial_5815_59720" cx="0" cy="0" r="1" gradientUnits="userSpaceOnUse" gradientTransform="translate(25.198 33.95) rotate(-4.55378) scale(1.43225 1.42364)">
<stop stop-color="#D40031"/>
<stop offset="0.13" stop-color="#B5002A"/>
<stop offset="0.56" stop-color="#550014"/>
<stop offset="0.86" stop-color="#180005"/>
<stop offset="1"/>
</radialGradient>
<radialGradient id="paint31_radial_5815_59720" cx="0" cy="0" r="1" gradientUnits="userSpaceOnUse" gradientTransform="translate(18.9434 41.1657) rotate(-4.55378) scale(2.1749 2.16183)">
<stop stop-color="#D40031"/>
<stop offset="0.13" stop-color="#B5002A"/>
<stop offset="0.56" stop-color="#550014"/>
<stop offset="0.86" stop-color="#180005"/>
<stop offset="1"/>
</radialGradient>
<radialGradient id="paint32_radial_5815_59720" cx="0" cy="0" r="1" gradientUnits="userSpaceOnUse" gradientTransform="translate(19.908 63.0754) rotate(-4.55378) scale(2.21026 2.19698)">
<stop stop-color="#D40031"/>
<stop offset="0.13" stop-color="#B5002A"/>
<stop offset="0.56" stop-color="#550014"/>
<stop offset="0.86" stop-color="#180005"/>
<stop offset="1"/>
</radialGradient>
<radialGradient id="paint33_radial_5815_59720" cx="0" cy="0" r="1" gradientUnits="userSpaceOnUse" gradientTransform="translate(33.3975 40.2436) rotate(85.4462) scale(1.65213 1.66212)">
<stop stop-color="#D40031"/>
<stop offset="0.13" stop-color="#B5002A"/>
<stop offset="0.56" stop-color="#550014"/>
<stop offset="0.86" stop-color="#180005"/>
<stop offset="1"/>
</radialGradient>
<radialGradient id="paint34_radial_5815_59720" cx="0" cy="0" r="1" gradientUnits="userSpaceOnUse" gradientTransform="translate(29.7159 61.5008) rotate(85.4462) scale(1.65213 1.66212)">
<stop stop-color="#D40031"/>
<stop offset="0.13" stop-color="#B5002A"/>
<stop offset="0.56" stop-color="#550014"/>
<stop offset="0.86" stop-color="#180005"/>
<stop offset="1"/>
</radialGradient>
<radialGradient id="paint35_radial_5815_59720" cx="0" cy="0" r="1" gradientUnits="userSpaceOnUse" gradientTransform="translate(49.624 67.1441) rotate(-4.55378) scale(51.5964 51.2864)">
<stop offset="0.62" stop-color="#050300"/>
<stop offset="0.65" stop-color="#0E0705"/>
<stop offset="0.7" stop-color="#251012"/>
<stop offset="0.77" stop-color="#4C2028"/>
<stop offset="0.85" stop-color="#813645"/>
<stop offset="0.93" stop-color="#C4516B"/>
<stop offset="1" stop-color="#FF698C"/>
</radialGradient>
<radialGradient id="paint36_radial_5815_59720" cx="0" cy="0" r="1" gradientUnits="userSpaceOnUse" gradientTransform="translate(58.1558 60.6814) rotate(-4.55378) scale(32.4997 32.3044)">
<stop offset="0.62" stop-color="#050300"/>
<stop offset="0.65" stop-color="#0E0705"/>
<stop offset="0.7" stop-color="#251012"/>
<stop offset="0.77" stop-color="#4C2028"/>
<stop offset="0.85" stop-color="#813645"/>
<stop offset="0.93" stop-color="#C4516B"/>
<stop offset="1" stop-color="#FF698C"/>
</radialGradient>
<radialGradient id="paint37_radial_5815_59720" cx="0" cy="0" r="1" gradientUnits="userSpaceOnUse" gradientTransform="translate(23.1353 55.7128) rotate(-4.55378) scale(9.33615 9.28005)">
<stop stop-color="#FF0000"/>
<stop offset="0.09" stop-color="#D40000"/>
<stop offset="0.23" stop-color="#9D0000"/>
<stop offset="0.37" stop-color="#6D0000"/>
<stop offset="0.5" stop-color="#460000"/>
<stop offset="0.63" stop-color="#270000"/>
<stop offset="0.76" stop-color="#110000"/>
<stop offset="0.89" stop-color="#040000"/>
<stop offset="1"/>
</radialGradient>
<radialGradient id="paint38_radial_5815_59720" cx="0" cy="0" r="1" gradientUnits="userSpaceOnUse" gradientTransform="translate(23.1353 55.7128) rotate(-4.55378) scale(6.2241 6.1867)">
<stop stop-color="#FFBFBF"/>
<stop offset="0.09" stop-color="#D49F9F"/>
<stop offset="0.23" stop-color="#9D7575"/>
<stop offset="0.37" stop-color="#6D5151"/>
<stop offset="0.5" stop-color="#463434"/>
<stop offset="0.63" stop-color="#271D1D"/>
<stop offset="0.76" stop-color="#110D0D"/>
<stop offset="0.89" stop-color="#040303"/>
<stop offset="1"/>
</radialGradient>
<radialGradient id="paint39_radial_5815_59720" cx="0" cy="0" r="1" gradientUnits="userSpaceOnUse" gradientTransform="translate(37.2369 30.0995) rotate(-4.55378) scale(4.98635 4.95639)">
<stop stop-color="#FF0000"/>
<stop offset="0.09" stop-color="#D40000"/>
<stop offset="0.23" stop-color="#9D0000"/>
<stop offset="0.37" stop-color="#6D0000"/>
<stop offset="0.5" stop-color="#460000"/>
<stop offset="0.63" stop-color="#270000"/>
<stop offset="0.76" stop-color="#110000"/>
<stop offset="0.89" stop-color="#040000"/>
<stop offset="1"/>
</radialGradient>
<radialGradient id="paint40_radial_5815_59720" cx="0" cy="0" r="1" gradientUnits="userSpaceOnUse" gradientTransform="translate(37.2369 30.0995) rotate(-4.55378) scale(3.32424 3.30426)">
<stop stop-color="#FFBFBF"/>
<stop offset="0.09" stop-color="#D49F9F"/>
<stop offset="0.23" stop-color="#9D7575"/>
<stop offset="0.37" stop-color="#6D5151"/>
<stop offset="0.5" stop-color="#463434"/>
<stop offset="0.63" stop-color="#271D1D"/>
<stop offset="0.76" stop-color="#110D0D"/>
<stop offset="0.89" stop-color="#040303"/>
<stop offset="1"/>
</radialGradient>
</defs>
</svg>
