<svg width="76" height="96" viewBox="0 0 76 96" fill="none" xmlns="http://www.w3.org/2000/svg">
<path fill-rule="evenodd" clip-rule="evenodd" d="M66.2651 0L58.6109 0.354299L36.7293 8.78661L17.3459 28.2908L0 52.2413L1.82495 66.3247L7.45925 80.727L17.9837 92.2062L32.9908 95.8732L49.5216 92.7554L64.7768 79.7349L71.7399 50.5407L75.9036 26.9798L67.8242 1.24005L67.2218 0.248009L66.2651 0Z" fill="url(#paint0_radial_5815_59649)"/>
<path style="mix-blend-mode:screen" fill-rule="evenodd" clip-rule="evenodd" d="M18.2495 58.1404L18.6216 47.8658L34.8158 17.9452L61.747 12.0993L59.7803 31.3023L45.0036 58.8667L28.8803 66.8916L18.2495 58.1404Z" fill="url(#paint1_radial_5815_59649)"/>
<path style="mix-blend-mode:screen" fill-rule="evenodd" clip-rule="evenodd" d="M0 52.2413L17.3459 28.2907L36.7293 8.78661L34.8157 17.9452L18.6215 47.8658L12.1368 53.1094L0 52.2413Z" fill="url(#paint2_radial_5815_59649)"/>
<path style="mix-blend-mode:screen" fill-rule="evenodd" clip-rule="evenodd" d="M61.7469 12.0993L34.8157 17.9452L36.7292 8.78661L58.6109 0.354299L66.265 0L67.2218 0.248009L61.7469 12.0993Z" fill="url(#paint3_radial_5815_59649)"/>
<path style="mix-blend-mode:screen" fill-rule="evenodd" clip-rule="evenodd" d="M59.7803 31.3023L61.747 12.0993L67.2218 0.248016L67.8242 1.24005L75.9036 26.9799L59.7803 31.3023Z" fill="url(#paint4_radial_5815_59649)"/>
<path style="mix-blend-mode:screen" fill-rule="evenodd" clip-rule="evenodd" d="M59.7803 31.3023L75.9036 26.9798L71.7399 50.5407L62.2785 56.1741L59.7803 31.3023Z" fill="url(#paint5_radial_5815_59649)"/>
<path style="mix-blend-mode:screen" fill-rule="evenodd" clip-rule="evenodd" d="M59.7802 31.3023L62.2784 56.1741L52.1615 65.7401L45.0034 58.8667L59.7802 31.3023Z" fill="url(#paint6_radial_5815_59649)"/>
<path style="mix-blend-mode:screen" fill-rule="evenodd" clip-rule="evenodd" d="M52.1616 65.7401L62.2786 56.1741L71.7399 50.5407L64.7768 79.7349L53.6854 74.1901L52.1616 65.7401Z" fill="url(#paint7_radial_5815_59649)"/>
<path style="mix-blend-mode:screen" fill-rule="evenodd" clip-rule="evenodd" d="M53.6853 74.1902L64.7768 79.7349L49.5216 92.7554L49.2381 90.3285L46.3147 86.6615L41.0879 84.27L53.6853 74.1902Z" fill="url(#paint8_radial_5815_59649)"/>
<path style="mix-blend-mode:screen" fill-rule="evenodd" clip-rule="evenodd" d="M53.6853 74.1902L41.0879 84.2699L26.4529 79.9652L28.8802 66.8916L45.0036 58.8667L52.1616 65.7401L53.6853 74.1902Z" fill="url(#paint9_radial_5815_59649)"/>
<path style="mix-blend-mode:screen" fill-rule="evenodd" clip-rule="evenodd" d="M26.4528 79.9652L41.0879 84.27L46.3146 86.6615L49.2381 90.3285L49.5216 92.7554L32.9908 95.8732L17.9837 92.2062L7.45923 80.727L26.4528 79.9652Z" fill="url(#paint10_radial_5815_59649)"/>
<path style="mix-blend-mode:screen" fill-rule="evenodd" clip-rule="evenodd" d="M15.5032 70.0449L26.4529 79.9652L7.45925 80.727L1.82495 66.3247L15.5032 70.0449Z" fill="url(#paint11_radial_5815_59649)"/>
<path style="mix-blend-mode:screen" fill-rule="evenodd" clip-rule="evenodd" d="M26.4528 79.9652L15.5031 70.0449L12.1367 53.1094L18.2494 58.1404L28.8802 66.8916L26.4528 79.9652Z" fill="url(#paint12_radial_5815_59649)"/>
<path style="mix-blend-mode:screen" fill-rule="evenodd" clip-rule="evenodd" d="M12.1368 53.1094L15.5032 70.0448L1.82495 66.3247L0 52.2413L12.1368 53.1094Z" fill="url(#paint13_radial_5815_59649)"/>
<path style="mix-blend-mode:screen" fill-rule="evenodd" clip-rule="evenodd" d="M18.2494 58.1404L12.1367 53.1094L18.6215 47.8658L18.2494 58.1404Z" fill="url(#paint14_radial_5815_59649)"/>
<path style="mix-blend-mode:multiply" fill-rule="evenodd" clip-rule="evenodd" d="M18.2495 58.1404L18.6216 47.8658L34.8158 17.9452L61.747 12.0993L59.7803 31.3023L45.0036 58.8667L28.8803 66.8916L18.2495 58.1404Z" fill="url(#paint15_radial_5815_59649)"/>
<g style="mix-blend-mode:screen">
<path fill-rule="evenodd" clip-rule="evenodd" d="M20.3401 88.8227C20.3401 88.4861 20.6413 88.433 20.9248 88.4684C21.0803 88.5025 21.2166 88.5952 21.3057 88.7271C21.3947 88.859 21.4296 89.0201 21.4032 89.177C21.4032 89.4073 21.0134 89.5313 20.8008 89.4604C20.6584 89.4305 20.5323 89.3486 20.4471 89.2306C20.3619 89.1127 20.3238 88.9672 20.3401 88.8227Z" fill="#FFE682"/>
</g>
<g style="mix-blend-mode:screen">
<path fill-rule="evenodd" clip-rule="evenodd" d="M28.526 61.4531C28.526 61.1342 28.8272 61.0634 29.1106 61.1165C29.2626 61.1506 29.3961 61.2406 29.4847 61.3686C29.5734 61.4966 29.6106 61.6532 29.589 61.8074C29.589 62.0554 29.1815 62.1794 28.9866 62.1086C28.8428 62.0748 28.7164 61.9894 28.6315 61.8685C28.5466 61.7477 28.509 61.5998 28.526 61.4531Z" fill="#FFE682"/>
</g>
<g style="mix-blend-mode:screen">
<path fill-rule="evenodd" clip-rule="evenodd" d="M54.0573 33.9241C54.0573 33.6052 54.3585 33.5344 54.642 33.5875C54.7906 33.6253 54.92 33.7169 55.0051 33.8445C55.0902 33.9721 55.1249 34.1267 55.1027 34.2784C55.1027 34.5264 54.7129 34.6504 54.5002 34.5796C54.3555 34.5496 54.2283 34.4643 54.1455 34.3419C54.0628 34.2194 54.0311 34.0695 54.0573 33.9241Z" fill="#FFE682"/>
</g>
<g style="mix-blend-mode:screen" opacity="0.6">
<path fill-rule="evenodd" clip-rule="evenodd" d="M43.0191 48.7338C43.3203 48.5744 43.5329 48.7338 43.6747 49.0349C43.7322 49.1887 43.7316 49.3583 43.6728 49.5116C43.6141 49.6649 43.5013 49.7915 43.3558 49.8675C43.1254 49.9915 42.8065 49.7435 42.7356 49.5132C42.674 49.3718 42.6691 49.212 42.7218 49.067C42.7746 48.9219 42.881 48.8027 43.0191 48.7338Z" fill="#FFE682"/>
</g>
<g style="mix-blend-mode:screen" opacity="0.6">
<path fill-rule="evenodd" clip-rule="evenodd" d="M58.8236 69.9917C59.1248 69.8145 59.3374 69.9917 59.4614 70.2929C59.5244 70.4442 59.5284 70.6136 59.4727 70.7677C59.4169 70.9218 59.3054 71.0495 59.1602 71.1255C58.9299 71.2495 58.6109 71.0015 58.5401 70.7712C58.4785 70.6297 58.4735 70.4699 58.5263 70.3249C58.579 70.1798 58.6854 70.0606 58.8236 69.9917Z" fill="#FFE682"/>
</g>
<g style="mix-blend-mode:screen" opacity="0.6">
<path fill-rule="evenodd" clip-rule="evenodd" d="M31.0597 83.4373C31.0597 83.083 31.3609 83.0299 31.6621 83.0653C31.8236 83.1035 31.9646 83.2015 32.0567 83.3396C32.1488 83.4777 32.1851 83.6456 32.1582 83.8094C32.1582 84.0574 31.7507 84.1814 31.5203 84.1105C31.3709 84.0804 31.2392 83.9933 31.1532 83.8675C31.0671 83.7418 31.0336 83.5874 31.0597 83.4373Z" fill="#FFE682"/>
</g>
<g style="mix-blend-mode:screen" opacity="0.5">
<path fill-rule="evenodd" clip-rule="evenodd" d="M32.7249 58.1759C32.7249 57.8216 33.0439 57.7684 33.3451 57.8038C33.5045 57.8456 33.6431 57.9445 33.7345 58.0816C33.826 58.2187 33.8639 58.3846 33.8412 58.5479C33.8412 58.7959 33.4336 58.9376 33.2033 58.849C33.0528 58.8189 32.9195 58.7324 32.8306 58.6073C32.7417 58.4822 32.7039 58.3279 32.7249 58.1759Z" fill="#FFE682"/>
</g>
<g style="mix-blend-mode:screen" opacity="0.5">
<path fill-rule="evenodd" clip-rule="evenodd" d="M49.628 64.3052C49.628 63.9509 49.9292 63.8978 50.2304 63.9332C50.3942 63.9674 50.538 64.0646 50.6307 64.2037C50.7235 64.3429 50.7579 64.5129 50.7265 64.6772C50.7265 64.9252 50.319 65.0492 50.0887 64.9784C49.9393 64.9483 49.8076 64.8611 49.7215 64.7354C49.6355 64.6097 49.6019 64.4553 49.628 64.3052Z" fill="#FFE682"/>
</g>
<g style="mix-blend-mode:screen" opacity="0.5">
<path fill-rule="evenodd" clip-rule="evenodd" d="M54.5535 66.7676C54.5535 66.4133 54.8725 66.3602 55.1737 66.3956C55.3331 66.4374 55.4717 66.5362 55.5631 66.6733C55.6546 66.8105 55.6925 66.9764 55.6698 67.1396C55.6698 67.3876 55.2623 67.5116 55.0319 67.4408C54.8814 67.4106 54.7481 67.3242 54.6592 67.1991C54.5703 67.0739 54.5325 66.9196 54.5535 66.7676Z" fill="#FFE682"/>
</g>
<g style="mix-blend-mode:screen">
<path fill-rule="evenodd" clip-rule="evenodd" d="M14.6705 66.7676C14.6705 66.431 14.9717 66.3779 15.2729 66.431C15.4248 66.4651 15.5583 66.5551 15.647 66.6831C15.7356 66.8111 15.7728 66.9677 15.7513 67.1219C15.7513 67.3699 15.3437 67.4939 15.1311 67.4231C14.9853 67.393 14.8565 67.3084 14.7709 67.1866C14.6853 67.0648 14.6493 66.915 14.6705 66.7676Z" fill="#FFE682"/>
</g>
<g style="mix-blend-mode:screen" opacity="0.35">
<path fill-rule="evenodd" clip-rule="evenodd" d="M22.998 55.6603C22.998 55.1997 23.4232 55.1112 23.8307 55.1643C24.0516 55.2153 24.2452 55.3474 24.3732 55.5344C24.5012 55.7215 24.5542 55.9498 24.5217 56.1741C24.5217 56.5284 23.9547 56.7055 23.6535 56.5992C23.4449 56.5562 23.2606 56.435 23.1387 56.2603C23.0168 56.0857 22.9664 55.871 22.998 55.6603Z" fill="#FFE682"/>
</g>
<g style="mix-blend-mode:screen">
<path fill-rule="evenodd" clip-rule="evenodd" d="M50.443 42.7284C50.443 42.2678 50.8683 42.1615 51.2758 42.2324C51.4966 42.2834 51.6903 42.4155 51.8182 42.6025C51.9462 42.7896 51.9993 43.0179 51.9668 43.2422C51.9668 43.5965 51.3998 43.7736 51.0986 43.6673C50.89 43.6244 50.7057 43.5031 50.5838 43.3284C50.4618 43.1538 50.4115 42.9391 50.443 42.7284Z" fill="#FFE682"/>
</g>
<g style="mix-blend-mode:screen">
<path fill-rule="evenodd" clip-rule="evenodd" d="M43.3381 64.2344C43.3381 63.7561 43.7633 63.6675 44.1708 63.7383C44.3938 63.7855 44.59 63.9167 44.7187 64.1048C44.8474 64.2928 44.8987 64.5232 44.8618 64.7481C44.8618 65.1024 44.2949 65.2795 43.9937 65.1733C43.7829 65.1344 43.5959 65.0141 43.4732 64.8383C43.3505 64.6626 43.3019 64.4456 43.3381 64.2344Z" fill="#FFE682"/>
</g>
<g style="mix-blend-mode:screen">
<path fill-rule="evenodd" clip-rule="evenodd" d="M30.0674 91.8342C30.0674 91.3736 30.4926 91.2851 30.9178 91.3382C31.1347 91.3962 31.3236 91.5299 31.4504 91.7151C31.5772 91.9004 31.6334 92.1249 31.6088 92.348C31.6088 92.7023 31.0241 92.8794 30.7229 92.7908C30.5129 92.7439 30.3284 92.6191 30.2068 92.4416C30.0851 92.2641 30.0353 92.047 30.0674 91.8342Z" fill="#FFE682"/>
</g>
<g style="mix-blend-mode:screen">
<path fill-rule="evenodd" clip-rule="evenodd" d="M39.7414 43.1713C39.7414 42.9764 39.9186 42.941 40.0958 42.9587C40.1884 42.98 40.2693 43.0359 40.3221 43.1149C40.3748 43.194 40.3952 43.2902 40.3792 43.3839C40.3792 43.5256 40.1312 43.5964 40.0072 43.5433C39.9261 43.5227 39.8549 43.474 39.8062 43.4059C39.7576 43.3378 39.7346 43.2547 39.7414 43.1713Z" fill="#FFE682"/>
</g>
<g style="mix-blend-mode:screen">
<path fill-rule="evenodd" clip-rule="evenodd" d="M57.9199 46.1651C57.9199 45.9703 58.097 45.9348 58.2565 45.9703C58.3456 45.9914 58.4238 46.0446 58.4761 46.1198C58.5285 46.195 58.5512 46.2868 58.54 46.3777C58.54 46.5194 58.3097 46.5903 58.1856 46.5549C58.0991 46.5377 58.0228 46.4872 57.973 46.4143C57.9233 46.3414 57.9042 46.252 57.9199 46.1651Z" fill="#FFE682"/>
</g>
<g style="mix-blend-mode:screen">
<path fill-rule="evenodd" clip-rule="evenodd" d="M44.6492 70.2929C44.6492 70.098 44.8264 70.0626 44.9859 70.098C45.0771 70.1153 45.1579 70.1676 45.2109 70.2438C45.2639 70.32 45.2849 70.4139 45.2694 70.5054C45.2694 70.6472 45.039 70.718 44.915 70.6826C44.8306 70.6616 44.7568 70.6102 44.7078 70.5384C44.6588 70.4665 44.638 70.3791 44.6492 70.2929Z" fill="#FFE682"/>
</g>
<g style="mix-blend-mode:screen">
<path fill-rule="evenodd" clip-rule="evenodd" d="M59.4615 62.3389C59.4615 62.1617 59.6387 62.1086 59.8158 62.144C59.9017 62.1687 59.9758 62.2235 60.0246 62.2983C60.0734 62.3731 60.0936 62.4629 60.0816 62.5514C60.0816 62.6932 59.8513 62.764 59.7273 62.7286C59.6428 62.7076 59.5691 62.6562 59.5201 62.5844C59.4711 62.5125 59.4502 62.4251 59.4615 62.3389Z" fill="#FFE682"/>
</g>
<g style="mix-blend-mode:screen">
<path fill-rule="evenodd" clip-rule="evenodd" d="M17.0092 86.6083C16.8279 86.6441 16.6413 86.6441 16.4599 86.6083C16.3536 86.6083 16.0524 86.4843 15.9993 86.3603C16.0941 86.2639 16.2013 86.1805 16.3182 86.1123C16.3182 86.1123 16.6548 85.9529 16.7434 85.9883C16.8403 86.0583 16.9173 86.1522 16.967 86.2609C17.0167 86.3696 17.0373 86.4893 17.0269 86.6083H17.0092Z" fill="#FFC785"/>
</g>
<g style="mix-blend-mode:screen" opacity="0.4">
<path fill-rule="evenodd" clip-rule="evenodd" d="M22.9269 84.4825C23.2258 84.4295 23.5316 84.4295 23.8305 84.4825C23.99 84.4825 24.5038 84.6243 24.6101 84.8191C24.4811 85.0014 24.3188 85.1577 24.1317 85.2797C23.9349 85.4265 23.7025 85.5182 23.4584 85.5454C23.2952 85.4435 23.1597 85.3028 23.0639 85.136C22.9681 84.9691 22.9149 84.7812 22.9092 84.5888L22.9269 84.4825Z" fill="#FFC785"/>
</g>
<g style="mix-blend-mode:screen" opacity="0.4">
<path fill-rule="evenodd" clip-rule="evenodd" d="M51.9135 75.0936C52.2123 75.0406 52.5182 75.0406 52.8171 75.0936C52.9765 75.0936 53.4904 75.2353 53.5967 75.4125C53.465 75.5975 53.3033 75.7591 53.1183 75.8908C52.9215 76.0376 52.6891 76.1293 52.445 76.1565C52.2818 76.0546 52.1463 75.9139 52.0505 75.747C51.9546 75.5802 51.9015 75.3922 51.8958 75.1999L51.9135 75.0936Z" fill="#FFC785"/>
</g>
<g style="mix-blend-mode:screen" opacity="0.4">
<path fill-rule="evenodd" clip-rule="evenodd" d="M36.7469 55.1998C36.6287 55.4097 36.4725 55.5959 36.2863 55.7489C36.1977 55.7489 35.861 56.0855 35.6839 56.0678C35.649 55.8924 35.649 55.7118 35.6839 55.5363C35.6839 55.3946 35.6839 55.058 35.861 54.9872C36.0058 54.9349 36.1616 54.9205 36.3135 54.9453C36.4655 54.9701 36.6086 55.0333 36.7292 55.1289L36.7469 55.1998Z" fill="#FFC785"/>
</g>
<g style="mix-blend-mode:screen">
<path fill-rule="evenodd" clip-rule="evenodd" d="M40.822 57.0244C41.1226 56.7636 41.4719 56.5649 41.8497 56.4398C42.0623 56.4398 42.7178 56.1918 42.9659 56.3335C42.9288 56.6249 42.8387 56.9071 42.7001 57.1661C42.5595 57.4524 42.3531 57.7013 42.0977 57.8924C41.8453 57.8827 41.5998 57.8073 41.3854 57.6737C41.171 57.5401 40.9951 57.353 40.8752 57.1307L40.822 57.0244Z" fill="#FFE682"/>
</g>
<g style="mix-blend-mode:screen">
<path fill-rule="evenodd" clip-rule="evenodd" d="M51.0984 61.028C51.4017 60.7753 51.7505 60.5829 52.126 60.4611C52.3209 60.4611 52.9942 60.1954 53.2245 60.3371C53.1986 60.6285 53.1142 60.9116 52.9765 61.1697C52.8702 61.3645 52.569 61.8428 52.3564 61.896C52.1437 61.9491 51.2933 61.4885 51.1338 61.1343L51.0984 61.028Z" fill="#FFE682"/>
</g>
<g style="mix-blend-mode:screen">
<path fill-rule="evenodd" clip-rule="evenodd" d="M35.489 80.0361C35.5776 79.8589 36.056 79.5932 36.1977 79.5046C36.3395 79.4161 36.8179 79.2389 37.0128 79.3275C37.0058 79.5453 36.9639 79.7606 36.8887 79.9652C36.8887 80.1069 36.6584 80.4967 36.5167 80.5675C36.3271 80.5861 36.1359 80.555 35.962 80.4773C35.788 80.3997 35.6372 80.2782 35.5245 80.1247L35.489 80.0361Z" fill="#FFE682"/>
</g>
<g style="mix-blend-mode:screen">
<path fill-rule="evenodd" clip-rule="evenodd" d="M30.2445 44.0039C29.9964 44.1279 29.8192 44.1456 29.6952 43.8799C29.659 43.8274 29.6356 43.7672 29.6269 43.704C29.6182 43.6409 29.6244 43.5766 29.6451 43.5163C29.6658 43.4559 29.7003 43.4013 29.7459 43.3568C29.7916 43.3123 29.847 43.2791 29.9078 43.2599C30.1736 43.1182 30.3331 43.1359 30.4394 43.437C30.5457 43.7382 30.528 43.8445 30.2445 44.0039Z" fill="#FFC785"/>
</g>
<g style="mix-blend-mode:screen">
<path fill-rule="evenodd" clip-rule="evenodd" d="M37.5621 88.8758C37.3141 89.0176 37.1369 89.0176 37.0129 88.7695C36.9729 88.7168 36.9464 88.6551 36.9356 88.5897C36.9248 88.5244 36.9302 88.4575 36.9511 88.3947C36.972 88.3319 37.008 88.2751 37.0558 88.2293C37.1036 88.1835 37.1618 88.15 37.2255 88.1318C37.4912 87.9901 37.6507 88.0255 37.757 88.309C37.8633 88.5924 37.757 88.7341 37.5621 88.8758Z" fill="#FFC785"/>
</g>
<g style="mix-blend-mode:screen">
<path fill-rule="evenodd" clip-rule="evenodd" d="M50.372 49.9207C50.1417 50.0447 49.9645 50.0447 49.8405 49.7967C49.8003 49.7451 49.7731 49.6846 49.7612 49.6203C49.7493 49.556 49.7531 49.4897 49.7722 49.4272C49.7913 49.3646 49.8252 49.3076 49.871 49.2609C49.9168 49.2142 49.9732 49.1792 50.0354 49.1589C50.3011 49.0172 50.4783 49.0527 50.5846 49.3361C50.6909 49.6195 50.5846 49.7612 50.372 49.9207Z" fill="#FFC785"/>
</g>
<g style="mix-blend-mode:screen">
<path fill-rule="evenodd" clip-rule="evenodd" d="M14.706 79.4338C14.9067 79.3636 15.1254 79.3636 15.3261 79.4338C15.5387 79.4338 15.8045 79.7172 15.7336 79.9652C15.6791 80.0861 15.5827 80.1832 15.4622 80.2385C15.3417 80.2939 15.2053 80.3038 15.0781 80.2664C14.7414 80.1601 14.6706 79.7526 14.706 79.4338Z" fill="#FFE682"/>
</g>
<g style="mix-blend-mode:screen">
<path fill-rule="evenodd" clip-rule="evenodd" d="M45.6769 45.4565C45.6862 45.5892 45.6485 45.7208 45.5706 45.8285C45.5706 45.9348 45.3225 46.0766 45.1808 45.988C45.1333 45.9239 45.1077 45.8463 45.1077 45.7665C45.1077 45.6868 45.1333 45.6092 45.1808 45.5451C45.3048 45.3502 45.5706 45.3857 45.7477 45.4565H45.6769Z" fill="#FFE682"/>
</g>
<g style="mix-blend-mode:screen">
<path fill-rule="evenodd" clip-rule="evenodd" d="M44.0646 74.1193C44.0874 74.1653 44.1 74.2156 44.1014 74.2669C44.1028 74.3182 44.0931 74.3692 44.0729 74.4164C44.0527 74.4636 44.0224 74.5058 43.9843 74.5401C43.9461 74.5745 43.901 74.6001 43.8519 74.6153C43.8043 74.6317 43.7538 74.6382 43.7036 74.6345C43.6533 74.6308 43.6043 74.617 43.5596 74.5938C43.5149 74.5706 43.4753 74.5386 43.4433 74.4996C43.4114 74.4607 43.3876 74.4157 43.3736 74.3673C43.3535 74.3173 43.3435 74.2638 43.3443 74.21C43.345 74.1561 43.3564 74.1029 43.3778 74.0535C43.3993 74.0041 43.4303 73.9594 43.4691 73.9221C43.5079 73.8847 43.5537 73.8554 43.6039 73.8358C43.8165 73.8358 43.9937 73.8358 44.0646 74.1193Z" fill="#FFE682"/>
</g>
<path style="mix-blend-mode:screen" fill-rule="evenodd" clip-rule="evenodd" d="M45.0213 74.1193C45.0248 74.38 44.9504 74.6359 44.8077 74.8542C44.665 75.0725 44.4605 75.2432 44.2202 75.3446C43.9799 75.446 43.7148 75.4735 43.4588 75.4235C43.2029 75.3734 42.9676 75.2482 42.7832 75.0638C42.5988 74.8794 42.4735 74.6443 42.4235 74.3883C42.3735 74.1324 42.4009 73.8674 42.5024 73.6271C42.6038 73.3869 42.7746 73.1823 42.9929 73.0396C43.2112 72.897 43.4671 72.8226 43.7279 72.8261C44.0695 72.8307 44.3958 72.9684 44.6374 73.2099C44.879 73.4515 45.0167 73.7777 45.0213 74.1193Z" fill="url(#paint16_radial_5815_59649)"/>
<g style="mix-blend-mode:screen">
<path fill-rule="evenodd" clip-rule="evenodd" d="M50.1417 38.3883C50.1685 38.4401 50.1839 38.4971 50.1867 38.5554C50.1896 38.6137 50.1799 38.6719 50.1583 38.7261C50.1367 38.7803 50.1037 38.8293 50.0615 38.8696C50.0194 38.91 49.969 38.9408 49.9139 38.96C49.8588 38.9793 49.8002 38.9864 49.7421 38.981C49.684 38.9756 49.6277 38.9578 49.5771 38.9288C49.5264 38.8998 49.4826 38.8603 49.4486 38.8128C49.4146 38.7654 49.3911 38.7112 49.3799 38.654C49.3569 38.5994 49.3451 38.5408 49.3452 38.4816C49.3453 38.4224 49.3573 38.3638 49.3804 38.3093C49.4035 38.2548 49.4373 38.2055 49.4799 38.1643C49.5224 38.1231 49.5727 38.0908 49.6279 38.0694C49.6827 38.0536 49.7401 38.0495 49.7966 38.0573C49.8531 38.0651 49.9072 38.0847 49.9557 38.1147C50.0041 38.1448 50.0457 38.1847 50.0777 38.2318C50.1098 38.2789 50.1316 38.3322 50.1417 38.3883Z" fill="#FFE682"/>
</g>
<path style="mix-blend-mode:screen" fill-rule="evenodd" clip-rule="evenodd" d="M51.2047 38.5123C51.1653 38.8676 50.9962 39.1959 50.7298 39.4344C50.4633 39.6729 50.1183 39.8047 49.7607 39.8047C49.4031 39.8047 49.0581 39.6729 48.7917 39.4344C48.5253 39.1959 48.3561 38.8676 48.3167 38.5123C48.2942 38.3092 48.3147 38.1037 48.377 37.9092C48.4393 37.7146 48.542 37.5354 48.6782 37.3832C48.8145 37.231 48.9814 37.1093 49.1679 37.0259C49.3544 36.9426 49.5564 36.8995 49.7607 36.8995C49.965 36.8995 50.1671 36.9426 50.3536 37.0259C50.5401 37.1093 50.707 37.231 50.8432 37.3832C50.9795 37.5354 51.0821 37.7146 51.1444 37.9092C51.2067 38.1037 51.2273 38.3092 51.2047 38.5123Z" fill="url(#paint17_radial_5815_59649)"/>
<g style="mix-blend-mode:screen">
<path fill-rule="evenodd" clip-rule="evenodd" d="M58.4869 52.4362C58.5786 52.3828 58.6799 52.3482 58.7851 52.3344C58.8903 52.3206 58.9972 52.328 59.0995 52.356C59.2018 52.3841 59.2975 52.4322 59.3809 52.4977C59.4644 52.5632 59.5339 52.6447 59.5855 52.7374C59.7981 52.9854 59.8335 53.6054 59.5855 53.7825C59.3874 53.8924 59.1543 53.9205 58.9359 53.8609C58.7174 53.8013 58.5309 53.6588 58.4161 53.4637C58.2212 53.0917 58.1326 52.6488 58.5755 52.4362H58.4869Z" fill="#FFE682"/>
</g>
<path style="mix-blend-mode:screen" opacity="0.5" fill-rule="evenodd" clip-rule="evenodd" d="M61.1445 53.1094C61.1445 53.5411 61.0162 53.963 60.776 54.3217C60.5357 54.6804 60.1943 54.9597 59.795 55.1241C59.3958 55.2885 58.9567 55.3306 58.5335 55.2451C58.1103 55.1595 57.722 54.9502 57.4179 54.6437C57.1138 54.3372 56.9077 53.9473 56.8256 53.5235C56.7436 53.0997 56.7892 52.661 56.9569 52.2632C57.1246 51.8654 57.4067 51.5263 57.7674 51.289C58.1281 51.0517 58.5511 50.9269 58.9829 50.9304C59.5578 50.9351 60.1076 51.1667 60.5125 51.5749C60.9173 51.983 61.1445 52.5345 61.1445 53.1094Z" fill="url(#paint18_radial_5815_59649)"/>
<g style="mix-blend-mode:screen">
<path fill-rule="evenodd" clip-rule="evenodd" d="M23.2638 66.7853C23.3567 66.7315 23.4595 66.6965 23.566 66.6825C23.6725 66.6685 23.7808 66.6758 23.8845 66.7037C23.9883 66.7317 24.0854 66.78 24.1705 66.8456C24.2555 66.9113 24.3267 66.9932 24.38 67.0865C24.5926 67.3522 24.628 67.9722 24.38 68.1494C24.1793 68.2601 23.9435 68.2887 23.7221 68.2293C23.5008 68.1698 23.311 68.0269 23.1929 67.8305C22.9803 67.4585 22.9094 66.9979 23.3523 66.7853H23.2638Z" fill="#FFE682"/>
</g>
<path style="mix-blend-mode:screen" fill-rule="evenodd" clip-rule="evenodd" d="M25.9746 67.4585C25.9781 67.8972 25.8512 68.327 25.61 68.6935C25.3688 69.06 25.0241 69.3466 24.6197 69.5169C24.2154 69.6872 23.7695 69.7336 23.3387 69.6501C22.9079 69.5667 22.5117 69.3572 22.2002 69.0483C21.8886 68.7393 21.6759 68.3448 21.589 67.9147C21.5021 67.4847 21.5449 67.0386 21.712 66.6329C21.8791 66.2273 22.163 65.8804 22.5276 65.6363C22.8922 65.3922 23.3211 65.2618 23.7598 65.2618C24.3442 65.2618 24.9048 65.4927 25.3197 65.9041C25.7345 66.3156 25.9699 66.8743 25.9746 67.4585Z" fill="url(#paint19_radial_5815_59649)"/>
<g style="mix-blend-mode:screen">
<path fill-rule="evenodd" clip-rule="evenodd" d="M17.0268 75.8908C17.1043 76.0323 17.1236 76.1984 17.0806 76.3538C17.0376 76.5092 16.9357 76.6418 16.7965 76.7234C16.6016 76.8828 16.1232 76.9183 15.9992 76.7234C15.9556 76.6494 15.9274 76.5673 15.9162 76.4821C15.9051 76.397 15.9113 76.3104 15.9345 76.2277C15.9577 76.145 15.9973 76.0678 16.0511 76.0008C16.1048 75.9337 16.1715 75.8783 16.2472 75.8376C16.513 75.6782 16.8674 75.6073 17.0268 75.9439V75.8908Z" fill="#FFE682"/>
</g>
<path style="mix-blend-mode:screen" fill-rule="evenodd" clip-rule="evenodd" d="M16.5131 77.8394C16.1837 77.8394 15.8617 77.7418 15.5878 77.5588C15.314 77.3758 15.1005 77.1157 14.9744 76.8115C14.8484 76.5072 14.8154 76.1724 14.8797 75.8494C14.9439 75.5263 15.1025 75.2296 15.3355 74.9967C15.5684 74.7639 15.8651 74.6053 16.1882 74.541C16.5113 74.4768 16.8462 74.5097 17.1505 74.6358C17.4548 74.7618 17.7149 74.9752 17.8979 75.2491C18.0809 75.5229 18.1786 75.8449 18.1786 76.1742C18.1786 76.6159 18.0032 77.0394 17.6908 77.3517C17.3785 77.664 16.9549 77.8394 16.5131 77.8394Z" fill="url(#paint20_radial_5815_59649)"/>
<g style="mix-blend-mode:screen">
<path fill-rule="evenodd" clip-rule="evenodd" d="M34.355 71.1432C34.3957 71.2127 34.4221 71.2896 34.4325 71.3695C34.4429 71.4494 34.4373 71.5305 34.4158 71.6081C34.3943 71.6858 34.3575 71.7583 34.3075 71.8215C34.2575 71.8846 34.1953 71.9371 34.1247 71.9758C33.9298 72.1352 33.4691 72.1707 33.3273 71.9758C33.2441 71.8251 33.2235 71.6478 33.2699 71.4821C33.3163 71.3164 33.426 71.1756 33.5754 71.09C33.8589 70.9306 34.1955 70.8775 34.355 71.214V71.1432Z" fill="#FFE682"/>
</g>
<path style="mix-blend-mode:screen" fill-rule="evenodd" clip-rule="evenodd" d="M33.8413 73.1804C33.5077 73.1839 33.1805 73.0882 32.9014 72.9054C32.6223 72.7227 32.4038 72.4611 32.2737 72.1539C32.1435 71.8467 32.1077 71.5078 32.1706 71.1802C32.2335 70.8526 32.3924 70.551 32.6271 70.3139C32.8618 70.0768 33.1617 69.9147 33.4886 69.8483C33.8156 69.7819 34.155 69.8142 34.4636 69.9411C34.7722 70.0679 35.0361 70.2836 35.2218 70.5607C35.4076 70.8378 35.5068 71.1639 35.5068 71.4975C35.5068 71.9408 35.3319 72.3662 35.0201 72.6813C34.7082 72.9964 34.2846 73.1758 33.8413 73.1804Z" fill="url(#paint21_radial_5815_59649)"/>
<path style="mix-blend-mode:screen" fill-rule="evenodd" clip-rule="evenodd" d="M26.9313 65.2618C27.3211 52.8614 27.8172 40.4609 28.331 29.832L25.1595 35.7487C24.9823 44.8188 24.7107 53.9656 24.3445 63.1892L26.9313 65.2618Z" fill="url(#paint22_radial_5815_59649)"/>
<path style="mix-blend-mode:screen" fill-rule="evenodd" clip-rule="evenodd" d="M32.3885 22.4271C32.2113 36.5991 31.8569 51.0722 31.3608 65.6693L35.9852 63.3663C36.5699 47.8126 37.3672 32.0995 38.324 17.1835L34.7804 17.9452L32.353 22.4271H32.3885Z" fill="url(#paint23_radial_5815_59649)"/>
<path style="mix-blend-mode:screen" fill-rule="evenodd" clip-rule="evenodd" d="M48.4941 14.9691C48.4941 27.5467 48.122 42.1084 47.3247 54.562L49.3091 50.8419C49.3091 39.8409 49.7875 26.1472 50.9569 14.6502L50.8506 14.4554L48.4941 14.9691Z" fill="url(#paint24_radial_5815_59649)"/>
<path style="mix-blend-mode:screen" fill-rule="evenodd" clip-rule="evenodd" d="M13.1998 58.4239L15.0247 69.478L2.26782 66.4487L15.3259 70.5232L24.5924 78.2823L15.822 69.8677L13.1998 58.4239Z" fill="url(#paint25_radial_5815_59649)"/>
<path style="mix-blend-mode:screen" fill-rule="evenodd" clip-rule="evenodd" d="M61.1091 18.2818L59.6208 29.956C59.5767 30.4343 59.4937 30.9083 59.3727 31.3732C58.9829 32.5778 58.0439 34.3847 57.4946 35.5893C58.049 34.4706 58.7201 33.4137 59.4968 32.436C59.7802 32.436 60.9142 42.8347 61.0559 43.933C60.9496 42.2324 59.922 32.5246 60.5953 31.6034C61.0559 31.0189 72.1828 28.0605 73.742 27.5467C72.2005 27.901 60.9673 30.824 60.4712 30.3457C60.3854 30.2234 60.3255 30.085 60.295 29.9388C60.2645 29.7926 60.2642 29.6417 60.2941 29.4954L61.0914 18.2641L61.1091 18.2818Z" fill="url(#paint26_radial_5815_59649)"/>
<path style="mix-blend-mode:screen" fill-rule="evenodd" clip-rule="evenodd" d="M18.5152 50.7887C18.4893 53.1544 18.5899 55.5198 18.8164 57.8747C19.0869 58.3194 19.4568 58.6954 19.8972 58.973L27.6399 64.9784C28.1244 65.3522 28.7067 65.5778 29.3166 65.6281C29.9265 65.6784 30.538 65.5512 31.0772 65.2618L42.8773 59.5576C44.1569 58.9525 45.2026 57.9443 45.8539 56.6878L57.5655 35.5893L46.1551 57.6444C45.1984 59.4159 48.1573 61.7366 49.2381 62.9589C48.1041 62.0377 45.4996 59.1502 44.0467 59.8765L31.2189 66.2716C30.6177 66.575 30.0923 67.0095 29.6814 67.543C29.2705 68.0764 28.9846 68.6953 28.8447 69.354L26.9312 77.3788L28.1006 69.23C28.2143 68.6104 28.1664 67.9719 27.9616 67.3762C27.7568 66.7804 27.4019 66.2475 26.9312 65.8287L14.0857 54.7392L16.9737 56.7764C17.0623 56.8373 17.1674 56.8699 17.2749 56.8699C17.3825 56.8699 17.4875 56.8373 17.5761 56.7764C18.214 56.3866 18.3911 51.7099 18.4797 50.7887H18.5152Z" fill="url(#paint27_radial_5815_59649)"/>
<path style="mix-blend-mode:screen" fill-rule="evenodd" clip-rule="evenodd" d="M36.4813 9.93808L34.302 18.0161L20.4465 44.5885C22.2183 41.5415 34.3374 19.3801 35.2942 18.583C36.2509 17.7858 52.392 14.2605 54.7839 13.6936C52.6755 14.1011 36.4281 17.6795 35.8257 17.0241C35.2233 16.3686 36.3572 11.0718 36.4813 9.93808Z" fill="url(#paint28_radial_5815_59649)"/>
<path style="mix-blend-mode:screen" d="M18.3735 69.4603C24.6264 69.4603 29.6953 64.3922 29.6953 58.1404C29.6953 51.8887 24.6264 46.8206 18.3735 46.8206C12.1207 46.8206 7.05176 51.8887 7.05176 58.1404C7.05176 64.3922 12.1207 69.4603 18.3735 69.4603Z" fill="url(#paint29_radial_5815_59649)"/>
<path style="mix-blend-mode:screen" fill-rule="evenodd" clip-rule="evenodd" d="M25.9214 58.1759C25.9249 59.6734 25.4837 61.1383 24.6537 62.385C23.8238 63.6316 22.6424 64.6039 21.2592 65.1786C19.8761 65.7534 18.3534 65.9046 16.8842 65.6133C15.415 65.322 14.0653 64.6013 13.0062 63.5423C11.9471 62.4834 11.2261 61.1339 10.9348 59.6649C10.6434 58.196 10.7948 56.6736 11.3696 55.2907C11.9444 53.9077 12.9168 52.7265 14.1637 51.8967C15.4105 51.0669 16.8757 50.6258 18.3735 50.6293C20.3739 50.634 22.291 51.4306 23.7055 52.8448C25.12 54.259 25.9167 56.1758 25.9214 58.1759Z" fill="url(#paint30_radial_5815_59649)"/>
<path style="mix-blend-mode:screen" fill-rule="evenodd" clip-rule="evenodd" d="M51.7362 58.9907C51.7362 60.3326 51.3383 61.6444 50.5926 62.7602C49.847 63.8759 48.7871 64.7456 47.5472 65.2591C46.3072 65.7726 44.9427 65.907 43.6264 65.6452C42.3101 65.3834 41.1009 64.7372 40.1519 63.7883C39.2028 62.8394 38.5565 61.6305 38.2947 60.3144C38.0329 58.9982 38.1672 57.6341 38.6809 56.3943C39.1945 55.1545 40.0642 54.0949 41.1802 53.3494C42.2961 52.6038 43.6081 52.2059 44.9503 52.2059C46.7486 52.2106 48.4719 52.9269 49.7435 54.1983C51.0151 55.4697 51.7316 57.1927 51.7362 58.9907Z" fill="url(#paint31_radial_5815_59649)"/>
<path style="mix-blend-mode:screen" fill-rule="evenodd" clip-rule="evenodd" d="M49.4153 58.9907C49.4153 59.8884 49.1489 60.7659 48.6497 61.5121C48.1505 62.2582 47.441 62.8395 46.6112 63.1822C45.7814 63.5249 44.8685 63.6137 43.9881 63.4373C43.1078 63.2609 42.2996 62.8272 41.666 62.1912C41.0324 61.5552 40.6018 60.7454 40.4288 59.8646C40.2557 58.9837 40.3481 58.0713 40.6941 57.2429C41.0401 56.4146 41.6243 55.7076 42.3725 55.2114C43.1207 54.7152 43.9994 54.4522 44.8973 54.4557C45.4921 54.4557 46.081 54.5731 46.6304 54.8013C47.1797 55.0294 47.6785 55.3637 48.0983 55.7851C48.5181 56.2064 48.8505 56.7065 49.0765 57.2566C49.3025 57.8067 49.4177 58.396 49.4153 58.9907Z" fill="url(#paint32_radial_5815_59649)"/>
<defs>
<radialGradient id="paint0_radial_5815_59649" cx="0" cy="0" r="1" gradientUnits="userSpaceOnUse" gradientTransform="translate(21.4741 92.6314) scale(103.632 103.615)">
<stop stop-color="#FFD80F"/>
<stop offset="1" stop-color="#FF1400"/>
</radialGradient>
<radialGradient id="paint1_radial_5815_59649" cx="0" cy="0" r="1" gradientUnits="userSpaceOnUse" gradientTransform="translate(18.4621 -9.3712) scale(74.9823 74.9696)">
<stop offset="0.39" stop-color="#400000"/>
<stop offset="0.45" stop-color="#460704"/>
<stop offset="0.53" stop-color="#571B10"/>
<stop offset="0.63" stop-color="#723C22"/>
<stop offset="0.75" stop-color="#986A3D"/>
<stop offset="0.87" stop-color="#C8A45E"/>
<stop offset="1" stop-color="#FFE684"/>
</radialGradient>
<radialGradient id="paint2_radial_5815_59649" cx="0" cy="0" r="1" gradientUnits="userSpaceOnUse" gradientTransform="translate(-10.5953 21.3996) scale(45.978 45.9703)">
<stop offset="0.31" stop-color="#400000"/>
<stop offset="0.38" stop-color="#460804"/>
<stop offset="0.47" stop-color="#571C10"/>
<stop offset="0.59" stop-color="#743E24"/>
<stop offset="0.72" stop-color="#9B6D3F"/>
<stop offset="0.87" stop-color="#CCA961"/>
<stop offset="1" stop-color="#FFE684"/>
</radialGradient>
<radialGradient id="paint3_radial_5815_59649" cx="0" cy="0" r="1" gradientUnits="userSpaceOnUse" gradientTransform="translate(46.8993 51.1607) scale(55.404 55.3946)">
<stop stop-color="#400000"/>
<stop offset="1" stop-color="#FFE5D1"/>
</radialGradient>
<radialGradient id="paint4_radial_5815_59649" cx="0" cy="0" r="1" gradientUnits="userSpaceOnUse" gradientTransform="translate(86.056 30.7354) scale(44.7023 44.6948)">
<stop stop-color="#400000"/>
<stop offset="1" stop-color="#FFE684"/>
</radialGradient>
<radialGradient id="paint5_radial_5815_59649" cx="0" cy="0" r="1" gradientUnits="userSpaceOnUse" gradientTransform="translate(102.002 69.8854) scale(63.253 63.2423)">
<stop stop-color="#400000"/>
<stop offset="1" stop-color="#FFE684"/>
</radialGradient>
<radialGradient id="paint6_radial_5815_59649" cx="0" cy="0" r="1" gradientUnits="userSpaceOnUse" gradientTransform="translate(90.7511 16.9709) scale(80.3685 80.3549)">
<stop stop-color="#400000"/>
<stop offset="1" stop-color="#FFE684"/>
</radialGradient>
<radialGradient id="paint7_radial_5815_59649" cx="0" cy="0" r="1" gradientUnits="userSpaceOnUse" gradientTransform="translate(52.1971 42.3564) scale(66.7789 66.7676)">
<stop stop-color="#400000"/>
<stop offset="1" stop-color="#FFE684"/>
</radialGradient>
<radialGradient id="paint8_radial_5815_59649" cx="0" cy="0" r="1" gradientUnits="userSpaceOnUse" gradientTransform="translate(53.1361 106.892) scale(61.9596 61.9491)">
<stop stop-color="#400000"/>
<stop offset="1" stop-color="#FFE684"/>
</radialGradient>
<radialGradient id="paint9_radial_5815_59649" cx="0" cy="0" r="1" gradientUnits="userSpaceOnUse" gradientTransform="translate(122.732 105.723) scale(115.521 115.501)">
<stop stop-color="#400000"/>
<stop offset="1" stop-color="#FFE684"/>
</radialGradient>
<radialGradient id="paint10_radial_5815_59649" cx="0" cy="0" r="1" gradientUnits="userSpaceOnUse" gradientTransform="translate(35.1169 123.721) scale(53.2778 53.2688)">
<stop offset="0.36" stop-color="#400000"/>
<stop offset="0.42" stop-color="#480906"/>
<stop offset="0.52" stop-color="#5C2218"/>
<stop offset="0.64" stop-color="#7E4A34"/>
<stop offset="0.78" stop-color="#AD825B"/>
<stop offset="0.94" stop-color="#E8C98D"/>
<stop offset="1" stop-color="#FFE4A0"/>
</radialGradient>
<radialGradient id="paint11_radial_5815_59649" cx="0" cy="0" r="1" gradientUnits="userSpaceOnUse" gradientTransform="translate(0.088596 93.8006) scale(35.3118 35.3059)">
<stop stop-color="#400000"/>
<stop offset="1" stop-color="#FFE4A0"/>
</radialGradient>
<radialGradient id="paint12_radial_5815_59649" cx="0" cy="0" r="1" gradientUnits="userSpaceOnUse" gradientTransform="translate(-42.842 133.021) scale(96.6868 96.6704)">
<stop stop-color="#400000"/>
<stop offset="1" stop-color="#FFE5D1"/>
</radialGradient>
<radialGradient id="paint13_radial_5815_59649" cx="0" cy="0" r="1" gradientUnits="userSpaceOnUse" gradientTransform="translate(-9.92204 74.9165) scale(31.8746 31.8692)">
<stop stop-color="#400000"/>
<stop offset="1" stop-color="#FFE5D1"/>
</radialGradient>
<radialGradient id="paint14_radial_5815_59649" cx="0" cy="0" r="1" gradientUnits="userSpaceOnUse" gradientTransform="translate(-6.75059 84.0219) scale(46.9525 46.9446)">
<stop stop-color="#400000"/>
<stop offset="1" stop-color="#FFE4A0"/>
</radialGradient>
<radialGradient id="paint15_radial_5815_59649" cx="0" cy="0" r="1" gradientUnits="userSpaceOnUse" gradientTransform="translate(59.1957 71.8695) scale(89.0858 89.0707)">
<stop offset="0.52" stop-color="#FFE6F2"/>
<stop offset="1" stop-color="#FF5F00"/>
</radialGradient>
<radialGradient id="paint16_radial_5815_59649" cx="0" cy="0" r="1" gradientUnits="userSpaceOnUse" gradientTransform="translate(43.7279 74.1902) scale(1.29341 1.29319)">
<stop offset="0.29" stop-color="#FFAA00"/>
<stop offset="0.32" stop-color="#F5A100"/>
<stop offset="0.66" stop-color="#954B00"/>
<stop offset="0.89" stop-color="#581500"/>
<stop offset="1" stop-color="#400000"/>
</radialGradient>
<radialGradient id="paint17_radial_5815_59649" cx="0" cy="0" r="1" gradientUnits="userSpaceOnUse" gradientTransform="translate(49.7696 38.5123) scale(1.43515 1.43491)">
<stop offset="0.29" stop-color="#FFAA00"/>
<stop offset="0.32" stop-color="#F5A100"/>
<stop offset="0.66" stop-color="#954B00"/>
<stop offset="0.89" stop-color="#581500"/>
<stop offset="1" stop-color="#400000"/>
</radialGradient>
<radialGradient id="paint18_radial_5815_59649" cx="0" cy="0" r="1" gradientUnits="userSpaceOnUse" gradientTransform="translate(58.9829 53.1094) scale(2.17931 2.17894)">
<stop offset="0.29" stop-color="#FFAA00"/>
<stop offset="0.32" stop-color="#F5A100"/>
<stop offset="0.66" stop-color="#954B00"/>
<stop offset="0.89" stop-color="#581500"/>
<stop offset="1" stop-color="#400000"/>
</radialGradient>
<radialGradient id="paint19_radial_5815_59649" cx="0" cy="0" r="1" gradientUnits="userSpaceOnUse" gradientTransform="translate(23.7598 67.4585) scale(2.21474 2.21437)">
<stop offset="0.29" stop-color="#FFAA00"/>
<stop offset="0.32" stop-color="#F5A100"/>
<stop offset="0.66" stop-color="#954B00"/>
<stop offset="0.89" stop-color="#581500"/>
<stop offset="1" stop-color="#400000"/>
</radialGradient>
<radialGradient id="paint20_radial_5815_59649" cx="0" cy="0" r="1" gradientUnits="userSpaceOnUse" gradientTransform="translate(16.5131 76.1919) rotate(90) scale(1.6652 1.66548)">
<stop offset="0.29" stop-color="#FFAA00"/>
<stop offset="0.32" stop-color="#F5A100"/>
<stop offset="0.66" stop-color="#954B00"/>
<stop offset="0.89" stop-color="#581500"/>
<stop offset="1" stop-color="#400000"/>
</radialGradient>
<radialGradient id="paint21_radial_5815_59649" cx="0" cy="0" r="1" gradientUnits="userSpaceOnUse" gradientTransform="translate(33.8413 71.5152) rotate(90) scale(1.66521 1.66549)">
<stop offset="0.29" stop-color="#FFAA00"/>
<stop offset="0.32" stop-color="#F5A100"/>
<stop offset="0.66" stop-color="#954B00"/>
<stop offset="0.89" stop-color="#581500"/>
<stop offset="1" stop-color="#400000"/>
</radialGradient>
<radialGradient id="paint22_radial_5815_59649" cx="0" cy="0" r="1" gradientUnits="userSpaceOnUse" gradientTransform="translate(28.5436 65.9173) scale(61.7824 61.772)">
<stop stop-color="#FF5214"/>
<stop offset="1" stop-color="#450000"/>
</radialGradient>
<radialGradient id="paint23_radial_5815_59649" cx="0" cy="0" r="1" gradientUnits="userSpaceOnUse" gradientTransform="translate(38.3063 64.8544) scale(66.5663 66.555)">
<stop stop-color="#FF5214"/>
<stop offset="1" stop-color="#450000"/>
</radialGradient>
<radialGradient id="paint24_radial_5815_59649" cx="0" cy="0" r="1" gradientUnits="userSpaceOnUse" gradientTransform="translate(49.0256 54.7923) scale(65.1312 65.1201)">
<stop stop-color="#FF5214"/>
<stop offset="1" stop-color="#450000"/>
</radialGradient>
<radialGradient id="paint25_radial_5815_59649" cx="0" cy="0" r="1" gradientUnits="userSpaceOnUse" gradientTransform="translate(17.1155 69.4425) scale(25.0532 25.0489)">
<stop stop-color="#FFE4B7"/>
<stop offset="1" stop-color="#400000"/>
</radialGradient>
<radialGradient id="paint26_radial_5815_59649" cx="0" cy="0" r="1" gradientUnits="userSpaceOnUse" gradientTransform="translate(60.737 31.0011) scale(23.9546 23.9506)">
<stop stop-color="#FFE4B7"/>
<stop offset="1" stop-color="#400000"/>
</radialGradient>
<radialGradient id="paint27_radial_5815_59649" cx="0" cy="0" r="1" gradientUnits="userSpaceOnUse" gradientTransform="translate(32.6541 62.2326) scale(59.3374 59.3273)">
<stop stop-color="#FFE4B7"/>
<stop offset="1" stop-color="#400000"/>
</radialGradient>
<radialGradient id="paint28_radial_5815_59649" cx="0" cy="0" r="1" gradientUnits="userSpaceOnUse" gradientTransform="translate(35.3296 19.6281) scale(36.9242 36.9179)">
<stop stop-color="#FFE4B7"/>
<stop offset="1" stop-color="#400000"/>
</radialGradient>
<radialGradient id="paint29_radial_5815_59649" cx="0" cy="0" r="1" gradientUnits="userSpaceOnUse" gradientTransform="translate(18.3735 58.1404) scale(10.4359 10.4341)">
<stop stop-color="#FF9100"/>
<stop offset="0.09" stop-color="#D47900"/>
<stop offset="0.23" stop-color="#9D5900"/>
<stop offset="0.37" stop-color="#6D3E00"/>
<stop offset="0.5" stop-color="#462800"/>
<stop offset="0.63" stop-color="#271600"/>
<stop offset="0.76" stop-color="#110A00"/>
<stop offset="0.89" stop-color="#040300"/>
<stop offset="1"/>
</radialGradient>
<radialGradient id="paint30_radial_5815_59649" cx="0" cy="0" r="1" gradientUnits="userSpaceOnUse" gradientTransform="translate(18.3735 58.1404) scale(6.96315 6.96197)">
<stop stop-color="white"/>
<stop offset="0.09" stop-color="#D4D4D4"/>
<stop offset="0.23" stop-color="#9D9D9D"/>
<stop offset="0.37" stop-color="#6D6D6D"/>
<stop offset="0.5" stop-color="#464646"/>
<stop offset="0.63" stop-color="#272727"/>
<stop offset="0.76" stop-color="#111111"/>
<stop offset="0.89" stop-color="#040404"/>
<stop offset="1"/>
</radialGradient>
<radialGradient id="paint31_radial_5815_59649" cx="0" cy="0" r="1" gradientUnits="userSpaceOnUse" gradientTransform="translate(44.8971 58.9907) scale(6.25443 6.25337)">
<stop stop-color="#FF9100"/>
<stop offset="0.09" stop-color="#D47900"/>
<stop offset="0.23" stop-color="#9D5900"/>
<stop offset="0.37" stop-color="#6D3E00"/>
<stop offset="0.5" stop-color="#462800"/>
<stop offset="0.63" stop-color="#271600"/>
<stop offset="0.76" stop-color="#110A00"/>
<stop offset="0.89" stop-color="#040300"/>
<stop offset="1"/>
</radialGradient>
<radialGradient id="paint32_radial_5815_59649" cx="0" cy="0" r="1" gradientUnits="userSpaceOnUse" gradientTransform="translate(44.8973 58.9907) scale(4.16371 4.16301)">
<stop stop-color="white"/>
<stop offset="0.09" stop-color="#D4D4D4"/>
<stop offset="0.23" stop-color="#9D9D9D"/>
<stop offset="0.37" stop-color="#6D6D6D"/>
<stop offset="0.5" stop-color="#464646"/>
<stop offset="0.63" stop-color="#272727"/>
<stop offset="0.76" stop-color="#111111"/>
<stop offset="0.89" stop-color="#040404"/>
<stop offset="1"/>
</radialGradient>
</defs>
</svg>
