<svg width="83" height="100" viewBox="0 0 83 100" fill="none" xmlns="http://www.w3.org/2000/svg">
<g clip-path="url(#clip0_5901_133475)">
<path fill-rule="evenodd" clip-rule="evenodd" d="M25.5299 94.5491L40.2402 100L56.4882 91.3341L68.5121 77.5314L76.1266 65.0591L80.925 46.9882L83 35.2735L75.8487 0.221729L63.621 0L34.2375 5.76497L13.4134 24.9815L4.39085 47.5055L0.222321 61.1604L0 69.5307L25.5299 94.5491Z" fill="url(#paint0_radial_5901_133475)"/>
<path style="mix-blend-mode:multiply" fill-rule="evenodd" clip-rule="evenodd" d="M17.5449 45.0296L20.4722 26.1271L35.4047 9.90391L59.1561 8.03769L71.0688 38.8396L45.5204 62.1766L17.5449 45.0296Z" fill="url(#paint1_radial_5901_133475)"/>
<path style="mix-blend-mode:screen" fill-rule="evenodd" clip-rule="evenodd" d="M0 69.5307L7.05871 51.4228L17.5449 45.0296L45.5203 62.1767L46.9469 77.6608L25.5299 94.5492L0 69.5307Z" fill="url(#paint2_radial_5901_133475)"/>
<path style="mix-blend-mode:multiply" fill-rule="evenodd" clip-rule="evenodd" d="M46.9469 77.6608L56.4882 91.3341L40.2402 100L25.5299 94.5491L46.9469 77.6608Z" fill="url(#paint3_radial_5901_133475)"/>
<path style="mix-blend-mode:screen" fill-rule="evenodd" clip-rule="evenodd" d="M17.5449 45.0296L20.4722 26.1271L35.4047 9.90391L59.1561 8.03769L71.0688 38.8396L45.5204 62.1766L17.5449 45.0296Z" fill="url(#paint4_radial_5901_133475)"/>
<path style="mix-blend-mode:multiply" fill-rule="evenodd" clip-rule="evenodd" d="M71.0687 38.8396L77.0529 39.0613L77.6457 48.0044L56.4881 91.3341L46.9468 77.6608L45.5203 62.1766L71.0687 38.8396Z" fill="url(#paint5_radial_5901_133475)"/>
<path style="mix-blend-mode:screen" fill-rule="evenodd" clip-rule="evenodd" d="M7.05871 51.4228L4.39085 47.5055L0.222321 61.1604L0 69.5307L7.05871 51.4228Z" fill="url(#paint6_radial_5901_133475)"/>
<path style="mix-blend-mode:multiply" fill-rule="evenodd" clip-rule="evenodd" d="M4.39087 47.5055L13.4134 24.9815L20.4721 26.1271L17.5449 45.0296L7.05873 51.4228L4.39087 47.5055Z" fill="url(#paint7_radial_5901_133475)"/>
<path style="mix-blend-mode:screen" fill-rule="evenodd" clip-rule="evenodd" d="M56.4882 91.3341L77.6458 48.0044L80.925 46.9882L76.1266 65.0591L68.512 77.5314L56.4882 91.3341Z" fill="url(#paint8_radial_5901_133475)"/>
<path style="mix-blend-mode:screen" fill-rule="evenodd" clip-rule="evenodd" d="M20.4722 26.1271L13.4135 24.9815L34.2376 5.76497L35.4047 9.90392L20.4722 26.1271Z" fill="url(#paint9_radial_5901_133475)"/>
<path style="mix-blend-mode:screen" fill-rule="evenodd" clip-rule="evenodd" d="M77.0529 39.0613L83 35.2735L80.925 46.9882L77.6457 48.0044L77.0529 39.0613Z" fill="url(#paint10_radial_5901_133475)"/>
<path style="mix-blend-mode:screen" fill-rule="evenodd" clip-rule="evenodd" d="M59.156 8.03769L75.8486 0.221725L83 35.2735L77.0529 39.0613L71.0687 38.8396L59.156 8.03769Z" fill="url(#paint11_radial_5901_133475)"/>
<path style="mix-blend-mode:screen" fill-rule="evenodd" clip-rule="evenodd" d="M59.1561 8.03769L75.8487 0.221729L63.621 0L34.2375 5.76497L35.4047 9.90392L59.1561 8.03769Z" fill="url(#paint12_radial_5901_133475)"/>
<path style="mix-blend-mode:screen" fill-rule="evenodd" clip-rule="evenodd" d="M48.1326 8.90614L59.0819 7.81597L73.5884 1.29343L59.4895 8.24095L64.7326 22.4501L58.6928 8.53659L48.1326 8.90614Z" fill="url(#paint13_radial_5901_133475)"/>
<path style="mix-blend-mode:screen" fill-rule="evenodd" clip-rule="evenodd" d="M39.073 14.0798C44.7237 11.7332 55.0617 11.8625 59.9157 16.2047C62.1424 18.6679 64.0132 21.4292 65.4737 24.4087L59.1376 8.03769L35.4047 9.88544L20.4722 26.1086L17.5449 45.0296L30.6804 53.0857C27.3826 50.2033 23.6773 46.7295 22.8992 41.0015C22.2878 36.5484 22.3063 30.2845 24.7518 26.3489C28.3782 21.097 33.3054 16.8703 39.0545 14.0798H39.073Z" fill="url(#paint14_radial_5901_133475)"/>
<path style="mix-blend-mode:screen" fill-rule="evenodd" clip-rule="evenodd" d="M46.317 8.14856C40.1661 7.59423 43.0192 4.97044 47.4101 3.65854C49.7445 2.95639 52.0788 2.36511 54.4132 1.81079L34.2375 5.76497L35.4047 9.90392L57.007 8.20399C53.4721 8.43461 49.926 8.43461 46.3911 8.20399L46.317 8.14856Z" fill="url(#paint15_radial_5901_133475)"/>
<path style="mix-blend-mode:screen" fill-rule="evenodd" clip-rule="evenodd" d="M27.4752 18.5144L35.0527 9.84849L34.4228 6.43016L35.6085 9.57133L47.4471 8.96157L35.4788 10.0887L27.4752 18.5144Z" fill="url(#paint16_radial_5901_133475)"/>
<path style="mix-blend-mode:screen" fill-rule="evenodd" clip-rule="evenodd" d="M27.1232 18.9024C39.0963 18.0536 51.1061 17.8377 63.1022 18.2557L61.8794 15.0776C51.3326 15.8776 40.747 16.0442 30.1801 15.5765L27.1232 18.9024Z" fill="url(#paint17_radial_5901_133475)"/>
<path style="mix-blend-mode:screen" fill-rule="evenodd" clip-rule="evenodd" d="M66.0479 25.8684C53.0792 26.8847 27.012 27.439 20.6758 26.3119L20.3794 26.6999L19.5828 31.8921C31.7549 30.8574 59.5265 30.34 68.1044 31.2084L66.0479 25.8684Z" fill="url(#paint18_radial_5901_133475)"/>
<path style="mix-blend-mode:screen" fill-rule="evenodd" clip-rule="evenodd" d="M59.7673 49.1685C53.6165 49.8152 37.702 50.3141 26.1412 50.2956L28.9203 51.9956C38.3874 51.6815 49.837 51.5706 56.8587 51.8108L59.7673 49.1685Z" fill="url(#paint19_radial_5901_133475)"/>
<path style="mix-blend-mode:screen" fill-rule="evenodd" clip-rule="evenodd" d="M15.4698 25.3141L20.3053 25.7945L27.1417 18.8655L20.7685 26.201L17.9524 42.3688L20.1015 26.4228L15.4698 25.3141Z" fill="url(#paint20_radial_5901_133475)"/>
<path style="mix-blend-mode:screen" opacity="0.5" fill-rule="evenodd" clip-rule="evenodd" d="M3.44598 67.7199C4.55759 62.0658 7.37366 54.6748 12.8576 51.9956C20.0089 48.4849 31.7364 54.4715 38.9433 58.1486L17.5449 45.0296L7.05871 51.4228L0 69.5307L7.87388 77.2358C5.35424 74.2055 2.96429 70.085 3.44598 67.7199Z" fill="url(#paint21_radial_5901_133475)"/>
<path style="mix-blend-mode:screen" fill-rule="evenodd" clip-rule="evenodd" d="M29.402 52.2912L45.4832 61.7701L66.9928 42.5536L45.8167 62.3984L46.6689 74.6859L45.1497 62.4723L29.402 52.2912Z" fill="url(#paint22_radial_5901_133475)"/>
<g style="mix-blend-mode:screen">
<path fill-rule="evenodd" clip-rule="evenodd" d="M30.7915 58.0931C30.7915 57.6681 31.1806 57.5758 31.5511 57.6497C31.7509 57.6941 31.9266 57.8119 32.0433 57.9797C32.16 58.1474 32.2092 58.3528 32.181 58.5551C32.181 58.8877 31.6623 59.0355 31.3844 58.9431C31.1958 58.9029 31.0297 58.7927 30.9196 58.6349C30.8095 58.477 30.7637 58.2834 30.7915 58.0931Z" fill="#A1F3FF"/>
</g>
<g style="mix-blend-mode:screen" opacity="0.6">
<path fill-rule="evenodd" clip-rule="evenodd" d="M16.3036 65.6874C16.3036 65.2254 16.7112 65.1515 17.1188 65.207C17.3264 65.2595 17.5074 65.3866 17.627 65.5638C17.7467 65.7411 17.7966 65.9561 17.7672 66.1678C17.7672 66.5189 17.2114 66.6851 16.9335 66.5743C16.733 66.5382 16.5546 66.425 16.4369 66.2592C16.3191 66.0933 16.2712 65.888 16.3036 65.6874Z" fill="#A1F3FF"/>
</g>
<g style="mix-blend-mode:screen" opacity="0.5">
<path fill-rule="evenodd" clip-rule="evenodd" d="M39.6102 33.4996C39.6102 33.0562 40.0178 32.9638 40.4254 33.0377C40.6353 33.0864 40.8188 33.2126 40.9391 33.3909C41.0594 33.5692 41.1076 33.7863 41.0739 33.9985C41.0739 34.3311 40.5366 34.4974 40.2402 34.405C40.0381 34.3646 39.8597 34.2478 39.7422 34.079C39.6248 33.9101 39.5775 33.7025 39.6102 33.4996Z" fill="#A1F3FF"/>
</g>
<g style="mix-blend-mode:screen">
<path fill-rule="evenodd" clip-rule="evenodd" d="M39.3509 47.136C39.3509 46.5078 39.9067 46.3969 40.444 46.4893C40.7365 46.5476 40.9948 46.7171 41.1642 46.962C41.3336 47.2068 41.4009 47.5078 41.3518 47.8012C41.3518 48.2816 40.6107 48.5033 40.2031 48.374C39.9291 48.3159 39.6878 48.1551 39.5292 47.9247C39.3706 47.6943 39.3068 47.412 39.3509 47.136Z" fill="#A1F3FF"/>
</g>
<g style="mix-blend-mode:screen">
<path fill-rule="evenodd" clip-rule="evenodd" d="M24.7703 38.544C24.7703 37.9157 25.3447 37.8049 25.8819 37.8788C26.1737 37.9453 26.4294 38.1195 26.5977 38.3662C26.7661 38.613 26.8347 38.9141 26.7897 39.2092C26.7897 39.6711 26.0301 39.9113 25.6226 39.7635C25.3522 39.7055 25.1139 39.5474 24.9557 39.3211C24.7976 39.0947 24.7313 38.8171 24.7703 38.544Z" fill="#A1F3FF"/>
</g>
<g style="mix-blend-mode:screen">
<path fill-rule="evenodd" clip-rule="evenodd" d="M56.7105 26.9217C56.7105 26.663 56.9328 26.6075 57.1551 26.6445C57.2753 26.667 57.3817 26.7359 57.4511 26.8363C57.5205 26.9367 57.5473 27.0603 57.5257 27.1803C57.5257 27.3836 57.2292 27.476 57.0625 27.4206C56.951 27.3981 56.8523 27.3339 56.7868 27.2411C56.7213 27.1483 56.694 27.0339 56.7105 26.9217Z" fill="#A1F3FF"/>
</g>
<g style="mix-blend-mode:screen">
<path fill-rule="evenodd" clip-rule="evenodd" d="M36.9239 78.4183C36.6845 78.4557 36.4407 78.4557 36.2014 78.4183C36.0717 78.4183 35.6641 78.2336 35.59 78.0857C35.7103 77.9497 35.8548 77.837 36.0161 77.7532C36.1908 77.6512 36.3881 77.594 36.5904 77.5869C36.7154 77.6797 36.8137 77.8037 36.8754 77.9464C36.9372 78.0891 36.9603 78.2455 36.9424 78.3999L36.9239 78.4183Z" fill="#7DE5FF"/>
</g>
<g style="mix-blend-mode:screen">
<path fill-rule="evenodd" clip-rule="evenodd" d="M59.119 33.7029C58.8804 33.7502 58.6349 33.7502 58.3964 33.7029C58.2667 33.7029 57.8591 33.5366 57.785 33.3703C57.91 33.2392 58.0536 33.1272 58.2111 33.0377C58.3801 32.9379 58.5709 32.8808 58.767 32.8714C58.8953 32.9621 58.9972 33.0852 59.0623 33.228C59.1274 33.3708 59.1533 33.5283 59.1375 33.6844L59.119 33.7029Z" fill="#7DE5FF"/>
</g>
<g style="mix-blend-mode:screen" opacity="0.4">
<path fill-rule="evenodd" clip-rule="evenodd" d="M44.7236 75.6282C45.11 75.5638 45.5044 75.5638 45.8908 75.6282C46.1131 75.6282 46.7801 75.813 46.9283 76.0532C46.7614 76.2965 46.5472 76.5039 46.2984 76.663C46.0444 76.867 45.7343 76.9894 45.4091 77.014C45.1956 76.8848 45.0188 76.7031 44.8956 76.4864C44.7723 76.2697 44.7068 76.0252 44.7051 75.7761L44.7236 75.6282Z" fill="#7DE5FF"/>
</g>
<g style="mix-blend-mode:screen" opacity="0.4">
<path fill-rule="evenodd" clip-rule="evenodd" d="M6.59555 62.8233C6.98735 62.7498 7.38947 62.7498 7.78127 62.8233C8.00359 62.8233 8.67055 63.0081 8.81877 63.2483C8.64205 63.4832 8.4295 63.6889 8.18886 63.8581C7.92597 64.0464 7.62048 64.167 7.29957 64.2092C7.08686 64.0729 6.91016 63.8876 6.7844 63.669C6.65863 63.4503 6.58751 63.2046 6.57703 62.9527L6.59555 62.8233Z" fill="#7DE5FF"/>
</g>
<g style="mix-blend-mode:screen">
<path fill-rule="evenodd" clip-rule="evenodd" d="M20.787 76.9401C20.7475 76.423 20.804 75.9031 20.9538 75.4065C20.9538 75.1293 21.3243 74.2794 21.6578 74.1316C21.9487 74.3853 22.1878 74.6928 22.3618 75.037C22.5713 75.4025 22.68 75.8169 22.6767 76.238C22.4799 76.5059 22.2142 76.716 21.9078 76.8461C21.6013 76.9761 21.2653 77.0214 20.9352 76.9771L20.787 76.9401Z" fill="#A1F3FF"/>
</g>
<g style="mix-blend-mode:screen">
<path fill-rule="evenodd" clip-rule="evenodd" d="M23.5846 57.0399C23.2696 57.2062 23.0288 57.2247 22.862 56.8736C22.8147 56.8048 22.7842 56.726 22.7728 56.6433C22.7614 56.5607 22.7696 56.4766 22.7966 56.3976C22.8235 56.3186 22.8686 56.2471 22.9283 56.1886C22.9879 56.1301 23.0604 56.0862 23.1399 56.0606C23.4919 55.8758 23.7143 55.8943 23.844 56.2823C23.9736 56.6704 23.9551 56.8367 23.5846 57.0399Z" fill="#7DE5FF"/>
</g>
<g style="mix-blend-mode:screen">
<path fill-rule="evenodd" clip-rule="evenodd" d="M35.627 39.32C35.3121 39.4863 35.0897 39.5048 34.923 39.1722C34.8716 39.1043 34.8371 39.0251 34.8224 38.9413C34.8078 38.8575 34.8134 38.7713 34.8387 38.6901C34.8641 38.6088 34.9085 38.5347 34.9682 38.474C35.028 38.4132 35.1014 38.3676 35.1824 38.3407C35.5344 38.156 35.7567 38.1929 35.9049 38.5625C36.0531 38.932 36.0161 39.1168 35.627 39.32Z" fill="#7DE5FF"/>
</g>
<g style="mix-blend-mode:screen">
<path fill-rule="evenodd" clip-rule="evenodd" d="M33.6261 68.7177C33.8484 68.5329 34.5339 68.7177 34.7932 68.7177C35.0526 68.7177 35.7011 69.2535 35.5714 69.7339C35.4631 69.9574 35.2792 70.1355 35.0521 70.2369C34.825 70.3383 34.5693 70.3565 34.3301 70.2883C33.6816 70.085 33.5705 69.3274 33.6261 68.7361V68.7177Z" fill="#A1F3FF"/>
</g>
<g style="mix-blend-mode:screen">
<path fill-rule="evenodd" clip-rule="evenodd" d="M29.2909 82.6312C29.3357 82.7289 29.3597 82.8348 29.3613 82.9422C29.363 83.0496 29.3422 83.1562 29.3004 83.2552C29.2586 83.3542 29.1967 83.4434 29.1185 83.5173C29.0403 83.5912 28.9476 83.6481 28.8463 83.6844C28.742 83.7245 28.6304 83.7422 28.5188 83.7365C28.4072 83.7308 28.2981 83.7017 28.1985 83.6512C28.0989 83.6006 28.0111 83.5298 27.9408 83.4432C27.8704 83.3566 27.8191 83.2562 27.7902 83.1486C27.7108 82.9327 27.7186 82.6945 27.8119 82.4842C27.9053 82.2739 28.0768 82.108 28.2905 82.0214C28.7536 81.8551 29.1242 82.2247 29.2724 82.6312H29.2909Z" fill="#A1F3FF"/>
</g>
<path style="mix-blend-mode:screen" d="M28.5498 85.643C30.0846 85.643 31.3288 84.4021 31.3288 82.8714C31.3288 81.3407 30.0846 80.0998 28.5498 80.0998C27.015 80.0998 25.7708 81.3407 25.7708 82.8714C25.7708 84.4021 27.015 85.643 28.5498 85.643Z" fill="url(#paint23_radial_5901_133475)"/>
<g style="mix-blend-mode:screen">
<path fill-rule="evenodd" clip-rule="evenodd" d="M51.7268 40.6504C51.7598 40.7164 51.7783 40.7887 51.781 40.8624C51.7838 40.9361 51.7706 41.0096 51.7426 41.0778C51.7145 41.1461 51.6721 41.2075 51.6183 41.2581C51.5644 41.3087 51.5004 41.3472 51.4304 41.371C51.3598 41.3938 51.2855 41.4023 51.2116 41.396C51.1377 41.3896 51.0659 41.3686 51.0003 41.3342C50.9347 41.2998 50.8766 41.2526 50.8296 41.1955C50.7826 41.1383 50.7474 41.0724 50.7263 41.0015C50.6964 40.9288 50.6812 40.8508 50.6818 40.7722C50.6824 40.6936 50.6986 40.6159 50.7297 40.5436C50.7608 40.4714 50.8059 40.406 50.8626 40.3514C50.9193 40.2967 50.9864 40.2539 51.0598 40.2254C51.1316 40.2091 51.206 40.2072 51.2785 40.2198C51.3511 40.2324 51.4204 40.2593 51.4824 40.2988C51.5445 40.3383 51.598 40.3898 51.64 40.4502C51.6819 40.5105 51.7114 40.5786 51.7268 40.6504Z" fill="#A1F3FF"/>
</g>
<path style="mix-blend-mode:screen" fill-rule="evenodd" clip-rule="evenodd" d="M53.1348 40.6504C53.1348 41.0159 53.0261 41.3731 52.8226 41.677C52.619 41.9808 52.3296 42.2176 51.9911 42.3575C51.6526 42.4973 51.2801 42.5339 50.9207 42.4626C50.5613 42.3914 50.2312 42.2154 49.9721 41.957C49.713 41.6985 49.5365 41.3693 49.465 41.0109C49.3936 40.6525 49.4302 40.2809 49.5705 39.9433C49.7107 39.6057 49.9482 39.3171 50.2528 39.1141C50.5575 38.911 50.9157 38.8027 51.2821 38.8027C51.7735 38.8027 52.2447 38.9973 52.5922 39.3438C52.9396 39.6904 53.1348 40.1604 53.1348 40.6504Z" fill="url(#paint24_radial_5901_133475)"/>
<g style="mix-blend-mode:screen">
<path fill-rule="evenodd" clip-rule="evenodd" d="M21.9727 64.6711C22.2888 64.5023 22.6581 64.4618 23.0034 64.5583C23.3487 64.6547 23.6432 64.8805 23.8254 65.1885C24.196 65.6319 24.2701 66.6851 23.6957 67.0362C23.3632 67.2259 22.9693 67.278 22.5986 67.1812C22.228 67.0845 21.9102 66.8467 21.7134 66.5188C21.3428 65.8721 21.2131 65.1146 21.9727 64.6711Z" fill="#A1F3FF"/>
</g>
<path style="mix-blend-mode:screen" d="M22.8065 69.6415C24.8734 69.6415 26.5489 67.9705 26.5489 65.9091C26.5489 63.8477 24.8734 62.1767 22.8065 62.1767C20.7396 62.1767 19.0641 63.8477 19.0641 65.9091C19.0641 67.9705 20.7396 69.6415 22.8065 69.6415Z" fill="url(#paint25_radial_5901_133475)"/>
<g style="mix-blend-mode:screen">
<path fill-rule="evenodd" clip-rule="evenodd" d="M27.9013 63.3592C28.1514 63.2291 28.4418 63.1987 28.7136 63.2742C28.9854 63.3496 29.2182 63.5254 29.3649 63.7657C29.6428 64.1168 29.6984 64.9298 29.3649 65.17C29.0889 65.3075 28.7701 65.3323 28.4761 65.2392C28.182 65.146 27.936 64.9422 27.7901 64.6711C27.5122 64.1722 27.4011 63.5809 27.9939 63.2853L27.9013 63.3592Z" fill="#A1F3FF"/>
</g>
<path style="mix-blend-mode:screen" d="M28.5498 67.1656C30.1563 67.1656 31.4585 65.8667 31.4585 64.2646C31.4585 62.6624 30.1563 61.3636 28.5498 61.3636C26.9434 61.3636 25.6411 62.6624 25.6411 64.2646C25.6411 65.8667 26.9434 67.1656 28.5498 67.1656Z" fill="url(#paint26_radial_5901_133475)"/>
<g style="mix-blend-mode:screen">
<path fill-rule="evenodd" clip-rule="evenodd" d="M32.4775 45.5839C32.5793 45.7685 32.6054 45.9853 32.5501 46.1887C32.4948 46.3921 32.3625 46.5661 32.181 46.6741C31.9217 46.8773 31.2918 46.9327 31.125 46.6741C31.0104 46.4754 30.9792 46.2396 31.0382 46.0181C31.0972 45.7965 31.2416 45.6073 31.44 45.4915C31.8105 45.2882 32.2552 45.2143 32.4775 45.6578V45.5839Z" fill="#A1F3FF"/>
</g>
<path style="mix-blend-mode:screen" d="M31.792 48.2446C32.9994 48.2446 33.9782 47.2685 33.9782 46.0643C33.9782 44.8601 32.9994 43.884 31.792 43.884C30.5846 43.884 29.6058 44.8601 29.6058 46.0643C29.6058 47.2685 30.5846 48.2446 31.792 48.2446Z" fill="url(#paint27_radial_5901_133475)"/>
</g>
<defs>
<radialGradient id="paint0_radial_5901_133475" cx="0" cy="0" r="1" gradientUnits="userSpaceOnUse" gradientTransform="translate(9.85625 84.6268) scale(108.233 107.945)">
<stop stop-color="#95F8FF"/>
<stop offset="1" stop-color="#00E3C9"/>
</radialGradient>
<radialGradient id="paint1_radial_5901_133475" cx="0" cy="0" r="1" gradientUnits="userSpaceOnUse" gradientTransform="translate(49.6333 92.0177) scale(88.2245 87.9897)">
<stop offset="0.54" stop-color="white"/>
<stop offset="0.58" stop-color="#F6FCFE"/>
<stop offset="0.64" stop-color="#DFF4FA"/>
<stop offset="0.72" stop-color="#B8E7F5"/>
<stop offset="0.81" stop-color="#83D5EE"/>
<stop offset="0.91" stop-color="#40BFE4"/>
<stop offset="1" stop-color="#00A9DB"/>
</radialGradient>
<radialGradient id="paint2_radial_5901_133475" cx="0" cy="0" r="1" gradientUnits="userSpaceOnUse" gradientTransform="translate(14.6176 104.176) scale(56.5623 56.4117)">
<stop offset="0.24" stop-color="#050B00"/>
<stop offset="0.31" stop-color="#051405"/>
<stop offset="0.41" stop-color="#042B12"/>
<stop offset="0.55" stop-color="#045228"/>
<stop offset="0.7" stop-color="#028747"/>
<stop offset="0.88" stop-color="#01CA6E"/>
<stop offset="1" stop-color="#00FF8C"/>
</radialGradient>
<radialGradient id="paint3_radial_5901_133475" cx="0" cy="0" r="1" gradientUnits="userSpaceOnUse" gradientTransform="translate(-28.7536 141.426) scale(114.496 114.191)">
<stop offset="0.54" stop-color="white"/>
<stop offset="0.58" stop-color="#F6FCFE"/>
<stop offset="0.64" stop-color="#DFF4FA"/>
<stop offset="0.72" stop-color="#B8E7F5"/>
<stop offset="0.81" stop-color="#83D5EE"/>
<stop offset="0.91" stop-color="#40BFE4"/>
<stop offset="1" stop-color="#00A9DB"/>
</radialGradient>
<radialGradient id="paint4_radial_5901_133475" cx="0" cy="0" r="1" gradientUnits="userSpaceOnUse" gradientTransform="translate(92.8563 -7.42794) scale(88.2245 87.9897)">
<stop offset="0.24" stop-color="#050B00"/>
<stop offset="0.31" stop-color="#051405"/>
<stop offset="0.41" stop-color="#042B12"/>
<stop offset="0.55" stop-color="#045228"/>
<stop offset="0.7" stop-color="#028747"/>
<stop offset="0.88" stop-color="#01CA6E"/>
<stop offset="1" stop-color="#00FF8C"/>
</radialGradient>
<radialGradient id="paint5_radial_5901_133475" cx="0" cy="0" r="1" gradientUnits="userSpaceOnUse" gradientTransform="translate(145.972 168.699) scale(160.238 159.812)">
<stop offset="0.54" stop-color="white"/>
<stop offset="0.58" stop-color="#F6FCFE"/>
<stop offset="0.64" stop-color="#DFF4FA"/>
<stop offset="0.72" stop-color="#B8E7F5"/>
<stop offset="0.81" stop-color="#83D5EE"/>
<stop offset="0.91" stop-color="#40BFE4"/>
<stop offset="1" stop-color="#00A9DB"/>
</radialGradient>
<radialGradient id="paint6_radial_5901_133475" cx="0" cy="0" r="1" gradientUnits="userSpaceOnUse" gradientTransform="translate(6.59554 49.0207) scale(44.5384 44.4198)">
<stop stop-color="#C3FFF9"/>
<stop offset="0.17" stop-color="#97C6BF"/>
<stop offset="0.39" stop-color="#64847C"/>
<stop offset="0.58" stop-color="#3B5047"/>
<stop offset="0.75" stop-color="#1E2B20"/>
<stop offset="0.89" stop-color="#0C1309"/>
<stop offset="0.97" stop-color="#050B00"/>
</radialGradient>
<radialGradient id="paint7_radial_5901_133475" cx="0" cy="0" r="1" gradientUnits="userSpaceOnUse" gradientTransform="translate(-22.9547 4.60089) scale(79.1279 78.9172)">
<stop offset="0.54" stop-color="white"/>
<stop offset="0.58" stop-color="#F6FCFE"/>
<stop offset="0.64" stop-color="#DFF4FA"/>
<stop offset="0.72" stop-color="#B8E7F5"/>
<stop offset="0.81" stop-color="#83D5EE"/>
<stop offset="0.91" stop-color="#40BFE4"/>
<stop offset="1" stop-color="#00A9DB"/>
</radialGradient>
<radialGradient id="paint8_radial_5901_133475" cx="0" cy="0" r="1" gradientUnits="userSpaceOnUse" gradientTransform="translate(110.234 112.934) scale(73.8663 73.6696)">
<stop offset="0.4" stop-color="#050B00"/>
<stop offset="0.45" stop-color="#0B1409"/>
<stop offset="0.53" stop-color="#1C2B20"/>
<stop offset="0.64" stop-color="#385147"/>
<stop offset="0.76" stop-color="#5F857C"/>
<stop offset="0.9" stop-color="#90C8BF"/>
<stop offset="1" stop-color="#B8FFF7"/>
</radialGradient>
<radialGradient id="paint9_radial_5901_133475" cx="0" cy="0" r="1" gradientUnits="userSpaceOnUse" gradientTransform="translate(14.8771 -4.63784) scale(34.6266 34.5344)">
<stop offset="0.4" stop-color="#050B00"/>
<stop offset="0.45" stop-color="#0B1409"/>
<stop offset="0.53" stop-color="#1C2B20"/>
<stop offset="0.64" stop-color="#385147"/>
<stop offset="0.76" stop-color="#5F857C"/>
<stop offset="0.9" stop-color="#90C8BF"/>
<stop offset="1" stop-color="#B8FFF7"/>
</radialGradient>
<radialGradient id="paint10_radial_5901_133475" cx="0" cy="0" r="1" gradientUnits="userSpaceOnUse" gradientTransform="translate(92.7265 56.578) scale(26.0857 26.0163)">
<stop offset="0.4" stop-color="#050B00"/>
<stop offset="0.45" stop-color="#0B1409"/>
<stop offset="0.53" stop-color="#1C2B20"/>
<stop offset="0.64" stop-color="#385147"/>
<stop offset="0.76" stop-color="#5F857C"/>
<stop offset="0.9" stop-color="#90C8BF"/>
<stop offset="1" stop-color="#B8FFF7"/>
</radialGradient>
<radialGradient id="paint11_radial_5901_133475" cx="0" cy="0" r="1" gradientUnits="userSpaceOnUse" gradientTransform="translate(59.7303 7.64966) scale(130.243 129.897)">
<stop stop-color="#ABFFF7"/>
<stop offset="0.17" stop-color="#85C8BF"/>
<stop offset="0.38" stop-color="#58857C"/>
<stop offset="0.58" stop-color="#345147"/>
<stop offset="0.75" stop-color="#1B2B20"/>
<stop offset="0.89" stop-color="#0B1409"/>
<stop offset="0.97" stop-color="#050B00"/>
</radialGradient>
<radialGradient id="paint12_radial_5901_133475" cx="0" cy="0" r="1" gradientUnits="userSpaceOnUse" gradientTransform="translate(60.3788 -38.2668) scale(52.4308 52.2912)">
<stop offset="0.31" stop-color="#050B00"/>
<stop offset="0.38" stop-color="#091005"/>
<stop offset="0.47" stop-color="#161E13"/>
<stop offset="0.56" stop-color="#2B352B"/>
<stop offset="0.66" stop-color="#48554C"/>
<stop offset="0.76" stop-color="#6E7E77"/>
<stop offset="0.86" stop-color="#9CB1AB"/>
<stop offset="0.97" stop-color="#D1EBE8"/>
<stop offset="1" stop-color="#E3FFFC"/>
</radialGradient>
<radialGradient id="paint13_radial_5901_133475" cx="0" cy="0" r="1" gradientUnits="userSpaceOnUse" gradientTransform="translate(59.3227 8.22247) scale(16.0998 16.0569)">
<stop stop-color="#C3FFF9"/>
<stop offset="0.17" stop-color="#97C6BF"/>
<stop offset="0.39" stop-color="#64847C"/>
<stop offset="0.58" stop-color="#3B5047"/>
<stop offset="0.75" stop-color="#1E2B20"/>
<stop offset="0.89" stop-color="#0C1309"/>
<stop offset="0.97" stop-color="#050B00"/>
</radialGradient>
<radialGradient id="paint14_radial_5901_133475" cx="0" cy="0" r="1" gradientUnits="userSpaceOnUse" gradientTransform="translate(51.0414 75.5913) scale(78.8685 78.6585)">
<stop offset="0.03" stop-color="#050B00"/>
<stop offset="0.12" stop-color="#091408"/>
<stop offset="0.25" stop-color="#122B20"/>
<stop offset="0.42" stop-color="#235245"/>
<stop offset="0.62" stop-color="#39877A"/>
<stop offset="0.84" stop-color="#55CABC"/>
<stop offset="1" stop-color="#6BFFF0"/>
</radialGradient>
<radialGradient id="paint15_radial_5901_133475" cx="0" cy="0" r="1" gradientUnits="userSpaceOnUse" gradientTransform="translate(61.6201 -9.09091) scale(32.0513 31.966)">
<stop offset="0.4" stop-color="#050B00"/>
<stop offset="0.45" stop-color="#0B1409"/>
<stop offset="0.53" stop-color="#1C2B20"/>
<stop offset="0.64" stop-color="#385147"/>
<stop offset="0.76" stop-color="#5F857C"/>
<stop offset="0.9" stop-color="#90C8BF"/>
<stop offset="1" stop-color="#B8FFF7"/>
</radialGradient>
<radialGradient id="paint16_radial_5901_133475" cx="0" cy="0" r="1" gradientUnits="userSpaceOnUse" gradientTransform="translate(35.8493 10.1811) scale(12.098 12.0658)">
<stop stop-color="#C3FFF9"/>
<stop offset="0.17" stop-color="#97C6BF"/>
<stop offset="0.39" stop-color="#64847C"/>
<stop offset="0.58" stop-color="#3B5047"/>
<stop offset="0.75" stop-color="#1E2B20"/>
<stop offset="0.89" stop-color="#0C1309"/>
<stop offset="0.97" stop-color="#050B00"/>
</radialGradient>
<radialGradient id="paint17_radial_5901_133475" cx="0" cy="0" r="1" gradientUnits="userSpaceOnUse" gradientTransform="translate(63.4913 7.7051) scale(69.4199 69.235)">
<stop stop-color="#69FFF1"/>
<stop offset="0.16" stop-color="#53CABD"/>
<stop offset="0.38" stop-color="#38877A"/>
<stop offset="0.58" stop-color="#225246"/>
<stop offset="0.75" stop-color="#122B20"/>
<stop offset="0.88" stop-color="#091409"/>
<stop offset="0.97" stop-color="#050B00"/>
</radialGradient>
<radialGradient id="paint18_radial_5901_133475" cx="0" cy="0" r="1" gradientUnits="userSpaceOnUse" gradientTransform="translate(71.291 15.9645) scale(79.4058 79.1944)">
<stop stop-color="#69FFF1"/>
<stop offset="0.16" stop-color="#53CABD"/>
<stop offset="0.38" stop-color="#38877A"/>
<stop offset="0.58" stop-color="#225246"/>
<stop offset="0.75" stop-color="#122B20"/>
<stop offset="0.88" stop-color="#091409"/>
<stop offset="0.97" stop-color="#050B00"/>
</radialGradient>
<radialGradient id="paint19_radial_5901_133475" cx="0" cy="0" r="1" gradientUnits="userSpaceOnUse" gradientTransform="translate(65.1772 43.5699) scale(53.987 53.8433)">
<stop stop-color="#69FFF1"/>
<stop offset="0.16" stop-color="#53CABD"/>
<stop offset="0.38" stop-color="#38877A"/>
<stop offset="0.58" stop-color="#225246"/>
<stop offset="0.75" stop-color="#122B20"/>
<stop offset="0.88" stop-color="#091409"/>
<stop offset="0.97" stop-color="#050B00"/>
</radialGradient>
<radialGradient id="paint20_radial_5901_133475" cx="0" cy="0" r="1" gradientUnits="userSpaceOnUse" gradientTransform="translate(21.3984 26.4597) scale(17.9525 17.9047)">
<stop stop-color="#C3FFF9"/>
<stop offset="0.17" stop-color="#97C6BF"/>
<stop offset="0.39" stop-color="#64847C"/>
<stop offset="0.58" stop-color="#3B5047"/>
<stop offset="0.75" stop-color="#1E2B20"/>
<stop offset="0.89" stop-color="#0C1309"/>
<stop offset="0.97" stop-color="#050B00"/>
</radialGradient>
<radialGradient id="paint21_radial_5901_133475" cx="0" cy="0" r="1" gradientUnits="userSpaceOnUse" gradientTransform="translate(8.5779 96.0828) scale(59.2672 59.1094)">
<stop offset="0.03" stop-color="#050B00"/>
<stop offset="0.11" stop-color="#0C1309"/>
<stop offset="0.25" stop-color="#1E2B20"/>
<stop offset="0.42" stop-color="#3B5047"/>
<stop offset="0.61" stop-color="#64847C"/>
<stop offset="0.83" stop-color="#97C6BF"/>
<stop offset="1" stop-color="#C3FFF9"/>
</radialGradient>
<radialGradient id="paint22_radial_5901_133475" cx="0" cy="0" r="1" gradientUnits="userSpaceOnUse" gradientTransform="translate(46.2799 61.8995) scale(23.9366 23.8729)">
<stop stop-color="#C3FFF9"/>
<stop offset="0.17" stop-color="#97C6BF"/>
<stop offset="0.39" stop-color="#64847C"/>
<stop offset="0.58" stop-color="#3B5047"/>
<stop offset="0.75" stop-color="#1E2B20"/>
<stop offset="0.89" stop-color="#0C1309"/>
<stop offset="0.97" stop-color="#050B00"/>
</radialGradient>
<radialGradient id="paint23_radial_5901_133475" cx="0" cy="0" r="1" gradientUnits="userSpaceOnUse" gradientTransform="translate(28.5498 82.8714) scale(2.77902 2.77162)">
<stop offset="0.38" stop-color="#008CFF"/>
<stop offset="0.5" stop-color="#006BBF"/>
<stop offset="0.63" stop-color="#00487C"/>
<stop offset="0.76" stop-color="#002C46"/>
<stop offset="0.86" stop-color="#001920"/>
<stop offset="0.95" stop-color="#000C09"/>
<stop offset="1" stop-color="#000800"/>
</radialGradient>
<radialGradient id="paint24_radial_5901_133475" cx="0" cy="0" r="1" gradientUnits="userSpaceOnUse" gradientTransform="translate(51.2265 40.7243) scale(1.88973 1.8847)">
<stop offset="0.38" stop-color="#008CFF"/>
<stop offset="0.5" stop-color="#006BBF"/>
<stop offset="0.63" stop-color="#00487C"/>
<stop offset="0.76" stop-color="#002C46"/>
<stop offset="0.86" stop-color="#001920"/>
<stop offset="0.95" stop-color="#000C09"/>
<stop offset="1" stop-color="#000800"/>
</radialGradient>
<radialGradient id="paint25_radial_5901_133475" cx="0" cy="0" r="1" gradientUnits="userSpaceOnUse" gradientTransform="translate(22.8065 65.9091) scale(3.74241 3.73244)">
<stop offset="0.38" stop-color="#008CFF"/>
<stop offset="0.5" stop-color="#006BBF"/>
<stop offset="0.63" stop-color="#00487C"/>
<stop offset="0.76" stop-color="#002C46"/>
<stop offset="0.86" stop-color="#001920"/>
<stop offset="0.95" stop-color="#000C09"/>
<stop offset="1" stop-color="#000800"/>
</radialGradient>
<radialGradient id="paint26_radial_5901_133475" cx="0" cy="0" r="1" gradientUnits="userSpaceOnUse" gradientTransform="translate(28.5498 64.2646) scale(2.9087 2.90096)">
<stop offset="0.38" stop-color="#008CFF"/>
<stop offset="0.5" stop-color="#006BBF"/>
<stop offset="0.63" stop-color="#00487C"/>
<stop offset="0.76" stop-color="#002C46"/>
<stop offset="0.86" stop-color="#001920"/>
<stop offset="0.95" stop-color="#000C09"/>
<stop offset="1" stop-color="#000800"/>
</radialGradient>
<radialGradient id="paint27_radial_5901_133475" cx="0" cy="0" r="1" gradientUnits="userSpaceOnUse" gradientTransform="translate(31.8105 46.0643) rotate(90) scale(2.18034 2.18616)">
<stop offset="0.38" stop-color="#008CFF"/>
<stop offset="0.5" stop-color="#006BBF"/>
<stop offset="0.63" stop-color="#00487C"/>
<stop offset="0.76" stop-color="#002C46"/>
<stop offset="0.86" stop-color="#001920"/>
<stop offset="0.95" stop-color="#000C09"/>
<stop offset="1" stop-color="#000800"/>
</radialGradient>
<clipPath id="clip0_5901_133475">
<rect width="83" height="100" fill="white"/>
</clipPath>
</defs>
</svg>
