<svg width="127" height="102" viewBox="0 0 127 102" fill="none" xmlns="http://www.w3.org/2000/svg">
<path fill-rule="evenodd" clip-rule="evenodd" d="M108.018 7.90457C102.14 26.4004 93.9713 51.728 89.4 72.5968L87.2616 77.8092C79.3937 81.1446 71.4964 84.8077 63.5541 88.8883C62.8037 88.9573 62.0497 88.9772 61.2967 88.948C59.5059 88.2937 57.715 87.6394 55.8774 87.0417C54.0381 87.8992 52.2431 88.8485 50.4992 89.8863C46.4668 88.7766 42.3933 87.743 38.2691 86.8947C37.352 87.1695 36.3646 87.6354 35.5333 88.0546C34.2435 88.2921 32.9265 88.5804 31.5489 88.9506C26.3596 87.5283 21.178 86.2738 16.0004 85.1032C15.889 80.1182 15.5827 74.979 15.0481 69.7168L22.2018 51.0087C25.4297 43.471 28.7487 37.3733 31.4316 31.6362C34.7385 28.557 38.2181 25.6687 41.8535 22.9851L47.4793 20.4704L48.7265 19.3099C48.9216 19.2515 71.8922 12.0294 72.618 11.897C73.8455 11.1677 75.5921 10.1129 76.2458 9.81068C83.0753 7.7646 89.7195 5.45506 96.1785 2.88205C100.262 4.27617 104.255 5.9203 108.137 7.80511L108.018 7.90457Z" fill="url(#paint0_radial_5815_59561)"/>
<path style="mix-blend-mode:screen" fill-rule="evenodd" clip-rule="evenodd" d="M96.0419 2.92297C86.1989 13.2931 76.1898 24.0319 66.8266 34.7261C53.3733 41.9888 39.8771 49.1794 26.0162 56.0751C25.5216 53.5015 24.9489 50.9512 24.3294 48.4575C28.9215 43.2967 33.5117 38.1294 38.0999 32.9556C39.8344 32.118 41.3439 30.8785 42.5028 29.34L72.5595 11.9145C73.7538 11.2165 74.954 10.5379 76.1873 9.82822C83.0168 7.78214 89.661 5.4726 96.12 2.89959L96.0419 2.92297Z" fill="url(#paint1_radial_5815_59561)"/>
<path style="mix-blend-mode:screen" fill-rule="evenodd" clip-rule="evenodd" d="M26.0161 56.0751L16.0706 85.1247C15.9593 80.1397 15.6529 75.0005 15.1183 69.7382L22.272 51.0302L24.3489 48.4517C24.9684 50.9454 25.541 53.4956 26.0357 56.0693L26.0161 56.0751Z" fill="url(#paint2_radial_5815_59561)"/>
<path style="mix-blend-mode:screen" fill-rule="evenodd" clip-rule="evenodd" d="M66.8266 34.7261C65.5834 46.2623 64.9112 59.5624 64.3701 71.7388C60.9156 74.9002 57.5546 78.1611 54.2658 81.5918C51.6593 81.8307 49.0667 82.2028 46.4982 82.7069C43.4466 83.2384 40.4398 83.7777 37.3491 84.3209C35.4267 85.8537 33.5297 87.4002 31.6074 88.933C26.4181 87.5107 21.2365 86.2562 16.0589 85.0856L26.0161 56.0751C39.8946 49.2379 53.3733 41.9888 66.8266 34.7261Z" fill="url(#paint3_radial_5815_59561)"/>
<path style="mix-blend-mode:multiply" fill-rule="evenodd" clip-rule="evenodd" d="M96.0419 2.92298C100.125 4.31709 104.119 5.96122 108 7.84604C102.843 24.276 95.8406 45.8306 91.1139 65.0449C84.9515 66.6474 78.8778 68.5736 72.9181 70.8152C71.3335 71.8428 67.6489 74.5203 65.2367 76.2636C65.0672 75.6978 64.5452 73.1748 64.3331 71.6861C64.9327 59.4922 65.5464 46.2096 66.7896 34.6734C76.1898 24.0319 86.1989 13.2931 96.0419 2.92298Z" fill="url(#paint4_radial_5815_59561)"/>
<path style="mix-blend-mode:multiply" fill-rule="evenodd" clip-rule="evenodd" d="M57.1897 83.7566L65.2738 76.3163C67.7406 74.4715 71.3705 71.8955 72.9552 70.8679C78.9149 68.6262 84.9886 66.7001 91.1509 65.0976C90.5315 67.6435 89.9394 70.1387 89.4 72.5968L87.2617 77.8092C79.3938 81.1446 71.4965 84.8077 63.5541 88.8883C62.8038 88.9573 62.0497 88.9772 61.2967 88.948C59.5059 88.2937 57.7151 87.6394 55.8774 87.0417L57.1897 83.7566Z" fill="url(#paint5_radial_5815_59561)"/>
<path style="mix-blend-mode:screen" fill-rule="evenodd" clip-rule="evenodd" d="M90.5667 67.5479C88.1835 67.4187 85.8357 68.1675 83.9674 69.6526L55.8774 87.0417L57.1897 83.7566L65.2738 76.3163C67.7406 74.4715 71.3705 71.8955 72.9552 70.8679C78.9149 68.6262 84.9886 66.7001 91.1509 65.0976L90.5667 67.5479Z" fill="url(#paint6_radial_5815_59561)"/>
<path style="mix-blend-mode:screen" fill-rule="evenodd" clip-rule="evenodd" d="M57.1897 83.7566L53.7554 84.7855L54.2834 81.6504C57.5136 78.2372 60.9273 74.9392 64.3877 71.7973C64.5998 73.2861 65.1471 75.8227 65.2912 76.3749L57.2072 83.8152L57.1897 83.7566Z" fill="url(#paint7_radial_5815_59561)"/>
<path style="mix-blend-mode:screen" fill-rule="evenodd" clip-rule="evenodd" d="M38.2691 86.8947C43.3706 85.8241 48.5387 85.0998 53.7379 84.727L57.1722 83.6981L55.8599 86.9832C54.0206 87.8406 52.2256 88.79 50.4817 89.8278C46.4492 88.7181 42.3758 87.6845 38.2516 86.8362L38.2691 86.8947Z" fill="url(#paint8_radial_5815_59561)"/>
<path style="mix-blend-mode:multiply" fill-rule="evenodd" clip-rule="evenodd" d="M53.7379 84.727C48.5386 85.0998 43.3705 85.8241 38.269 86.8947C37.3519 87.1695 36.3645 87.6354 35.5332 88.0546C34.2435 88.2921 32.9264 88.5804 31.5488 88.9506C33.4712 87.4178 35.3682 85.8713 37.2906 84.3385C40.3422 83.8069 43.349 83.2676 46.4397 82.7244C49.0317 82.2252 51.6478 81.8602 54.2775 81.6308L53.7496 84.766L53.7379 84.727Z" fill="url(#paint9_radial_5815_59561)"/>
<path style="mix-blend-mode:screen" fill-rule="evenodd" clip-rule="evenodd" d="M43.55 83.2287C46.4124 82.5625 49.388 81.99 52.4065 81.4897C53.5559 81.3185 54.6249 80.7978 55.4683 79.9982L61.6709 74.2274L55.5812 80.5173C54.8192 81.2981 54.2875 82.2742 54.0447 83.3379L53.8004 84.368L53.9278 82.9477C53.969 82.6355 53.9253 82.3181 53.8013 82.0287C53.6336 81.8237 53.1458 81.9699 52.9506 82.0284C49.8015 82.3764 46.6816 82.8221 43.5734 83.3067L43.55 83.2287Z" fill="url(#paint10_radial_5815_59561)"/>
<path style="mix-blend-mode:screen" fill-rule="evenodd" clip-rule="evenodd" d="M54.2538 24.6286C61.7031 24.2256 76.5215 23.9326 80.597 19.4369C76.7889 23.6185 70.5117 30.56 66.8266 34.7261C53.3733 41.9888 39.8771 49.1794 26.0161 56.0751C25.5215 53.5015 24.9488 50.9512 24.3293 48.4576C28.9214 43.2967 33.5116 38.1294 38.0998 32.9556C39.8343 32.1181 41.3438 30.8785 42.5027 29.34C43.9137 28.5133 45.3109 27.7119 46.7218 26.8852C49.0149 25.5393 51.5984 24.7653 54.2538 24.6286Z" fill="url(#paint11_radial_5815_59561)"/>
<path style="mix-blend-mode:screen" fill-rule="evenodd" clip-rule="evenodd" d="M60.5711 46.4243C58.5256 45.5981 56.2381 45.6042 54.197 46.4415C47.2252 48.2963 33.8211 54.3747 28.5202 59.1099C25.9479 61.4542 21.3073 74.4972 20.1236 78.2116C19.0793 80.6738 18.9469 83.4276 19.75 85.9786L16.0316 85.1364L26.0162 56.0751C39.8947 49.2379 53.3733 41.9888 66.8267 34.7261C65.5835 46.2623 64.9113 59.5624 64.3702 71.7388C63.3299 72.6671 62.3014 73.6345 61.2923 74.596C62.0386 73.3981 62.5718 72.0801 62.8683 70.7003C63.6463 66.5546 64.2227 48.605 60.5711 46.4243Z" fill="url(#paint12_radial_5815_59561)"/>
<path style="mix-blend-mode:screen" fill-rule="evenodd" clip-rule="evenodd" d="M29.8036 49.6244C30.4002 50.5513 31.7678 50.9284 34.2498 50.2699C38.4526 49.0537 42.5565 47.5185 46.5256 45.6777C39.7476 49.126 32.9111 52.5918 26.0161 56.0751C25.5215 53.5015 24.9488 50.9512 24.3293 48.4575C28.9214 43.2967 33.5116 38.1294 38.0998 32.9556C39.8343 32.1181 41.3438 30.8785 42.5027 29.34C46.472 27.0451 50.4355 24.7306 54.4243 22.4299C50.6207 25.2068 45.5699 28.9314 45.3688 29.3957C44.6336 31.2023 43.5434 32.8431 42.1629 34.2209C40.7823 35.5988 39.1394 36.6857 37.3314 37.4174C34.8606 39.391 27.9043 46.621 29.8269 49.7024L29.8036 49.6244Z" fill="url(#paint13_radial_5815_59561)"/>
<path style="mix-blend-mode:screen" fill-rule="evenodd" clip-rule="evenodd" d="M76.5598 67.8529C86.7618 63.0103 89.7715 59.8546 93.4065 48.9202C97.3169 37.1307 100.847 25.2566 103.998 13.2978C104.934 9.89156 102.484 7.81863 99.6128 6.68009C98.5363 6.15985 97.3631 5.86992 96.1681 5.82883C94.9732 5.78774 93.7828 5.99639 92.673 6.44144L95.9833 2.94052C100.067 4.33463 104.06 5.97876 107.941 7.86358C102.785 24.2935 95.7821 45.8482 91.0553 65.0624C84.8929 66.665 78.8193 68.5911 72.8595 70.8328C71.2749 71.8604 67.5903 74.5378 65.1781 76.2812C65.0086 75.7153 64.4867 73.1924 64.2745 71.7036L64.4791 67.1343C66.2024 71.041 71.0296 70.4028 76.4194 67.8099L76.5598 67.8529Z" fill="url(#paint14_radial_5815_59561)"/>
<path style="mix-blend-mode:screen" fill-rule="evenodd" clip-rule="evenodd" d="M74.4656 49.1512C71.6721 58.4938 68.7343 67.7095 65.2738 76.3163C65.1043 75.7504 64.5823 73.2275 64.3702 71.7388C64.9698 59.5449 65.5835 46.2623 66.8267 34.7261C76.1899 24.0319 86.1989 13.2931 96.0419 2.92298C98.1004 3.58087 100.121 4.35283 102.093 5.23528C91.6136 19.0352 82.3688 33.7305 74.4656 49.1512Z" fill="url(#paint15_radial_5815_59561)"/>
<path style="mix-blend-mode:screen" fill-rule="evenodd" clip-rule="evenodd" d="M54.9754 41.0198L64.2528 35.6461C65.8154 34.7491 67.2253 33.6089 68.4293 32.2684L88.9274 10.4768L69.0827 32.8169C67.8363 34.1609 67.0795 35.886 66.9347 37.7132L64.6752 64.5239L66.1308 37.869C66.1524 37.3735 66.1587 36.3297 65.868 36.1403C65.5774 35.9509 64.6056 36.3271 64.19 36.643L54.9754 41.0198Z" fill="url(#paint16_radial_5815_59561)"/>
<path style="mix-blend-mode:screen" fill-rule="evenodd" clip-rule="evenodd" d="M44.5372 46.635C39.3699 59.6232 34.2622 74.8688 30.195 88.5482L27.0386 87.6651C32.2554 74.9857 36.71 62.0059 40.3787 48.7952C41.7798 48.0777 43.1615 47.3661 44.5372 46.635Z" fill="url(#paint17_radial_5815_59561)"/>
<path style="mix-blend-mode:screen" fill-rule="evenodd" clip-rule="evenodd" d="M40.0145 83.7776C45.5218 69.3691 50.5608 55.1009 54.5462 41.1484C55.2409 40.7701 55.9414 40.4114 56.6362 40.0331C51.2069 54.2765 46.2634 68.7216 41.8057 83.3685C41.2203 83.5439 40.594 83.5827 39.9911 83.6995L40.0145 83.7776Z" fill="url(#paint18_radial_5815_59561)"/>
<path style="mix-blend-mode:screen" fill-rule="evenodd" clip-rule="evenodd" d="M24.4657 49.0546L25.108 53.115C25.4456 55.1735 25.2747 57.2834 24.6102 59.2607L16.9514 82.6706L25.5644 58.8259C26.1025 57.236 27.2263 55.9108 28.707 55.1201L54.9754 41.0198L27.954 54.6652C27.55 54.9819 27.0412 55.1343 26.5296 55.092C26.1276 54.7356 25.8507 54.2594 25.7399 53.7337L24.4891 49.1327L24.4657 49.0546Z" fill="url(#paint19_radial_5815_59561)"/>
<path style="mix-blend-mode:multiply" fill-rule="evenodd" clip-rule="evenodd" d="M42.5028 29.34C41.3438 30.8785 39.8344 32.118 38.0998 32.9556C33.5285 38.1385 28.9384 43.3059 24.3294 48.4575L22.2525 51.0361C25.4804 43.4984 28.7994 37.4006 31.4823 31.6635C34.7721 28.5765 38.2348 25.679 41.8535 22.9851L47.4793 20.4704L48.7265 19.3099C48.9216 19.2515 71.8922 12.0294 72.618 11.897C66.5814 15.4066 60.5429 18.9098 54.5024 22.4065C51.9304 23.9 49.372 25.3682 46.8136 26.8364C45.3832 27.669 43.9859 28.4704 42.575 29.2971L42.5028 29.34Z" fill="url(#paint20_radial_5815_59561)"/>
<g style="mix-blend-mode:screen">
<path fill-rule="evenodd" clip-rule="evenodd" d="M43.1531 69.9086C42.7823 70.0197 42.8173 70.3495 42.9753 70.6636C43.0625 70.8184 43.206 70.9338 43.3759 70.9858C43.5459 71.0378 43.7293 71.0224 43.8883 70.943C44.1614 70.8611 44.1499 70.3968 44.0017 70.186C43.9259 70.0367 43.7939 69.9237 43.6348 69.8716C43.4757 69.8196 43.3024 69.8329 43.1531 69.9086Z" fill="#5548FF"/>
</g>
<g style="mix-blend-mode:screen">
<path fill-rule="evenodd" clip-rule="evenodd" d="M94.8941 9.66737C94.5429 9.7726 94.5837 10.1218 94.7163 10.4224C94.8039 10.5784 94.9471 10.6958 95.1173 10.7512C95.2876 10.8066 95.4724 10.7959 95.6351 10.7212C95.9083 10.6394 95.9104 10.1497 95.7622 9.93889C95.6779 9.79309 95.5418 9.68428 95.3811 9.634C95.2203 9.58371 95.0465 9.59562 94.8941 9.66737Z" fill="#5548FF"/>
</g>
<g style="mix-blend-mode:screen">
<path fill-rule="evenodd" clip-rule="evenodd" d="M56.9993 50.2588C56.648 50.364 56.6694 50.7191 56.8214 51.0138C56.9091 51.1698 57.0523 51.2872 57.2225 51.3426C57.3927 51.398 57.5776 51.3873 57.7403 51.3126C58.0135 51.2308 57.9961 50.7469 57.8479 50.5361C57.7649 50.3941 57.6327 50.2874 57.4763 50.2362C57.3199 50.1851 57.1501 50.1931 56.9993 50.2588Z" fill="#5548FF"/>
</g>
<g style="mix-blend-mode:screen" opacity="0.6">
<path fill-rule="evenodd" clip-rule="evenodd" d="M71.4096 50.6621C71.0389 50.7732 71.0602 51.1283 71.2181 51.4425C71.3091 51.6089 71.4594 51.7348 71.6391 51.7953C71.8188 51.8557 72.0147 51.8462 72.1877 51.7687C72.4804 51.681 72.4767 51.1718 72.3285 50.961C72.2408 50.8049 72.0976 50.6876 71.9274 50.6322C71.7572 50.5768 71.5723 50.5875 71.4096 50.6621Z" fill="#5548FF"/>
</g>
<g style="mix-blend-mode:screen" opacity="0.6">
<path fill-rule="evenodd" clip-rule="evenodd" d="M100.105 14.9957C99.7152 15.1126 99.7618 15.4814 99.9003 15.8014C99.9956 15.9667 100.15 16.0897 100.333 16.1455C100.515 16.2014 100.712 16.1859 100.883 16.1022C101.157 16.0204 101.153 15.5112 101.005 15.3004C100.922 15.1446 100.783 15.0263 100.616 14.9697C100.448 14.913 100.266 14.9223 100.105 14.9957Z" fill="#5548FF"/>
</g>
<g style="mix-blend-mode:screen" opacity="0.5">
<path fill-rule="evenodd" clip-rule="evenodd" d="M72.7753 29.6692C72.4046 29.7803 72.4318 30.1549 72.5897 30.4691C72.6837 30.6306 72.8344 30.7514 73.0125 30.8081C73.1905 30.8647 73.3833 30.8532 73.5534 30.7758C73.8461 30.6881 73.8424 30.1789 73.6942 29.9681C73.6065 29.812 73.4633 29.6946 73.2931 29.6393C73.1229 29.5839 72.938 29.5946 72.7753 29.6692Z" fill="#5548FF"/>
</g>
<g style="mix-blend-mode:screen" opacity="0.5">
<path fill-rule="evenodd" clip-rule="evenodd" d="M69.3099 56.7136C68.9392 56.8246 68.9664 57.1992 69.1243 57.5134C69.2183 57.6749 69.369 57.7957 69.5471 57.8524C69.7251 57.9091 69.9179 57.8976 70.088 57.8201C70.3807 57.7324 70.377 57.2232 70.2288 57.0124C70.1447 56.8527 70.0017 56.7321 69.8301 56.6763C69.6585 56.6205 69.4718 56.6338 69.3099 56.7136Z" fill="#5548FF"/>
</g>
<g style="mix-blend-mode:screen" opacity="0.5">
<path fill-rule="evenodd" clip-rule="evenodd" d="M72.9175 40.5777C72.5273 40.6946 72.5681 41.0438 72.7065 41.3639C72.8052 41.5257 72.9598 41.6457 73.141 41.7011C73.3222 41.7566 73.5175 41.7436 73.6898 41.6647C73.9629 41.5829 73.9846 41.0873 73.811 40.8629C73.7286 40.7083 73.5891 40.592 73.4222 40.5387C73.2554 40.4854 73.0743 40.4994 72.9175 40.5777Z" fill="#5548FF"/>
</g>
<g style="mix-blend-mode:screen" opacity="0.5">
<path fill-rule="evenodd" clip-rule="evenodd" d="M72.709 66.4974C72.5529 66.5442 72.5548 66.6925 72.6347 66.8174C72.6503 66.852 72.6726 66.8831 72.7003 66.909C72.7281 66.9349 72.7607 66.9549 72.7963 66.968C72.8319 66.9811 72.8698 66.987 72.9077 66.9853C72.9456 66.9835 72.9828 66.9743 73.0171 66.958C73.1341 66.9229 73.1342 66.7103 73.0855 66.6185C73.0473 66.557 72.9884 66.511 72.9195 66.4888C72.8505 66.4667 72.7759 66.4697 72.709 66.4974Z" fill="#5548FF"/>
</g>
<g style="mix-blend-mode:screen">
<path fill-rule="evenodd" clip-rule="evenodd" d="M73.3398 59.589C72.8129 59.7468 72.8557 60.2443 73.074 60.6893C73.2027 60.9144 73.4124 61.082 73.6603 61.1578C73.9083 61.2337 74.1758 61.2121 74.4084 61.0975C74.7987 60.9806 74.8067 60.2977 74.5903 60.0011C74.4706 59.789 74.2761 59.6292 74.0448 59.553C73.8135 59.4768 73.5621 59.4896 73.3398 59.589Z" fill="#5548FF"/>
</g>
<g style="mix-blend-mode:screen" opacity="0.35">
<path fill-rule="evenodd" clip-rule="evenodd" d="M66.8553 15.3033C66.3479 15.4553 66.3907 15.9529 66.5837 16.3841C66.7127 16.6105 66.9221 16.7802 67.1704 16.8594C67.4186 16.9386 67.6876 16.9217 67.9239 16.8119C68.3142 16.695 68.3222 16.0121 68.0999 15.696C68.0446 15.5879 67.9683 15.4919 67.8756 15.4135C67.7829 15.3351 67.6755 15.2759 67.5597 15.2394C67.4439 15.2029 67.322 15.1897 67.2011 15.2007C67.0801 15.2117 66.9626 15.2466 66.8553 15.3033Z" fill="#5548FF"/>
</g>
<g style="mix-blend-mode:screen">
<path fill-rule="evenodd" clip-rule="evenodd" d="M59.1254 56.7878C58.6181 56.9398 58.6472 57.4627 58.8597 57.8881C58.9887 58.1145 59.1981 58.2842 59.4464 58.3634C59.6946 58.4426 59.9636 58.4257 60.1999 58.3159C60.5902 58.199 60.5982 57.5161 60.3759 57.2C60.2562 56.9879 60.0617 56.8281 59.8304 56.7519C59.5992 56.6756 59.3478 56.6885 59.1254 56.7878Z" fill="#5548FF"/>
</g>
<g style="mix-blend-mode:screen">
<path fill-rule="evenodd" clip-rule="evenodd" d="M82.0436 22.2782C81.5363 22.4302 81.5849 22.9472 81.7779 23.3785C81.9102 23.6014 82.1197 23.7681 82.3667 23.847C82.6137 23.9258 82.881 23.9113 83.1181 23.8062C83.5083 23.6893 83.5164 23.0065 83.2941 22.6903C83.1779 22.4747 82.9835 22.3118 82.7509 22.2351C82.5183 22.1585 82.2652 22.1739 82.0436 22.2782Z" fill="#5548FF"/>
</g>
<g style="mix-blend-mode:screen">
<path fill-rule="evenodd" clip-rule="evenodd" d="M58.6057 37.8058C58.391 37.8701 58.4105 38.0769 58.4885 38.2662C58.5484 38.3529 58.637 38.4158 58.7387 38.4436C58.8404 38.4715 58.9487 38.4626 59.0444 38.4186C59.2006 38.3718 59.2026 38.0947 59.1031 37.9757C59.0568 37.8899 58.9799 37.8248 58.8877 37.7933C58.7955 37.7618 58.6948 37.7663 58.6057 37.8058Z" fill="#5548FF"/>
</g>
<g style="mix-blend-mode:screen">
<path fill-rule="evenodd" clip-rule="evenodd" d="M81.5135 15.3985C81.2989 15.4628 81.3183 15.6696 81.3963 15.8589C81.4518 15.9453 81.5366 16.0088 81.6351 16.0379C81.7336 16.0669 81.8393 16.0596 81.9328 16.0172C81.9693 15.9944 82.0005 15.9643 82.0246 15.9286C82.0486 15.893 82.0648 15.8526 82.0722 15.8103C82.0796 15.7679 82.078 15.7245 82.0674 15.6828C82.0569 15.6412 82.0376 15.6022 82.011 15.5684C81.9647 15.4827 81.8877 15.4176 81.7955 15.3861C81.7033 15.3546 81.6026 15.359 81.5135 15.3985Z" fill="#5548FF"/>
</g>
<g style="mix-blend-mode:screen">
<path fill-rule="evenodd" clip-rule="evenodd" d="M83.8092 54.007C83.5946 54.0713 83.614 54.2781 83.7057 54.442C83.7584 54.5332 83.8428 54.6017 83.9429 54.6345C84.0429 54.6673 84.1516 54.6621 84.248 54.6198C84.4041 54.573 84.4062 54.2959 84.3262 54.171C84.2787 54.0814 84.198 54.014 84.1013 53.9833C84.0046 53.9526 83.8997 53.9611 83.8092 54.007Z" fill="#5548FF"/>
</g>
<g style="mix-blend-mode:screen">
<path fill-rule="evenodd" clip-rule="evenodd" d="M80.7276 40.8108C80.7072 40.5993 80.6456 40.3938 80.5464 40.2059C80.5113 40.0888 80.2558 39.8039 80.1212 39.7804C80.0385 39.9172 79.9754 40.065 79.9337 40.2193C79.9057 40.388 79.9069 40.5603 79.9374 40.7286C80.0465 40.8121 80.1754 40.8659 80.3115 40.8848C80.4476 40.9037 80.5862 40.8869 80.7139 40.8362L80.7276 40.8108Z" fill="#6040FF"/>
</g>
<g style="mix-blend-mode:screen" opacity="0.4">
<path fill-rule="evenodd" clip-rule="evenodd" d="M101.21 8.17909C101.251 8.52565 101.352 8.86243 101.508 9.17425C101.561 9.34986 101.887 9.86897 102.117 9.92758C102.278 9.73396 102.399 9.5097 102.472 9.26826C102.571 9.00172 102.602 8.71473 102.562 8.43323C102.399 8.28218 102.199 8.1761 101.983 8.1254C101.767 8.0747 101.541 8.08112 101.327 8.14402L101.21 8.17909Z" fill="#6040FF"/>
</g>
<g style="mix-blend-mode:screen" opacity="0.4">
<path fill-rule="evenodd" clip-rule="evenodd" d="M92.8271 32.7203C92.8556 33.0623 92.9551 33.3947 93.1194 33.696C93.2438 34.0083 93.4575 34.2772 93.7337 34.4688C93.892 34.2666 94.0106 34.0363 94.0832 33.79C94.0365 33.6339 94.2454 33.1247 94.1538 32.9608C94.0621 32.7969 93.2389 32.5332 92.9384 32.6657L92.8271 32.7203Z" fill="#6040FF"/>
</g>
<g style="mix-blend-mode:screen" opacity="0.4">
<path fill-rule="evenodd" clip-rule="evenodd" d="M43.3875 58.4833C43.6612 58.5278 43.9406 58.5232 44.2128 58.47C44.4755 58.4647 44.7319 58.3879 44.9543 58.2478C44.8324 58.0824 44.6818 57.9402 44.5096 57.8282C44.3828 57.7598 44.0278 57.5685 43.8912 57.6094C43.7546 57.6504 43.3759 58.2316 43.4128 58.497L43.3875 58.4833Z" fill="#6040FF"/>
</g>
<g style="mix-blend-mode:screen">
<path fill-rule="evenodd" clip-rule="evenodd" d="M81.8106 61.389C81.5578 61.4115 81.3122 61.4851 81.0887 61.6053C80.8692 61.7172 80.6918 61.8972 80.5831 62.1183C80.7445 62.2197 80.9241 62.2887 81.1118 62.3214C81.3141 62.3664 81.5243 62.3618 81.7244 62.3079C81.8237 62.1737 81.8853 62.0154 81.9028 61.8494C81.9204 61.6834 81.8933 61.5157 81.8243 61.3637L81.8106 61.389Z" fill="#5548FF"/>
</g>
<g style="mix-blend-mode:screen">
<path fill-rule="evenodd" clip-rule="evenodd" d="M97.8204 20.9963C97.6502 21.2993 97.5333 21.6292 97.4747 21.9717C97.5215 22.1278 97.3808 22.7228 97.5485 22.9278C97.7862 22.8482 98.0095 22.731 98.2101 22.5807C98.3662 22.5339 98.7195 22.1517 98.7449 21.9527C98.7021 21.7412 98.605 21.5445 98.463 21.3819C98.3211 21.2194 98.1393 21.0966 97.9355 21.0256L97.8204 20.9963Z" fill="#5548FF"/>
</g>
<g style="mix-blend-mode:screen">
<path fill-rule="evenodd" clip-rule="evenodd" d="M57.6039 19.202C57.6586 18.8879 57.6197 18.687 57.286 18.6381C56.9524 18.5892 56.7495 18.6925 56.6732 19.0768C56.597 19.4611 56.677 19.586 57.0438 19.6037C57.4105 19.6214 57.5218 19.5668 57.6039 19.202Z" fill="#6040FF"/>
</g>
<g style="mix-blend-mode:screen">
<path fill-rule="evenodd" clip-rule="evenodd" d="M32.8993 66.9841C32.9736 66.6641 32.9151 66.469 32.601 66.4143C32.531 66.387 32.4553 66.377 32.3806 66.3852C32.3058 66.3933 32.2341 66.4193 32.1715 66.461C32.1089 66.5027 32.0573 66.5589 32.021 66.6247C31.9847 66.6906 31.9647 66.7642 31.9629 66.8394C31.8945 67.1788 31.992 67.3623 32.3392 67.3858C32.6865 67.4093 32.8076 67.2455 32.8993 66.9841Z" fill="#6040FF"/>
</g>
<g style="mix-blend-mode:screen">
<path fill-rule="evenodd" clip-rule="evenodd" d="M69.5476 47.2861C69.6024 46.972 69.5439 46.7769 69.2298 46.7221C69.1585 46.7002 69.0831 46.6948 69.0094 46.7065C68.9357 46.7181 68.8657 46.7465 68.8046 46.7894C68.7436 46.8323 68.6932 46.8887 68.6573 46.9541C68.6214 47.0195 68.6009 47.0922 68.5975 47.1668C68.5291 47.5062 68.6207 47.6701 68.968 47.6937C69.3153 47.7172 69.4655 47.6509 69.5476 47.2861Z" fill="#6040FF"/>
</g>
<g style="mix-blend-mode:screen">
<path fill-rule="evenodd" clip-rule="evenodd" d="M24.5281 80.8472C24.452 81.0188 24.6918 81.3935 24.7386 81.5496C24.7853 81.7057 25.2281 81.9771 25.4779 81.8172C25.5895 81.715 25.6621 81.5771 25.6831 81.4273C25.7042 81.2774 25.6724 81.1249 25.5933 80.9959C25.3593 80.6407 24.893 80.7166 24.5476 80.8413L24.5281 80.8472Z" fill="#5548FF"/>
</g>
<g style="mix-blend-mode:screen">
<path fill-rule="evenodd" clip-rule="evenodd" d="M49.3445 41.3884C49.3738 41.4859 49.6488 41.5524 49.7581 41.5622C49.8674 41.572 50.1288 41.4511 50.1777 41.3302C50.1733 41.2355 50.136 41.1453 50.0723 41.0751C50.0086 41.0049 49.9224 40.9591 49.8286 40.9457C49.5944 41.0158 49.409 41.1777 49.3445 41.3884Z" fill="#5548FF"/>
</g>
<g style="mix-blend-mode:screen">
<path fill-rule="evenodd" clip-rule="evenodd" d="M56.2342 66.585C56.2948 66.5984 56.3576 66.5984 56.4182 66.5851C56.4789 66.5718 56.5359 66.5454 56.5853 66.5079C56.6347 66.4703 56.6754 66.4224 56.7045 66.3676C56.7335 66.3127 56.7503 66.2522 56.7536 66.1902C56.757 66.1282 56.7467 66.0662 56.7237 66.0086C56.7007 65.9509 56.6654 65.899 56.6202 65.8564C56.5751 65.8137 56.5212 65.7814 56.4624 65.7617C56.4035 65.742 56.3411 65.7353 56.2794 65.7421C56.2172 65.7335 56.1538 65.7381 56.0935 65.7555C56.0332 65.7729 55.9772 65.8028 55.9292 65.8433C55.8811 65.8837 55.8421 65.9338 55.8147 65.9903C55.7873 66.0468 55.772 66.1084 55.77 66.1712C55.7426 66.4346 55.9961 66.5712 56.2342 66.585Z" fill="#5548FF"/>
</g>
<path style="mix-blend-mode:screen" fill-rule="evenodd" clip-rule="evenodd" d="M56.667 67.6036C56.8764 67.5666 57.0757 67.4857 57.2517 67.3662C57.4277 67.2467 57.5763 67.0913 57.688 66.9102C57.7996 66.7292 57.8716 66.5265 57.8994 66.3156C57.9271 66.1047 57.9099 65.8904 57.8488 65.6866C57.7878 65.4828 57.6843 65.2943 57.5452 65.1334C57.4061 64.9725 57.2345 64.8428 57.0417 64.753C56.8489 64.6631 56.6392 64.6151 56.4265 64.612C56.2138 64.6089 56.0029 64.6509 55.8076 64.7352C55.4684 64.8816 55.1947 65.1475 55.0386 65.4824C54.8825 65.8173 54.8549 66.1979 54.9609 66.5518C55.067 66.9057 55.2993 67.2084 55.6138 67.4023C55.9283 67.5962 56.3031 67.6678 56.667 67.6036Z" fill="url(#paint21_radial_5815_59561)"/>
<g style="mix-blend-mode:screen">
<path fill-rule="evenodd" clip-rule="evenodd" d="M54.6205 35.5762C54.691 35.5964 54.7651 35.6006 54.8374 35.5883C54.9098 35.576 54.9784 35.5476 55.0382 35.5052C55.0981 35.4628 55.1476 35.4074 55.1832 35.3433C55.2187 35.2791 55.2394 35.2078 55.2436 35.1345C55.2479 35.0613 55.2355 34.988 55.2076 34.9202C55.1797 34.8524 55.1368 34.7917 55.0823 34.7427C55.0277 34.6936 54.9628 34.6575 54.8924 34.637C54.822 34.6165 54.7478 34.612 54.6754 34.6241C54.5378 34.6167 54.4026 34.6633 54.2988 34.754C54.1949 34.8446 54.1305 34.9723 54.1192 35.1097C54.1952 35.3633 54.3766 35.5429 54.6205 35.5762Z" fill="#5548FF"/>
</g>
<path style="mix-blend-mode:screen" fill-rule="evenodd" clip-rule="evenodd" d="M55.1136 36.7255C55.5328 36.5999 55.8849 36.313 56.0926 35.9278C56.3002 35.5426 56.3462 35.0907 56.2207 34.6715C56.0951 34.2523 55.8081 33.9002 55.4229 33.6926C55.0377 33.4849 54.5858 33.4389 54.1666 33.5645C53.7474 33.69 53.3953 33.977 53.1877 34.3622C52.9801 34.7474 52.934 35.1993 53.0596 35.6185C53.1852 36.0377 53.4721 36.3898 53.8573 36.5974C54.2426 36.805 54.6945 36.8511 55.1136 36.7255Z" fill="url(#paint22_radial_5815_59561)"/>
<g style="mix-blend-mode:screen">
<path fill-rule="evenodd" clip-rule="evenodd" d="M61.5962 23.0881C61.5416 23.3253 61.5815 23.5745 61.7074 23.7829C61.8333 23.9912 62.0354 24.1424 62.2708 24.2043C62.6278 24.3313 63.3283 24.1852 63.3929 23.7619C63.4509 23.5094 63.4084 23.2442 63.2745 23.0224C63.1406 22.8007 62.9258 22.6396 62.6753 22.5734C62.2012 22.4815 61.6842 22.5301 61.5962 23.0881Z" fill="#5548FF"/>
</g>
<path style="mix-blend-mode:screen" opacity="0.5" fill-rule="evenodd" clip-rule="evenodd" d="M63.1951 25.7987C63.6718 25.6601 64.0965 25.383 64.4155 25.0027C64.7344 24.6223 64.9332 24.1557 64.9865 23.6622C65.0399 23.1687 64.9455 22.6704 64.7152 22.2307C64.485 21.7909 64.1293 21.4295 63.6932 21.1922C63.2572 20.9549 62.7606 20.8525 62.2662 20.8979C61.7719 20.9433 61.3023 21.1346 60.9168 21.4474C60.5314 21.7602 60.2475 22.1804 60.1013 22.6548C59.9551 23.1292 59.953 23.6363 60.0955 24.1118C60.2852 24.745 60.7174 25.2776 61.2979 25.5935C61.8785 25.9095 62.5604 25.9832 63.1951 25.7987Z" fill="url(#paint23_radial_5815_59561)"/>
<g style="mix-blend-mode:screen">
<path fill-rule="evenodd" clip-rule="evenodd" d="M88.6796 16.0372C88.6388 16.2103 88.6682 16.3924 88.7614 16.5439C88.8546 16.6953 89.0039 16.8036 89.1768 16.8452C89.4382 16.9369 89.9377 16.8298 90.0159 16.5938C90.0496 16.4096 90.0136 16.2194 89.9149 16.0603C89.8161 15.9012 89.6616 15.7846 89.4816 15.7332C89.1421 15.6647 88.7539 15.7173 88.703 16.1153L88.6796 16.0372Z" fill="#5548FF"/>
</g>
<path style="mix-blend-mode:screen" fill-rule="evenodd" clip-rule="evenodd" d="M89.8807 18.059C90.2308 17.9583 90.543 17.7556 90.7774 17.4767C91.0118 17.1978 91.1578 16.8554 91.1967 16.4932C91.2357 16.1309 91.1658 15.7653 90.9961 15.443C90.8264 15.1206 90.5644 14.8561 90.2437 14.6833C89.923 14.5105 89.5581 14.4371 89.1955 14.4726C88.8329 14.508 88.4891 14.6507 88.208 14.8824C87.9269 15.1141 87.7211 15.4243 87.6171 15.7735C87.513 16.1226 87.5153 16.4948 87.6237 16.8426C87.7617 17.3032 88.077 17.6901 88.5003 17.9182C88.9235 18.1463 89.4201 18.197 89.8807 18.059Z" fill="url(#paint24_radial_5815_59561)"/>
<g style="mix-blend-mode:screen">
<path fill-rule="evenodd" clip-rule="evenodd" d="M60.7884 44.3816C60.8784 44.4035 60.9719 44.4072 61.0633 44.3923C61.1547 44.3775 61.2422 44.3444 61.3206 44.2952C61.399 44.2459 61.4668 44.1814 61.5198 44.1055C61.5729 44.0296 61.6102 43.9438 61.6295 43.8532C61.7408 43.586 61.6279 43.0669 61.3665 42.9751C61.1703 42.9382 60.9674 42.9765 60.7982 43.0824C60.6289 43.1882 60.5058 43.3539 60.4531 43.5465C60.3906 43.9054 60.4236 44.2996 60.847 44.3641L60.7884 44.3816Z" fill="#5548FF"/>
</g>
<path style="mix-blend-mode:screen" fill-rule="evenodd" clip-rule="evenodd" d="M62.7848 43.1669C62.6761 42.8041 62.4623 42.4817 62.1704 42.2405C61.8785 41.9992 61.5216 41.8499 61.1448 41.8115C60.7681 41.7731 60.3884 41.8473 60.0538 42.0246C59.7192 42.202 59.4447 42.4746 59.2651 42.808C59.0854 43.1414 59.0086 43.5205 59.0445 43.8975C59.0803 44.2745 59.2271 44.6324 59.4663 44.926C59.7056 45.2196 60.0265 45.4356 60.3885 45.5468C60.7505 45.6579 61.1374 45.6593 61.5001 45.5506C61.741 45.4784 61.9653 45.3595 62.1602 45.2007C62.3551 45.0418 62.5169 44.8461 62.6362 44.6248C62.7555 44.4035 62.83 44.1608 62.8555 43.9106C62.881 43.6605 62.857 43.4077 62.7848 43.1669Z" fill="url(#paint25_radial_5815_59561)"/>
<g style="mix-blend-mode:screen">
<path fill-rule="evenodd" clip-rule="evenodd" d="M88.7457 27.1173C88.8357 27.1392 88.9292 27.1429 89.0206 27.128C89.112 27.1131 89.1995 27.0801 89.2779 27.0308C89.3563 26.9816 89.4241 26.9171 89.4771 26.8412C89.5302 26.7653 89.5675 26.6795 89.5868 26.5889C89.6981 26.3216 89.5851 25.8026 89.3237 25.7108C89.1303 25.6689 88.9282 25.7047 88.761 25.8105C88.5938 25.9163 88.4749 26.0836 88.4299 26.2763C88.3479 26.6411 88.4004 27.0294 88.8237 27.0939L88.7457 27.1173Z" fill="#5548FF"/>
</g>
<path style="mix-blend-mode:screen" fill-rule="evenodd" clip-rule="evenodd" d="M90.8201 25.8792C90.7137 25.5098 90.4996 25.1804 90.2052 24.9332C89.9107 24.6859 89.5494 24.532 89.1671 24.491C88.7848 24.45 88.399 24.5238 88.0589 24.703C87.7187 24.8822 87.4396 25.1586 87.2572 25.497C87.0748 25.8355 86.9974 26.2206 87.0348 26.6032C87.0721 26.9858 87.2226 27.3487 87.4671 27.6454C87.7115 27.9422 88.0388 28.1594 88.4072 28.2694C88.7756 28.3793 89.1684 28.3771 89.5355 28.2629C90.0188 28.1125 90.424 27.7788 90.6642 27.3332C90.9044 26.8876 90.9603 26.3656 90.8201 25.8792Z" fill="url(#paint26_radial_5815_59561)"/>
<path style="mix-blend-mode:screen" fill-rule="evenodd" clip-rule="evenodd" d="M42.5028 29.34C41.3438 30.8785 39.8344 32.118 38.0998 32.9556C33.5285 38.1385 28.9384 43.3059 24.3294 48.4575L22.2525 51.0361C25.4804 43.4984 28.7994 37.4006 31.4823 31.6635C34.7721 28.5765 38.2348 25.679 41.8535 22.9851L47.4793 20.4704L48.7265 19.3099C48.9216 19.2515 71.8922 12.0294 72.618 11.897C66.5814 15.4066 60.5429 18.9098 54.5024 22.4065C51.9304 23.9 49.372 25.3682 46.8136 26.8364C45.3832 27.669 43.9859 28.4704 42.575 29.2971L42.5028 29.34Z" fill="url(#paint27_radial_5815_59561)"/>
<path style="mix-blend-mode:screen" fill-rule="evenodd" clip-rule="evenodd" d="M96.0419 2.92297C86.1989 13.2931 76.1898 24.0319 66.8266 34.7261C53.3733 41.9888 39.8771 49.1794 26.0162 56.0751C25.5216 53.5015 24.9489 50.9512 24.3294 48.4575C28.9215 43.2967 33.5117 38.1294 38.0999 32.9556C39.8344 32.118 41.3439 30.8785 42.5028 29.34L72.5595 11.9145C73.7538 11.2165 74.954 10.5379 76.1873 9.82822C83.0168 7.78214 89.661 5.4726 96.12 2.89959L96.0419 2.92297Z" fill="url(#paint28_radial_5815_59561)"/>
<path style="mix-blend-mode:screen" d="M74.4756 32.4345C75.7412 36.659 73.3426 41.1095 69.1182 42.3751C64.8938 43.6408 60.4432 41.2422 59.1776 37.0177C57.912 32.7933 60.3106 28.3428 64.535 27.0771C68.7594 25.8115 73.21 28.2101 74.4756 32.4345Z" fill="url(#paint29_radial_5815_59561)"/>
<path style="mix-blend-mode:screen" d="M71.9195 33.2003C72.7621 36.013 71.1651 38.9763 68.3524 39.819C65.5397 40.6616 62.5765 39.0646 61.7338 36.2519C60.8911 33.4392 62.4881 30.476 65.3008 29.6333C68.1135 28.7906 71.0768 30.3876 71.9195 33.2003Z" fill="url(#paint30_radial_5815_59561)"/>
<path style="mix-blend-mode:screen" d="M32.2797 54.1986C33.3161 57.6579 31.352 61.3023 27.8927 62.3387C24.4334 63.3751 20.7889 61.4109 19.7525 57.9517C18.7161 54.4924 20.6803 50.8479 24.1396 49.8115C27.5989 48.7751 31.2433 50.7393 32.2797 54.1986Z" fill="url(#paint31_radial_5815_59561)"/>
<path style="mix-blend-mode:screen" fill-rule="evenodd" clip-rule="evenodd" d="M27.2672 60.2508C28.0911 59.9998 28.8222 59.5103 29.3681 58.8442C29.9141 58.1781 30.2505 57.3651 30.3349 56.508C30.4192 55.6509 30.2478 54.7879 29.8422 54.0281C29.4366 53.2683 28.815 52.6457 28.0558 52.2389C27.2967 51.832 26.4341 51.6592 25.5768 51.7422C24.7195 51.8251 23.906 52.1602 23.239 52.7051C22.572 53.25 22.0813 53.9802 21.8289 54.8037C21.5766 55.6272 21.5738 56.5069 21.821 57.332C21.9857 57.882 22.2576 58.394 22.6208 58.8387C22.984 59.2834 23.4315 59.6519 23.9376 59.9231C24.4437 60.1943 24.9983 60.3629 25.5697 60.4192C26.1411 60.4754 26.718 60.4182 27.2672 60.2508Z" fill="url(#paint32_radial_5815_59561)"/>
<defs>
<radialGradient id="paint0_radial_5815_59561" cx="0" cy="0" r="1" gradientUnits="userSpaceOnUse" gradientTransform="translate(106.14 8.59455) rotate(73.322) scale(119.183 119.183)">
<stop stop-color="#955CFF"/>
<stop offset="1" stop-color="#4105A3"/>
</radialGradient>
<radialGradient id="paint1_radial_5815_59561" cx="0" cy="0" r="1" gradientUnits="userSpaceOnUse" gradientTransform="translate(22.8068 -49.3907) rotate(73.322) scale(116.352 116.352)">
<stop stop-color="#000D0D"/>
<stop offset="1" stop-color="#340DFF"/>
</radialGradient>
<radialGradient id="paint2_radial_5815_59561" cx="0" cy="0" r="1" gradientUnits="userSpaceOnUse" gradientTransform="translate(27.1883 57.1486) rotate(73.322) scale(101.584 101.584)">
<stop stop-color="#996BFF"/>
<stop offset="1"/>
</radialGradient>
<radialGradient id="paint3_radial_5815_59561" cx="0" cy="0" r="1" gradientUnits="userSpaceOnUse" gradientTransform="translate(45.5112 92.614) rotate(73.322) scale(55.8536 55.8536)">
<stop stop-color="#000D0D"/>
<stop offset="1" stop-color="#3F0DC9"/>
</radialGradient>
<radialGradient id="paint4_radial_5815_59561" cx="0" cy="0" r="1" gradientUnits="userSpaceOnUse" gradientTransform="translate(123.031 33.1764) rotate(73.322) scale(94.2912 94.2912)">
<stop stop-color="white"/>
<stop offset="0.09" stop-color="#F9F6FC"/>
<stop offset="0.23" stop-color="#EADFF3"/>
<stop offset="0.41" stop-color="#D1B8E5"/>
<stop offset="0.61" stop-color="#AE83D1"/>
<stop offset="0.84" stop-color="#8240B9"/>
<stop offset="1" stop-color="#610DA6"/>
</radialGradient>
<radialGradient id="paint5_radial_5815_59561" cx="0" cy="0" r="1" gradientUnits="userSpaceOnUse" gradientTransform="translate(94.8502 75.5995) rotate(73.322) scale(55.9351 55.9351)">
<stop stop-color="white"/>
<stop offset="0.09" stop-color="#F9F6FC"/>
<stop offset="0.23" stop-color="#EADFF3"/>
<stop offset="0.41" stop-color="#D1B8E5"/>
<stop offset="0.61" stop-color="#AE83D1"/>
<stop offset="0.84" stop-color="#8240B9"/>
<stop offset="1" stop-color="#610DA6"/>
</radialGradient>
<radialGradient id="paint6_radial_5815_59561" cx="0" cy="0" r="1" gradientUnits="userSpaceOnUse" gradientTransform="translate(78.5605 107.889) rotate(73.322) scale(74.1456 74.1456)">
<stop stop-color="#000D0D"/>
<stop offset="1" stop-color="#A899FF"/>
</radialGradient>
<radialGradient id="paint7_radial_5815_59561" cx="0" cy="0" r="1" gradientUnits="userSpaceOnUse" gradientTransform="translate(62.9814 54.8245) rotate(73.322) scale(45.2207 45.2207)">
<stop stop-color="#000D0D"/>
<stop offset="1" stop-color="#A899FF"/>
</radialGradient>
<radialGradient id="paint8_radial_5815_59561" cx="0" cy="0" r="1" gradientUnits="userSpaceOnUse" gradientTransform="translate(35.9968 106.139) rotate(73.322) scale(31.7563 31.7563)">
<stop stop-color="#000D0D"/>
<stop offset="1" stop-color="#A899FF"/>
</radialGradient>
<radialGradient id="paint9_radial_5815_59561" cx="0" cy="0" r="1" gradientUnits="userSpaceOnUse" gradientTransform="translate(66.6378 96.5552) rotate(73.322) scale(48.1132 48.1132)">
<stop stop-color="white"/>
<stop offset="0.09" stop-color="#F9F6FC"/>
<stop offset="0.23" stop-color="#EADFF3"/>
<stop offset="0.41" stop-color="#D1B8E5"/>
<stop offset="0.61" stop-color="#AE83D1"/>
<stop offset="0.84" stop-color="#8240B9"/>
<stop offset="1" stop-color="#610DA6"/>
</radialGradient>
<radialGradient id="paint10_radial_5815_59561" cx="0" cy="0" r="1" gradientUnits="userSpaceOnUse" gradientTransform="translate(54.0566 82.9516) rotate(73.322) scale(27.1935 27.1935)">
<stop stop-color="#6C63FF"/>
<stop offset="1" stop-color="#000D0D"/>
</radialGradient>
<radialGradient id="paint11_radial_5815_59561" cx="0" cy="0" r="1" gradientUnits="userSpaceOnUse" gradientTransform="translate(23.2646 41.7806) rotate(73.322) scale(87.4674 87.4674)">
<stop stop-color="#4535FF"/>
<stop offset="1" stop-color="#000D0D"/>
</radialGradient>
<radialGradient id="paint12_radial_5815_59561" cx="0" cy="0" r="1" gradientUnits="userSpaceOnUse" gradientTransform="translate(62.4339 105.661) rotate(73.322) scale(74.39 74.39)">
<stop stop-color="#000D0D"/>
<stop offset="1" stop-color="#3853FF"/>
</radialGradient>
<radialGradient id="paint13_radial_5815_59561" cx="0" cy="0" r="1" gradientUnits="userSpaceOnUse" gradientTransform="translate(74.7194 48.4372) rotate(73.322) scale(64.5311 64.5311)">
<stop stop-color="#000D0D"/>
<stop offset="1" stop-color="#7969FF"/>
</radialGradient>
<radialGradient id="paint14_radial_5815_59561" cx="0" cy="0" r="1" gradientUnits="userSpaceOnUse" gradientTransform="translate(59.8755 59.6464) rotate(73.322) scale(75.5715 75.5715)">
<stop stop-color="#000D0D"/>
<stop offset="1" stop-color="#3B0FFF"/>
</radialGradient>
<radialGradient id="paint15_radial_5815_59561" cx="0" cy="0" r="1" gradientUnits="userSpaceOnUse" gradientTransform="translate(120.669 68.3746) rotate(73.322) scale(71.7216 71.7216)">
<stop stop-color="#000D0D"/>
<stop offset="1" stop-color="#4719FF"/>
</radialGradient>
<radialGradient id="paint16_radial_5815_59561" cx="0" cy="0" r="1" gradientUnits="userSpaceOnUse" gradientTransform="translate(67.9636 35.8952) rotate(73.322) scale(35.5451)">
<stop stop-color="#6C63FF"/>
<stop offset="1" stop-color="#000D0D"/>
</radialGradient>
<radialGradient id="paint17_radial_5815_59561" cx="0" cy="0" r="1" gradientUnits="userSpaceOnUse" gradientTransform="translate(20.9924 92.5386) rotate(73.322) scale(52.9815 52.9815)">
<stop stop-color="#3C10FF"/>
<stop offset="1" stop-color="#000D0D"/>
</radialGradient>
<radialGradient id="paint18_radial_5815_59561" cx="0" cy="0" r="1" gradientUnits="userSpaceOnUse" gradientTransform="translate(42.6906 96.1171) rotate(73.322) scale(58.0332)">
<stop stop-color="#3C10FF"/>
<stop offset="1" stop-color="#000D0D"/>
</radialGradient>
<radialGradient id="paint19_radial_5815_59561" cx="0" cy="0" r="1" gradientUnits="userSpaceOnUse" gradientTransform="translate(26.1292 56.3815) rotate(73.322) scale(38.0505 38.0505)">
<stop stop-color="#6C63FF"/>
<stop offset="1" stop-color="#000D0D"/>
</radialGradient>
<radialGradient id="paint20_radial_5815_59561" cx="0" cy="0" r="1" gradientUnits="userSpaceOnUse" gradientTransform="translate(35.6072 4.5492) rotate(73.322) scale(46.2595 46.2595)">
<stop stop-color="white"/>
<stop offset="0.09" stop-color="#F9F6FC"/>
<stop offset="0.23" stop-color="#EADFF3"/>
<stop offset="0.41" stop-color="#D1B8E5"/>
<stop offset="0.61" stop-color="#AE83D1"/>
<stop offset="0.84" stop-color="#8240B9"/>
<stop offset="1" stop-color="#610DA6"/>
</radialGradient>
<radialGradient id="paint21_radial_5815_59561" cx="0" cy="0" r="1" gradientUnits="userSpaceOnUse" gradientTransform="translate(56.2344 66.1596) rotate(73.322) scale(1.48699)">
<stop stop-color="#5000E3"/>
<stop offset="0.18" stop-color="#4000B5"/>
<stop offset="0.58" stop-color="#1E0055"/>
<stop offset="0.87" stop-color="#080018"/>
<stop offset="1"/>
</radialGradient>
<radialGradient id="paint22_radial_5815_59561" cx="0" cy="0" r="1" gradientUnits="userSpaceOnUse" gradientTransform="translate(54.6284 35.106) rotate(73.322) scale(1.64994)">
<stop stop-color="#5000E3"/>
<stop offset="0.18" stop-color="#4000B5"/>
<stop offset="0.58" stop-color="#1E0055"/>
<stop offset="0.87" stop-color="#080018"/>
<stop offset="1"/>
</radialGradient>
<radialGradient id="paint23_radial_5815_59561" cx="0" cy="0" r="1" gradientUnits="userSpaceOnUse" gradientTransform="translate(62.4761 23.3986) rotate(73.322) scale(2.50547)">
<stop stop-color="#5000E3"/>
<stop offset="0.18" stop-color="#4000B5"/>
<stop offset="0.58" stop-color="#1E0055"/>
<stop offset="0.87" stop-color="#080018"/>
<stop offset="1"/>
</radialGradient>
<radialGradient id="paint24_radial_5815_59561" cx="0" cy="0" r="1" gradientUnits="userSpaceOnUse" gradientTransform="translate(89.3604 16.3223) rotate(73.322) scale(1.8129)">
<stop stop-color="#5000E3"/>
<stop offset="0.18" stop-color="#4000B5"/>
<stop offset="0.58" stop-color="#1E0055"/>
<stop offset="0.87" stop-color="#080018"/>
<stop offset="1"/>
</radialGradient>
<radialGradient id="paint25_radial_5815_59561" cx="0" cy="0" r="1" gradientUnits="userSpaceOnUse" gradientTransform="translate(61.054 43.7067) rotate(-16.678) scale(1.91475 1.91475)">
<stop stop-color="#5000E3"/>
<stop offset="0.18" stop-color="#4000B5"/>
<stop offset="0.58" stop-color="#1E0055"/>
<stop offset="0.87" stop-color="#080018"/>
<stop offset="1"/>
</radialGradient>
<radialGradient id="paint26_radial_5815_59561" cx="0" cy="0" r="1" gradientUnits="userSpaceOnUse" gradientTransform="translate(88.9918 26.4482) rotate(-16.678) scale(1.91475 1.91475)">
<stop stop-color="#5000E3"/>
<stop offset="0.18" stop-color="#4000B5"/>
<stop offset="0.58" stop-color="#1E0055"/>
<stop offset="0.87" stop-color="#080018"/>
<stop offset="1"/>
</radialGradient>
<radialGradient id="paint27_radial_5815_59561" cx="0" cy="0" r="1" gradientUnits="userSpaceOnUse" gradientTransform="translate(61.2653 21.0608) rotate(73.322) scale(46.2595 46.2595)">
<stop stop-color="#8973FF"/>
<stop offset="1" stop-color="#000D0D"/>
</radialGradient>
<radialGradient id="paint28_radial_5815_59561" cx="0" cy="0" r="1" gradientUnits="userSpaceOnUse" gradientTransform="translate(86.7215 24.4066) rotate(73.322) scale(68.7476 68.7476)">
<stop stop-color="#000D0D"/>
<stop offset="1" stop-color="#A899FF"/>
</radialGradient>
<radialGradient id="paint29_radial_5815_59561" cx="0" cy="0" r="1" gradientUnits="userSpaceOnUse" gradientTransform="translate(66.8266 34.7261) rotate(73.322) scale(7.35345 7.35345)">
<stop stop-color="#9838FF"/>
<stop offset="0.09" stop-color="#7E2FD4"/>
<stop offset="0.23" stop-color="#5D229D"/>
<stop offset="0.37" stop-color="#41186D"/>
<stop offset="0.5" stop-color="#290F46"/>
<stop offset="0.63" stop-color="#170927"/>
<stop offset="0.76" stop-color="#0A0411"/>
<stop offset="0.89" stop-color="#030104"/>
<stop offset="1"/>
</radialGradient>
<radialGradient id="paint30_radial_5815_59561" cx="0" cy="0" r="1" gradientUnits="userSpaceOnUse" gradientTransform="translate(66.8266 34.7261) rotate(73.322) scale(4.90909 4.90909)">
<stop stop-color="#F1BFFF"/>
<stop offset="0.09" stop-color="#C99FD4"/>
<stop offset="0.23" stop-color="#94759D"/>
<stop offset="0.37" stop-color="#67516D"/>
<stop offset="0.5" stop-color="#423446"/>
<stop offset="0.63" stop-color="#251D27"/>
<stop offset="0.76" stop-color="#100D11"/>
<stop offset="0.89" stop-color="#040304"/>
<stop offset="1"/>
</radialGradient>
<radialGradient id="paint31_radial_5815_59561" cx="0" cy="0" r="1" gradientUnits="userSpaceOnUse" gradientTransform="translate(26.0161 56.0751) rotate(73.322) scale(6.02942 6.02942)">
<stop stop-color="#9838FF"/>
<stop offset="0.09" stop-color="#7E2FD4"/>
<stop offset="0.23" stop-color="#5D229D"/>
<stop offset="0.37" stop-color="#41186D"/>
<stop offset="0.5" stop-color="#290F46"/>
<stop offset="0.63" stop-color="#170927"/>
<stop offset="0.76" stop-color="#0A0411"/>
<stop offset="0.89" stop-color="#030104"/>
<stop offset="1"/>
</radialGradient>
<radialGradient id="paint32_radial_5815_59561" cx="0" cy="0" r="1" gradientUnits="userSpaceOnUse" gradientTransform="translate(26.0162 56.0751) rotate(73.322) scale(4.01282)">
<stop stop-color="#F1BFFF"/>
<stop offset="0.09" stop-color="#C99FD4"/>
<stop offset="0.23" stop-color="#94759D"/>
<stop offset="0.37" stop-color="#67516D"/>
<stop offset="0.5" stop-color="#423446"/>
<stop offset="0.63" stop-color="#251D27"/>
<stop offset="0.76" stop-color="#100D11"/>
<stop offset="0.89" stop-color="#040304"/>
<stop offset="1"/>
</radialGradient>
</defs>
</svg>
