<svg width="76" height="96" viewBox="0 0 76 96" fill="none" xmlns="http://www.w3.org/2000/svg">
<path fill-rule="evenodd" clip-rule="evenodd" d="M9.6385 0L17.2926 0.354299L39.1743 8.78661L58.5577 28.2908L75.9036 52.2413L74.0786 66.3247L68.4443 80.727L57.9199 92.2062L42.9128 95.8732L26.3819 92.7554L11.1268 79.7349L4.16366 50.5407L-5.34058e-05 26.9798L8.07932 1.24005L8.68173 0.248009L9.6385 0Z" fill="url(#paint0_radial_5901_133625)"/>
<path style="mix-blend-mode:screen" fill-rule="evenodd" clip-rule="evenodd" d="M57.6541 58.1404L57.282 47.8658L41.0878 17.9452L14.1565 12.0993L16.1232 31.3023L30.9 58.8667L47.0233 66.8916L57.6541 58.1404Z" fill="url(#paint1_radial_5901_133625)"/>
<path style="mix-blend-mode:screen" fill-rule="evenodd" clip-rule="evenodd" d="M75.9036 52.2413L58.5577 28.2907L39.1743 8.78661L41.0878 17.9452L57.282 47.8658L63.7668 53.1094L75.9036 52.2413Z" fill="url(#paint2_radial_5901_133625)"/>
<path style="mix-blend-mode:screen" fill-rule="evenodd" clip-rule="evenodd" d="M14.1566 12.0993L41.0879 17.9452L39.1744 8.78661L17.2927 0.354299L9.63856 0L8.68179 0.248009L14.1566 12.0993Z" fill="url(#paint3_radial_5901_133625)"/>
<path style="mix-blend-mode:screen" fill-rule="evenodd" clip-rule="evenodd" d="M16.1233 31.3023L14.1566 12.0993L8.68176 0.248016L8.07935 1.24005L-2.28882e-05 26.9799L16.1233 31.3023Z" fill="url(#paint4_radial_5901_133625)"/>
<path style="mix-blend-mode:screen" fill-rule="evenodd" clip-rule="evenodd" d="M16.1233 31.3023L-2.28882e-05 26.9799L4.16369 50.5407L13.6251 56.1741L16.1233 31.3023Z" fill="url(#paint5_radial_5901_133625)"/>
<path style="mix-blend-mode:screen" fill-rule="evenodd" clip-rule="evenodd" d="M16.1233 31.3023L13.625 56.1741L23.742 65.7401L30.9 58.8667L16.1233 31.3023Z" fill="url(#paint6_radial_5901_133625)"/>
<path style="mix-blend-mode:screen" fill-rule="evenodd" clip-rule="evenodd" d="M23.7419 65.7401L13.625 56.1741L4.16363 50.5407L11.1268 79.7349L22.2182 74.1901L23.7419 65.7401Z" fill="url(#paint7_radial_5901_133625)"/>
<path style="mix-blend-mode:screen" fill-rule="evenodd" clip-rule="evenodd" d="M22.2182 74.1902L11.1268 79.7349L26.3819 92.7554L26.6654 90.3285L29.5889 86.6615L34.8157 84.27L22.2182 74.1902Z" fill="url(#paint8_radial_5901_133625)"/>
<path style="mix-blend-mode:screen" fill-rule="evenodd" clip-rule="evenodd" d="M22.2182 74.1902L34.8157 84.2699L49.4507 79.9652L47.0233 66.8916L30.9 58.8667L23.742 65.7401L22.2182 74.1902Z" fill="url(#paint9_radial_5901_133625)"/>
<path style="mix-blend-mode:screen" fill-rule="evenodd" clip-rule="evenodd" d="M49.4507 79.9652L34.8157 84.2699L29.5889 86.6615L26.6655 90.3285L26.382 92.7554L42.9128 95.8732L57.9199 92.2062L68.4443 80.727L49.4507 79.9652Z" fill="url(#paint10_radial_5901_133625)"/>
<path style="mix-blend-mode:screen" fill-rule="evenodd" clip-rule="evenodd" d="M60.4004 70.0448L49.4507 79.9652L68.4443 80.727L74.0786 66.3247L60.4004 70.0448Z" fill="url(#paint11_radial_5901_133625)"/>
<path style="mix-blend-mode:screen" fill-rule="evenodd" clip-rule="evenodd" d="M49.4506 79.9652L60.4003 70.0449L63.7667 53.1094L57.654 58.1404L47.0233 66.8916L49.4506 79.9652Z" fill="url(#paint12_radial_5901_133625)"/>
<path style="mix-blend-mode:screen" fill-rule="evenodd" clip-rule="evenodd" d="M63.7668 53.1094L60.4004 70.0448L74.0786 66.3247L75.9036 52.2413L63.7668 53.1094Z" fill="url(#paint13_radial_5901_133625)"/>
<path style="mix-blend-mode:screen" fill-rule="evenodd" clip-rule="evenodd" d="M57.654 58.1404L63.7667 53.1094L57.282 47.8658L57.654 58.1404Z" fill="url(#paint14_radial_5901_133625)"/>
<path style="mix-blend-mode:multiply" fill-rule="evenodd" clip-rule="evenodd" d="M57.6541 58.1404L57.282 47.8658L41.0878 17.9452L14.1565 12.0993L16.1232 31.3023L30.9 58.8667L47.0233 66.8916L57.6541 58.1404Z" fill="url(#paint15_radial_5901_133625)"/>
<g style="mix-blend-mode:screen">
<path fill-rule="evenodd" clip-rule="evenodd" d="M55.5634 88.8227C55.5634 88.4861 55.2622 88.433 54.9787 88.4684C54.8233 88.5025 54.6869 88.5952 54.5979 88.7271C54.5088 88.859 54.4739 89.0201 54.5004 89.177C54.5004 89.4073 54.8902 89.5313 55.1028 89.4604C55.2452 89.4305 55.3713 89.3486 55.4564 89.2306C55.5416 89.1127 55.5798 88.9672 55.5634 88.8227Z" fill="#FFE682"/>
</g>
<g style="mix-blend-mode:screen">
<path fill-rule="evenodd" clip-rule="evenodd" d="M47.3777 61.4531C47.3777 61.1343 47.0765 61.0634 46.793 61.1165C46.6411 61.1506 46.5076 61.2406 46.4189 61.3686C46.3303 61.4966 46.2931 61.6533 46.3147 61.8074C46.3147 62.0554 46.7222 62.1794 46.9171 62.1086C47.0609 62.0748 47.1873 61.9894 47.2722 61.8685C47.3571 61.7477 47.3947 61.5999 47.3777 61.4531Z" fill="#FFE682"/>
</g>
<g style="mix-blend-mode:screen">
<path fill-rule="evenodd" clip-rule="evenodd" d="M21.8461 33.9241C21.8461 33.6052 21.5449 33.5344 21.2615 33.5875C21.1128 33.6253 20.9834 33.7169 20.8984 33.8445C20.8133 33.9721 20.7785 34.1267 20.8008 34.2784C20.8008 34.5264 21.1906 34.6504 21.4032 34.5796C21.5479 34.5496 21.6752 34.4643 21.7579 34.3419C21.8407 34.2194 21.8723 34.0695 21.8461 33.9241Z" fill="#FFE682"/>
</g>
<g style="mix-blend-mode:screen" opacity="0.6">
<path fill-rule="evenodd" clip-rule="evenodd" d="M32.8844 48.7338C32.5832 48.5744 32.3706 48.7338 32.2289 49.0349C32.1713 49.1887 32.172 49.3583 32.2307 49.5116C32.2895 49.6649 32.4022 49.7915 32.5478 49.8675C32.7781 49.9915 33.0971 49.7435 33.1679 49.5132C33.2296 49.3718 33.2345 49.212 33.1817 49.067C33.129 48.9219 33.0226 48.8027 32.8844 48.7338Z" fill="#FFE682"/>
</g>
<g style="mix-blend-mode:screen" opacity="0.6">
<path fill-rule="evenodd" clip-rule="evenodd" d="M17.08 69.9917C16.7788 69.8145 16.5662 69.9917 16.4422 70.2929C16.3792 70.4442 16.3751 70.6136 16.4309 70.7677C16.4867 70.9218 16.5981 71.0495 16.7434 71.1255C16.9737 71.2495 17.2926 71.0015 17.3635 70.7712C17.4251 70.6297 17.4301 70.4699 17.3773 70.3249C17.3246 70.1798 17.2181 70.0606 17.08 69.9917Z" fill="#FFE682"/>
</g>
<g style="mix-blend-mode:screen" opacity="0.6">
<path fill-rule="evenodd" clip-rule="evenodd" d="M44.844 83.4373C44.844 83.083 44.5428 83.0299 44.2416 83.0653C44.0801 83.1035 43.939 83.2015 43.847 83.3396C43.7549 83.4777 43.7186 83.6456 43.7455 83.8093C43.7455 84.0574 44.153 84.1814 44.3834 84.1105C44.5327 84.0804 44.6645 83.9933 44.7505 83.8675C44.8366 83.7418 44.8701 83.5874 44.844 83.4373Z" fill="#FFE682"/>
</g>
<g style="mix-blend-mode:screen" opacity="0.5">
<path fill-rule="evenodd" clip-rule="evenodd" d="M43.1785 58.1759C43.1785 57.8216 42.8596 57.7684 42.5584 57.8038C42.3989 57.8456 42.2604 57.9445 42.1689 58.0816C42.0775 58.2187 42.0395 58.3846 42.0623 58.5479C42.0623 58.7959 42.4698 58.9376 42.7001 58.849C42.8506 58.8189 42.984 58.7324 43.0729 58.6073C43.1618 58.4822 43.1996 58.3279 43.1785 58.1759Z" fill="#FFE682"/>
</g>
<g style="mix-blend-mode:screen" opacity="0.5">
<path fill-rule="evenodd" clip-rule="evenodd" d="M26.2757 64.3052C26.2757 63.9509 25.9745 63.8978 25.6733 63.9332C25.5095 63.9674 25.3657 64.0646 25.2729 64.2037C25.1801 64.3429 25.1457 64.5129 25.1772 64.6772C25.1772 64.9252 25.5847 65.0492 25.815 64.9784C25.9644 64.9483 26.0961 64.8611 26.1822 64.7354C26.2682 64.6097 26.3018 64.4553 26.2757 64.3052Z" fill="#FFE682"/>
</g>
<g style="mix-blend-mode:screen" opacity="0.5">
<path fill-rule="evenodd" clip-rule="evenodd" d="M21.35 66.7676C21.35 66.4133 21.0311 66.3602 20.7299 66.3956C20.5704 66.4374 20.4319 66.5362 20.3404 66.6733C20.249 66.8105 20.211 66.9764 20.2338 67.1396C20.2338 67.3876 20.6413 67.5116 20.8716 67.4408C21.0221 67.4106 21.1555 67.3242 21.2444 67.1991C21.3333 67.0739 21.3711 66.9196 21.35 66.7676Z" fill="#FFE682"/>
</g>
<g style="mix-blend-mode:screen">
<path fill-rule="evenodd" clip-rule="evenodd" d="M61.2331 66.7676C61.2331 66.431 60.9319 66.3779 60.6307 66.431C60.4788 66.4651 60.3452 66.5551 60.2566 66.6831C60.168 66.8111 60.1307 66.9677 60.1523 67.1219C60.1523 67.3699 60.5598 67.4939 60.7724 67.4231C60.9183 67.393 61.0471 67.3084 61.1327 67.1866C61.2183 67.0648 61.2542 66.915 61.2331 66.7676Z" fill="#FFE682"/>
</g>
<g style="mix-blend-mode:screen" opacity="0.35">
<path fill-rule="evenodd" clip-rule="evenodd" d="M52.9057 55.6603C52.9057 55.1997 52.4805 55.1112 52.073 55.1643C51.8521 55.2153 51.6585 55.3474 51.5305 55.5344C51.4025 55.7215 51.3495 55.9498 51.382 56.1741C51.382 56.5284 51.9489 56.7055 52.2502 56.5992C52.4588 56.5562 52.643 56.435 52.765 56.2603C52.8869 56.0857 52.9373 55.871 52.9057 55.6603Z" fill="#FFE682"/>
</g>
<g style="mix-blend-mode:screen">
<path fill-rule="evenodd" clip-rule="evenodd" d="M25.4606 42.7284C25.4606 42.2679 25.0354 42.1616 24.6279 42.2324C24.4071 42.2834 24.2134 42.4155 24.0854 42.6026C23.9574 42.7896 23.9044 43.0179 23.9369 43.2422C23.9369 43.5965 24.5039 43.7736 24.8051 43.6673C25.0137 43.6244 25.198 43.5031 25.3199 43.3284C25.4419 43.1538 25.4922 42.9391 25.4606 42.7284Z" fill="#FFE682"/>
</g>
<g style="mix-blend-mode:screen">
<path fill-rule="evenodd" clip-rule="evenodd" d="M32.5655 64.2344C32.5655 63.7561 32.1402 63.6675 31.7327 63.7384C31.5097 63.7855 31.3135 63.9167 31.1848 64.1048C31.0561 64.2928 31.0049 64.5232 31.0417 64.7481C31.0417 65.1024 31.6087 65.2796 31.9099 65.1733C32.1207 65.1344 32.3077 65.0141 32.4304 64.8383C32.5531 64.6626 32.6016 64.4456 32.5655 64.2344Z" fill="#FFE682"/>
</g>
<g style="mix-blend-mode:screen">
<path fill-rule="evenodd" clip-rule="evenodd" d="M45.8362 91.8342C45.8362 91.3736 45.411 91.2851 44.9857 91.3382C44.7689 91.3962 44.5799 91.5299 44.4532 91.7151C44.3264 91.9004 44.2702 92.1249 44.2947 92.348C44.2947 92.7023 44.8794 92.8794 45.1806 92.7908C45.3907 92.7439 45.5752 92.6191 45.6968 92.4416C45.8185 92.2641 45.8683 92.047 45.8362 91.8342Z" fill="#FFE682"/>
</g>
<g style="mix-blend-mode:screen">
<path fill-rule="evenodd" clip-rule="evenodd" d="M36.1623 43.1713C36.1623 42.9764 35.9851 42.941 35.8079 42.9587C35.7153 42.98 35.6343 43.0359 35.5816 43.1149C35.5289 43.194 35.5085 43.2902 35.5244 43.3839C35.5244 43.5256 35.7725 43.5964 35.8965 43.5433C35.9776 43.5227 36.0488 43.474 36.0974 43.4059C36.1461 43.3378 36.1691 43.2547 36.1623 43.1713Z" fill="#FFE682"/>
</g>
<g style="mix-blend-mode:screen">
<path fill-rule="evenodd" clip-rule="evenodd" d="M17.9837 46.1651C17.9837 45.9703 17.8065 45.9349 17.6471 45.9703C17.5579 45.9914 17.4797 46.0446 17.4274 46.1198C17.3751 46.195 17.3524 46.2868 17.3636 46.3777C17.3636 46.5194 17.5939 46.5903 17.7179 46.5549C17.8045 46.5377 17.8808 46.4872 17.9305 46.4143C17.9802 46.3415 17.9993 46.252 17.9837 46.1651Z" fill="#FFE682"/>
</g>
<g style="mix-blend-mode:screen">
<path fill-rule="evenodd" clip-rule="evenodd" d="M31.2543 70.2929C31.2543 70.098 31.0772 70.0626 30.9177 70.098C30.8265 70.1153 30.7457 70.1676 30.6927 70.2438C30.6397 70.32 30.6187 70.4139 30.6342 70.5054C30.6342 70.6472 30.8645 70.718 30.9886 70.6826C31.073 70.6616 31.1467 70.6102 31.1957 70.5384C31.2448 70.4665 31.2656 70.3791 31.2543 70.2929Z" fill="#FFE682"/>
</g>
<g style="mix-blend-mode:screen">
<path fill-rule="evenodd" clip-rule="evenodd" d="M16.4422 62.3389C16.4422 62.1617 16.265 62.1086 16.0878 62.144C16.002 62.1687 15.9279 62.2235 15.8791 62.2983C15.8303 62.3731 15.8101 62.4629 15.8221 62.5514C15.8221 62.6932 16.0524 62.764 16.1764 62.7286C16.2609 62.7076 16.3346 62.6562 16.3836 62.5844C16.4326 62.5125 16.4535 62.4251 16.4422 62.3389Z" fill="#FFE682"/>
</g>
<g style="mix-blend-mode:screen">
<path fill-rule="evenodd" clip-rule="evenodd" d="M58.8944 86.6083C59.0757 86.6441 59.2623 86.6441 59.4436 86.6083C59.5499 86.6083 59.8511 86.4843 59.9043 86.3603C59.8095 86.2638 59.7022 86.1804 59.5854 86.1123C59.5854 86.1123 59.2487 85.9529 59.1601 85.9883C59.0633 86.0583 58.9863 86.1522 58.9366 86.2609C58.8869 86.3696 58.8662 86.4893 58.8767 86.6083H58.8944Z" fill="#FFC785"/>
</g>
<g style="mix-blend-mode:screen" opacity="0.4">
<path fill-rule="evenodd" clip-rule="evenodd" d="M52.9765 84.4825C52.6777 84.4295 52.3718 84.4295 52.0729 84.4825C51.9135 84.4825 51.3996 84.6243 51.2933 84.8191C51.4223 85.0014 51.5847 85.1577 51.7717 85.2797C51.9686 85.4265 52.201 85.5182 52.445 85.5454C52.6082 85.4435 52.7437 85.3028 52.8396 85.136C52.9354 84.9691 52.9885 84.7812 52.9943 84.5888L52.9765 84.4825Z" fill="#FFC785"/>
</g>
<g style="mix-blend-mode:screen" opacity="0.4">
<path fill-rule="evenodd" clip-rule="evenodd" d="M23.9901 75.0936C23.6912 75.0406 23.3854 75.0406 23.0865 75.0936C22.927 75.0936 22.4132 75.2353 22.3069 75.4125C22.4386 75.5975 22.6003 75.7591 22.7853 75.8908C22.9821 76.0376 23.2145 76.1293 23.4586 76.1565C23.6218 76.0546 23.7573 75.9139 23.8531 75.747C23.9489 75.5802 24.0021 75.3922 24.0078 75.1999L23.9901 75.0936Z" fill="#FFC785"/>
</g>
<g style="mix-blend-mode:screen" opacity="0.4">
<path fill-rule="evenodd" clip-rule="evenodd" d="M39.1566 55.1998C39.2749 55.4097 39.4311 55.5959 39.6173 55.7489C39.7059 55.7489 40.0425 56.0855 40.2197 56.0678C40.2546 55.8924 40.2546 55.7118 40.2197 55.5363C40.2197 55.3946 40.2197 55.058 40.0425 54.9872C39.8977 54.9349 39.742 54.9205 39.59 54.9453C39.4381 54.9701 39.295 55.0333 39.1744 55.1289L39.1566 55.1998Z" fill="#FFC785"/>
</g>
<g style="mix-blend-mode:screen">
<path fill-rule="evenodd" clip-rule="evenodd" d="M35.0814 57.0244C34.7809 56.7636 34.4316 56.5649 34.0538 56.4398C33.8412 56.4398 33.1856 56.1918 32.9376 56.3335C32.9746 56.6249 33.0647 56.9071 33.2033 57.1661C33.3439 57.4524 33.5504 57.7013 33.8057 57.8924C34.0582 57.8827 34.3037 57.8073 34.5181 57.6737C34.7325 57.5401 34.9083 57.353 35.0283 57.1307L35.0814 57.0244Z" fill="#FFE682"/>
</g>
<g style="mix-blend-mode:screen">
<path fill-rule="evenodd" clip-rule="evenodd" d="M24.8051 61.028C24.5017 60.7753 24.1529 60.5829 23.7774 60.4611C23.5825 60.4611 22.9092 60.1954 22.6789 60.3371C22.7048 60.6285 22.7892 60.9116 22.927 61.1697C23.0333 61.3645 23.3345 61.8428 23.5471 61.896C23.7597 61.9491 24.6102 61.4885 24.7696 61.1343L24.8051 61.028Z" fill="#FFE682"/>
</g>
<g style="mix-blend-mode:screen">
<path fill-rule="evenodd" clip-rule="evenodd" d="M40.4146 80.0361C40.326 79.8589 39.8476 79.5932 39.7058 79.5046C39.5641 79.4161 39.0857 79.2389 38.8908 79.3275C38.8978 79.5453 38.9396 79.7606 39.0148 79.9652C39.0148 80.1069 39.2452 80.4967 39.3869 80.5675C39.5765 80.5861 39.7677 80.555 39.9416 80.4773C40.1156 80.3997 40.2663 80.2782 40.3791 80.1247L40.4146 80.0361Z" fill="#FFE682"/>
</g>
<g style="mix-blend-mode:screen">
<path fill-rule="evenodd" clip-rule="evenodd" d="M45.6591 44.0039C45.9071 44.1279 46.0843 44.1456 46.2084 43.8799C46.2446 43.8274 46.268 43.7672 46.2767 43.704C46.2854 43.6409 46.2792 43.5766 46.2585 43.5163C46.2378 43.4559 46.2033 43.4013 46.1576 43.3568C46.112 43.3123 46.0565 43.2791 45.9957 43.2599C45.73 43.1182 45.5705 43.1359 45.4642 43.437C45.3579 43.7382 45.3756 43.8445 45.6591 44.0039Z" fill="#FFC785"/>
</g>
<g style="mix-blend-mode:screen">
<path fill-rule="evenodd" clip-rule="evenodd" d="M38.3416 88.8758C38.5896 89.0176 38.7668 89.0176 38.8908 88.7695C38.9308 88.7168 38.9573 88.6551 38.9681 88.5897C38.9789 88.5244 38.9735 88.4575 38.9526 88.3947C38.9317 88.3319 38.8957 88.2751 38.8479 88.2293C38.8001 88.1835 38.7419 88.15 38.6782 88.1318C38.4124 87.9901 38.253 88.0255 38.1467 88.309C38.0404 88.5924 38.1467 88.7341 38.3416 88.8758Z" fill="#FFC785"/>
</g>
<g style="mix-blend-mode:screen">
<path fill-rule="evenodd" clip-rule="evenodd" d="M25.5316 49.9207C25.7619 50.0447 25.9391 50.0447 26.0631 49.7967C26.1033 49.7451 26.1305 49.6846 26.1424 49.6203C26.1543 49.556 26.1505 49.4897 26.1314 49.4272C26.1123 49.3646 26.0784 49.3076 26.0326 49.2609C25.9868 49.2142 25.9304 49.1792 25.8682 49.1589C25.6024 49.0172 25.4253 49.0527 25.3189 49.3361C25.2126 49.6195 25.3189 49.7612 25.5316 49.9207Z" fill="#FFC785"/>
</g>
<g style="mix-blend-mode:screen">
<path fill-rule="evenodd" clip-rule="evenodd" d="M61.1977 79.4338C60.997 79.3636 60.7783 79.3636 60.5776 79.4338C60.365 79.4338 60.0992 79.7172 60.1701 79.9652C60.2246 80.0861 60.321 80.1831 60.4415 80.2385C60.5619 80.2938 60.6984 80.3037 60.8256 80.2664C61.1623 80.1601 61.2331 79.7526 61.1977 79.4338Z" fill="#FFE682"/>
</g>
<g style="mix-blend-mode:screen">
<path fill-rule="evenodd" clip-rule="evenodd" d="M30.2267 45.4565C30.2174 45.5892 30.255 45.7208 30.333 45.8285C30.333 45.9348 30.5811 46.0766 30.7228 45.988C30.7703 45.9239 30.7959 45.8463 30.7959 45.7665C30.7959 45.6868 30.7703 45.6092 30.7228 45.5451C30.5988 45.3502 30.333 45.3857 30.1558 45.4565H30.2267Z" fill="#FFE682"/>
</g>
<g style="mix-blend-mode:screen">
<path fill-rule="evenodd" clip-rule="evenodd" d="M31.8391 74.1193C31.8163 74.1653 31.8037 74.2156 31.8023 74.2669C31.8009 74.3182 31.8106 74.3692 31.8308 74.4164C31.851 74.4636 31.8813 74.5058 31.9194 74.5401C31.9575 74.5745 32.0027 74.6001 32.0517 74.6153C32.0994 74.6317 32.1499 74.6382 32.2001 74.6345C32.2504 74.6308 32.2994 74.617 32.3441 74.5938C32.3888 74.5706 32.4284 74.5386 32.4604 74.4996C32.4923 74.4607 32.5161 74.4157 32.5301 74.3673C32.5502 74.3173 32.5601 74.2638 32.5594 74.21C32.5587 74.1561 32.5473 74.1029 32.5258 74.0535C32.5044 74.0041 32.4734 73.9594 32.4346 73.9221C32.3958 73.8847 32.35 73.8554 32.2998 73.8358C32.0872 73.8358 31.91 73.8358 31.8391 74.1193Z" fill="#FFE682"/>
</g>
<path style="mix-blend-mode:screen" fill-rule="evenodd" clip-rule="evenodd" d="M30.8823 74.1193C30.8788 74.38 30.9531 74.6359 31.0958 74.8542C31.2385 75.0725 31.4431 75.2432 31.6834 75.3446C31.9237 75.446 32.1888 75.4735 32.4447 75.4235C32.7007 75.3734 32.9359 75.2482 33.1204 75.0638C33.3048 74.8794 33.43 74.6443 33.4801 74.3883C33.5301 74.1324 33.5026 73.8674 33.4012 73.6271C33.2998 73.3869 33.129 73.1823 32.9107 73.0396C32.6924 72.897 32.4365 72.8226 32.1757 72.8261C31.8341 72.8307 31.5077 72.9684 31.2662 73.2099C31.0246 73.4515 30.8868 73.7777 30.8823 74.1193Z" fill="url(#paint16_radial_5901_133625)"/>
<g style="mix-blend-mode:screen">
<path fill-rule="evenodd" clip-rule="evenodd" d="M25.7618 38.3883C25.735 38.4401 25.7197 38.4971 25.7168 38.5554C25.714 38.6137 25.7237 38.6719 25.7453 38.7261C25.7669 38.7803 25.7999 38.8293 25.842 38.8696C25.8842 38.91 25.9345 38.9408 25.9896 38.96C26.0447 38.9793 26.1033 38.9864 26.1615 38.981C26.2196 38.9756 26.2759 38.9578 26.3265 38.9288C26.3771 38.8998 26.4209 38.8603 26.455 38.8128C26.489 38.7654 26.5124 38.7112 26.5237 38.654C26.5467 38.5994 26.5584 38.5408 26.5583 38.4816C26.5583 38.4224 26.5463 38.3638 26.5232 38.3093C26.5001 38.2548 26.4662 38.2055 26.4237 38.1643C26.3812 38.1231 26.3308 38.0908 26.2756 38.0694C26.2209 38.0536 26.1634 38.0495 26.107 38.0573C26.0505 38.0651 25.9963 38.0847 25.9479 38.1147C25.8995 38.1448 25.8579 38.1847 25.8259 38.2318C25.7938 38.2789 25.772 38.3322 25.7618 38.3883Z" fill="#FFE682"/>
</g>
<path style="mix-blend-mode:screen" fill-rule="evenodd" clip-rule="evenodd" d="M24.6987 38.5123C24.7381 38.8676 24.9072 39.1959 25.1737 39.4344C25.4401 39.6729 25.7851 39.8047 26.1427 39.8047C26.5003 39.8047 26.8453 39.6729 27.1118 39.4344C27.3782 39.1959 27.5473 38.8676 27.5867 38.5123C27.6093 38.3092 27.5887 38.1037 27.5264 37.9092C27.4641 37.7146 27.3615 37.5354 27.2252 37.3832C27.0889 37.231 26.9221 37.1093 26.7356 37.0259C26.549 36.9426 26.347 36.8995 26.1427 36.8995C25.9384 36.8995 25.7364 36.9426 25.5499 37.0259C25.3633 37.1093 25.1965 37.231 25.0602 37.3832C24.9239 37.5354 24.8213 37.7146 24.759 37.9092C24.6967 38.1037 24.6762 38.3092 24.6987 38.5123Z" fill="url(#paint17_radial_5901_133625)"/>
<g style="mix-blend-mode:screen">
<path fill-rule="evenodd" clip-rule="evenodd" d="M17.4166 52.4362C17.325 52.3828 17.2236 52.3482 17.1184 52.3344C17.0133 52.3206 16.9064 52.328 16.8041 52.356C16.7018 52.3841 16.6061 52.4322 16.5227 52.4977C16.4392 52.5632 16.3697 52.6447 16.3181 52.7374C16.1055 52.9854 16.0701 53.6054 16.3181 53.7825C16.5161 53.8924 16.7492 53.9205 16.9677 53.8609C17.1861 53.8013 17.3727 53.6588 17.4875 53.4637C17.6824 53.0917 17.771 52.6488 17.328 52.4362H17.4166Z" fill="#FFE682"/>
</g>
<path style="mix-blend-mode:screen" opacity="0.5" fill-rule="evenodd" clip-rule="evenodd" d="M14.7589 53.1094C14.759 53.5411 14.8872 53.963 15.1275 54.3217C15.3677 54.6804 15.7092 54.9597 16.1084 55.1241C16.5077 55.2885 16.9467 55.3306 17.37 55.2451C17.7932 55.1595 18.1815 54.9502 18.4855 54.6437C18.7896 54.3372 18.9957 53.9473 19.0778 53.5235C19.1599 53.0997 19.1142 52.661 18.9465 52.2632C18.7789 51.8654 18.4968 51.5263 18.1361 51.289C17.7754 51.0517 17.3523 50.9269 16.9205 50.9304C16.3456 50.9351 15.7958 51.1667 15.391 51.5749C14.9861 51.983 14.7589 52.5345 14.7589 53.1094Z" fill="url(#paint18_radial_5901_133625)"/>
<g style="mix-blend-mode:screen">
<path fill-rule="evenodd" clip-rule="evenodd" d="M52.6399 66.7853C52.547 66.7315 52.4442 66.6965 52.3377 66.6825C52.2312 66.6685 52.1229 66.6758 52.0192 66.7037C51.9154 66.7317 51.8182 66.78 51.7332 66.8456C51.6482 66.9113 51.577 66.9932 51.5237 67.0865C51.3111 67.3522 51.2757 67.9722 51.5237 68.1494C51.7244 68.2601 51.9602 68.2887 52.1816 68.2293C52.4029 68.1698 52.5926 68.0269 52.7108 67.8305C52.9234 67.4585 52.9943 66.9979 52.5513 66.7853H52.6399Z" fill="#FFE682"/>
</g>
<path style="mix-blend-mode:screen" fill-rule="evenodd" clip-rule="evenodd" d="M49.9291 67.4585C49.9256 67.8972 50.0525 68.327 50.2937 68.6935C50.5349 69.06 50.8796 69.3466 51.284 69.5169C51.6883 69.6872 52.1342 69.7336 52.565 69.6502C52.9957 69.5667 53.392 69.3572 53.7035 69.0483C54.015 68.7393 54.2277 68.3448 54.3146 67.9148C54.4016 67.4847 54.3587 67.0386 54.1916 66.6329C54.0245 66.2273 53.7407 65.8804 53.3761 65.6363C53.0115 65.3922 52.5826 65.2619 52.1439 65.2618C51.5595 65.2618 50.9989 65.4927 50.584 65.9041C50.1692 66.3156 49.9338 66.8743 49.9291 67.4585Z" fill="url(#paint19_radial_5901_133625)"/>
<g style="mix-blend-mode:screen">
<path fill-rule="evenodd" clip-rule="evenodd" d="M58.8766 75.8908C58.7992 76.0322 58.7799 76.1983 58.8229 76.3538C58.8659 76.5092 58.9678 76.6418 59.1069 76.7234C59.3018 76.8828 59.7802 76.9182 59.9043 76.7234C59.9479 76.6494 59.9761 76.5673 59.9872 76.4821C59.9983 76.3969 59.9921 76.3104 59.9689 76.2277C59.9458 76.145 59.9061 76.0678 59.8524 76.0007C59.7986 75.9337 59.7319 75.8782 59.6562 75.8376C59.3904 75.6782 59.0361 75.6073 58.8766 75.9439V75.8908Z" fill="#FFE682"/>
</g>
<path style="mix-blend-mode:screen" fill-rule="evenodd" clip-rule="evenodd" d="M59.3904 77.8394C59.7198 77.8394 60.0418 77.7418 60.3157 77.5588C60.5896 77.3758 60.8031 77.1158 60.9291 76.8115C61.0552 76.5072 61.0882 76.1724 61.0239 75.8494C60.9596 75.5264 60.801 75.2296 60.5681 74.9968C60.3352 74.7639 60.0384 74.6053 59.7153 74.541C59.3923 74.4768 59.0574 74.5098 58.7531 74.6358C58.4487 74.7618 58.1886 74.9753 58.0056 75.2491C57.8226 75.5229 57.7249 75.8449 57.7249 76.1742C57.7249 76.6159 57.9004 77.0394 58.2127 77.3517C58.5251 77.664 58.9487 77.8394 59.3904 77.8394Z" fill="url(#paint20_radial_5901_133625)"/>
<g style="mix-blend-mode:screen">
<path fill-rule="evenodd" clip-rule="evenodd" d="M41.5485 71.1432C41.5077 71.2127 41.4814 71.2897 41.4709 71.3695C41.4605 71.4494 41.4662 71.5305 41.4877 71.6082C41.5091 71.6858 41.546 71.7583 41.596 71.8215C41.646 71.8846 41.7081 71.9371 41.7788 71.9758C41.9737 72.1352 42.4343 72.1707 42.5761 71.9758C42.6593 71.8252 42.68 71.6478 42.6336 71.4821C42.5871 71.3164 42.4774 71.1756 42.328 71.0901C42.0446 70.9306 41.7079 70.8775 41.5485 71.2141V71.1432Z" fill="#FFE682"/>
</g>
<path style="mix-blend-mode:screen" fill-rule="evenodd" clip-rule="evenodd" d="M42.0623 73.1804C42.3959 73.1839 42.7231 73.0882 43.0022 72.9054C43.2813 72.7227 43.4998 72.4611 43.6299 72.1539C43.76 71.8467 43.7959 71.5078 43.733 71.1802C43.67 70.8526 43.5111 70.551 43.2765 70.3139C43.0418 70.0768 42.7419 69.9147 42.4149 69.8483C42.0879 69.7819 41.7486 69.8142 41.44 69.9411C41.1314 70.0679 40.8675 70.2836 40.6817 70.5607C40.496 70.8378 40.3968 71.1639 40.3968 71.4975C40.3967 71.9408 40.5717 72.3662 40.8835 72.6813C41.1953 72.9964 41.6189 73.1758 42.0623 73.1804Z" fill="url(#paint21_radial_5901_133625)"/>
<path style="mix-blend-mode:screen" fill-rule="evenodd" clip-rule="evenodd" d="M48.9723 65.2618C48.5825 52.8614 48.0864 40.4609 47.5725 29.832L50.7441 35.7488C50.9212 44.8188 51.1929 53.9656 51.5591 63.1892L48.9723 65.2618Z" fill="url(#paint22_radial_5901_133625)"/>
<path style="mix-blend-mode:screen" fill-rule="evenodd" clip-rule="evenodd" d="M43.5152 22.4271C43.6924 36.599 44.0467 51.0721 44.5428 65.6693L39.9185 63.3663C39.3338 47.8126 38.5365 32.0994 37.5797 17.1835L41.1233 17.9452L43.5506 22.4271H43.5152Z" fill="url(#paint23_radial_5901_133625)"/>
<path style="mix-blend-mode:screen" fill-rule="evenodd" clip-rule="evenodd" d="M27.4096 14.9691C27.4096 27.5467 27.7817 42.1084 28.579 54.562L26.5946 50.8419C26.5946 39.8409 26.1162 26.1472 24.9468 14.6502L25.0531 14.4554L27.4096 14.9691Z" fill="url(#paint24_radial_5901_133625)"/>
<path style="mix-blend-mode:screen" fill-rule="evenodd" clip-rule="evenodd" d="M62.7037 58.4239L60.8787 69.478L73.6356 66.4487L60.5775 70.5232L51.311 78.2823L60.0814 69.8677L62.7037 58.4239Z" fill="url(#paint25_radial_5901_133625)"/>
<path style="mix-blend-mode:screen" fill-rule="evenodd" clip-rule="evenodd" d="M14.7945 18.2818L16.2828 29.956C16.3269 30.4343 16.4098 30.9083 16.5308 31.3732C16.9206 32.5778 17.8597 34.3847 18.4089 35.5893C17.8546 34.4706 17.1835 33.4137 16.4068 32.436C16.1233 32.436 14.9894 42.8347 14.8476 43.933C14.9539 42.2324 15.9816 32.5246 15.3083 31.6034C14.8476 31.0189 3.72077 28.0605 2.1616 27.5467C3.70306 27.901 14.9362 30.824 15.4323 30.3457C15.5181 30.2234 15.5781 30.085 15.6086 29.9388C15.639 29.7926 15.6393 29.6417 15.6095 29.4954L14.8122 18.2641L14.7945 18.2818Z" fill="url(#paint26_radial_5901_133625)"/>
<path style="mix-blend-mode:screen" fill-rule="evenodd" clip-rule="evenodd" d="M57.3884 50.7887C57.4142 53.1544 57.3137 55.5197 57.0872 57.8747C56.8167 58.3194 56.4467 58.6954 56.0064 58.973L48.2637 64.9784C47.7791 65.3522 47.1968 65.5778 46.5869 65.6281C45.977 65.6784 45.3656 65.5512 44.8264 65.2618L33.0262 59.5576C31.7466 58.9525 30.701 57.9443 30.0496 56.6878L18.3381 35.5893L29.7484 57.6444C30.7052 59.4159 27.7463 61.7365 26.6655 62.9589C27.7994 62.0377 30.404 59.1502 31.8568 59.8765L44.6846 66.2716C45.2858 66.575 45.8112 67.0095 46.2222 67.5429C46.6331 68.0764 46.919 68.6953 47.0588 69.354L48.9724 77.3788L47.803 69.23C47.6893 68.6103 47.7372 67.9719 47.942 67.3761C48.1468 66.7804 48.5017 66.2475 48.9724 65.8287L61.8179 54.7391L58.9298 56.7764C58.8412 56.8373 58.7362 56.8699 58.6286 56.8699C58.5211 56.8699 58.4161 56.8373 58.3274 56.7764C57.6896 56.3866 57.5124 51.7099 57.4238 50.7887H57.3884Z" fill="url(#paint27_radial_5901_133625)"/>
<path style="mix-blend-mode:screen" fill-rule="evenodd" clip-rule="evenodd" d="M39.4223 9.93808L41.6016 18.0161L55.457 44.5885C53.6852 41.5415 41.5662 19.3801 40.6094 18.583C39.6526 17.7858 23.5116 14.2605 21.1197 13.6936C23.2281 14.1011 39.4755 17.6795 40.0779 17.0241C40.6803 16.3686 39.5463 11.0718 39.4223 9.93808Z" fill="url(#paint28_radial_5901_133625)"/>
<path style="mix-blend-mode:screen" d="M57.53 69.4603C51.2772 69.4603 46.2083 64.3922 46.2083 58.1404C46.2083 51.8887 51.2772 46.8206 57.53 46.8206C63.7829 46.8206 68.8518 51.8887 68.8518 58.1404C68.8518 64.3922 63.7829 69.4603 57.53 69.4603Z" fill="url(#paint29_radial_5901_133625)"/>
<path style="mix-blend-mode:screen" fill-rule="evenodd" clip-rule="evenodd" d="M49.9822 58.1759C49.9787 59.6734 50.4199 61.1383 51.2498 62.385C52.0798 63.6316 53.2612 64.6039 54.6443 65.1786C56.0275 65.7534 57.5501 65.9046 59.0193 65.6133C60.4886 65.322 61.8382 64.6013 62.8974 63.5423C63.9565 62.4834 64.6774 61.1339 64.9688 59.6649C65.2601 58.196 65.1088 56.6736 64.534 55.2907C63.9592 53.9077 62.9867 52.7265 61.7399 51.8967C60.493 51.0669 59.0279 50.6258 57.53 50.6293C55.5296 50.634 53.6125 51.4306 52.1981 52.8448C50.7836 54.259 49.9869 56.1758 49.9822 58.1759Z" fill="url(#paint30_radial_5901_133625)"/>
<path style="mix-blend-mode:screen" fill-rule="evenodd" clip-rule="evenodd" d="M24.1672 58.9907C24.1672 60.3326 24.5652 61.6444 25.3108 62.7602C26.0565 63.8759 27.1163 64.7456 28.3563 65.2591C29.5963 65.7726 30.9607 65.907 32.277 65.6452C33.5934 65.3834 34.8025 64.7372 35.7516 63.7883C36.7006 62.8394 37.3469 61.6305 37.6087 60.3144C37.8706 58.9982 37.7362 57.6341 37.2226 56.3943C36.709 55.1545 35.8392 54.0949 34.7232 53.3494C33.6073 52.6038 32.2953 52.2059 30.9532 52.2059C29.1549 52.2106 27.4315 52.9269 26.1599 54.1983C24.8883 55.4697 24.1719 57.1927 24.1672 58.9907Z" fill="url(#paint31_radial_5901_133625)"/>
<path style="mix-blend-mode:screen" fill-rule="evenodd" clip-rule="evenodd" d="M26.4882 58.9907C26.4882 59.8884 26.7547 60.7659 27.2539 61.5121C27.7531 62.2583 28.4625 62.8395 29.2924 63.1822C30.1222 63.5249 31.0351 63.6137 31.9154 63.4373C32.7958 63.2609 33.604 62.8272 34.2376 62.1912C34.8712 61.5552 35.3018 60.7455 35.4748 59.8646C35.6478 58.9837 35.5555 58.0713 35.2094 57.243C34.8634 56.4146 34.2793 55.7076 33.5311 55.2114C32.7828 54.7152 31.9041 54.4522 31.0063 54.4557C30.4115 54.4557 29.8225 54.5731 29.2732 54.8013C28.7239 55.0294 28.225 55.3637 27.8053 55.7851C27.3855 56.2064 27.0531 56.7065 26.827 57.2566C26.601 57.8067 26.4859 58.396 26.4882 58.9907Z" fill="url(#paint32_radial_5901_133625)"/>
<defs>
<radialGradient id="paint0_radial_5901_133625" cx="0" cy="0" r="1" gradientUnits="userSpaceOnUse" gradientTransform="translate(54.4294 92.6314) rotate(180) scale(103.632 103.615)">
<stop stop-color="#FFD80F"/>
<stop offset="1" stop-color="#FF1400"/>
</radialGradient>
<radialGradient id="paint1_radial_5901_133625" cx="0" cy="0" r="1" gradientUnits="userSpaceOnUse" gradientTransform="translate(57.4414 -9.3712) rotate(180) scale(74.9823 74.9696)">
<stop offset="0.39" stop-color="#400000"/>
<stop offset="0.45" stop-color="#460704"/>
<stop offset="0.53" stop-color="#571B10"/>
<stop offset="0.63" stop-color="#723C22"/>
<stop offset="0.75" stop-color="#986A3D"/>
<stop offset="0.87" stop-color="#C8A45E"/>
<stop offset="1" stop-color="#FFE684"/>
</radialGradient>
<radialGradient id="paint2_radial_5901_133625" cx="0" cy="0" r="1" gradientUnits="userSpaceOnUse" gradientTransform="translate(86.4989 21.3996) rotate(180) scale(45.978 45.9703)">
<stop offset="0.31" stop-color="#400000"/>
<stop offset="0.38" stop-color="#460804"/>
<stop offset="0.47" stop-color="#571C10"/>
<stop offset="0.59" stop-color="#743E24"/>
<stop offset="0.72" stop-color="#9B6D3F"/>
<stop offset="0.87" stop-color="#CCA961"/>
<stop offset="1" stop-color="#FFE684"/>
</radialGradient>
<radialGradient id="paint3_radial_5901_133625" cx="0" cy="0" r="1" gradientUnits="userSpaceOnUse" gradientTransform="translate(29.0043 51.1607) rotate(180) scale(55.404 55.3946)">
<stop stop-color="#400000"/>
<stop offset="1" stop-color="#FFE5D1"/>
</radialGradient>
<radialGradient id="paint4_radial_5901_133625" cx="0" cy="0" r="1" gradientUnits="userSpaceOnUse" gradientTransform="translate(-10.1524 30.7354) rotate(180) scale(44.7023 44.6948)">
<stop stop-color="#400000"/>
<stop offset="1" stop-color="#FFE684"/>
</radialGradient>
<radialGradient id="paint5_radial_5901_133625" cx="0" cy="0" r="1" gradientUnits="userSpaceOnUse" gradientTransform="translate(-26.0985 69.8854) rotate(180) scale(63.253 63.2423)">
<stop stop-color="#400000"/>
<stop offset="1" stop-color="#FFE684"/>
</radialGradient>
<radialGradient id="paint6_radial_5901_133625" cx="0" cy="0" r="1" gradientUnits="userSpaceOnUse" gradientTransform="translate(-14.8477 16.9709) rotate(180) scale(80.3685 80.3549)">
<stop stop-color="#400000"/>
<stop offset="1" stop-color="#FFE684"/>
</radialGradient>
<radialGradient id="paint7_radial_5901_133625" cx="0" cy="0" r="1" gradientUnits="userSpaceOnUse" gradientTransform="translate(23.7065 42.3564) rotate(180) scale(66.7789 66.7676)">
<stop stop-color="#400000"/>
<stop offset="1" stop-color="#FFE684"/>
</radialGradient>
<radialGradient id="paint8_radial_5901_133625" cx="0" cy="0" r="1" gradientUnits="userSpaceOnUse" gradientTransform="translate(22.7675 106.892) rotate(180) scale(61.9596 61.9491)">
<stop stop-color="#400000"/>
<stop offset="1" stop-color="#FFE684"/>
</radialGradient>
<radialGradient id="paint9_radial_5901_133625" cx="0" cy="0" r="1" gradientUnits="userSpaceOnUse" gradientTransform="translate(-46.8285 105.723) rotate(180) scale(115.521 115.501)">
<stop stop-color="#400000"/>
<stop offset="1" stop-color="#FFE684"/>
</radialGradient>
<radialGradient id="paint10_radial_5901_133625" cx="0" cy="0" r="1" gradientUnits="userSpaceOnUse" gradientTransform="translate(40.7866 123.721) rotate(180) scale(53.2778 53.2688)">
<stop offset="0.36" stop-color="#400000"/>
<stop offset="0.42" stop-color="#480906"/>
<stop offset="0.52" stop-color="#5C2218"/>
<stop offset="0.64" stop-color="#7E4A34"/>
<stop offset="0.78" stop-color="#AD825B"/>
<stop offset="0.94" stop-color="#E8C98D"/>
<stop offset="1" stop-color="#FFE4A0"/>
</radialGradient>
<radialGradient id="paint11_radial_5901_133625" cx="0" cy="0" r="1" gradientUnits="userSpaceOnUse" gradientTransform="translate(75.815 93.8006) rotate(180) scale(35.3118 35.3059)">
<stop stop-color="#400000"/>
<stop offset="1" stop-color="#FFE4A0"/>
</radialGradient>
<radialGradient id="paint12_radial_5901_133625" cx="0" cy="0" r="1" gradientUnits="userSpaceOnUse" gradientTransform="translate(118.745 133.021) rotate(180) scale(96.6868 96.6704)">
<stop stop-color="#400000"/>
<stop offset="1" stop-color="#FFE5D1"/>
</radialGradient>
<radialGradient id="paint13_radial_5901_133625" cx="0" cy="0" r="1" gradientUnits="userSpaceOnUse" gradientTransform="translate(85.8256 74.9165) rotate(180) scale(31.8746 31.8692)">
<stop stop-color="#400000"/>
<stop offset="1" stop-color="#FFE5D1"/>
</radialGradient>
<radialGradient id="paint14_radial_5901_133625" cx="0" cy="0" r="1" gradientUnits="userSpaceOnUse" gradientTransform="translate(82.654 84.0219) rotate(180) scale(46.9525 46.9446)">
<stop stop-color="#400000"/>
<stop offset="1" stop-color="#FFE4A0"/>
</radialGradient>
<radialGradient id="paint15_radial_5901_133625" cx="0" cy="0" r="1" gradientUnits="userSpaceOnUse" gradientTransform="translate(16.7079 71.8695) rotate(180) scale(89.0858 89.0707)">
<stop offset="0.52" stop-color="#FFE6F2"/>
<stop offset="1" stop-color="#FF5F00"/>
</radialGradient>
<radialGradient id="paint16_radial_5901_133625" cx="0" cy="0" r="1" gradientUnits="userSpaceOnUse" gradientTransform="translate(32.1757 74.1902) rotate(180) scale(1.29341 1.29319)">
<stop offset="0.29" stop-color="#FFAA00"/>
<stop offset="0.32" stop-color="#F5A100"/>
<stop offset="0.66" stop-color="#954B00"/>
<stop offset="0.89" stop-color="#581500"/>
<stop offset="1" stop-color="#400000"/>
</radialGradient>
<radialGradient id="paint17_radial_5901_133625" cx="0" cy="0" r="1" gradientUnits="userSpaceOnUse" gradientTransform="translate(26.1339 38.5123) rotate(180) scale(1.43515 1.43491)">
<stop offset="0.29" stop-color="#FFAA00"/>
<stop offset="0.32" stop-color="#F5A100"/>
<stop offset="0.66" stop-color="#954B00"/>
<stop offset="0.89" stop-color="#581500"/>
<stop offset="1" stop-color="#400000"/>
</radialGradient>
<radialGradient id="paint18_radial_5901_133625" cx="0" cy="0" r="1" gradientUnits="userSpaceOnUse" gradientTransform="translate(16.9205 53.1094) rotate(180) scale(2.17931 2.17894)">
<stop offset="0.29" stop-color="#FFAA00"/>
<stop offset="0.32" stop-color="#F5A100"/>
<stop offset="0.66" stop-color="#954B00"/>
<stop offset="0.89" stop-color="#581500"/>
<stop offset="1" stop-color="#400000"/>
</radialGradient>
<radialGradient id="paint19_radial_5901_133625" cx="0" cy="0" r="1" gradientUnits="userSpaceOnUse" gradientTransform="translate(52.1438 67.4585) rotate(180) scale(2.21474 2.21437)">
<stop offset="0.29" stop-color="#FFAA00"/>
<stop offset="0.32" stop-color="#F5A100"/>
<stop offset="0.66" stop-color="#954B00"/>
<stop offset="0.89" stop-color="#581500"/>
<stop offset="1" stop-color="#400000"/>
</radialGradient>
<radialGradient id="paint20_radial_5901_133625" cx="0" cy="0" r="1" gradientUnits="userSpaceOnUse" gradientTransform="translate(59.3904 76.192) rotate(90) scale(1.6652 1.66548)">
<stop offset="0.29" stop-color="#FFAA00"/>
<stop offset="0.32" stop-color="#F5A100"/>
<stop offset="0.66" stop-color="#954B00"/>
<stop offset="0.89" stop-color="#581500"/>
<stop offset="1" stop-color="#400000"/>
</radialGradient>
<radialGradient id="paint21_radial_5901_133625" cx="0" cy="0" r="1" gradientUnits="userSpaceOnUse" gradientTransform="translate(42.0623 71.5152) rotate(90) scale(1.66521 1.66549)">
<stop offset="0.29" stop-color="#FFAA00"/>
<stop offset="0.32" stop-color="#F5A100"/>
<stop offset="0.66" stop-color="#954B00"/>
<stop offset="0.89" stop-color="#581500"/>
<stop offset="1" stop-color="#400000"/>
</radialGradient>
<radialGradient id="paint22_radial_5901_133625" cx="0" cy="0" r="1" gradientUnits="userSpaceOnUse" gradientTransform="translate(47.3599 65.9173) rotate(180) scale(61.7824 61.772)">
<stop stop-color="#FF5214"/>
<stop offset="1" stop-color="#450000"/>
</radialGradient>
<radialGradient id="paint23_radial_5901_133625" cx="0" cy="0" r="1" gradientUnits="userSpaceOnUse" gradientTransform="translate(37.5974 64.8544) rotate(180) scale(66.5663 66.555)">
<stop stop-color="#FF5214"/>
<stop offset="1" stop-color="#450000"/>
</radialGradient>
<radialGradient id="paint24_radial_5901_133625" cx="0" cy="0" r="1" gradientUnits="userSpaceOnUse" gradientTransform="translate(26.8781 54.7923) rotate(180) scale(65.1312 65.1201)">
<stop stop-color="#FF5214"/>
<stop offset="1" stop-color="#450000"/>
</radialGradient>
<radialGradient id="paint25_radial_5901_133625" cx="0" cy="0" r="1" gradientUnits="userSpaceOnUse" gradientTransform="translate(58.788 69.4425) rotate(180) scale(25.0532 25.0489)">
<stop stop-color="#FFE4B7"/>
<stop offset="1" stop-color="#400000"/>
</radialGradient>
<radialGradient id="paint26_radial_5901_133625" cx="0" cy="0" r="1" gradientUnits="userSpaceOnUse" gradientTransform="translate(15.1666 31.0011) rotate(180) scale(23.9546 23.9506)">
<stop stop-color="#FFE4B7"/>
<stop offset="1" stop-color="#400000"/>
</radialGradient>
<radialGradient id="paint27_radial_5901_133625" cx="0" cy="0" r="1" gradientUnits="userSpaceOnUse" gradientTransform="translate(43.2495 62.2326) rotate(180) scale(59.3374 59.3273)">
<stop stop-color="#FFE4B7"/>
<stop offset="1" stop-color="#400000"/>
</radialGradient>
<radialGradient id="paint28_radial_5901_133625" cx="0" cy="0" r="1" gradientUnits="userSpaceOnUse" gradientTransform="translate(40.574 19.6281) rotate(180) scale(36.9242 36.9179)">
<stop stop-color="#FFE4B7"/>
<stop offset="1" stop-color="#400000"/>
</radialGradient>
<radialGradient id="paint29_radial_5901_133625" cx="0" cy="0" r="1" gradientUnits="userSpaceOnUse" gradientTransform="translate(57.53 58.1404) rotate(180) scale(10.4359 10.4341)">
<stop stop-color="#FF9100"/>
<stop offset="0.09" stop-color="#D47900"/>
<stop offset="0.23" stop-color="#9D5900"/>
<stop offset="0.37" stop-color="#6D3E00"/>
<stop offset="0.5" stop-color="#462800"/>
<stop offset="0.63" stop-color="#271600"/>
<stop offset="0.76" stop-color="#110A00"/>
<stop offset="0.89" stop-color="#040300"/>
<stop offset="1"/>
</radialGradient>
<radialGradient id="paint30_radial_5901_133625" cx="0" cy="0" r="1" gradientUnits="userSpaceOnUse" gradientTransform="translate(57.53 58.1404) rotate(180) scale(6.96315 6.96197)">
<stop stop-color="white"/>
<stop offset="0.09" stop-color="#D4D4D4"/>
<stop offset="0.23" stop-color="#9D9D9D"/>
<stop offset="0.37" stop-color="#6D6D6D"/>
<stop offset="0.5" stop-color="#464646"/>
<stop offset="0.63" stop-color="#272727"/>
<stop offset="0.76" stop-color="#111111"/>
<stop offset="0.89" stop-color="#040404"/>
<stop offset="1"/>
</radialGradient>
<radialGradient id="paint31_radial_5901_133625" cx="0" cy="0" r="1" gradientUnits="userSpaceOnUse" gradientTransform="translate(31.0063 58.9907) rotate(180) scale(6.25443 6.25337)">
<stop stop-color="#FF9100"/>
<stop offset="0.09" stop-color="#D47900"/>
<stop offset="0.23" stop-color="#9D5900"/>
<stop offset="0.37" stop-color="#6D3E00"/>
<stop offset="0.5" stop-color="#462800"/>
<stop offset="0.63" stop-color="#271600"/>
<stop offset="0.76" stop-color="#110A00"/>
<stop offset="0.89" stop-color="#040300"/>
<stop offset="1"/>
</radialGradient>
<radialGradient id="paint32_radial_5901_133625" cx="0" cy="0" r="1" gradientUnits="userSpaceOnUse" gradientTransform="translate(31.0063 58.9907) rotate(180) scale(4.16371 4.16301)">
<stop stop-color="white"/>
<stop offset="0.09" stop-color="#D4D4D4"/>
<stop offset="0.23" stop-color="#9D9D9D"/>
<stop offset="0.37" stop-color="#6D6D6D"/>
<stop offset="0.5" stop-color="#464646"/>
<stop offset="0.63" stop-color="#272727"/>
<stop offset="0.76" stop-color="#111111"/>
<stop offset="0.89" stop-color="#040404"/>
<stop offset="1"/>
</radialGradient>
</defs>
</svg>
