<svg width="133" height="131" viewBox="0 0 133 131" fill="none" xmlns="http://www.w3.org/2000/svg">
<path fill-rule="evenodd" clip-rule="evenodd" d="M56.338 113.231C47.7963 105.35 39.2451 97.3001 30.6197 88.4979C26.5976 73.8517 23.5532 58.9522 21.5065 43.8978C23.5101 40.1578 25.7937 36.5744 28.3378 33.1786L55.9868 14.8461L73.3566 15.1528C75.7086 17.7112 83.4921 32.5023 85.5486 36.3887C89.6865 49.1652 98.6518 89.3171 99.2927 94.2108C93.5378 105.612 88.8608 116.721 86.1285 121.64C83.1447 120.547 60.9339 114.393 56.3776 113.33L56.338 113.231Z" fill="url(#paint0_radial_5815_59454)"/>
<path style="mix-blend-mode:multiply" fill-rule="evenodd" clip-rule="evenodd" d="M38.7303 42.424L53.3407 33.486L73.4124 15.0795L56.0426 14.7727L28.3936 33.1053C25.8495 36.5011 23.5659 40.0845 21.5623 43.8245L31.6194 45.3487L38.7303 42.424Z" fill="url(#paint1_radial_5815_59454)"/>
<path style="mix-blend-mode:screen" fill-rule="evenodd" clip-rule="evenodd" d="M86.0889 121.54L67.7868 101.674C60.0797 99.2517 44.3611 94.686 34.8053 89.8345C33.3991 89.4494 32.0165 88.9836 30.6643 88.4392C39.2304 97.2889 47.8702 105.314 56.3826 113.172C60.8943 114.294 83.2229 120.445 86.1336 121.481L86.0889 121.54Z" fill="url(#paint2_radial_5815_59454)"/>
<path style="mix-blend-mode:multiply" fill-rule="evenodd" clip-rule="evenodd" d="M67.7868 101.674L86.0888 121.54C88.7988 116.651 93.4981 105.512 99.253 94.111C90.9628 88.702 82.6632 82.6985 74.3542 76.1005C71.6905 85.6619 70.3777 93.2392 67.7421 101.732L67.7868 101.674Z" fill="url(#paint3_radial_5815_59454)"/>
<path style="mix-blend-mode:screen" fill-rule="evenodd" clip-rule="evenodd" d="M34.7607 89.8931C34.5975 75.3016 32.9475 59.8082 31.6222 45.4666L21.5066 43.8978C23.5533 58.9522 26.5977 73.8517 30.6197 88.4979C31.972 89.0422 33.3546 89.5081 34.7607 89.8931Z" fill="url(#paint4_radial_5815_59454)"/>
<path style="mix-blend-mode:screen" fill-rule="evenodd" clip-rule="evenodd" d="M31.5637 45.422C32.9475 59.8082 34.5975 75.3016 34.7022 89.8485C44.2021 94.7733 59.9328 99.2323 67.6838 101.688C70.3194 93.1946 71.5729 85.6647 74.2959 76.0559L58.7872 46.1241C52.2943 44.628 45.5639 43.3219 38.7305 42.424L31.5749 45.4073L31.5637 45.422Z" fill="url(#paint5_radial_5815_59454)"/>
<path fill-rule="evenodd" clip-rule="evenodd" d="M38.7305 42.424C45.5415 43.3512 52.2719 44.6573 58.7872 46.1241C57.4492 42.6 55.0162 37.1746 53.3633 33.4567L38.7305 42.424Z" fill="white"/>
<path style="mix-blend-mode:multiply" fill-rule="evenodd" clip-rule="evenodd" d="M53.3295 33.5007C54.9825 37.2186 57.4154 42.644 58.787 46.1241L74.3541 76.1005C82.6534 82.6911 90.953 88.6946 99.253 94.111C98.6853 89.2732 89.6468 49.0655 85.582 36.3447C83.5255 32.4583 75.7085 17.7112 73.4124 15.0795L53.3295 33.5007Z" fill="url(#paint6_radial_5815_59454)"/>
<path style="mix-blend-mode:screen" fill-rule="evenodd" clip-rule="evenodd" d="M38.7303 42.424L53.3407 33.486L73.4124 15.0795L56.0426 14.7727L28.3936 33.1053C25.8495 36.5011 23.5659 40.0845 21.5623 43.8245L31.6194 45.3487L38.7303 42.424Z" fill="url(#paint7_radial_5815_59454)"/>
<path style="mix-blend-mode:screen" fill-rule="evenodd" clip-rule="evenodd" d="M31.8159 76.7047C31.1181 81.4124 28.1077 75.5003 26.4547 71.7825C27.8833 78.3432 29.3856 84.4734 30.5905 88.4756C31.9427 89.0199 33.3253 89.4858 34.7314 89.8708C34.5683 75.2793 32.9183 59.7859 31.5929 45.4443L21.5066 43.8978L21.6551 45.4021C21.7694 45.1897 21.9165 44.9968 22.0911 44.8303C23.8713 43.4055 27.7819 45.4367 28.9206 46.9772C30.249 48.9633 31.1284 51.2161 31.4976 53.5789C32.1075 56.923 32.4806 60.3064 32.6142 63.7041C32.6878 68.0511 32.4209 72.398 31.8159 76.7047Z" fill="url(#paint8_radial_5815_59454)"/>
<path style="mix-blend-mode:screen" fill-rule="evenodd" clip-rule="evenodd" d="M36.687 77.9613C35.2669 73.7088 34.1628 69.3565 33.3835 64.94C34.096 73.3196 34.6572 81.7461 34.7494 89.9078C44.2492 94.8326 59.9799 99.2916 67.7309 101.747C70.3665 93.2538 71.62 85.724 74.343 76.1152L68.3198 64.5674C69.5573 67.6667 70.5216 70.8688 71.2015 74.1372C71.8346 79.0714 69.3156 88.9285 65.6752 92.4591C64.8526 93.4154 63.7006 94.0272 62.4489 94.1724C55.9986 94.0766 42.5992 87.1061 38.5766 81.9756C37.743 80.7437 37.1055 79.3895 36.687 77.9613Z" fill="url(#paint9_radial_5815_59454)"/>
<path style="mix-blend-mode:screen" fill-rule="evenodd" clip-rule="evenodd" d="M39.9073 40.5161C29.2211 45.885 22.4954 40.3859 30.0618 33.4962C36.3502 27.8578 46.8391 21.5039 54.1439 17.081C55.7294 15.9577 57.5455 15.2034 59.4587 14.8735L56.1673 14.8215L28.5183 33.154C25.9743 36.5499 23.6906 40.1332 21.6871 43.8733L31.7441 45.3974L38.7303 42.424L53.3407 33.486L73.4124 15.0795L69.1454 15.0024C70.2506 16.5869 66.4313 20.3521 64.6004 22.086C56.341 29.8847 50.2719 35.2962 39.9073 40.5161Z" fill="url(#paint10_radial_5815_59454)"/>
<path style="mix-blend-mode:screen" fill-rule="evenodd" clip-rule="evenodd" d="M65.9349 21.9441C75.031 43.3619 82.9407 65.2673 89.628 87.5605C92.8479 89.8301 96.0428 92.011 99.2532 94.111C98.6855 89.2732 89.647 49.0655 85.5822 36.3447C83.5257 32.4583 75.7087 17.7112 73.4126 15.0795L65.891 21.9106L65.9349 21.9441Z" fill="url(#paint11_radial_5815_59454)"/>
<path style="mix-blend-mode:screen" fill-rule="evenodd" clip-rule="evenodd" d="M69.0191 97.327C57.3164 88.4042 41.8969 75.5579 33.6729 68.3832L33.9396 71.0673C45.4082 79.8116 57.0776 89.5669 68.4924 99.383L69.0629 97.3604L69.0191 97.327Z" fill="url(#paint12_radial_5815_59454)"/>
<path style="mix-blend-mode:screen" fill-rule="evenodd" clip-rule="evenodd" d="M32.8973 59.2368C45.3021 68.6949 59.0883 80.1337 70.7837 90.2797L71.4494 87.4951C59.8794 78.9748 44.4625 66.2464 32.5503 55.6568L32.8973 59.2368Z" fill="url(#paint13_radial_5815_59454)"/>
<path style="mix-blend-mode:screen" fill-rule="evenodd" clip-rule="evenodd" d="M45.7093 43.5255C52.3049 48.3457 60.6019 55.1819 66.0543 60.1969L64.5633 57.2981C58.8907 53.1757 53.4587 48.7321 48.2937 43.989C47.43 43.8173 46.5696 43.6714 45.7093 43.5255Z" fill="url(#paint14_radial_5815_59454)"/>
<path style="mix-blend-mode:screen" fill-rule="evenodd" clip-rule="evenodd" d="M34.1041 74.0676L31.2054 47.166C31.1617 46.7821 30.9984 46.4219 30.7387 46.1365C30.4789 45.851 30.1358 45.6548 29.7579 45.5754L22.2713 44.0173C28.4139 44.7594 29.9326 45.8014 35.6958 43.7038L33.0362 45.0378C32.7201 45.2031 32.4585 45.4564 32.2832 45.7672C32.1078 46.078 32.0263 46.4328 32.0484 46.7886L34.1041 74.0676Z" fill="url(#paint15_radial_5815_59454)"/>
<path style="mix-blend-mode:screen" fill-rule="evenodd" clip-rule="evenodd" d="M95.1576 79.4889C96.5153 85.3233 94.5981 88.8694 91.0038 88.5169C93.7444 90.4442 96.5039 92.3163 99.2531 94.111C98.6854 89.2732 89.6469 49.0655 85.5821 36.3447C83.5256 32.4583 75.7086 17.7112 73.4125 15.0795L53.3296 33.5007L55.7859 39.1989C55.6737 38.3258 55.7153 37.4395 55.9089 36.5801C57.623 30.2362 67.3446 21.5816 73.6456 25.1802C78.6387 28.0367 83.4143 36.6394 85.1178 42.1114C88.9725 54.4402 92.2104 66.9711 95.1576 79.4889Z" fill="url(#paint16_radial_5815_59454)"/>
<path style="mix-blend-mode:screen" fill-rule="evenodd" clip-rule="evenodd" d="M67.7868 101.674L86.0888 121.54C88.7988 116.651 93.4981 105.512 99.253 94.111C90.9628 88.702 82.6632 82.6985 74.3542 76.1005C71.6905 85.6619 70.3777 93.2392 67.7421 101.732L67.7868 101.674Z" fill="url(#paint17_radial_5815_59454)"/>
<path style="mix-blend-mode:screen" fill-rule="evenodd" clip-rule="evenodd" d="M88.0679 117.67C86.013 105.833 88.9806 91.959 89.6278 87.5605C84.5493 83.9666 79.4397 80.1403 74.3542 76.1005C71.6905 85.6619 70.3777 93.2392 67.7421 101.732L86.0888 121.54C86.6614 120.516 87.3139 119.205 88.0679 117.67Z" fill="url(#paint18_radial_5815_59454)"/>
<path style="mix-blend-mode:screen" fill-rule="evenodd" clip-rule="evenodd" d="M37.6937 91.2949C47.2037 95.5086 57.3895 98.6843 67.4216 102.577C72.6236 107.216 77.5664 112.138 82.2275 117.321C77.6276 112.098 72.8281 106.955 68.6015 101.576C69.3971 95.83 70.9453 89.916 72.2905 84.0559C70.7483 89.7194 69.3643 95.3876 67.3058 101.121C57.2388 98.2449 47.2845 95.1297 37.7299 91.3688L37.6937 91.2949Z" fill="url(#paint19_radial_5815_59454)"/>
<g style="mix-blend-mode:screen">
<path fill-rule="evenodd" clip-rule="evenodd" d="M59.4062 83.6914C59.1282 83.4794 59.2744 83.1967 59.4825 82.9845C59.6121 82.8853 59.7729 82.8358 59.9357 82.845C60.0984 82.8542 60.2523 82.9215 60.3695 83.0348C60.5596 83.1798 60.4049 83.595 60.2123 83.7264C60.1005 83.8286 59.9528 83.8824 59.8016 83.8759C59.6505 83.8693 59.5082 83.8029 59.4062 83.6914Z" fill="#F543FF"/>
</g>
<g style="mix-blend-mode:screen" opacity="0.6">
<path fill-rule="evenodd" clip-rule="evenodd" d="M57.2443 96.4174C56.9663 96.2055 57.109 95.897 57.343 95.6812C57.4741 95.5744 57.6401 95.52 57.8087 95.5286C57.9774 95.5373 58.1367 95.6083 58.2557 95.728C58.4752 95.8953 58.3093 96.3252 58.1166 96.4565C57.9926 96.5608 57.834 96.6147 57.6724 96.6074C57.5108 96.6002 57.358 96.5323 57.2443 96.4174Z" fill="#F543FF"/>
</g>
<g style="mix-blend-mode:screen" opacity="0.6">
<path fill-rule="evenodd" clip-rule="evenodd" d="M81.3739 75.9348C81.096 75.7229 81.2275 75.4291 81.4614 75.2133C81.5915 75.1014 81.7588 75.0425 81.9301 75.0485C82.1013 75.0544 82.2639 75.1247 82.3854 75.2454C82.6048 75.4127 82.4389 75.8427 82.2462 75.974C82.1222 76.0782 81.9637 76.1321 81.8021 76.1248C81.6405 76.1176 81.4876 76.0498 81.3739 75.9348Z" fill="#F543FF"/>
</g>
<g style="mix-blend-mode:screen" opacity="0.5">
<path fill-rule="evenodd" clip-rule="evenodd" d="M51.4117 57.9818C51.1191 57.7587 51.2618 57.4502 51.4958 57.2344C51.6269 57.1276 51.7929 57.0732 51.9615 57.0819C52.1302 57.0905 52.2895 57.1616 52.4085 57.2812C52.6279 57.4485 52.4732 57.8638 52.2694 58.0098C52.1495 58.1153 51.994 58.1712 51.8346 58.166C51.6752 58.1608 51.524 58.0949 51.4117 57.9818Z" fill="#F543FF"/>
</g>
<g style="mix-blend-mode:screen" opacity="0.5">
<path fill-rule="evenodd" clip-rule="evenodd" d="M70.7714 48.3063C70.4934 48.0944 70.625 47.8005 70.8589 47.5847C70.989 47.4728 71.1563 47.414 71.3275 47.4199C71.4988 47.4259 71.6613 47.4962 71.7828 47.6168C72.0023 47.7841 71.8364 48.2141 71.6437 48.3454C71.5197 48.4497 71.3612 48.5035 71.1995 48.4963C71.0379 48.489 70.8851 48.4212 70.7714 48.3063Z" fill="#F543FF"/>
</g>
<g style="mix-blend-mode:screen">
<path fill-rule="evenodd" clip-rule="evenodd" d="M56.6154 73.0316C56.235 72.7416 56.4302 72.3339 56.7424 72.0155C56.9248 71.8699 57.1547 71.7974 57.3873 71.8119C57.62 71.8264 57.8387 71.927 58.001 72.0941C58.2935 72.3172 58.0821 72.8979 57.8189 73.0914C57.6476 73.2357 57.4282 73.3097 57.2049 73.2986C56.9815 73.2875 56.7709 73.1921 56.6154 73.0316Z" fill="#F543FF"/>
</g>
<g style="mix-blend-mode:screen">
<path fill-rule="evenodd" clip-rule="evenodd" d="M87.7144 82.0908C87.3195 81.7896 87.5146 81.382 87.8302 81.0894C88.0098 80.9345 88.242 80.8548 88.4785 80.8667C88.715 80.8786 88.9376 80.9813 89.1 81.1533C89.3926 81.3764 89.1812 81.9571 88.8922 82.1541C88.7258 82.2988 88.5098 82.3732 88.29 82.3613C88.0701 82.3495 87.8637 82.2525 87.7144 82.0908Z" fill="#F543FF"/>
</g>
<g style="mix-blend-mode:screen">
<path fill-rule="evenodd" clip-rule="evenodd" d="M52.2314 52.4165C52.0705 52.2938 52.153 52.1249 52.2829 52.0153C52.3547 51.9506 52.4489 51.9168 52.5453 51.9209C52.6416 51.925 52.7325 51.9667 52.7982 52.0372C52.9152 52.1264 52.8284 52.3617 52.7209 52.442C52.6503 52.4986 52.5614 52.5273 52.4711 52.5226C52.3809 52.5179 52.2955 52.4802 52.2314 52.4165Z" fill="#F543FF"/>
</g>
<g style="mix-blend-mode:screen">
<path fill-rule="evenodd" clip-rule="evenodd" d="M80.902 53.5265C80.7557 53.4149 80.8383 53.246 80.9535 53.1252C81.0272 53.0648 81.1205 53.0336 81.2156 53.0376C81.3106 53.0417 81.4008 53.0807 81.4688 53.1472C81.5858 53.2364 81.499 53.4716 81.3915 53.5519C81.3209 53.6085 81.232 53.6372 81.1417 53.6326C81.0514 53.6279 80.9661 53.5901 80.902 53.5265Z" fill="#F543FF"/>
</g>
<g style="mix-blend-mode:screen">
<path fill-rule="evenodd" clip-rule="evenodd" d="M75.1864 89.6024C75.1012 89.7747 74.9835 89.9291 74.8399 90.0569C74.8399 90.0569 74.4804 90.316 74.3444 90.2819C74.3159 90.1435 74.3147 90.0009 74.3408 89.8619C74.355 89.6996 74.4166 89.5449 74.5179 89.4173C74.6185 89.2853 75.059 89.4357 75.183 89.5766L75.1864 89.6024Z" fill="#FC99FF"/>
</g>
<g style="mix-blend-mode:screen" opacity="0.4">
<path fill-rule="evenodd" clip-rule="evenodd" d="M77.1432 83.3043C77.2883 83.0238 77.4813 82.7708 77.7133 82.5566C77.8139 82.4246 78.2551 82.0887 78.4685 82.1122C78.5432 82.3275 78.5737 82.5558 78.5582 82.7834C78.5565 83.0466 78.4869 83.305 78.3563 83.5337C78.17 83.6038 77.9692 83.6257 77.7724 83.5973C77.5757 83.5689 77.3894 83.4911 77.231 83.3712L77.1432 83.3043Z" fill="#FC99FF"/>
</g>
<g style="mix-blend-mode:screen">
<path fill-rule="evenodd" clip-rule="evenodd" d="M66.4706 99.0007C66.1256 98.7784 65.8248 98.494 65.5834 98.162C65.4079 98.0281 65.0601 97.392 65.1254 97.094C65.4248 97.0389 65.7315 97.0373 66.0313 97.0892C66.361 97.1447 66.6743 97.2727 66.9484 97.4639C67.0136 97.718 67.0138 97.9846 66.9491 98.2391C66.8844 98.4936 66.7568 98.7279 66.5781 98.9204L66.4706 99.0007Z" fill="#F543FF"/>
</g>
<g style="mix-blend-mode:screen">
<path fill-rule="evenodd" clip-rule="evenodd" d="M82.4611 67.258C82.3975 66.9542 82.4003 66.64 82.4694 66.337C82.5588 66.2197 82.6266 65.6454 82.8227 65.5399C83.002 65.6788 83.154 65.8497 83.2711 66.044C83.4209 66.2496 83.5162 66.4897 83.5483 66.7423C83.4364 66.9061 83.2861 67.0401 83.1107 67.1327C82.9353 67.2252 82.7401 67.2735 82.542 67.2733L82.4611 67.258Z" fill="#F543FF"/>
</g>
<g style="mix-blend-mode:screen">
<path fill-rule="evenodd" clip-rule="evenodd" d="M55.2901 87.694C55.2472 87.9627 55.15 88.1204 54.8524 88.0558C54.787 88.0537 54.7229 88.0365 54.6654 88.0055C54.6078 87.9745 54.5582 87.9305 54.5205 87.8771C54.4828 87.8236 54.458 87.7621 54.4481 87.6974C54.4382 87.6327 54.4434 87.5665 54.4633 87.5041C54.514 87.195 54.6292 87.0742 54.945 87.1758C55.2607 87.2774 55.2961 87.4435 55.2901 87.694Z" fill="#FC99FF"/>
</g>
<g style="mix-blend-mode:screen">
<path fill-rule="evenodd" clip-rule="evenodd" d="M89.971 74.0041C89.928 74.2728 89.8309 74.4305 89.5332 74.3659C89.4663 74.3679 89.4 74.3534 89.3402 74.3236C89.2804 74.2938 89.2289 74.2496 89.1904 74.1949C89.1518 74.1403 89.1275 74.0769 89.1194 74.0105C89.1113 73.9441 89.1199 73.8766 89.1442 73.8142C89.1948 73.5051 89.3101 73.3843 89.6258 73.4859C89.9416 73.5876 89.9623 73.7424 89.971 74.0041Z" fill="#FC99FF"/>
</g>
<g style="mix-blend-mode:screen">
<path fill-rule="evenodd" clip-rule="evenodd" d="M72.0911 40.7806C72.0628 41.0604 71.9511 41.207 71.6534 41.1424C71.588 41.1403 71.524 41.1231 71.4664 41.0921C71.4088 41.0611 71.3592 41.0171 71.3215 40.9637C71.2838 40.9102 71.2591 40.8487 71.2491 40.784C71.2392 40.7193 71.2444 40.6531 71.2644 40.5907C71.315 40.2816 71.4302 40.1608 71.746 40.2624C72.0618 40.3641 72.153 40.4568 72.0911 40.7806Z" fill="#FC99FF"/>
</g>
<g style="mix-blend-mode:screen">
<path fill-rule="evenodd" clip-rule="evenodd" d="M67.7063 86.9131C67.6968 86.7436 68.0081 86.5172 68.0976 86.4C68.187 86.2827 68.6592 86.179 68.8193 86.3938C68.8768 86.5201 68.8907 86.6619 68.8588 86.7971C68.8269 86.9322 68.7511 87.0531 68.6432 87.1406C68.3431 87.3522 67.9473 87.1432 67.7209 86.9243L67.7063 86.9131Z" fill="#F543FF"/>
</g>
<g style="mix-blend-mode:screen">
<path fill-rule="evenodd" clip-rule="evenodd" d="M76.691 102.435C76.7433 102.445 76.7929 102.466 76.8361 102.497C76.8794 102.528 76.9154 102.568 76.9416 102.615C76.9678 102.661 76.9836 102.713 76.9878 102.766C76.9921 102.819 76.9848 102.873 76.9664 102.923C76.9524 102.974 76.9274 103.022 76.8931 103.063C76.8589 103.104 76.8162 103.137 76.7681 103.159C76.7199 103.182 76.6674 103.194 76.6142 103.195C76.561 103.195 76.5083 103.184 76.4598 103.163C76.4059 103.148 76.3554 103.122 76.3114 103.088C76.2674 103.053 76.2307 103.01 76.2034 102.961C76.1761 102.913 76.1588 102.859 76.1524 102.803C76.146 102.748 76.1507 102.691 76.1663 102.637C76.3004 102.461 76.4853 102.371 76.691 102.435Z" fill="#F543FF"/>
</g>
<path style="mix-blend-mode:screen" fill-rule="evenodd" clip-rule="evenodd" d="M77.3825 101.71C77.6 101.871 77.7644 102.094 77.8546 102.349C77.9448 102.605 77.9567 102.882 77.8888 103.144C77.821 103.407 77.6764 103.643 77.4736 103.824C77.2708 104.004 77.019 104.12 76.7504 104.156C76.4818 104.193 76.2085 104.149 75.9656 104.029C75.7227 103.909 75.5212 103.719 75.3868 103.484C75.2524 103.249 75.1913 102.979 75.2112 102.709C75.2311 102.438 75.3311 102.179 75.4986 101.966C75.7179 101.686 76.0375 101.503 76.3894 101.455C76.7412 101.407 77.0976 101.499 77.3825 101.71Z" fill="url(#paint20_radial_5815_59454)"/>
<g style="mix-blend-mode:screen">
<path fill-rule="evenodd" clip-rule="evenodd" d="M58.4371 62.0865C58.4951 62.0969 58.55 62.1199 58.5982 62.1538C58.6463 62.1877 58.6864 62.2317 58.7158 62.2828C58.7451 62.3338 58.763 62.3907 58.7681 62.4495C58.7731 62.5082 58.7654 62.5673 58.7452 62.6228C58.7272 62.679 58.6977 62.7308 58.6586 62.7749C58.6194 62.8191 58.5715 62.8546 58.518 62.8792C58.4644 62.9038 58.4063 62.9169 58.3473 62.9178C58.2884 62.9187 58.23 62.9072 58.1758 62.8842C58.0582 62.8489 57.9588 62.7698 57.898 62.663C57.8373 62.5563 57.82 62.4302 57.8496 62.3109C57.8711 62.2556 57.904 62.2055 57.946 62.1637C57.9881 62.1219 58.0384 62.0894 58.0938 62.0682C58.1492 62.0471 58.2083 62.0378 58.2675 62.0409C58.3266 62.044 58.3844 62.0596 58.4371 62.0865Z" fill="#F543FF"/>
</g>
<path style="mix-blend-mode:screen" fill-rule="evenodd" clip-rule="evenodd" d="M59.1992 61.2995C59.5135 61.5391 59.7194 61.894 59.7718 62.2862C59.8242 62.6783 59.7188 63.0756 59.4786 63.3905C59.2385 63.7055 58.8833 63.9124 58.4913 63.9656C58.0993 64.0189 57.7025 63.9143 57.3883 63.6747C57.074 63.4351 56.868 63.0801 56.8156 62.688C56.7632 62.2959 56.8687 61.8986 57.1088 61.5837C57.349 61.2687 57.7041 61.0618 58.0961 61.0085C58.4882 60.9552 58.8849 61.0599 59.1992 61.2995Z" fill="url(#paint21_radial_5815_59454)"/>
<g style="mix-blend-mode:screen">
<path fill-rule="evenodd" clip-rule="evenodd" d="M59.3756 92.4086C59.4211 92.1245 59.5737 91.8684 59.8021 91.6931C60.0304 91.5178 60.317 91.4367 60.6029 91.4664C61.0485 91.4584 61.7403 91.9163 61.6622 92.4132C61.6226 92.7182 61.4637 92.9952 61.2203 93.1835C60.977 93.3718 60.6692 93.456 60.3644 93.4175C59.7759 93.3398 59.2519 93.0562 59.3756 92.4086Z" fill="#F543FF"/>
</g>
<path style="mix-blend-mode:screen" fill-rule="evenodd" clip-rule="evenodd" d="M62.2833 90.0815C62.7526 90.4347 63.106 90.9197 63.2986 91.475C63.4912 92.0302 63.5144 92.6306 63.3651 93.1998C63.2159 93.769 62.901 94.2814 62.4604 94.6717C62.0199 95.062 61.4735 95.3127 60.8909 95.3919C60.3083 95.4711 59.7157 95.3752 59.1884 95.1164C58.6611 94.8577 58.2229 94.4477 57.9295 93.9387C57.6362 93.4296 57.5009 92.8445 57.5409 92.2576C57.581 91.6707 57.7944 91.1086 58.1542 90.6427C58.6315 90.0247 59.3326 89.6192 60.1055 89.5142C60.8783 89.4091 61.6608 89.6129 62.2833 90.0815Z" fill="url(#paint22_radial_5815_59454)"/>
<g style="mix-blend-mode:screen">
<path fill-rule="evenodd" clip-rule="evenodd" d="M77.6371 73.4333C77.6513 73.3225 77.6872 73.2155 77.7429 73.1185C77.7986 73.0216 77.8728 72.9365 77.9614 72.8683C78.0499 72.8001 78.1511 72.75 78.2589 72.721C78.3668 72.692 78.4793 72.6846 78.59 72.6993C78.9436 72.6906 79.4779 73.0517 79.4677 73.3685C79.4325 73.6043 79.3074 73.8174 79.1186 73.9632C78.9299 74.1089 78.6921 74.1759 78.4554 74.15C78.0141 74.0917 77.589 73.8604 77.693 73.36L77.6371 73.4333Z" fill="#F543FF"/>
</g>
<path style="mix-blend-mode:screen" fill-rule="evenodd" clip-rule="evenodd" d="M79.9591 71.5407C80.3208 71.8164 80.5924 72.1935 80.7395 72.6241C80.8867 73.0548 80.9028 73.5197 80.7859 73.9601C80.669 74.4005 80.4242 74.7966 80.0826 75.0983C79.741 75.4 79.3179 75.5938 78.8667 75.6551C78.4156 75.7164 77.9567 75.6425 77.5481 75.4428C77.1394 75.2431 76.7995 74.9264 76.5711 74.533C76.3427 74.1395 76.2362 73.6869 76.2651 73.2323C76.294 72.7777 76.4569 72.3416 76.7333 71.9792C77.1039 71.4931 77.6519 71.1739 78.2569 71.0916C78.8619 71.0094 79.4742 71.1709 79.9591 71.5407Z" fill="url(#paint23_radial_5815_59454)"/>
<g style="mix-blend-mode:screen">
<path fill-rule="evenodd" clip-rule="evenodd" d="M52.3487 76.5947C52.5152 76.6247 52.6645 76.7156 52.7674 76.8498C52.8704 76.984 52.9196 77.1519 52.9055 77.3207C52.903 77.597 52.6417 78.0005 52.4025 77.9804C52.3143 77.9712 52.2289 77.9443 52.1514 77.9014C52.0738 77.8585 52.0057 77.8004 51.951 77.7307C51.8964 77.6609 51.8563 77.5808 51.8332 77.4952C51.8101 77.4096 51.8043 77.3201 51.8164 77.2322C51.8636 76.8972 52.0175 76.574 52.4072 76.6393L52.3487 76.5947Z" fill="#F543FF"/>
</g>
<path style="mix-blend-mode:screen" fill-rule="evenodd" clip-rule="evenodd" d="M53.7103 78.3283C53.5001 78.5981 53.2149 78.7997 52.8908 78.9079C52.5666 79.0161 52.2179 79.0259 51.8886 78.9362C51.5593 78.8465 51.2641 78.6613 51.0401 78.4038C50.8161 78.1464 50.6734 77.8282 50.63 77.4894C50.5865 77.1506 50.6443 76.8062 50.7959 76.4998C50.9475 76.1933 51.1863 75.9383 51.4822 75.767C51.778 75.5957 52.1177 75.5157 52.4585 75.5371C52.7993 75.5584 53.1259 75.6802 53.3972 75.8871C53.7603 76.17 53.9968 76.5851 54.0555 77.0422C54.1141 77.4993 53.9901 77.9615 53.7103 78.3283Z" fill="url(#paint24_radial_5815_59454)"/>
<g style="mix-blend-mode:screen">
<path fill-rule="evenodd" clip-rule="evenodd" d="M75.1883 59.5336C75.3548 59.5635 75.5041 59.6545 75.607 59.7887C75.71 59.9229 75.7592 60.0907 75.7451 60.2595C75.7538 60.5212 75.4813 60.9393 75.2421 60.9193C75.066 60.8959 74.9062 60.8046 74.7967 60.6648C74.6872 60.525 74.6367 60.3478 74.656 60.171C74.7032 59.836 74.8683 59.4982 75.2468 59.5782L75.1883 59.5336Z" fill="#F543FF"/>
</g>
<path style="mix-blend-mode:screen" fill-rule="evenodd" clip-rule="evenodd" d="M76.5465 61.2414C76.3387 61.514 76.0549 61.7189 75.731 61.8304C75.4071 61.9418 75.0577 61.9547 74.7269 61.8674C74.3961 61.7802 74.0988 61.5967 73.8726 61.3401C73.6464 61.0836 73.5015 60.7655 73.4561 60.4261C73.4108 60.0868 73.467 59.7413 73.6178 59.4335C73.7686 59.1258 74.0071 58.8694 74.3032 58.6969C74.5993 58.5245 74.9396 58.4436 75.2812 58.4646C75.6228 58.4856 75.9503 58.6074 76.2222 58.8148C76.5869 59.0929 76.826 59.5047 76.8868 59.9598C76.9476 60.4149 76.8252 60.8759 76.5465 61.2414Z" fill="url(#paint25_radial_5815_59454)"/>
<path style="mix-blend-mode:screen" d="M73.0477 105.059C75.1036 102.362 74.5893 98.5137 71.899 96.4624C69.2087 94.4112 65.3611 94.9342 63.3052 97.6305C61.2494 100.327 61.7637 104.176 64.454 106.227C67.1443 108.278 70.9918 107.755 73.0477 105.059Z" fill="url(#paint26_radial_5815_59454)"/>
<path style="mix-blend-mode:screen" d="M71.4239 103.821C72.7945 102.023 72.4516 99.4573 70.6581 98.0898C68.8645 96.7223 66.2995 97.071 64.9289 98.8686C63.5583 100.666 63.9012 103.232 65.6948 104.599C67.4883 105.967 70.0533 105.618 71.4239 103.821Z" fill="url(#paint27_radial_5815_59454)"/>
<path style="mix-blend-mode:screen" d="M59.0492 37.8617C61.4632 34.6957 60.8593 30.1766 57.7004 27.7681C54.5415 25.3596 50.0238 25.9737 47.6099 29.1397C45.1959 32.3057 45.7998 36.8247 48.9587 39.2333C52.1176 41.6418 56.6353 41.0277 59.0492 37.8617Z" fill="url(#paint28_radial_5815_59454)"/>
<path style="mix-blend-mode:screen" d="M57.1476 36.4117C58.759 34.2984 58.3558 31.2818 56.2472 29.6741C54.1386 28.0663 51.123 28.4762 49.5116 30.5896C47.9003 32.703 48.3034 35.7196 50.412 37.3273C52.5206 38.935 55.5362 38.5251 57.1476 36.4117Z" fill="url(#paint29_radial_5815_59454)"/>
<defs>
<radialGradient id="paint0_radial_5815_59454" cx="0" cy="0" r="1" gradientUnits="userSpaceOnUse" gradientTransform="translate(86.5249 120.968) rotate(-52.676) scale(110.492 110.243)">
<stop stop-color="#FFA1FA"/>
<stop offset="1" stop-color="#EB36E4"/>
</radialGradient>
<radialGradient id="paint1_radial_5815_59454" cx="0" cy="0" r="1" gradientUnits="userSpaceOnUse" gradientTransform="translate(63.2697 63.5454) rotate(-52.676) scale(63.8282 63.6846)">
<stop offset="0.47" stop-color="white"/>
<stop offset="0.51" stop-color="#FCF6FB"/>
<stop offset="0.59" stop-color="#F4DDEF"/>
<stop offset="0.68" stop-color="#E6B4DD"/>
<stop offset="0.79" stop-color="#D37BC3"/>
<stop offset="0.92" stop-color="#BC33A2"/>
<stop offset="1" stop-color="#AB008B"/>
</radialGradient>
<radialGradient id="paint2_radial_5815_59454" cx="0" cy="0" r="1" gradientUnits="userSpaceOnUse" gradientTransform="translate(40.0032 152.13) rotate(-52.676) scale(58.795 58.6627)">
<stop/>
<stop offset="0.29" stop-color="#020102"/>
<stop offset="0.43" stop-color="#0A050A"/>
<stop offset="0.54" stop-color="#170B17"/>
<stop offset="0.62" stop-color="#291529"/>
<stop offset="0.7" stop-color="#412141"/>
<stop offset="0.77" stop-color="#5E305E"/>
<stop offset="0.84" stop-color="#814281"/>
<stop offset="0.9" stop-color="#AA57AA"/>
<stop offset="0.96" stop-color="#D66DD6"/>
<stop offset="1" stop-color="#FF82FF"/>
</radialGradient>
<radialGradient id="paint3_radial_5815_59454" cx="0" cy="0" r="1" gradientUnits="userSpaceOnUse" gradientTransform="translate(43.9674 103.637) rotate(-52.676) scale(60.2146 60.0791)">
<stop offset="0.47" stop-color="white"/>
<stop offset="0.51" stop-color="#FBF6FD"/>
<stop offset="0.59" stop-color="#F2DDF6"/>
<stop offset="0.68" stop-color="#E2B4EB"/>
<stop offset="0.79" stop-color="#CC7BDC"/>
<stop offset="0.92" stop-color="#B133C9"/>
<stop offset="1" stop-color="#9D00BC"/>
</radialGradient>
<radialGradient id="paint4_radial_5815_59454" cx="0" cy="0" r="1" gradientUnits="userSpaceOnUse" gradientTransform="translate(-50.5535 73.6946) rotate(-52.676) scale(85.639 85.4463)">
<stop/>
<stop offset="0.21" stop-color="#030203"/>
<stop offset="0.34" stop-color="#0B090B"/>
<stop offset="0.45" stop-color="#1A151A"/>
<stop offset="0.56" stop-color="#30272F"/>
<stop offset="0.65" stop-color="#4B3D4A"/>
<stop offset="0.74" stop-color="#6D586B"/>
<stop offset="0.83" stop-color="#957993"/>
<stop offset="0.91" stop-color="#C39FC0"/>
<stop offset="0.99" stop-color="#F7C8F3"/>
<stop offset="1" stop-color="#FFCFFB"/>
</radialGradient>
<radialGradient id="paint5_radial_5815_59454" cx="0" cy="0" r="1" gradientUnits="userSpaceOnUse" gradientTransform="translate(67.4441 10.1347) rotate(-52.676) scale(99.7062 99.4819)">
<stop offset="0.33"/>
<stop offset="0.39" stop-color="#060406"/>
<stop offset="0.48" stop-color="#181118"/>
<stop offset="0.57" stop-color="#362536"/>
<stop offset="0.68" stop-color="#5F415F"/>
<stop offset="0.8" stop-color="#936693"/>
<stop offset="0.92" stop-color="#D291D2"/>
<stop offset="1" stop-color="#FFB0FF"/>
</radialGradient>
<radialGradient id="paint6_radial_5815_59454" cx="0" cy="0" r="1" gradientUnits="userSpaceOnUse" gradientTransform="translate(132.479 47.7117) rotate(-52.676) scale(81.2879 81.105)">
<stop offset="0.47" stop-color="white"/>
<stop offset="0.51" stop-color="#FBF6FD"/>
<stop offset="0.59" stop-color="#F2DDF6"/>
<stop offset="0.68" stop-color="#E2B4EB"/>
<stop offset="0.79" stop-color="#CC7BDC"/>
<stop offset="0.92" stop-color="#B133C9"/>
<stop offset="1" stop-color="#9D00BC"/>
</radialGradient>
<radialGradient id="paint7_radial_5815_59454" cx="0" cy="0" r="1" gradientUnits="userSpaceOnUse" gradientTransform="translate(38.0799 6.29348) rotate(-52.676) scale(40.5978 40.5065)">
<stop/>
<stop offset="0.09" stop-color="#060406"/>
<stop offset="0.22" stop-color="#181118"/>
<stop offset="0.36" stop-color="#362536"/>
<stop offset="0.53" stop-color="#5F415F"/>
<stop offset="0.7" stop-color="#936693"/>
<stop offset="0.88" stop-color="#D291D2"/>
<stop offset="1" stop-color="#FFB0FF"/>
</radialGradient>
<radialGradient id="paint8_radial_5815_59454" cx="0" cy="0" r="1" gradientUnits="userSpaceOnUse" gradientTransform="translate(-14.2529 52.2674) rotate(-52.676) scale(68.4559 68.3018)">
<stop/>
<stop offset="0.21" stop-color="#030203"/>
<stop offset="0.34" stop-color="#0B0A0B"/>
<stop offset="0.45" stop-color="#1A171A"/>
<stop offset="0.56" stop-color="#30292F"/>
<stop offset="0.65" stop-color="#4B404A"/>
<stop offset="0.74" stop-color="#6D5D6C"/>
<stop offset="0.83" stop-color="#957F93"/>
<stop offset="0.91" stop-color="#C3A6C1"/>
<stop offset="0.99" stop-color="#F7D2F4"/>
<stop offset="1" stop-color="#FFD9FC"/>
</radialGradient>
<radialGradient id="paint9_radial_5815_59454" cx="0" cy="0" r="1" gradientUnits="userSpaceOnUse" gradientTransform="translate(48.3309 39.8443) rotate(-52.676) scale(66.6859 66.5359)">
<stop/>
<stop offset="0.21" stop-color="#030203"/>
<stop offset="0.34" stop-color="#0B070B"/>
<stop offset="0.45" stop-color="#1A0F1A"/>
<stop offset="0.56" stop-color="#301B2E"/>
<stop offset="0.65" stop-color="#4B2B48"/>
<stop offset="0.74" stop-color="#6D3E69"/>
<stop offset="0.83" stop-color="#955590"/>
<stop offset="0.91" stop-color="#C36FBD"/>
<stop offset="0.99" stop-color="#F78CEE"/>
<stop offset="1" stop-color="#FF91F6"/>
</radialGradient>
<radialGradient id="paint10_radial_5815_59454" cx="0" cy="0" r="1" gradientUnits="userSpaceOnUse" gradientTransform="translate(14.981 -26.3652) rotate(-52.676) scale(73.7103 73.5445)">
<stop/>
<stop offset="0.21" stop-color="#030203"/>
<stop offset="0.34" stop-color="#0B070B"/>
<stop offset="0.45" stop-color="#1A0F1A"/>
<stop offset="0.56" stop-color="#301B2E"/>
<stop offset="0.65" stop-color="#4B2B48"/>
<stop offset="0.74" stop-color="#6D3E69"/>
<stop offset="0.83" stop-color="#955590"/>
<stop offset="0.91" stop-color="#C36FBD"/>
<stop offset="0.99" stop-color="#F78CEE"/>
<stop offset="1" stop-color="#FF91F6"/>
</radialGradient>
<radialGradient id="paint11_radial_5815_59454" cx="0" cy="0" r="1" gradientUnits="userSpaceOnUse" gradientTransform="translate(19.1608 108.533) rotate(-52.676) scale(116.428 116.166)">
<stop/>
<stop offset="0.21" stop-color="#030103"/>
<stop offset="0.34" stop-color="#0B020B"/>
<stop offset="0.45" stop-color="#1A0519"/>
<stop offset="0.56" stop-color="#300A2E"/>
<stop offset="0.65" stop-color="#4B0F48"/>
<stop offset="0.74" stop-color="#6D1669"/>
<stop offset="0.83" stop-color="#951E8F"/>
<stop offset="0.91" stop-color="#C327BC"/>
<stop offset="0.99" stop-color="#F731ED"/>
<stop offset="1" stop-color="#FF33F5"/>
</radialGradient>
<radialGradient id="paint12_radial_5815_59454" cx="0" cy="0" r="1" gradientUnits="userSpaceOnUse" gradientTransform="translate(30.1194 66.7635) rotate(-52.676) scale(62.298 62.1578)">
<stop stop-color="#FF5CFF"/>
<stop offset="1"/>
</radialGradient>
<radialGradient id="paint13_radial_5815_59454" cx="0" cy="0" r="1" gradientUnits="userSpaceOnUse" gradientTransform="translate(19.0229 44.0908) rotate(-52.676) scale(80.8085 80.6267)">
<stop stop-color="#FF5CFF"/>
<stop offset="1"/>
</radialGradient>
<radialGradient id="paint14_radial_5815_59454" cx="0" cy="0" r="1" gradientUnits="userSpaceOnUse" gradientTransform="translate(44.2198 39.654) rotate(-52.676) scale(45.078 44.9766)">
<stop stop-color="#FF5CFF"/>
<stop offset="1"/>
</radialGradient>
<radialGradient id="paint15_radial_5815_59454" cx="0" cy="0" r="1" gradientUnits="userSpaceOnUse" gradientTransform="translate(32.0161 45.4656) rotate(-52.676) scale(26.0143 25.9558)">
<stop stop-color="#FFBAFF"/>
<stop offset="1"/>
</radialGradient>
<radialGradient id="paint16_radial_5815_59454" cx="0" cy="0" r="1" gradientUnits="userSpaceOnUse" gradientTransform="translate(24.5842 96.7171) rotate(-52.676) scale(105.772 105.534)">
<stop/>
<stop offset="0.21" stop-color="#030203"/>
<stop offset="0.34" stop-color="#0B070B"/>
<stop offset="0.45" stop-color="#1A0F1A"/>
<stop offset="0.56" stop-color="#301B2E"/>
<stop offset="0.65" stop-color="#4B2B48"/>
<stop offset="0.74" stop-color="#6D3E69"/>
<stop offset="0.83" stop-color="#955590"/>
<stop offset="0.91" stop-color="#C36FBD"/>
<stop offset="0.99" stop-color="#F78CEE"/>
<stop offset="1" stop-color="#FF91F6"/>
</radialGradient>
<radialGradient id="paint17_radial_5815_59454" cx="0" cy="0" r="1" gradientUnits="userSpaceOnUse" gradientTransform="translate(59.6685 101.975) rotate(-52.676) scale(39.8972 39.8075)">
<stop/>
<stop offset="0.29" stop-color="#020102"/>
<stop offset="0.43" stop-color="#0A050A"/>
<stop offset="0.54" stop-color="#170B17"/>
<stop offset="0.62" stop-color="#291529"/>
<stop offset="0.7" stop-color="#412141"/>
<stop offset="0.77" stop-color="#5E305E"/>
<stop offset="0.84" stop-color="#814281"/>
<stop offset="0.9" stop-color="#AA57AA"/>
<stop offset="0.96" stop-color="#D66DD6"/>
<stop offset="1" stop-color="#FF82FF"/>
</radialGradient>
<radialGradient id="paint18_radial_5815_59454" cx="0" cy="0" r="1" gradientUnits="userSpaceOnUse" gradientTransform="translate(65.9354 101.189) rotate(-52.676) scale(32.4672 32.3942)">
<stop/>
<stop offset="0.21" stop-color="#030203"/>
<stop offset="0.34" stop-color="#0B070B"/>
<stop offset="0.45" stop-color="#1A0F1A"/>
<stop offset="0.56" stop-color="#301B2E"/>
<stop offset="0.65" stop-color="#4B2B48"/>
<stop offset="0.74" stop-color="#6D3E69"/>
<stop offset="0.83" stop-color="#955590"/>
<stop offset="0.91" stop-color="#C36FBD"/>
<stop offset="0.99" stop-color="#F78CEE"/>
<stop offset="1" stop-color="#FF91F6"/>
</radialGradient>
<radialGradient id="paint19_radial_5815_59454" cx="0" cy="0" r="1" gradientUnits="userSpaceOnUse" gradientTransform="translate(67.5442 101.233) rotate(-52.676) scale(29.5173 29.4509)">
<stop stop-color="#FFBAFF"/>
<stop offset="1"/>
</radialGradient>
<radialGradient id="paint20_radial_5815_59454" cx="0" cy="0" r="1" gradientUnits="userSpaceOnUse" gradientTransform="translate(76.5664 102.78) rotate(-52.676) scale(1.34589 1.34286)">
<stop offset="0.38" stop-color="#FF33F5"/>
<stop offset="0.5" stop-color="#BF26B7"/>
<stop offset="0.63" stop-color="#7C1977"/>
<stop offset="0.76" stop-color="#460E44"/>
<stop offset="0.86" stop-color="#20061F"/>
<stop offset="0.95" stop-color="#090208"/>
<stop offset="1"/>
</radialGradient>
<radialGradient id="paint21_radial_5815_59454" cx="0" cy="0" r="1" gradientUnits="userSpaceOnUse" gradientTransform="translate(58.2937 62.4871) rotate(-52.676) scale(1.49338 1.49002)">
<stop offset="0.38" stop-color="#FF33F5"/>
<stop offset="0.5" stop-color="#BF26B7"/>
<stop offset="0.63" stop-color="#7C1977"/>
<stop offset="0.76" stop-color="#460E44"/>
<stop offset="0.86" stop-color="#20061F"/>
<stop offset="0.95" stop-color="#090208"/>
<stop offset="1"/>
</radialGradient>
<radialGradient id="paint22_radial_5815_59454" cx="0" cy="0" r="1" gradientUnits="userSpaceOnUse" gradientTransform="translate(60.4947 92.4273) rotate(-52.676) scale(2.96833 2.96165)">
<stop offset="0.38" stop-color="#FF33F5"/>
<stop offset="0.5" stop-color="#BF26B7"/>
<stop offset="0.63" stop-color="#7C1977"/>
<stop offset="0.76" stop-color="#460E44"/>
<stop offset="0.86" stop-color="#20061F"/>
<stop offset="0.95" stop-color="#090208"/>
<stop offset="1"/>
</radialGradient>
<radialGradient id="paint23_radial_5815_59454" cx="0" cy="0" r="1" gradientUnits="userSpaceOnUse" gradientTransform="translate(78.5059 73.4467) rotate(-52.676) scale(2.3046 2.29942)">
<stop offset="0.38" stop-color="#FF33F5"/>
<stop offset="0.5" stop-color="#BF26B7"/>
<stop offset="0.63" stop-color="#7C1977"/>
<stop offset="0.76" stop-color="#460E44"/>
<stop offset="0.86" stop-color="#20061F"/>
<stop offset="0.95" stop-color="#090208"/>
<stop offset="1"/>
</radialGradient>
<radialGradient id="paint24_radial_5815_59454" cx="0" cy="0" r="1" gradientUnits="userSpaceOnUse" gradientTransform="translate(52.3206 77.2688) rotate(37.324) scale(1.72916 1.73306)">
<stop offset="0.38" stop-color="#FF33F5"/>
<stop offset="0.5" stop-color="#BF26B7"/>
<stop offset="0.63" stop-color="#7C1977"/>
<stop offset="0.76" stop-color="#460E44"/>
<stop offset="0.86" stop-color="#20061F"/>
<stop offset="0.95" stop-color="#090208"/>
<stop offset="1"/>
</radialGradient>
<radialGradient id="paint25_radial_5815_59454" cx="0" cy="0" r="1" gradientUnits="userSpaceOnUse" gradientTransform="translate(75.1715 60.193) rotate(37.324) scale(1.72916 1.73306)">
<stop offset="0.38" stop-color="#FF33F5"/>
<stop offset="0.5" stop-color="#BF26B7"/>
<stop offset="0.63" stop-color="#7C1977"/>
<stop offset="0.76" stop-color="#460E44"/>
<stop offset="0.86" stop-color="#20061F"/>
<stop offset="0.95" stop-color="#090208"/>
<stop offset="1"/>
</radialGradient>
<radialGradient id="paint26_radial_5815_59454" cx="0" cy="0" r="1" gradientUnits="userSpaceOnUse" gradientTransform="translate(68.1765 101.345) rotate(-52.676) scale(5.6601 5.64736)">
<stop stop-color="#FF5CFF"/>
<stop offset="0.09" stop-color="#D44DD4"/>
<stop offset="0.23" stop-color="#9D399D"/>
<stop offset="0.37" stop-color="#6D276D"/>
<stop offset="0.5" stop-color="#461946"/>
<stop offset="0.63" stop-color="#270E27"/>
<stop offset="0.76" stop-color="#110611"/>
<stop offset="0.89" stop-color="#040204"/>
<stop offset="1"/>
</radialGradient>
<radialGradient id="paint27_radial_5815_59454" cx="0" cy="0" r="1" gradientUnits="userSpaceOnUse" gradientTransform="translate(68.1764 101.345) rotate(-52.676) scale(3.77954 3.77104)">
<stop stop-color="white"/>
<stop offset="0.09" stop-color="#D4D4D4"/>
<stop offset="0.23" stop-color="#9D9D9D"/>
<stop offset="0.37" stop-color="#6D6D6D"/>
<stop offset="0.5" stop-color="#464646"/>
<stop offset="0.63" stop-color="#272727"/>
<stop offset="0.76" stop-color="#111111"/>
<stop offset="0.89" stop-color="#040404"/>
<stop offset="1"/>
</radialGradient>
<radialGradient id="paint28_radial_5815_59454" cx="0" cy="0" r="1" gradientUnits="userSpaceOnUse" gradientTransform="translate(53.3295 33.5007) rotate(-52.676) scale(6.63725 6.62232)">
<stop stop-color="#FF33F5"/>
<stop offset="0.09" stop-color="#D42ACC"/>
<stop offset="0.23" stop-color="#9D1F97"/>
<stop offset="0.37" stop-color="#6D1668"/>
<stop offset="0.5" stop-color="#460E43"/>
<stop offset="0.63" stop-color="#270826"/>
<stop offset="0.76" stop-color="#110311"/>
<stop offset="0.89" stop-color="#040104"/>
<stop offset="1"/>
</radialGradient>
<radialGradient id="paint29_radial_5815_59454" cx="0" cy="0" r="1" gradientUnits="userSpaceOnUse" gradientTransform="translate(53.3296 33.5007) rotate(-52.676) scale(4.42483 4.41488)">
<stop stop-color="white"/>
<stop offset="0.09" stop-color="#D4D4D4"/>
<stop offset="0.23" stop-color="#9D9D9D"/>
<stop offset="0.37" stop-color="#6D6D6D"/>
<stop offset="0.5" stop-color="#464646"/>
<stop offset="0.63" stop-color="#272727"/>
<stop offset="0.76" stop-color="#111111"/>
<stop offset="0.89" stop-color="#040404"/>
<stop offset="1"/>
</radialGradient>
</defs>
</svg>
