<svg width="1440" height="988" viewBox="0 0 1440 988" fill="none" xmlns="http://www.w3.org/2000/svg">
<path opacity="0.5" d="M1440 532.5L4.31538e-05 532.5M1440 608.5L3.98159e-05 608.5M1440 683.5L3.6478e-05 683.5M1440 1.50003L6.62804e-05 1.49994M1440 759.5L3.31402e-05 759.5M1440 77.5L6.29425e-05 77.4999M1440 835.5L2.98023e-05 835.5M1440 153.5L5.96046e-05 153.5M1440 911.5L2.64645e-05 911.5M1440 229.5L5.62668e-05 229.5M1440 987.5L2.3365e-05 987.5M1440 305.5L5.31673e-05 305.5M1440 380.5L4.98295e-05 380.5M1440 456.5L4.64916e-05 456.5M0.500189 0L0.500141 987.5M758.5 0L758.5 987.5M76.5002 0L76.5001 987.5M834.5 0L834.5 987.5M152.5 0L152.5 987.5M909.5 0L909.5 987.5M227.5 0L227.5 987.5M985.5 0L985.5 987.5M303.5 0L303.5 987.5M1061.5 0V987.5M379.5 0L379.5 987.5M1137.5 0V987.5M455.5 0L455.5 987.5M1213.5 0V987.5M531.5 0L531.5 987.5M1288.5 0V987.5M606.5 0L606.5 987.5M1364.5 0V987.5M682.5 0L682.5 987.5M1440.5 0V987.5" stroke="url(#paint0_radial_5814_58947)"/>
<defs>
<radialGradient id="paint0_radial_5814_58947" cx="0" cy="0" r="1" gradientUnits="userSpaceOnUse" gradientTransform="translate(720 2.39901e-05) rotate(89.9855) scale(987.5 1830.74)">
<stop stop-color="#3B3D47"/>
<stop offset="1" stop-opacity="0"/>
</radialGradient>
</defs>
</svg>
