<svg width="180" height="50" viewBox="0 0 180 50" fill="none" xmlns="http://www.w3.org/2000/svg">
<path d="M11.9715 41.3309C12.6505 41.6521 13.3652 41.8128 14.1157 41.8128C15.3665 41.8128 16.6173 41.2416 17.8681 40.0994C19.1189 38.9571 20.316 37.4936 21.4596 35.7088C22.6032 33.8883 23.6574 31.9607 24.6223 29.926C25.6229 27.8913 26.4985 25.9816 27.249 24.1968C27.7135 23.1259 28.2139 21.8766 28.7499 20.4487C29.286 19.0209 29.7863 17.7002 30.2509 16.4865C30.4295 16.0225 30.6261 15.8618 30.8405 16.0046C31.0907 16.1474 31.18 16.4687 31.1085 16.9684C30.9299 18.2891 30.7512 19.7348 30.5725 21.3055C30.3938 22.8761 30.2151 24.4645 30.0364 26.0709C29.8935 27.6415 29.7684 29.105 29.6612 30.4615C29.554 31.7822 29.5004 32.8709 29.5004 33.7276C29.5004 36.0122 30.1615 37.8327 31.4838 39.1891C32.8418 40.5099 34.7716 41.1702 37.2731 41.1702C38.4882 41.1702 39.7926 40.5456 41.1863 39.2962C42.58 38.0468 44.0274 36.2977 45.5283 34.0489C47.0293 31.8001 48.5302 29.1586 50.0311 26.1244C51.5678 23.0545 53.0509 19.717 54.4804 16.1117C54.6333 15.7552 54.7579 15.1855 54.8167 14.8882C54.8424 14.7583 54.8711 14.6292 54.9063 14.5015C55.1984 13.4434 55.0435 12.3066 54.4828 11.3626C54.0638 10.657 53.4333 10.0298 52.6121 10.0195C51.4138 10.0044 49.7995 10.5928 48.5302 12.8455C47.601 14.666 46.654 16.5936 45.6891 18.6283C44.76 20.6272 43.8487 22.5727 42.9553 24.4645C42.0618 26.3564 41.2042 28.0698 40.3822 29.6048C39.596 31.1397 38.8813 32.3712 38.238 33.2993C37.6305 34.1917 37.1302 34.6379 36.7371 34.6379C36.5584 34.6379 36.4512 34.4594 36.4154 34.1024C36.3797 33.7098 36.3618 33.3171 36.3618 32.9245V32.6568C36.3618 32.157 36.4154 31.3003 36.5227 30.0866C36.6656 28.873 36.8264 27.4987 37.0051 25.9638C37.1838 24.3932 37.3625 22.8404 37.5412 21.3055C37.7198 19.7348 37.8628 18.3427 37.97 17.129C38.1129 15.8797 38.1844 14.9873 38.1844 14.4518C38.1844 13.0597 37.8985 11.8996 37.3267 10.9715C36.7549 10.0434 36.0223 9.34731 35.1289 8.88327C34.2712 8.41922 33.3957 8.18719 32.5023 8.18719C31.5016 8.18719 30.4117 8.54415 29.2324 9.25807C28.053 9.97199 27.0345 10.9893 26.1769 12.3101C25.1762 13.845 24.1756 15.5941 23.175 17.5574C22.2101 19.485 21.2809 21.4482 20.3875 23.4472C19.5298 25.4462 18.7258 27.3024 17.9753 29.0158C17.2606 30.6935 16.653 32.0499 16.1527 33.0851C15.6524 34.1203 15.295 34.6379 15.0806 34.6379C14.9377 34.6379 14.8305 34.5308 14.759 34.3166C14.6875 34.0668 14.6518 33.8169 14.6518 33.567C14.6518 33.3802 14.654 33.1883 14.6585 32.9913C14.725 30.0838 15.1135 26.765 12.2673 26.1518C9.63379 25.5843 8.31882 29.972 8.51965 32.6556C8.59959 33.7238 8.71385 34.6701 8.86242 35.4946C9.18405 37.2437 9.61289 38.5644 10.1489 39.4568C10.685 40.3849 11.2925 41.0096 11.9715 41.3309Z" fill="url(#paint0_linear_6584_8315)"/>
<circle cx="11.6767" cy="19.717" r="3.67668" fill="url(#paint1_linear_6584_8315)"/>
<path d="M77.843 28.436L81.491 16.94H85.523L79.643 33.5H75.923L72.419 22.604L68.891 33.5H65.147L59.291 16.94H63.395L67.067 28.436L70.763 16.94H74.123L77.843 28.436ZM88.8903 19.7C88.2823 19.7 87.7703 19.5 87.3543 19.1C86.9383 18.684 86.7303 18.164 86.7303 17.54C86.7303 16.932 86.9383 16.428 87.3543 16.028C87.7703 15.612 88.2823 15.404 88.8903 15.404C89.5143 15.404 90.0343 15.612 90.4503 16.028C90.8663 16.428 91.0743 16.932 91.0743 17.54C91.0743 18.164 90.8663 18.684 90.4503 19.1C90.0343 19.5 89.5143 19.7 88.8903 19.7ZM90.6423 33.5H87.1383V21.26H90.6423V33.5ZM100.644 20.972C102.052 20.972 103.18 21.396 104.028 22.244C104.892 23.092 105.324 24.22 105.324 25.628V33.5H101.82V26.804C101.82 26.068 101.604 25.476 101.172 25.028C100.74 24.58 100.172 24.356 99.4676 24.356C98.7156 24.356 98.0996 24.588 97.6196 25.052C97.1556 25.5 96.9236 26.1 96.9236 26.852V33.5H93.4196V21.26H96.9236V22.604C97.8676 21.516 99.1076 20.972 100.644 20.972ZM122.61 27.692L127.098 16.94H131.85V33.5H128.13V23.3L123.858 33.5H121.314L117.066 23.348V33.5H113.346V16.94H118.146L122.61 27.692ZM145.394 31.964C144.162 33.18 142.594 33.788 140.69 33.788C138.802 33.788 137.226 33.18 135.962 31.964C134.714 30.748 134.09 29.22 134.09 27.38C134.09 25.572 134.714 24.052 135.962 22.82C137.242 21.588 138.818 20.972 140.69 20.972C142.562 20.972 144.13 21.588 145.394 22.82C146.658 24.036 147.29 25.556 147.29 27.38C147.29 29.22 146.658 30.748 145.394 31.964ZM138.53 29.54C139.106 30.116 139.826 30.404 140.69 30.404C141.57 30.404 142.282 30.116 142.826 29.54C143.402 28.964 143.69 28.244 143.69 27.38C143.69 26.516 143.402 25.796 142.826 25.22C142.266 24.644 141.554 24.356 140.69 24.356C139.826 24.356 139.106 24.644 138.53 25.22C137.97 25.812 137.69 26.532 137.69 27.38C137.69 28.228 137.97 28.948 138.53 29.54ZM152.869 21.26V22.892C153.797 21.676 154.933 21.068 156.277 21.068V24.668C155.189 24.668 154.349 24.948 153.757 25.508C153.165 26.052 152.869 26.812 152.869 27.788V33.5H149.365V21.26H152.869ZM170.259 27.428C170.259 27.908 170.227 28.268 170.163 28.508H160.803C160.995 29.196 161.347 29.74 161.859 30.14C162.387 30.54 163.011 30.74 163.731 30.74C164.291 30.74 164.803 30.628 165.267 30.404C165.747 30.164 166.091 29.868 166.299 29.516H170.019C169.555 30.796 168.755 31.828 167.619 32.612C166.499 33.396 165.179 33.788 163.659 33.788C161.771 33.788 160.195 33.18 158.931 31.964C157.683 30.748 157.059 29.22 157.059 27.38C157.059 25.572 157.683 24.052 158.931 22.82C160.211 21.588 161.787 20.972 163.659 20.972C165.515 20.972 167.083 21.588 168.363 22.82C169.627 24.036 170.259 25.572 170.259 27.428ZM163.659 23.996C162.971 23.996 162.379 24.196 161.883 24.596C161.387 24.98 161.035 25.508 160.827 26.18H166.491C166.315 25.508 165.963 24.98 165.435 24.596C164.923 24.196 164.331 23.996 163.659 23.996Z" fill="white"/>
<defs>
<linearGradient id="paint0_linear_6584_8315" x1="8.49963" y1="8.18719" x2="58.4326" y2="14.3316" gradientUnits="userSpaceOnUse">
<stop stop-color="#32CD32"/>
<stop offset="1" stop-color="#2ECC71"/>
</linearGradient>
<linearGradient id="paint1_linear_6584_8315" x1="8" y1="16.0403" x2="15.9442" y2="16.7465" gradientUnits="userSpaceOnUse">
<stop stop-color="#32CD32"/>
<stop offset="1" stop-color="#2ECC71"/>
</linearGradient>
</defs>
</svg>
