<svg width="49" height="35" viewBox="0 0 49 35" fill="none" xmlns="http://www.w3.org/2000/svg">
<path d="M4.946 33.748C5.625 34.0692 6.33974 34.2299 7.09021 34.2299C8.34099 34.2299 9.59178 33.6587 10.8426 32.5165C12.0933 31.3742 13.2905 29.9107 14.4341 28.1259C15.5777 26.3054 16.6319 24.3778 17.5968 22.3431C18.5974 20.3085 19.473 18.3987 20.2235 16.6139C20.688 15.5431 21.1883 14.2937 21.7244 12.8659C22.2605 11.438 22.7608 10.1173 23.2253 8.90361C23.404 8.43957 23.6006 8.27894 23.815 8.42172C24.0652 8.5645 24.1545 8.88577 24.083 9.38551C23.9043 10.7063 23.7257 12.1519 23.547 13.7226C23.3683 15.2932 23.1896 16.8817 23.0109 18.488C22.868 20.0586 22.7429 21.5221 22.6357 22.8786C22.5285 24.1993 22.4749 25.288 22.4749 26.1447C22.4749 28.4293 23.136 30.2498 24.4583 31.6062C25.8163 32.927 27.746 33.5874 30.2476 33.5874C31.4627 33.5874 32.7671 32.9627 34.1608 31.7133C35.5545 30.464 37.0019 28.7149 38.5028 26.466C40.0037 24.2172 41.5047 21.5757 43.0056 18.5415C44.5423 15.4717 46.0254 12.1341 47.4549 8.52881C47.6078 8.17234 47.7323 7.60264 47.7912 7.30527C47.8169 7.17539 47.8455 7.04627 47.8808 6.91864C48.1729 5.86053 48.018 4.72373 47.4573 3.77973C47.0382 3.07416 46.4078 2.44694 45.5866 2.43661C44.3883 2.42154 42.774 3.00996 41.5047 5.26263C40.5755 7.08312 39.6285 9.0107 38.6636 11.0454C37.7345 13.0443 36.8232 14.9898 35.9298 16.8817C35.0363 18.7735 34.1787 20.4869 33.3567 22.0219C32.5705 23.5568 31.8558 24.7883 31.2125 25.7164C30.605 26.6088 30.1047 27.055 29.7116 27.055C29.5329 27.055 29.4257 26.8765 29.3899 26.5196C29.3542 26.1269 29.3363 25.7342 29.3363 25.3416V25.0739C29.3363 24.5741 29.3899 23.7174 29.4971 22.5038C29.6401 21.2901 29.8009 19.9158 29.9796 18.3809C30.1583 16.8103 30.337 15.2575 30.5156 13.7226C30.6943 12.1519 30.8373 10.7598 30.9445 9.54614C31.0874 8.29678 31.1589 7.40439 31.1589 6.86895C31.1589 5.47681 30.873 4.31669 30.3012 3.38859C29.7294 2.4605 28.9968 1.76443 28.1034 1.30038C27.2457 0.836332 26.3702 0.604309 25.4768 0.604309C24.4761 0.604309 23.3862 0.961269 22.2068 1.67519C21.0275 2.38911 20.009 3.40644 19.1514 4.72719C18.1507 6.26212 17.1501 8.01122 16.1495 9.97449C15.1846 11.9021 14.2554 13.8653 13.362 15.8643C12.5043 17.8633 11.7002 19.7195 10.9498 21.4329C10.235 23.1106 9.62752 24.467 9.1272 25.5022C8.62689 26.5374 8.26952 27.055 8.0551 27.055C7.91215 27.055 7.80494 26.9479 7.73347 26.7337C7.662 26.4839 7.62626 26.234 7.62626 25.9841C7.62626 25.7974 7.62851 25.6055 7.63301 25.4084C7.69944 22.5009 8.08798 19.1821 5.24181 18.5689C2.60827 18.0014 1.29331 22.3891 1.49413 25.0727C1.57408 26.1409 1.68833 27.0872 1.83691 27.9117C2.15854 29.6608 2.58738 30.9816 3.12343 31.8739C3.65948 32.802 4.26701 33.4267 4.946 33.748Z" fill="url(#paint0_linear_6828_11380)"/>
<circle cx="4.65129" cy="12.1341" r="3.67668" fill="url(#paint1_linear_6828_11380)"/>
<defs>
<linearGradient id="paint0_linear_6828_11380" x1="1.47412" y1="0.604309" x2="51.4071" y2="6.74872" gradientUnits="userSpaceOnUse">
<stop stop-color="#32CD32"/>
<stop offset="1" stop-color="#2ECC71"/>
</linearGradient>
<linearGradient id="paint1_linear_6828_11380" x1="0.974609" y1="8.45743" x2="8.91881" y2="9.16355" gradientUnits="userSpaceOnUse">
<stop stop-color="#32CD32"/>
<stop offset="1" stop-color="#2ECC71"/>
</linearGradient>
</defs>
</svg>
