<svg width="25" height="24" viewBox="0 0 25 24" fill="none" xmlns="http://www.w3.org/2000/svg">
<path d="M21.0549 9.49893V6.49768C21.0549 5.1164 19.9351 3.99664 18.5538 3.99664H5.5484C4.16712 3.99664 3.04736 5.1164 3.04736 6.49768V9.99914" stroke="white" stroke-width="1.5" stroke-linecap="round" stroke-linejoin="round"/>
<path d="M21.0549 14.501V17.5023C21.0549 18.8836 19.9352 20.0033 18.5539 20.0033H11.0508" stroke="white" stroke-width="1.5" stroke-linecap="round" stroke-linejoin="round"/>
<path d="M3.04733 20.0034V14.0009" stroke="white" stroke-width="1.5" stroke-linecap="round" stroke-linejoin="round"/>
<path d="M5.10861 13.0004V14.0008" stroke="white" stroke-width="1.5" stroke-linecap="round" stroke-linejoin="round"/>
<path d="M5.10861 20.0034V21.0038" stroke="white" stroke-width="1.5" stroke-linecap="round" stroke-linejoin="round"/>
<path fill-rule="evenodd" clip-rule="evenodd" d="M3.04736 17.0021H6.54882C7.37759 17.0021 8.04945 17.6739 8.04945 18.5027V18.5027C8.04945 19.3315 7.37759 20.0033 6.54882 20.0033H3.04736V17.0021Z" stroke="white" stroke-width="1.5" stroke-linecap="round" stroke-linejoin="round"/>
<path fill-rule="evenodd" clip-rule="evenodd" d="M3.04736 14.0009H6.19868C7.02745 14.0009 7.6993 14.6727 7.6993 15.5015V15.5015C7.6993 16.3303 7.02745 17.0021 6.19868 17.0021H3.04736V14.0009Z" stroke="white" stroke-width="1.5" stroke-linecap="round" stroke-linejoin="round"/>
<path fill-rule="evenodd" clip-rule="evenodd" d="M18.5538 9.49896H21.0548C21.6073 9.49896 22.0552 9.94686 22.0552 10.4994V13.5006C22.0552 14.0531 21.6073 14.501 21.0548 14.501H18.5538C17.1725 14.501 16.0527 13.3813 16.0527 12V12C16.0527 10.6187 17.1725 9.49896 18.5538 9.49896V9.49896Z" stroke="white" stroke-width="1.5" stroke-linecap="round" stroke-linejoin="round"/>
<path d="M8.04956 8.99874H13.0516" stroke="white" stroke-width="1.5" stroke-linecap="round" stroke-linejoin="round"/>
</svg>
