<svg width="63" height="66" viewBox="0 0 63 66" fill="none" xmlns="http://www.w3.org/2000/svg">
<path d="M5.9105 54.0528C6.7455 53.2218 7.55451 50.1178 8.49351 49.2198C10.4105 47.3868 9.72149 50.1058 9.88249 51.4858C10.1115 53.4358 9.75249 54.8458 10.8265 56.2198C11.1445 56.6268 12.3265 55.7198 13.7435 57.3028C15.9025 59.7158 17.7435 61.3858 25.6355 62.0408C24.1625 58.9838 23.2935 55.7278 23.2405 52.2618C23.1855 48.7458 24.5775 45.8868 26.8885 43.7358C35.4725 35.7438 46.0375 30.0828 55.7755 23.5368C54.6295 19.8018 53.5125 16.9418 52.5785 16.0098C47.2615 10.7038 40.4835 6.37179 34.1575 2.40979C23.4945 4.76079 13.2795 11.2588 8.61949 15.2608C6.56749 17.0238 1.61949 23.2608 1.61949 23.2608C1.61949 23.2608 0.00350405 40.8888 0.117504 47.3688C0.138504 48.5588 0.055508 50.4118 0.096508 51.8098C1.97851 52.6388 5.5655 54.3958 5.9105 54.0528Z" fill="#878286"/>
<path d="M48.4102 10.9688C44.6102 8.13176 38.1752 2.47076 33.7432 0.801758C33.5012 0.836758 33.2461 0.884758 32.9811 0.940758C32.9771 1.13076 32.8722 1.31076 32.6262 1.36676C30.7422 1.76176 28.8142 2.35076 26.9182 3.10576C25.0372 3.95276 23.0501 4.96276 21.1031 6.03576C20.0121 6.71176 18.9602 7.43676 17.9762 8.21676C18.0232 8.37376 17.9992 8.54676 17.8462 8.67576C17.3682 9.07976 16.8912 9.43975 16.3802 9.73775C15.9902 10.0438 15.6072 10.3588 15.2212 10.6758C14.8782 10.9568 14.4541 10.7268 14.3821 10.4028C14.2941 10.3668 14.2242 10.3038 14.1662 10.2308C12.1412 11.5828 10.5021 12.8178 9.57614 13.7178C7.31014 15.9208 3.65916 18.6348 1.61816 23.2598C6.16716 32.1048 15.6152 44.1008 23.3582 50.3518C27.9292 47.1348 47.3152 31.5278 55.7742 23.5348C54.5772 18.8858 53.3442 14.6528 48.4102 10.9688Z" fill="#999698"/>
<path d="M41.9567 9.60876C39.2077 6.53376 35.7087 3.00676 31.6177 1.61176C26.8617 2.77176 23.8267 8.85976 25.3697 10.8848C27.5717 13.7748 25.1617 15.4568 24.9647 17.3848C24.8167 18.8318 25.7528 20.8198 26.7098 21.5898C27.4258 22.1658 28.2408 22.5348 29.0758 22.9078C31.3568 23.9268 32.4418 24.7628 33.2618 27.2008C34.3798 30.5268 35.2527 33.9448 36.0467 37.3598C36.1267 37.7038 36.5777 37.8928 36.8767 37.6978C41.3087 34.8018 46.2727 31.4158 47.7277 26.0028C49.3687 19.8948 45.8817 14.0008 41.9567 9.60876Z" fill="#A5A0A4"/>
<path d="M31.3067 46.5718C31.0567 46.2508 30.1277 43.9388 29.3967 41.5398C28.5497 42.2588 27.7017 42.9778 26.8877 43.7358C24.5777 45.8868 23.1857 48.7458 23.2397 52.2618C23.2937 55.7278 24.1627 58.9838 25.6347 62.0408C17.7427 61.3858 15.9027 59.7158 13.7427 57.3028C12.3257 55.7198 11.1437 56.6258 10.8257 56.2198C9.75171 54.8458 10.1107 53.4358 9.88171 51.4858C9.71971 50.1058 10.4087 47.3868 8.49271 49.2198C7.55271 50.1188 6.7447 53.2228 5.9097 54.0528C5.5647 54.3958 1.9787 52.6388 0.0957031 51.8098C0.121703 52.6768 0.194704 53.3698 0.371704 53.6178C8.9377 65.6278 22.6167 66.8098 35.9327 63.5458C35.2207 61.3958 34.3067 57.9928 34.2427 54.4698C34.1767 50.7768 32.4047 47.9838 31.3067 46.5718Z" fill="#6D696D"/>
<path d="M52.5357 33.0528C49.9487 36.6758 49.6137 41.4888 49.1617 45.9258C48.8357 49.1238 48.7637 54.6708 49.0497 58.9798C54.0017 56.7748 58.6087 54.2088 62.5167 51.6728C61.7097 47.8048 58.6497 32.9078 55.7737 23.5358C55.0107 24.0488 54.2367 24.5488 53.4647 25.0518C53.6957 28.0138 53.6667 31.4688 52.5357 33.0528Z" fill="#6D696D"/>
<path d="M49.1615 45.9258C49.6135 41.4878 49.9485 36.6757 52.5355 33.0527C53.6665 31.4687 53.6955 28.0148 53.4655 25.0518C45.3205 30.3658 36.7835 35.2728 29.3965 41.5388C30.1275 43.9378 31.0565 46.2498 31.3065 46.5708C32.4045 47.9828 34.1765 50.7768 34.2445 54.4688C34.3085 57.9917 35.2225 61.3958 35.9345 63.5448C40.4185 62.4458 44.8585 60.8458 49.0505 58.9798C48.7635 54.6708 48.8355 49.1238 49.1615 45.9258Z" fill="#5B575B"/>
<path d="M49.4932 11.2608C44.8062 7.66577 39.2352 2.88377 33.8682 0.510773C31.4932 0.802773 25.1492 2.26377 23.6502 3.21177C18.0332 6.76577 11.8652 9.99577 7.88321 15.2888C11.7432 12.7608 15.6472 12.2708 18.6182 9.44877C21.1182 7.07377 27.5432 2.60077 31.3062 2.82377C33.5172 4.73277 36.8322 8.75077 39.2432 10.3868C40.7692 13.1988 44.0302 16.7478 44.1812 20.0118C44.3672 24.0468 44.6232 27.8388 41.6812 31.0118C38.2072 34.7588 31.1942 37.7288 27.6182 40.4498C24.5782 42.7628 21.8492 44.4258 19.1802 42.9498C15.3692 40.8418 11.8782 34.7948 11.1802 33.9498C12.4932 32.5748 14.3932 30.2348 16.2802 29.4978C13.4482 29.8398 11.4852 29.9358 9.24323 31.6378C7.01323 30.3218 7.55521 28.5128 3.36621 26.4148C3.39921 28.1698 9.29523 34.8218 14.6182 42.2628C16.7262 45.2098 20.1022 47.4108 20.9312 50.3548C22.1192 54.5748 23.7682 56.6428 23.9972 57.6548C25.3402 56.9508 25.9382 55.4838 25.9942 54.0128C26.0602 52.2738 27.2242 52.2958 27.9302 51.3248C28.6832 50.2888 28.4632 49.5308 28.6972 48.6368C28.8292 48.1348 29.7732 46.2698 30.3272 45.7208C33.4462 42.6278 41.3802 38.6068 43.1802 37.1198C47.6702 33.4098 53.6692 29.3248 55.7752 23.5378C56.5562 21.3858 53.5682 14.3868 49.4932 11.2608Z" fill="#BCB7BB"/>
</svg>
