<svg width="72" height="78" viewBox="0 0 72 78" fill="none" xmlns="http://www.w3.org/2000/svg">
<path d="M15.2074 67.753C15.3414 67.285 15.4744 66.817 15.6094 66.348C15.9174 65.274 16.2214 64.2 16.5284 63.122C16.4934 63.154 16.4594 63.191 16.4234 63.22C16.7464 61.977 17.0724 60.743 17.4104 59.517C18.3484 55.173 19.1714 50.791 19.9574 46.52C20.4044 44.094 21.3214 40.707 21.4924 38.21C19.8454 41.252 17.4954 44.33 15.0644 46.701C13.8204 47.914 12.0524 47.867 11.8474 46.762C11.4834 44.805 10.3404 45.365 9.2004 46.515C8.7184 47.148 7.8304 46.762 7.1654 47.407C6.7974 47.9 6.3574 49.116 6.0474 49.947C5.0774 52.552 4.4914 52.526 3.2974 53.902C3.2924 52.432 4.66941 49.784 5.03141 47.204C5.43741 44.308 6.8534 43.687 7.8164 43.2C10.1154 42.038 15.1874 39.259 16.2574 37.842C17.1184 36.702 19.3704 33.82 20.3244 30.793C21.0634 28.45 20.6374 25.733 20.6204 25.486C20.6604 24.233 22.3784 21.745 22.4924 20.496C22.8314 16.77 20.1454 15.901 20.6924 13.839C21.5044 10.782 21.1374 8.79301 20.2224 9.09801C18.4794 9.67901 16.0624 11.398 14.2584 13.406C13.5374 15.05 13.0524 16.639 12.9054 18.091C12.7844 19.293 12.7064 20.342 13.3114 21.139C13.6314 21.561 14.0224 22.867 12.5324 22.107C11.2204 21.438 10.2584 22.863 9.58641 24.584C6.88641 31.504 4.63141 38.597 2.87141 45.814C1.66541 50.76 -0.959592 57.674 1.49941 62.629C2.62541 64.898 5.87341 66.357 7.65541 68.525C9.57141 70.856 10.9124 73.666 13.2364 74.773C13.7164 73.007 14.2144 71.237 14.7194 69.461C14.8804 68.894 15.0444 68.322 15.2074 67.753Z" fill="#A5A0A4"/>
<path d="M15.6084 66.349C15.9164 65.274 16.2244 64.197 16.5314 63.119C16.5314 63.119 16.5284 63.122 16.5264 63.123C16.2204 64.2 15.9164 65.275 15.6084 66.349Z" fill="#878286"/>
<path d="M35.0623 4.934C31.7713 3.571 28.9803 6.688 28.2273 9.232C27.5603 11.485 28.0453 14.129 26.7633 16.108C24.1963 20.073 24.7833 24.885 24.1963 30.031C23.5263 35.899 23.3443 41.892 23.2063 43.191C22.9453 45.648 22.5343 47.932 21.8013 50.493C22.1393 50.238 22.4823 50.012 22.8303 49.829C30.6013 45.753 25.2033 36.003 30.5163 29.457C31.7993 27.876 33.5163 26.555 34.2353 24.593C34.9913 22.53 34.8333 19.984 34.9893 17.799C35.0793 16.539 32.2893 11.623 34.7153 9.154C37.6163 6.2 39.7663 11.217 43.2713 10.538C43.3843 10.516 43.5233 10.496 43.6483 10.475C42.4633 9.4 41.2003 8.298 39.6733 7.323C38.2403 6.408 36.6883 5.608 35.0623 4.934Z" fill="#A5A0A4"/>
<path d="M21.6333 42.513C21.6843 42.239 21.7283 41.964 21.7763 41.69C21.7273 41.965 21.6843 42.239 21.6333 42.513Z" fill="#BCB7BB"/>
<path d="M22.0952 39.846C22.1552 39.474 22.2052 39.101 22.2612 38.729C22.2062 39.101 22.1552 39.474 22.0952 39.846Z" fill="#BCB7BB"/>
<path d="M20.5405 47.818C20.5675 47.696 20.5935 47.574 20.6205 47.452C20.5935 47.573 20.5685 47.696 20.5405 47.818Z" fill="#BCB7BB"/>
<path d="M22.4932 37.167C22.5612 36.665 22.6162 36.162 22.6752 35.659C22.6152 36.162 22.5602 36.665 22.4932 37.167Z" fill="#BCB7BB"/>
<path d="M19.9253 50.451C19.9373 50.4 19.9493 50.349 19.9613 50.299C19.9493 50.349 19.9383 50.4 19.9253 50.451Z" fill="#BCB7BB"/>
<path d="M21.1123 45.169C21.1513 44.982 21.1853 44.796 21.2223 44.609C21.1853 44.795 21.1513 44.982 21.1123 45.169Z" fill="#BCB7BB"/>
<path d="M22.8174 34.478C22.9124 33.579 22.9944 32.68 23.0614 31.779C22.9944 32.679 22.9124 33.579 22.8174 34.478Z" fill="#BCB7BB"/>
<path d="M19.2745 53.071L19.2725 53.079V53.078L19.2745 53.071Z" fill="#BCB7BB"/>
<path d="M20.2214 9.099C21.1364 8.794 21.5034 10.783 20.6914 13.84C20.1434 15.902 22.8294 16.771 22.4914 20.497C22.3774 21.746 20.6594 24.234 20.6194 25.487C20.6364 25.734 21.0624 28.451 20.3234 30.794C19.3694 33.82 17.1174 36.702 16.2564 37.843C15.1864 39.26 10.1154 42.039 7.8154 43.201C6.8524 43.688 5.4374 44.309 5.0304 47.205C4.6684 49.786 3.2914 52.434 3.2964 53.903C4.4904 52.527 5.07641 52.553 6.04641 49.948C6.35641 49.117 6.7964 47.901 7.1644 47.408C7.8294 46.763 8.71741 47.15 9.19941 46.516C10.3394 45.366 11.4824 44.807 11.8464 46.763C12.0524 47.868 13.8204 47.916 15.0634 46.702C17.4944 44.331 19.8444 41.253 21.4914 38.211C21.3204 40.709 20.4034 44.095 19.9564 46.521C19.1694 50.792 18.3474 55.174 17.4094 59.518C17.0704 60.744 16.7454 61.978 16.4224 63.221C16.4574 63.192 16.4924 63.154 16.5274 63.123C17.4764 59.789 18.4144 56.442 19.2724 53.079C19.2734 53.076 19.2734 53.074 19.2744 53.071C19.4974 52.198 19.7144 51.325 19.9254 50.45C19.9374 50.399 19.9494 50.348 19.9614 50.298C20.1604 49.472 20.3544 48.645 20.5404 47.817C20.5674 47.695 20.5934 47.573 20.6204 47.451C20.7894 46.691 20.9554 45.93 21.1124 45.168C21.1504 44.981 21.1854 44.795 21.2224 44.608C21.3634 43.91 21.5034 43.211 21.6324 42.512C21.6834 42.238 21.7274 41.963 21.7754 41.689C21.8844 41.074 21.9954 40.46 22.0944 39.844C22.1544 39.472 22.2044 39.099 22.2604 38.727C22.3384 38.207 22.4214 37.687 22.4914 37.166C22.5594 36.664 22.6144 36.161 22.6734 35.658C22.7204 35.264 22.7734 34.871 22.8154 34.477C22.9104 33.578 22.9924 32.679 23.0594 31.778C23.6164 24.269 23.7414 16.715 24.0864 9.194C24.1264 8.314 24.1804 4.691 24.1944 0.0300007C24.1324 0.0210007 24.0724 0.008 24.0104 0C20.1754 3.764 16.2724 8.807 14.2564 13.407C16.0624 11.399 18.4794 9.68 20.2214 9.099Z" fill="#BCB7BB"/>
<path d="M19.2722 53.078C19.2722 53.079 19.2722 53.079 19.2722 53.078C18.4142 56.44 17.4803 59.787 16.5312 63.118C18.2752 61.549 19.5792 57.156 20.9832 53.078C21.2932 52.177 21.5632 51.321 21.8002 50.493C20.9092 51.168 20.0602 52.068 19.2722 53.078Z" fill="#BCB7BB"/>
<path d="M44.9905 10.284C44.5025 10.343 44.0555 10.407 43.6475 10.475C45.5555 12.207 47.2635 13.863 49.5185 14.817C48.0895 13.222 46.5765 11.706 44.9905 10.284Z" fill="#BCB7BB"/>
<path d="M16.5273 63.123C16.5273 63.123 16.5303 63.12 16.5323 63.119C17.4813 59.787 18.4153 56.44 19.2733 53.08C18.4143 56.442 17.4763 59.789 16.5273 63.123Z" fill="#BCB7BB"/>
<path d="M24.1964 0.0299988C24.1834 4.691 24.1294 8.314 24.0884 9.194C23.7434 16.715 23.6184 24.27 23.0614 31.778C22.9944 32.678 22.9124 33.578 22.8174 34.477C22.7754 34.871 22.7224 35.265 22.6754 35.658C22.6154 36.161 22.5604 36.664 22.4934 37.166C22.4234 37.687 22.3404 38.207 22.2624 38.727C22.2064 39.099 22.1564 39.472 22.0964 39.844C21.9974 40.459 21.8864 41.074 21.7774 41.689C21.7284 41.963 21.6844 42.238 21.6344 42.512C21.5054 43.211 21.3654 43.909 21.2244 44.608C21.1864 44.795 21.1524 44.981 21.1144 45.168C20.9574 45.93 20.7914 46.69 20.6224 47.451C20.5954 47.573 20.5704 47.695 20.5424 47.817C20.3564 48.645 20.1624 49.471 19.9634 50.298C19.9514 50.349 19.9394 50.4 19.9274 50.45C19.7164 51.324 19.4994 52.198 19.2764 53.071C19.2754 53.073 19.2754 53.076 19.2744 53.078C20.0614 52.068 20.9114 51.168 21.8024 50.493C22.5354 47.932 22.9464 45.648 23.2074 43.191C23.3454 41.892 23.5274 35.899 24.1974 30.031C24.7844 24.885 24.1974 20.073 26.7644 16.108C28.0464 14.129 27.5614 11.485 28.2284 9.232C28.9814 6.688 31.7724 3.571 35.0634 4.934C36.6894 5.607 38.2404 6.408 39.6724 7.323C41.1994 8.298 42.4634 9.4 43.6474 10.475C44.0554 10.407 44.5024 10.343 44.9904 10.284C39.1254 5.027 32.1954 1.133 24.1964 0.0299988Z" fill="#BCB7BB"/>
<path d="M21.7764 41.69C21.8854 41.075 21.9964 40.461 22.0954 39.845C21.9964 40.461 21.8864 41.076 21.7764 41.69Z" fill="#BCB7BB"/>
<path d="M21.2236 44.609C21.3646 43.911 21.5046 43.212 21.6336 42.513C21.5036 43.212 21.3646 43.911 21.2236 44.609Z" fill="#BCB7BB"/>
<path d="M22.2622 38.729C22.3402 38.209 22.4232 37.689 22.4932 37.168C22.4222 37.688 22.3402 38.208 22.2622 38.729Z" fill="#BCB7BB"/>
<path d="M58.5665 62.023C59.1555 60.828 62.8905 57.082 63.0015 56.197C63.4945 52.257 66.3615 50.813 64.2205 47.458C59.9525 40.768 61.0725 37.694 58.5665 35.068C53.2755 29.525 55.1215 25.753 56.0115 23.186C54.6095 21.123 53.1295 19.114 51.5535 17.182C50.9035 16.385 50.2295 15.608 49.5435 14.842C49.4905 15.289 49.4375 15.824 49.3855 16.466C49.0805 20.236 50.3435 24.299 51.3605 27.937C51.5555 28.635 51.7605 29.376 51.9235 30.123C52.8605 32.652 53.4465 35.131 55.3635 37.236C57.0805 39.121 57.6215 40.383 57.5915 42.962C57.5755 44.333 57.5365 45.656 57.8495 47C58.0905 48.034 58.5115 49.028 58.5635 50.102C58.6345 51.582 57.8485 52.572 56.6825 53.401C53.2445 55.845 48.7575 56.289 45.1945 58.587C41.8625 60.735 39.2145 63.721 36.1945 66.258C34.2235 69.439 33.1155 72.737 32.2905 76.956C32.5685 76.913 32.8465 76.869 33.1285 76.806C41.1345 75.006 47.7085 76.095 55.3135 74.317C56.4705 72.551 57.3445 70.75 58.2275 68.609C59.3475 65.888 57.2205 64.756 58.5665 62.023Z" fill="#6D696D"/>
<path d="M62.1206 69.475C66.1846 69.068 68.9986 67.447 69.9016 65.707C72.8676 59.988 69.2076 51.265 67.0886 45.26C64.3456 37.488 60.6506 30.011 56.0116 23.187C55.1216 25.754 53.2756 29.526 58.5666 35.069C61.0726 37.695 59.9526 40.769 64.2206 47.459C66.3606 50.814 63.4936 52.258 63.0016 56.198C62.8906 57.082 59.1556 60.829 58.5666 62.024C57.2196 64.757 59.3476 65.889 58.2256 68.609C57.3426 70.75 56.4686 72.551 55.3116 74.317C55.4586 74.282 55.6046 74.254 55.7526 74.218C58.4716 73.544 59.2046 69.766 62.1206 69.475Z" fill="#5B575B"/>
<path d="M34.7094 63.221C35.9584 58.708 40.3884 52.614 43.6474 50.493C47.7594 47.817 48.5654 44.325 48.8234 40.768C49.0734 37.332 50.7704 34.625 52.4594 31.643C52.2854 31.14 52.1104 30.633 51.9214 30.122C51.7594 29.375 51.5534 28.635 51.3584 27.936C50.3424 24.298 49.0794 20.234 49.3834 16.465C49.4354 15.823 49.4874 15.288 49.5414 14.841C49.5334 14.832 49.5254 14.824 49.5174 14.816C47.2614 13.862 45.5544 12.206 43.6464 10.474C43.5204 10.495 43.3824 10.515 43.2694 10.537C39.7654 11.216 37.6154 6.19901 34.7134 9.15301C32.2884 11.622 35.0774 16.538 34.9874 17.798C34.8314 19.983 34.9894 22.529 34.2334 24.592C33.5144 26.555 31.7974 27.875 30.5144 29.456C25.2024 36.003 30.6004 45.752 22.8284 49.828C22.4794 50.011 22.1364 50.237 21.7994 50.492C21.5624 51.32 21.2934 52.176 20.9824 53.077C19.5784 57.155 18.2744 61.548 16.5304 63.117C16.2234 64.195 15.9154 65.272 15.6074 66.347C15.4734 66.815 15.3394 67.284 15.2054 67.752C15.0424 68.322 14.8794 68.892 14.7174 69.46C14.2124 71.236 13.7144 73.007 13.2344 74.772C13.9894 75.132 14.8474 75.314 15.8644 75.238C21.9824 74.78 26.7004 77.822 32.2874 76.954C32.7654 74.512 33.3444 72.384 34.1234 70.403C33.7304 69.325 33.5644 67.359 34.7094 63.221Z" fill="#878286"/>
<path d="M34.9555 72.118C34.9635 72.07 34.9625 72.025 34.9595 71.981C34.9335 72.206 34.9285 72.291 34.9555 72.118Z" fill="#A5A0A4"/>
<path d="M45.1933 58.587C48.7573 56.289 53.2433 55.845 56.6813 53.401C57.8473 52.572 58.6333 51.582 58.5623 50.102C58.5113 49.029 58.0893 48.034 57.8483 47C57.5353 45.656 57.5743 44.333 57.5903 42.962C57.6203 40.383 57.0783 39.121 55.3623 37.236C53.8323 35.556 53.1493 33.636 52.4603 31.644C50.7713 34.626 49.0733 37.332 48.8243 40.769C48.5663 44.326 47.7603 47.818 43.6483 50.494C40.3893 52.615 35.9593 58.709 34.7103 63.222C33.5653 67.36 33.7313 69.326 34.1253 70.406C34.6923 68.964 35.3633 67.599 36.1933 66.259C39.2133 63.72 41.8613 60.735 45.1933 58.587Z" fill="#A5A0A4"/>
</svg>
