<svg width="81" height="72" viewBox="0 0 81 72" fill="none" xmlns="http://www.w3.org/2000/svg">
<path d="M5.52893 50.6947C6.18093 51.1337 7.44795 50.4067 8.25095 48.5647C12.007 39.9507 12.171 28.5437 18.575 21.6917C20.557 19.5717 19.7739 22.0427 19.6549 22.9467C18.4169 32.3987 21.2119 37.1117 20.9999 45.5257C20.9579 47.1787 19.3439 52.0017 19.1119 53.9897C18.7309 57.2607 18.9129 60.4697 18.2579 63.6747C18.2779 63.6927 18.2949 63.7137 18.3149 63.7317C18.6469 64.0177 18.9979 64.2747 19.3619 64.5117C19.8359 63.8257 20.4249 62.7247 21.2529 60.9707C22.6089 58.0997 24.7319 58.2337 24.5679 58.9087C24.4879 59.4167 24.394 59.9347 24.286 60.4517C24.064 62.0867 24.0179 63.1737 24.2359 64.8267C24.8299 64.7557 27.6569 65.2087 28.333 65.3157C28.846 65.3967 30.858 67.2147 32.4319 68.8087C35.1689 69.5847 37.9069 70.3577 40.6499 71.1107C40.2879 59.8387 38.5509 48.6617 35.3229 37.8427C32.1619 27.2487 26.0719 15.9207 27.7349 1.04468C22.6739 5.89368 13.224 16.7247 8.98896 23.6437C3.82496 32.0797 0.952951 41.6337 0.164951 51.4627C0.114951 52.0907 0.635933 52.6527 1.19693 52.8367C1.77093 51.7247 2.42694 50.7307 2.99994 50.1437C3.62094 49.5097 4.57393 50.0517 5.52893 50.6947Z" fill="#878286"/>
<path d="M28.3338 65.3157C27.6578 65.2087 24.8308 64.7557 24.2368 64.8267C24.0188 63.1737 24.0638 62.0867 24.2868 60.4517C24.3938 59.9347 24.4888 59.4167 24.5688 58.9087C24.7328 58.2327 22.6098 58.0997 21.2538 60.9707C20.4258 62.7247 19.8368 63.8257 19.3628 64.5117C21.8448 66.1257 24.9928 66.7047 27.7798 67.4907C29.3308 67.9287 30.8818 68.3687 32.4328 68.8087C30.8588 67.2147 28.8468 65.3967 28.3338 65.3157Z" fill="#6D696D"/>
<path d="M12.0268 56.4827C14.9208 58.1847 15.8178 61.5357 18.2578 63.6757C18.9128 60.4697 18.7318 57.2617 19.1118 53.9907C19.3438 52.0027 20.9588 47.1797 20.9998 45.5267C21.2108 37.1137 18.4168 32.3997 19.6548 22.9477C19.7728 22.0447 20.5568 19.5727 18.5748 21.6927C12.1708 28.5447 12.0068 39.9507 8.25076 48.5657C7.44776 50.4077 6.18075 51.1347 5.52875 50.6957C4.57375 50.0517 3.62076 49.5107 3.00076 50.1457C2.42776 50.7327 1.77175 51.7267 1.19775 52.8387C1.20575 52.8417 1.21276 52.8467 1.21976 52.8497C4.70676 53.9227 8.85976 54.6197 12.0268 56.4827Z" fill="#6D696D"/>
<path d="M52.6961 34.9277C54.7601 33.4217 56.9681 32.1537 59.2731 31.0657C62.0811 29.7407 65.9851 27.4827 68.1301 24.7697C68.0531 24.6767 67.9831 24.5737 67.9051 24.4817C59.5781 17.6637 49.5351 10.8637 44.0911 7.55769C39.8251 4.96769 33.0481 0.481695 27.8801 0.903695C27.8341 0.947695 27.7821 0.999694 27.7361 1.04469C26.0731 15.9207 32.1621 27.2487 35.3241 37.8427C36.9291 43.2207 38.1631 48.6867 39.0451 54.2087C40.9791 50.0907 43.4581 45.5897 44.7551 43.5257C46.8431 40.2037 49.5221 37.2437 52.6961 34.9277Z" fill="#999698"/>
<path d="M51.791 20.0237C50.05 18.7447 47.3811 19.0567 45.6701 20.2027C45.2721 19.9387 42.6771 18.6087 42.1171 18.5867C40.5071 18.5217 34.5421 20.1177 32.8531 17.8987C31.6301 16.2917 31.2641 16.5817 31.5441 18.5777C32.1371 22.8017 33.4271 25.8167 36.3801 28.8807C37.0431 29.5687 38.1671 28.6967 39.0431 28.2737C42.8531 26.4357 47.447 23.0147 52.007 23.2077C53.451 21.9557 52.323 20.4147 51.791 20.0237Z" fill="#878286"/>
<path d="M77.9723 42.8137C75.3573 36.8387 72.3133 29.8227 68.1303 24.7697C67.6433 25.3847 67.0583 25.9727 66.4243 26.5367C66.5313 26.6007 66.6263 26.6907 66.6743 26.8037C67.6863 29.2197 69.4443 31.0867 69.3743 33.8417C69.3053 36.5327 67.9693 38.9917 67.1203 41.4787C66.5833 43.0527 66.6753 44.6737 66.3623 46.2847C66.0323 47.9837 65.3783 49.1427 65.7203 50.9547C66.2053 53.5247 67.1393 57.4427 68.3273 60.3557C71.8393 59.1157 75.2883 57.5867 77.8933 55.0267C81.6513 51.3317 79.8243 47.0447 77.9723 42.8137Z" fill="#6D696D"/>
<path d="M55.0119 34.1757C54.7369 34.1597 54.5029 33.8947 54.5779 33.6507C53.9399 34.0587 53.3089 34.4787 52.6949 34.9267C49.5209 37.2427 46.8429 40.2027 44.7539 43.5257C43.4569 45.5897 40.9779 50.0917 39.0439 54.2087C39.9359 59.7957 40.4679 65.4407 40.6499 71.1097H40.6509C44.6539 68.6967 51.3359 66.1667 57.2179 64.1077C56.1899 60.2547 56.283 56.2027 56.183 52.1647C56.038 46.3297 54.0649 40.0037 55.0119 34.1757Z" fill="#6D696D"/>
<path d="M66.4231 26.5357C66.2551 26.4357 66.0501 26.4167 65.8951 26.5977C64.4261 28.3107 61.8801 28.9027 59.9391 29.9437C58.0761 30.9427 56.3521 32.1397 54.7081 33.4637C54.6371 33.5207 54.5991 33.5847 54.5791 33.6507C56.0861 32.6887 57.6541 31.8297 59.2731 31.0657C61.4441 30.0407 64.2621 28.4547 66.4231 26.5357Z" fill="#5B575B"/>
<path d="M66.3606 46.2847C66.6736 44.6737 66.5816 43.0527 67.1186 41.4787C67.9676 38.9907 69.3036 36.5327 69.3726 33.8417C69.4426 31.0867 67.6847 29.2197 66.6727 26.8037C66.6257 26.6907 66.5297 26.6007 66.4227 26.5367C64.2607 28.4557 61.4427 30.0417 59.2717 31.0667C57.6527 31.8307 56.0847 32.6897 54.5777 33.6517C54.5027 33.8957 54.7366 34.1607 55.0116 34.1767C54.0646 40.0047 56.0376 46.3317 56.1836 52.1677C56.2836 56.2047 56.1906 60.2577 57.2186 64.1107C59.1966 63.4177 61.0846 62.7787 62.7486 62.2147C64.5456 61.6057 66.4437 61.0207 68.3247 60.3567C67.1367 57.4437 66.2036 53.5257 65.7176 50.9557C65.3766 49.1437 66.0306 47.9837 66.3606 46.2847Z" fill="#5B575B"/>
<path d="M63.4681 20.9677C61.1661 20.9517 58.8821 20.6547 56.5881 20.8747C53.7091 21.1517 50.8971 22.0067 48.1851 22.9877C45.8601 23.8287 44.0331 25.3807 41.7951 26.2887C38.7331 27.5307 35.6761 25.8987 34.0431 23.9817C32.2511 21.3327 31.5231 15.3267 30.7931 11.7737C30.4331 10.0197 27.4541 3.98169 27.8811 0.904688C26.4601 0.876688 16.8761 11.5237 15.0781 15.1957C17.9601 13.8147 21.6021 6.87768 24.6271 11.3147C26.4781 14.0307 27.4761 19.2527 28.0611 21.9957C29.0001 26.3997 30.7091 33.7967 34.2991 38.8917C35.9181 41.1897 37.3591 46.7807 37.1681 48.5237C36.7521 52.3207 36.7931 55.2737 39.8531 60.1137C40.3721 57.0977 41.7101 55.8987 42.7521 51.2337C43.7081 46.9557 46.9181 43.4007 49.2921 39.9187C52.6961 34.9267 60.1711 31.6377 64.4001 29.2167C65.5871 28.5367 67.9901 27.6887 69.3761 26.3747C67.4591 22.9997 64.9681 22.1307 63.4681 20.9677Z" fill="#A5A0A4"/>
<path d="M67.1671 23.3567C65.5761 22.1067 42.4161 5.03468 38.4791 3.41868C37.0841 2.84668 31.4541 -0.644317 27.0331 1.01668C24.6411 1.91468 21.7501 6.07269 20.0371 8.46869C21.5171 7.24569 24.9501 5.24568 26.7221 5.52268C28.4681 5.79568 29.2561 9.03769 30.0111 10.6667C31.3631 14.9197 31.9521 19.5017 33.5661 23.6517C34.7601 26.7227 37.4021 29.3347 39.4111 30.9567C39.8951 31.3477 41.7071 32.8977 41.1911 35.0717C40.7971 36.7287 40.8121 38.4037 41.3041 40.1667C41.4321 40.6267 41.7061 40.3577 41.8741 39.8987C42.7911 37.3987 42.8701 34.8447 44.2811 32.4197C44.4341 32.1567 44.3551 31.7567 44.0691 31.6127C42.6101 30.8757 44.1301 29.6617 44.9791 28.8627C46.0381 27.8657 46.3481 26.3507 47.5401 25.5237C49.0211 24.4967 53.1891 22.5377 57.2171 23.3157C59.3741 23.7327 60.7651 22.9177 62.7071 23.5237C65.3111 24.3367 68.1891 26.0977 69.3731 26.3747C69.7261 26.1207 67.5981 23.6957 67.1671 23.3567ZM52.2511 21.3157C49.9791 21.8917 43.7181 25.1447 42.7771 25.6147C39.5431 27.2317 36.4591 26.0757 35.1391 23.9317C33.1471 18.6457 32.4971 13.7857 30.3471 8.61868C30.1701 8.12668 29.7471 6.82768 29.5431 6.05868C29.3711 5.40868 29.6711 3.45069 30.3551 3.10769C32.9361 1.81369 39.7581 5.23068 41.4671 6.25868C45.7291 8.82168 56.8431 17.6417 58.3421 18.9267C58.6861 19.2217 58.6451 20.0817 57.8921 20.2597C56.3921 20.6127 54.0821 21.0377 52.2511 21.3157Z" fill="#BCB7BB"/>
</svg>
