<svg width="70" height="57" viewBox="0 0 70 57" fill="none" xmlns="http://www.w3.org/2000/svg">
<path d="M49.9041 37.9004C51.7231 35.0304 57.4801 34.8614 58.2581 31.3254C59.2101 26.9994 60.9381 22.4684 61.0061 16.3124C55.9691 19.3624 49.3141 22.4284 45.5271 24.3414C40.3631 26.9494 34.9481 27.9244 34.0731 34.1984C33.5501 37.9514 33.5601 41.7194 33.3831 45.5014C33.2731 47.8354 34.3661 53.7814 36.3831 55.6544C36.5321 55.7934 36.6941 55.9184 36.8571 56.0424C37.7121 56.0714 38.4981 56.0914 39.1791 56.1094C40.4031 56.1424 42.3461 55.5624 44.6471 54.5724C44.1371 48.1134 47.7411 41.3124 49.9041 37.9004Z" fill="#6D696D"/>
<path d="M65.2253 40.0604C69.7853 33.9374 69.6623 21.2084 68.4253 13.6984C68.2363 12.5504 67.9373 11.5424 67.5703 10.6444C66.9393 12.3034 64.3233 14.3044 61.0073 16.3114C60.9393 22.4674 59.2103 26.9984 58.2593 31.3244C57.4813 34.8604 51.7243 35.0294 49.9053 37.8994C47.7423 41.3114 44.1393 48.1124 44.6483 54.5714C51.5003 51.6214 61.5333 45.0174 65.2253 40.0604Z" fill="#5B575B"/>
<path d="M61.0991 4.13038C55.6411 1.60438 48.5121 1.17537 42.2691 1.29937C39.4941 1.24537 36.7101 1.40837 34.0341 1.59837C25.4201 2.21037 12.1641 5.46237 3.84607 7.77737C0.111072 11.5374 -0.309928 23.6324 0.183072 27.9544C0.385072 29.7234 0.690073 31.3694 1.07307 32.9204C1.75907 31.8344 2.51607 30.7714 2.66907 29.5534C2.18107 26.1264 2.78107 24.6174 3.90407 26.1344C5.93007 28.8714 5.05507 30.8704 9.21907 32.0504C11.1821 32.6064 10.6401 36.6624 10.9421 37.2184C13.1021 41.1964 13.8011 38.3794 15.2621 39.8584C19.2001 43.8444 22.0861 42.0744 26.9031 43.6984C28.5321 44.2474 30.6721 47.3244 33.4771 47.4124C33.3941 46.6614 33.3591 45.9954 33.3831 45.4984C33.5611 41.7174 33.5501 37.9484 34.0731 34.1954C34.9481 27.9214 40.3631 26.9464 45.5271 24.3384C51.8081 21.1664 65.9801 14.8224 67.5691 10.6424C65.8561 6.45838 62.5731 4.81238 61.0991 4.13038Z" fill="#878286"/>
<path d="M15.2622 39.8604C13.8002 38.3814 13.1022 41.1974 10.9422 37.2204C10.6402 36.6654 11.1822 32.6084 9.21924 32.0524C5.05524 30.8734 5.93024 28.8734 3.90424 26.1364C2.78124 24.6194 2.18124 26.1284 2.66924 29.5554C2.51624 30.7734 1.75924 31.8354 1.07324 32.9224C6.23524 53.8734 26.8842 55.7034 36.8572 56.0424C36.6952 55.9184 36.5332 55.7924 36.3832 55.6544C34.7962 54.1804 33.7842 50.1884 33.4772 47.4154C30.6712 47.3274 28.5322 44.2504 26.9032 43.7014C22.0862 42.0764 19.2002 43.8464 15.2622 39.8604Z" fill="#6D696D"/>
<path d="M66.2812 7.77837C62.7512 3.99437 56.1002 1.67638 51.2692 1.11738C36.2892 -0.616625 10.7022 5.05837 3.84717 7.77837C5.26917 11.4044 7.24317 14.7294 9.63417 17.6244C9.59817 17.1004 9.65217 16.5594 9.84717 15.9944C10.0372 15.4434 10.6422 15.0014 11.2292 14.9874C13.8472 12.9674 18.0312 12.5534 21.0402 11.6744C26.3172 10.1324 31.7262 9.11637 36.9822 7.61937C37.7112 7.41137 38.2222 8.08538 38.1122 8.74938C37.8662 10.2414 37.3972 10.8554 36.0312 11.5574C35.2132 11.9774 33.3772 13.2194 34.0972 17.4184C34.7592 21.2804 33.1852 26.1134 33.1322 28.8504C40.3202 28.4434 51.2982 23.5304 60.2072 15.7994C60.8852 15.2114 64.2702 14.1484 64.9472 13.6994C67.5692 11.9594 68.7572 10.4324 66.2812 7.77837Z" fill="#999698"/>
<path d="M34.0954 17.4184C33.3754 13.2194 35.2114 11.9764 36.0294 11.5574C37.3954 10.8564 37.8644 10.2414 38.1104 8.74936C38.2204 8.08536 37.7094 7.41136 36.9804 7.61936C31.7244 9.11736 26.3144 10.1324 21.0384 11.6744C18.0294 12.5534 13.8464 12.9674 11.2274 14.9874C10.6404 15.0014 10.0354 15.4434 9.84541 15.9944C9.65141 16.5594 9.59641 17.1004 9.63241 17.6244C15.2504 24.4284 23.2174 28.8214 32.0694 28.8864C32.4094 28.8894 32.7694 28.8694 33.1294 28.8494C33.1844 26.1134 34.7574 21.2804 34.0954 17.4184Z" fill="#A5A0A4"/>
<path d="M56.9642 16.0994C51.4382 20.8834 42.9362 24.4854 40.9432 25.4994C35.7432 28.1474 31.3682 28.5714 27.9022 27.0194C22.5422 24.6194 18.4612 24.5394 16.7012 22.6994C14.6632 20.5694 11.4642 14.7614 10.5412 13.5794C9.52519 12.2774 6.87319 9.50736 3.84619 7.77936C5.08119 10.7454 5.74119 16.3134 14.6222 23.7404C15.9202 24.8264 18.1382 27.0584 19.6662 27.1224C20.4802 27.3754 25.6992 27.8744 27.5312 28.6894C28.7472 29.2304 30.3892 29.7934 31.4002 32.1694C32.7832 35.4214 32.1342 39.1544 32.0842 40.6204C31.8892 46.2484 31.3432 51.0224 35.2972 54.1504C33.8322 50.7794 34.5142 41.4444 35.1842 34.8814C35.4232 32.5414 36.5182 29.4324 37.9432 29.4654C44.9952 29.6314 47.6042 25.8174 51.0242 23.0604C56.0962 18.9704 57.1442 21.8604 60.2822 19.0224C61.3022 18.1004 62.0692 16.0344 63.0252 15.6194C66.2052 14.2394 67.5502 13.2794 67.6652 10.3674C65.3652 13.4594 60.9852 12.6194 56.9642 16.0994Z" fill="#BCB7BB"/>
<path d="M60.7271 20.2944C59.9331 25.4834 58.9631 30.0974 54.1441 32.6084C51.4381 34.0184 48.1441 39.3804 46.1041 40.7004C41.4011 43.7434 42.6781 49.5814 44.6091 52.9094C45.3841 45.8604 46.8901 44.3914 49.7041 42.1404C52.7041 39.7404 52.9391 35.9374 56.0641 33.9804C61.5021 30.5744 61.7051 25.0994 60.7271 20.2944Z" fill="#878286"/>
</svg>
